<?xml version="1.0" encoding="UTF-8" standalone="no"?>
<svg width="247px" height="82px" viewBox="0 0 247 82" version="1.1" xmlns="http://www.w3.org/2000/svg" xmlns:xlink="http://www.w3.org/1999/xlink">
    <!-- Generator: Sketch 39.1 (31720) - http://www.bohemiancoding.com/sketch -->
    <title>logoFigaroSantéTransparent@3x</title>
    <desc>Created with Sketch.</desc>
    <defs></defs>
    <g id="Page-1" stroke="none" stroke-width="1" fill="none" fill-rule="evenodd">
        <g id="Ouverture" transform="translate(-298.000000, -220.000000)" fill="#FFFFFF">
            <g id="logoFigaroSantéTransparent" transform="translate(298.000000, 220.000000)">
                <g id="Group" transform="translate(54.000000, 41.000000)">
                    <path d="M17.8839928,20.4085958 L17.8839928,17.4870448 C15.6377568,17.0860476 13.6219041,17.0287622 12.4123924,17.0287622 C8.95612592,17.0287622 8.09218902,18.4608951 8.09218902,19.4347455 C8.09218902,20.8101091 9.01424059,21.5543021 12.7579672,22.3568126 C18.2295675,23.5598042 24.9111985,24.9919371 24.9111985,31.6375497 C24.9111985,37.9389343 20.5339182,40.8610014 13.5643083,40.8610014 C8.89904901,40.8610014 3.8876961,40.3454336 0.431948494,39.4861538 L0.431948494,31.5802643 L6.65229418,31.5802643 L6.65229418,34.4445301 C9.07183639,34.9028126 11.3756681,34.9028126 12.7003714,34.9028126 C16.387021,34.9028126 17.4237453,33.1842531 17.4237453,32.1531175 C17.4237453,30.7209846 15.9262547,30.0335608 12.4699882,29.3461371 C5.96114466,28.2572 0.604735874,26.1376434 0.604735874,19.6638867 C0.604735874,13.533842 4.98201617,11.0705734 11.9516261,11.0705734 C16.6744811,11.0705734 20.591514,11.5861413 24.0472616,12.445421 L24.0472616,20.4085958 L17.8839928,20.4085958" id="Fill-2"></path>
                    <path d="M45.6456841,27.5697762 L41.3830765,27.5697762 C37.7545415,27.5697762 35.5653825,28.3717706 35.5653825,31.4084084 C35.5653825,33.9289622 37.5817541,35.1324699 40.0588921,35.1324699 C42.4198008,35.1324699 44.6089598,34.1581035 45.6456841,33.3561091 L45.6456841,27.5697762 L45.6456841,27.5697762 Z M29.9209947,20.4085958 L29.9209947,12.3881357 C34.0102961,11.5861413 38.3304994,11.0705734 41.7867659,11.0705734 C49.1014317,11.0705734 53.1336561,12.9615049 53.1336561,20.6950224 L53.1336561,34.1581035 L56.4742121,34.1581035 L56.4742121,40.2881483 L45.6456841,40.2881483 L45.6456841,37.4233664 L45.5304925,37.4233664 C43.3994481,39.6580098 40.8647144,40.8610014 37.4665625,40.8610014 C32.7431886,40.8610014 28.0779293,38.1685916 28.0779293,32.2676881 C28.0779293,25.2210783 34.5286582,23.1010056 40.4044669,23.1010056 L45.6456841,23.1010056 L45.6456841,21.0960196 C45.6456841,18.1744685 43.8020998,17.2579035 40.0588921,17.2579035 C39.0221678,17.2579035 37.7545415,17.3151888 36.0837446,17.5443301 L36.0837446,20.4085958 L29.9209947,20.4085958 L29.9209947,20.4085958 Z" id="Fill-3"></path>
                    <path d="M76.7468937,34.1581035 L79.6266833,34.1581035 L79.6266833,22.4135818 C79.6266833,19.0910336 78.3595759,17.2579035 75.0190199,17.2579035 C72.6575923,17.2579035 70.4113564,18.5181804 68.9709427,19.4347455 L68.9709427,34.1581035 L71.8507323,34.1581035 L71.8507323,40.2881483 L58.2000104,40.2881483 L58.2000104,34.1581035 L61.4834895,34.1581035 L61.4834895,17.8307566 L58.2000104,17.8307566 L58.2000104,11.6434266 L68.9709427,11.6434266 L68.9709427,15.3674881 L69.0861342,15.3674881 C71.5627534,12.7318476 74.7310409,11.0705734 78.4752863,11.0705734 C84.2348657,11.0705734 87.1146554,14.7941189 87.1146554,20.6950224 L87.1146554,34.1581035 L90.4557303,34.1581035 L90.4557303,40.2881483 L76.7468937,40.2881483 L76.7468937,34.1581035" id="Fill-4"></path>
                    <path d="M93.7371338,16.9714769 L89.8776968,16.9714769 L89.8776968,12.1017091 L93.7371338,11.6434266 L94.6586665,3.62296643 L101.224587,3.62296643 L101.224587,11.6434266 L108.42458,11.6434266 L108.42458,16.9714769 L101.224587,16.9714769 L101.224587,30.7777538 C101.224587,33.4706797 102.377022,34.9028126 105.429599,34.9028126 C106.121267,34.9028126 106.985204,34.8455273 108.079005,34.616386 L108.713078,40.3454336 C107.100396,40.6891455 104.392874,40.8610014 102.837788,40.8610014 C96.2718676,40.8610014 93.7371338,38.1685916 93.7371338,32.0958322 L93.7371338,16.9714769" id="Fill-5"></path>
                    <path d="M129.160622,8.20630769 L123.401043,8.20630769 L126.568812,0.185847552 L133.711209,0.185847552 L129.160622,8.20630769 L129.160622,8.20630769 Z M118.38969,22.8723804 L129.794176,22.8723804 C130.312538,19.721172 129.564312,16.799621 124.840419,16.799621 C120.693522,16.799621 118.735265,19.2056042 118.38969,22.8723804 L118.38969,22.8723804 Z M118.38969,27.5697762 C118.620073,31.8666909 121.211884,34.7309566 126.511216,34.7309566 C128.987835,34.7309566 131.752433,34.616386 135.496678,33.5852503 L136.360615,39.4861538 C132.558774,40.5745748 129.160622,40.8610014 125.416896,40.8610014 C114.357466,40.8610014 110.440433,35.0173832 110.440433,25.9657874 C110.440433,16.9714769 114.357466,11.0705734 125.301704,11.0705734 C137.685319,11.0705734 138.376468,19.5493161 137.166956,27.5697762 L118.38969,27.5697762 L118.38969,27.5697762 Z" id="Fill-6"></path>
                </g>
                <g id="logoFigaroTransparent" fill-opacity="0.8">
                    <path d="M22.6950628,25.7053758 L0.315209205,25.7053758 L0.315209205,21.0930191 L1.89332218,21.0930191 C2.62967155,21.0930191 3.02239121,20.8366051 3.02239121,20.0859363 L3.02239121,9.6740828 C3.02239121,9.00492994 2.88648954,8.58187261 1.9930523,8.58187261 L0.315209205,8.58187261 L0.315209205,3.95042675 L13.8485356,3.95042675 L13.8485356,8.58187261 L12.1867113,8.58187261 C11.3971381,8.58187261 11.1553054,8.88265605 11.1553054,9.6740828 L11.1553054,20.1070892 C11.1553054,20.6070191 11.5702448,21.073414 12.2445858,21.073414 L16.1480126,21.073414 C16.6637155,21.073414 17.2925837,20.709172 17.2925837,19.9750127 L17.2925837,16.240242 L22.6950628,16.240242 L22.6950628,25.7053758" id="Fill-2"></path>
                    <path d="M47.3129017,25.7053758 L25.052931,25.7053758 L25.052931,21.0930191 L26.2553766,21.0930191 C26.8981967,21.0930191 27.3234707,20.823707 27.3234707,20.1741592 L27.3234707,9.72103185 C27.3234707,9.01989172 27.2159895,8.58187261 26.323069,8.58187261 L25.052931,8.58187261 L25.052931,3.95042675 L47.3129017,3.95042675 L47.3129017,10.9380955 L41.7419665,10.9380955 L41.7419665,9.77675159 C41.7419665,9.06632484 41.3905858,8.58187261 40.3075063,8.58187261 L35.4558682,8.58187261 L35.4558682,12.5070191 L40.6976423,12.5070191 L40.6976423,16.7241783 L35.4558682,16.7241783 L35.4558682,21.073414 L40.5343536,21.073414 C41.2045607,21.073414 41.7419665,20.6606752 41.7419665,19.8826624 L41.7419665,18.6960382 L47.3129017,18.6960382 L47.3129017,25.7053758" id="Fill-3"></path>
                    <path d="M72.5735607,25.7053758 L58.3937971,25.7053758 L58.3937971,21.0930191 L60.2700669,21.0930191 C60.8105732,21.0930191 61.1877908,20.7236178 61.1877908,20.1741592 L61.1877908,9.72103185 C61.1877908,9.06632484 61.0823766,8.58187261 60.1868724,8.58187261 L58.3937971,8.58187261 L58.3937971,3.95042675 L81.1772218,3.95042675 L81.1772218,10.9380955 L75.6062866,10.9380955 L75.6062866,9.75353503 C75.6062866,9.12101274 75.219251,8.58187261 74.366636,8.58187261 L69.3196715,8.58187261 L69.3196715,12.5070191 L73.9904519,12.5070191 L73.9904519,16.7241783 L69.3196715,16.7241783 L69.3196715,19.8687325 C69.3196715,20.736 69.6896548,21.0930191 70.804772,21.0930191 L72.5735607,21.0930191 L72.5735607,25.7053758" id="Fill-4"></path>
                    <path d="M96.7862782,25.7053758 L83.3289121,25.7053758 L83.3289121,21.0930191 L85.0134728,21.0930191 C85.5855,21.0930191 86.0722657,20.9165732 86.0722657,20.1107006 L86.0722657,9.6740828 C86.0722657,8.99822293 85.9410146,8.58187261 85.0449937,8.58187261 L83.3289121,8.58187261 L83.3289121,3.95042675 L96.7862782,3.95042675 L96.7862782,8.58187261 L95.1094686,8.58187261 C94.3260962,8.58187261 94.079613,8.85324841 94.079613,9.6740828 L94.079613,20.0843885 C94.079613,20.8298981 94.4862845,21.0930191 95.1389226,21.0930191 L96.7862782,21.0930191 L96.7862782,25.7053758" id="Fill-5"></path>
                    <path d="M111.017199,26.0876752 C102.689475,26.0876752 98.3147845,21.269465 98.3147845,14.3947834 C98.3147845,9.8273121 101.842544,3.62333121 110.312887,3.62333121 C115.056527,3.62333121 117.103837,5.58332484 117.103837,5.58332484 L117.103837,3.95042675 L121.869697,3.95042675 L121.869697,11.6000255 L117.082134,11.6000255 C117.082134,11.6000255 115.701414,8.25168153 111.833126,8.25168153 C108.926483,8.25168153 106.674029,10.3705796 106.674029,14.3008854 C106.674029,20.9459809 110.297385,21.5078217 111.880149,21.5078217 C115.098383,21.5078217 115.838349,19.1959682 115.838349,18.265758 L112.844895,18.265758 L112.844895,14.2544522 L123.161538,14.2544522 C123.161538,14.2544522 123.13105,15.8873503 123.113998,17.0528217 C123.107797,17.6115669 122.577109,26.0876752 111.017199,26.0876752" id="Fill-6"></path>
                    <path d="M149.594155,25.7053758 L137.390908,25.7053758 L137.390908,21.3169299 L138.587153,21.3169299 C139.047048,21.3169299 139.823703,21.0414268 139.586521,20.2979809 C139.275446,19.3177261 138.932333,18.2378981 138.932333,18.2378981 L132.773868,18.2378981 C132.773868,18.2378981 132.364096,19.4312293 132.133115,20.1922166 C131.935205,20.8433121 132.066456,21.3169299 132.673621,21.3169299 L134.076561,21.3169299 L134.076561,25.7053758 L123.940776,25.7053758 L123.940776,21.0930191 L125.140638,21.0930191 C125.97155,21.0930191 126.449015,20.7865605 126.76164,20.0188662 C127.028276,19.3584841 132.645718,3.95042675 132.645718,3.95042675 L140.934686,3.95042675 C140.934686,3.95042675 146.161992,17.8143248 146.618787,18.9163376 C147.171178,20.2603185 147.451249,21.0930191 148.375174,21.0930191 L149.594155,21.0930191 L149.594155,25.7053758 M137.977404,15.2517325 L137.977404,15.2517325 L135.955414,8.85789172 L135.883071,8.85789172 L133.770136,15.2517325 L137.977404,15.2517325" id="Fill-7"></path>
                    <path d="M178.478686,25.7053758 L170.363341,25.7053758 L165.06886,16.5281274 L162.178753,16.5281274 L162.178753,20.041051 C162.178753,20.5879299 162.289335,21.0930191 163.19259,21.0930191 L164.514918,21.0930191 L164.514918,25.7053758 L151.567054,25.7053758 L151.567054,21.0930191 L152.973094,21.0930191 C153.979697,21.0930191 154.047389,20.4666879 154.047389,20.0100955 L154.047389,9.6740828 C154.047389,9.03898089 153.924923,8.58187261 153.018567,8.58187261 L151.567054,8.58187261 L151.567054,3.95042675 L166.264071,3.95042675 C167.093433,3.95042675 170.179383,4.13873885 171.606092,4.51329936 C173.035385,4.88682803 176.396755,6.33038217 176.396755,10.3865732 C176.396755,14.4417325 172.619929,15.5148535 172.619929,15.5148535 C172.619929,15.5148535 175.196893,19.5689809 175.612866,20.1272102 C176.026772,20.688535 176.163707,21.0930191 176.993586,21.0930191 L178.478686,21.0930191 L178.478686,25.7053758 M162.178753,8.28985987 L162.178753,12.7665287 L165.112782,12.7665287 C166.891906,12.7665287 167.968785,12.0272102 167.968785,10.5723057 C167.968785,8.62056688 166.306444,8.28985987 165.379418,8.28985987 L162.178753,8.28985987" id="Fill-8"></path>
                    <path d="M190.349155,26.0856115 C182.668385,26.0856115 178.160377,21.1244904 178.160377,14.6279809 C178.160377,9.73031847 181.427701,3.62333121 190.441651,3.62333121 C197.449113,3.62333121 202.583406,7.86525478 202.583406,14.9060637 C202.583406,22.3059554 197.194362,26.0856115 190.349155,26.0856115 M190.354839,8.19802548 C187.934962,8.19802548 186.519105,10.5196815 186.519105,14.2498089 C186.519105,20.3160382 188.604136,21.5078217 190.587887,21.5078217 C192.579906,21.5078217 194.31614,20.0178344 194.31614,14.6775096 C194.31614,9.74012102 192.640364,8.19802548 190.354839,8.19802548" id="Fill-9"></path>
                    <path d="M220.911013,29.6738599 C220.406678,29.6738599 219.801063,29.6434204 219.084866,29.524242 C217.938745,29.3111656 217.43596,29.1630955 216.218529,28.5553376 L217.867952,25.7156943 C219.371138,26.3812357 220.120923,26.5922484 221.089287,26.5922484 C222.738192,26.5922484 224.060004,25.1409554 224.491996,22.875535 L226.639036,10.9654395 L223.273015,10.9654395 L223.768048,8.21350318 L227.212096,8.24807006 L227.713331,5.58487261 C228.357184,2.14211465 231.148077,0.0861592357 235.121264,0.0861592357 L235.241146,0.0861592357 C235.639033,0.0861592357 236.066374,0.0887388535 236.553657,0.147038217 C237.256418,0.227522293 238.246485,0.364242038 239.439113,0.748089172 L238.932195,3.89161146 C237.035255,3.19459873 236.339728,2.92735032 235.053571,2.92735032 C233.081705,2.92735032 232.078203,4.01543312 231.543381,6.70752229 L231.256075,8.24807006 L234.586441,8.24807006 L234.083657,10.9654395 L230.719186,10.9654395 L228.49877,23.0550764 C228.213015,24.597172 227.459613,26.3208726 226.639036,27.3181529 C225.492397,28.7369427 223.239427,29.6738599 220.911013,29.6738599" id="Fill-10"></path>
                    <path d="M239.496471,21.2823631 L235.642651,21.2823631 L238.029973,8.3342293 L241.34277,8.38272611 L240.72837,12.1825032 C241.018776,11.7434522 241.242523,11.4163567 241.373774,11.1970892 C241.892577,10.4876943 242.474423,9.80409554 243.089339,9.22884076 C243.771431,8.57258599 244.419935,8.29863057 245.32319,8.29863057 C245.81099,8.29863057 246.103979,8.40903822 246.684791,8.73716561 L245.19659,12.4564586 C244.938738,12.318707 244.805937,12.291879 244.58064,12.291879 C244.029282,12.291879 243.477925,12.5353949 242.798933,13.1410892 C241.989724,13.8215924 241.373774,14.6155987 240.92163,15.5716051 C240.468969,16.4724076 240.240571,17.2354586 239.919161,18.9870191 L239.496471,21.2823631" id="Fill-11"></path>
                    <path d="M212.481492,18.5856306 C210.445033,18.5856306 208.793027,16.9166178 208.793027,14.8549873 C208.793027,12.7918089 210.445033,11.1186688 212.481492,11.1186688 C214.5195,11.1186688 216.169956,12.7918089 216.169956,14.8549873 C216.169956,16.9166178 214.5195,18.5856306 212.481492,18.5856306" id="Fill-12"></path>
                </g>
            </g>
        </g>
    </g>
</svg>