<svg xmlns="http://www.w3.org/2000/svg" width="58.293" height="58.294" viewBox="0 0 58.293 58.294"><path fill="#010202" d="M29.146 0c-16.07 0-29.146 13.076-29.146 29.148 0 16.07 13.075 29.146 29.146 29.146 16.072 0 29.147-13.075 29.147-29.146 0-16.072-13.075-29.148-29.147-29.148zm0 57.556c-15.664 0-28.406-12.744-28.406-28.408 0-15.665 12.74-28.41 28.405-28.41 15.665 0 28.41 12.745 28.41 28.41 0 15.664-12.745 28.408-28.41 28.408zm14.349-30.974c-1.873 0-3.483-1.375-4.193-3.337h3.93v-1h-4.2c-.074-.398-.117-.81-.117-1.235 0-.617.086-1.21.24-1.765h5.076v-1h-4.707c.79-1.676 2.273-2.81 3.973-2.81 1.556 0 2.993.95 3.846 2.54l.805-.432c-1.014-1.893-2.752-3.022-4.65-3.022-2.192 0-4.083 1.528-4.964 3.725h-2.304v1h1.98c-.133.562-.21 1.152-.21 1.764 0 .422.037.834.103 1.234h-2.873v1h3.113c.773 2.477 2.787 4.25 5.15 4.25 1.995 0 3.837-1.276 4.81-3.33l-.827-.392c-.82 1.733-2.345 2.81-3.98 2.81zm-11.265-11.337h-7.638c-.176 0-.176 0-8.13 5.027l-.232.147v9.793l7-3.9v10.93h-7v8h23v-8h-7v-21.996zm6 23v6h-21v-6h7v-13.635l-7 3.9v-7.54c2.817-1.78 6.796-4.29 7.5-4.726h6.5v22h7z"/></svg>