<svg xmlns="http://www.w3.org/2000/svg" width="527.096" height="208.748" viewBox="0 0 527.096 208.748"><path fill="#003883" d="M120.998 193.826h.124l-1.364 13.27H90.435v-.126c2.23-1.673 2.48-3.1 2.48-7.19v-28.767c0-4.09-.25-5.517-2.48-7.19v-.126h23.87c2.23 0 3.655-.186 4.523-.557l1.487 12.646h-.124c-3.223-6.51-6.137-10.602-13.576-10.602h-1.24v18.537h.932c5.02 0 6.633-1.364 8.555-7.13h.125v15.498h-.124c-1.92-5.7-3.532-6.88-8.554-6.88h-.93v20.395h1.486c7.503 0 10.85-4.584 14.136-11.777zm25.73-14.51c-4.647-2.044-8.987-3.718-8.987-8.74 0-3.595 2.543-6.26 6.015-6.26 5.704 0 9.052 5.456 11.842 12.087h.124l-.495-13.328c-.807.93-1.923 1.55-3.1 1.55-2.42 0-4.898-1.55-8.93-1.55-8.184 0-14.383 5.208-14.383 13.515 0 7.563 5.084 10.788 10.23 13.27 5.207 2.54 10.415 4.4 10.415 9.546 0 4.465-2.542 7.066-6.82 7.066-5.27 0-10.228-6.385-13.887-14.506h-.124l.868 15.746c1.24-1.054 2.418-1.61 3.844-1.61 2.294 0 5.208 1.61 9.67 1.61 8.062 0 14.942-5.332 14.942-13.95 0-9.113-5.826-11.963-11.22-14.445zM85.41 206.97v.125H70.16c-1.055-1.86-1.55-3.906-1.86-6.697l-.868-8.184c-.373-3.35-1.984-5.21-5.208-5.21H61.17v12.772c0 4.09.31 5.517 2.54 7.19v.125H46.23v-.124c2.23-1.672 2.478-3.098 2.478-7.19V171.01c0-4.09-.248-5.517-2.48-7.19v-.124h19.715c9.176 0 16.058 3.285 16.058 11.717 0 7.13-6.446 10.602-13.7 10.602 6.51.373 10.91 2.975 11.655 8.493l.683 4.897c.557 4.093 1.55 5.828 4.772 7.565zm-16.12-31.617c0-6.015-2.54-10.045-7.004-10.045H61.17v20.088h1.116c4.277 0 7.005-3.844 7.005-10.043zm95.668-11.534c2.23 1.674 2.48 3.1 2.48 7.19v28.766c0 4.093-.25 5.52-2.48 7.19v.125h17.42v-.124c-2.17-1.674-2.478-3.1-2.478-7.19V171.01c0-4.093.31-5.52 2.48-7.19v-.124h-17.422v.123zM39.532 176.836c0 8.186-6.263 13.206-15.562 13.206h-4.278v9.795c0 4.03.93 5.396 3.658 7.13v.124H4.814v-.125c2.17-1.672 2.48-3.098 2.48-7.19V171.01c0-4.09-.31-5.516-2.48-7.19v-.123h19.033c9.424 0 15.685 5.02 15.685 13.14zm-11.903.002c0-6.51-2.295-11.655-6.882-11.655h-1.055v23.31h1.055c4.587 0 6.88-5.145 6.88-11.656zm86.983-25.607H103.33c0 4.217-.56 6.82-2.107 10.727h.372c6.943-1.674 10.972-5.022 13.018-10.727zM203.04 22.105c-20.032 0-27.726 23.71-27.726 48.052 0 24.343 5.004 48.62 27.517 48.327 20.08-.262 27.517-23.982 27.517-48.327 0-24.343-6.774-48.052-27.306-48.052zm140.907 141.59h-26.162c-2.17 0-3.596-.185-4.463-.558l-1.365 16.926h.125c4.154-10.105 6.943-15.004 12.15-15.004h.438v34.843c0 4.092-.744 5.207-3.475 7.065v.125H340.6v-.125c-2.79-1.858-3.47-2.976-3.47-7.065V165.06h.433c5.146 0 7.998 4.898 12.15 15.004h.125l-1.305-16.926c-.928.373-2.353.558-4.586.558zm90.647 41.91h-1.24V171.01c0-4.093.31-5.52 2.54-7.19v-.124h-17.48v.123c2.23 1.674 2.48 3.1 2.48 7.19v28.766c0 4.093-.25 5.52-2.48 7.19v.125h28.892l.93-14.94h-.125c-3.537 9.117-7.69 13.454-13.516 13.454zm-37.51 0h-1.487v-20.397h.93c5.02 0 6.633 1.18 8.555 6.88h.125V176.59h-.125c-1.922 5.767-3.53 7.132-8.555 7.132h-.93v-18.537h1.24c7.438 0 10.354 4.092 13.574 10.602h.126l-1.486-12.646c-.87.372-2.295.558-4.525.558h-23.87v.125c2.233 1.675 2.48 3.1 2.48 7.19v28.767c0 4.093-.247 5.52-2.48 7.19v.126h29.325l1.363-13.27h-.123c-3.288 7.193-6.635 11.778-14.135 11.778zm73.966 0h-1.24V171.01c0-4.093.31-5.52 2.54-7.19v-.124h-17.48v.123c2.23 1.674 2.48 3.1 2.48 7.19v28.766c0 4.093-.25 5.52-2.48 7.19v.125h28.892l.93-14.94h-.125c-3.538 9.117-7.69 13.454-13.517 13.454zm50.837-11.78c-3.287 7.19-6.635 11.78-14.135 11.78h-1.488v-20.397h.93c5.02 0 6.633 1.18 8.555 6.88h.124V176.59h-.125c-1.923 5.767-3.532 7.132-8.556 7.132h-.93v-18.537h1.24c7.438 0 10.354 4.092 13.574 10.602h.125l-1.486-12.646c-.87.372-2.295.558-4.525.558h-23.87v.125c2.233 1.675 2.48 3.1 2.48 7.19v28.767c0 4.093-.247 5.52-2.48 7.19v.126h29.325l1.363-13.27h-.123zM356.534 163.82c2.232 1.674 2.48 3.1 2.48 7.19v28.766c0 4.093-.248 5.52-2.48 7.19v.125h17.422v-.124c-2.17-1.674-2.48-3.1-2.48-7.19V171.01c0-4.093.312-5.52 2.48-7.19v-.124h-17.422v.123zm-129.702 21.45c0 14.94-9.608 21.822-21.45 21.822h-16.306v-.125c2.23-1.672 2.48-3.098 2.48-7.19V171.01c0-4.09-.248-5.516-2.48-7.19v-.123h15.933c12.274 0 21.822 6.88 21.822 21.574zm-13.392 0c0-.947-.018-1.852-.047-2.733-.08-2.454-.27-4.647-.572-6.584l-.007-.06c-.02-.12-.042-.23-.062-.347-.94-5.635-2.863-8.988-5.8-9.983-.623-.21-1.29-.316-2.003-.316h-.93v40.297h1.054c4.904 0 7.654-5.028 8.248-15.59.04-.704.07-1.433.09-2.187.02-.804.032-1.636.032-2.496zm36.952 20.334h-1.488v-20.396h.93c5.022 0 6.634 1.18 8.557 6.88h.125V176.59h-.124c-1.922 5.767-3.533 7.132-8.555 7.132h-.93v-18.537h1.24c7.437 0 10.353 4.092 13.576 10.602h.125l-1.488-12.646c-.868.372-2.293.558-4.524.558h-23.87v.125c2.232 1.675 2.48 3.1 2.48 7.19v28.767c0 4.093-.248 5.52-2.48 7.19v.126h29.325l1.363-13.27h-.123c-3.286 7.193-6.633 11.778-14.135 11.778zm46.496-41.787h.003v.002c2.853 1.735 3.907 3.905 3.907 10.85v12.645l-13.393-23.62H271.72v.124c2.23 1.673 2.48 3.1 2.48 7.19v27.59c0 4.275-1.057 6.758-3.226 8.37v.124h9.175v-.125c-2.854-1.737-3.906-3.907-3.906-10.852v-26.35l21.39 37.507h5.145v-35.09c0-4.276 1.052-6.758 3.284-8.37v-.124h-9.176v.127z"></path><path fill="#FFF" d="M188.19 57.713h-1.73c-2.176 0-3.23 1.053-3.23 3.228v6.186h3.296v-5.81c0-.41.204-.613.646-.613h.203c.408 0 .61.204.61.612v4.825c0 .543-.135 1.053-.543 1.665l-3.023 4.927c-.952 1.427-1.258 2.31-1.258 3.67v5.2h8.257v-3.127h-4.826v-2.073c0-.543.103-1.053.545-1.7l3.022-4.892c1.02-1.495 1.29-2.55 1.29-3.976V60.94c0-2.173-1.12-3.227-3.26-3.227zm12.912-.102h-2.142c-2.142 0-3.23 1.088-3.23 3.23v17.737c0 2.14 1.088 3.23 3.23 3.23h2.142c2.175 0 3.23-1.088 3.23-3.23V60.84c-.002-2.14-1.056-3.23-3.23-3.23zm-.238 20.594c0 .408-.203.61-.61.61h-.44c-.44 0-.647-.203-.647-.61v-16.99c0-.41.204-.613.646-.613h.44c.408 0 .61.205.61.613v16.99zm9.683-20.05c-.544.75-1.054 1.088-1.835 1.19l-.204.034v2.413h1.495v19.812h3.397V57.747h-2.515l-.338.408zm7.168-.34v3.093h3.976l-3.16 20.695h3.5l3.025-20.185v-3.602h-7.34z"></path><path fill="#e0001b" d="M103.77 20.2c0-10.675-4.976-17.495-13.75-17.495-7.314 0-13.606 6.227-13.606 13.936 0 5.34 3.073 10.088 6.292 12.46 5.852 4.15 8.483 8.594 8.483 13.635 0 5.634-4.254 11.112-10.105 15.857-2.207 1.678-4.766 2.923-7.69 4.11v1.838c17.293-3.766 30.374-30.997 30.374-44.34M95.93 136.11l9.917-43.536h-1.6c-9.65 20.515-25.46 40.954-45.85 40.954H33.568V25.348c0-12.772 4.202-18.12 12.94-21.99V1.47H.08v1.62c8.738 3.872 14.3 9.486 14.3 22.26v86.823c0 12.773-5.643 18.59-14.38 22.46v1.478h95.932zM246.23 71.38c0 38.3-11.48 64.867-43.07 65.28-35.42.462-43.514-26.98-43.514-65.28S171.64 3.806 203.16 3.806c32.3 0 43.07 29.274 43.07 67.574m24.904 0c0-41.89-32.845-70.09-67.977-70.09s-67.98 28.2-67.98 70.09 32.848 67.796 67.98 67.796 67.977-25.905 67.977-67.796m112.372 28.974c0 21.004-12.46 33.073-34.56 33.073H322.32V68.844h26.625c22.1 0 34.56 10.506 34.56 31.51M345.68 65.35h-23.357V4.495h23.356c19.793 0 33.314 10.676 33.314 30.32S365.474 65.35 345.68 65.35m14.22.58c19.408-1.75 38.15-12.447 38.15-31.117C398.052 9.14 375.466 1 347.794 1H285.93v1.284c9.224 3.89 17.435 2.03 17.06 22.61v86.35c.065 21.858-7.836 19.722-17.06 23.612v1.283h65.897c31.133 0 51.31-9.727 51.31-35.788 0-22.947-23.828-33.643-43.238-34.42m161.246-39.065c0-14.41-18.417-25.577-38.87-25.577-36.312 0-50.977 18.64-49.862 37.43 2.278 38.41 77.264 29.95 77.264 64.892 0 17.767-11.207 31.78-35.565 32.116-5.648.01-12.134.826-23.887-5.437 3.795-3.04 6.965-5.762 6.796-15.027-.155-8.486-5.693-16.78-15.104-16.78-4.907 0-10.176 4.993-10.176 12.1 0 14.213 19.21 27.514 42.37 27.514 27.204 0 52.983-13.955 52.983-41.79 0-43.036-75.97-35.233-75.97-63.858 0-16.78 12.23-29.044 30.925-28.708 10.33.185 15.446 2.243 19.597 4.39-2.045 3.948-3.613 10.05-3.613 13.997 0 8.29 4.784 16.417 13.784 16.417 4.91 0 9.328-4.77 9.328-11.68"></path></svg>