<svg xmlns="http://www.w3.org/2000/svg" width="502.5" height="218.2" viewBox="0 0 502.5 218.2"><path fill="currentColor" d="M0 2.4h41.6c35.3 0 58.6 15.6 58.6 60.6 0 18-5.1 42-21.6 52.2l21.9 100.7h-37.3l-17.4-91.7h-8.8v91.7h-37v-213.5zm37 90.5h7.4c13.7 0 18.8-14.4 18.8-29.7 0-23.1-8-29.7-20.5-29.7h-5.7v59.4zm157.7 122.9h-33v-14.4h-.6c-7.7 8.4-17.4 16.8-28.5 16.8-15.1 0-24.5-12.3-24.5-31.2v-121.6h33v109.1c0 11.4 3.7 15 9.4 15 4.6 0 8.8-2.7 11.1-5.7v-118.4h33v150.4zm46.7-64.4v6.6c0 26.1 6 31.5 12.8 31.5 12 0 14.2-10.5 17.4-20.7l23.1 7.2c-4.8 28.2-20.2 42.3-42.7 42.3-25.9 0-45.8-20.7-45.8-77.6 0-57 19.9-77.6 45.8-77.6 33.3.3 42.1 43.2 42.1 73.1v15.3h-52.7zm21.4-27v-4.2c0-21.9-3.1-30.3-11.1-30.3-7.4 0-10.2 7.2-10.2 30.3v4.2h21.3z"/><path fill="#E32125" d="M329.1 111.8c-14.2-12.9-24.5-34.2-24.5-54.3 0-30.5 15.1-57.5 46.7-57.5 25.6 0 41.3 23.7 41.3 48.6 0 22.5-8 36.6-25.1 49.8 16.5 18 31 36 31 62.7 0 26.4-14.5 57.3-51 57.3-30.7 0-48.1-23.1-48.1-54 .1-23.2 12.6-39.7 29.7-52.6zm18.8 79.5c8 0 17.7-6.3 17.7-24.6 0-18-11.4-28.8-23.3-41.1-6 8.1-11.4 24.9-11.4 38.7-.1 22.5 8.7 27 17 27zm5.7-107.4c6.5-9.9 11.7-21.9 11.7-33.9 0-9.9-3.4-21.3-15.4-21.3-8.8 0-13.9 9.6-13.9 17.4-.1 13.9 7.6 30.3 17.6 37.8zm85.7 76.2c1.4 19.2 2.6 29.4 10.8 29.4 13.4 0 13.9-26.4 16.2-69.3h-.6c-6 9.6-13.7 15-25.3 15-16.5 0-34.7-15.6-34.7-60.3 0-48.3 20.5-74.9 47.5-74.9 25.6 0 49.3 16.2 49.3 100.4 0 86.6-22.5 117.8-53 117.8-29.6 0-40.1-28.5-41.6-55.5l31.4-2.6zm26.2-89c-.3-25.2-2.6-42.3-12.2-42.3-9.1 0-12.2 9-12.2 41.7 0 29.7 6.3 36 13.1 36 6 0 10-3.6 11.4-5.7v-29.7z"/></svg>