<svg xmlns="http://www.w3.org/2000/svg" xmlns:xlink="http://www.w3.org/1999/xlink" width="691.032" height="105" viewBox="0 0 691.032 105"><defs><path id="a" d="M0 0h691.032v105H0z"/></defs><clipPath id="b"><use xlink:href="#a" overflow="visible"/></clipPath><path clip-path="url(#b)" fill="#FFC50B" d="M691.032 46.566c0 6.774-5.492 12.267-12.268 12.267-6.773 0-12.264-5.492-12.264-12.267 0-6.773 5.49-12.266 12.264-12.266 6.776 0 12.268 5.493 12.268 12.266m0 46.166c0 6.774-5.492 12.268-12.268 12.268-6.773 0-12.264-5.493-12.264-12.268 0-6.773 5.49-12.267 12.264-12.267 6.776.001 12.268 5.494 12.268 12.267"/><path clip-path="url(#b)" fill="#FFF" d="M53.899 19.6c-1.54-.42-3.78-.7-5.46-.7-4.479 0-7.979 1.26-10.22 3.92-1.54 1.96-2.52 4.48-2.52 10.78v2.1h21v15.399h-21V103.6H17.5V51.099H0V35.7h17.5v-2.8c0-10.92 2.52-17.5 7.28-22.12 4.761-4.62 11.9-7.98 21.14-7.98 3.64 0 7 .28 10.78 1.26L53.899 19.6zm52.5 32.199c-1.261-.42-3.92-.7-6.58-.7-7.981 0-14.28 5.74-16.521 9.8v42.7H65.1v-67.9h17.5v6.86c4.06-5.04 11.48-8.26 19.739-8.26 2.661 0 4.201.28 6.161.56l-2.101 16.94zm73.498 51.801h-17.5v-5.461c-5.599 4.76-12.04 6.859-18.899 6.859-10.08 0-19.601-4.479-25.62-11.479-5.321-6.16-8.68-14.56-8.68-23.8 0-20.02 14.84-35.42 33.319-35.42 7.701 0 14.561 2.52 19.88 6.86V35.7h17.5v67.9zm-18.2-44.101c-3.779-5.039-9.8-8.399-16.8-8.399-10.639 0-17.5 8.82-17.5 18.62 0 10.64 7.7 18.479 17.92 18.479 6.86 0 12.88-3.359 16.38-8.4v-20.3zm33.6 44.101V35.7h17.5v5.46c5.18-4.2 11.619-6.86 19.18-6.86 9.38 0 17.92 4.2 23.519 10.92 4.481 5.32 7 12.18 7 23.8v34.58h-18.2V67.62c0-6.72-1.54-10.22-4.06-12.739-2.379-2.38-6.019-3.781-10.219-3.781-7.7 0-14 4.901-16.521 8.401v44.1h-18.199zm142.799-13.861c-7.98 10.64-18.061 15.26-30.8 15.26-21 0-36.4-15.68-36.4-35.279 0-19.74 15.82-35.42 36.54-35.42 11.76 0 22.26 5.46 28.56 13.58l-12.88 11.34c-3.64-4.761-9.1-8.121-15.68-8.121-10.5 0-18.34 8.26-18.34 18.621 0 10.64 7.7 18.479 18.76 18.479 7.42 0 13.3-4.48 16.24-8.96l14 10.5zm66.219 3.08c-6.581 7.84-17.36 12.18-27.86 12.18-20.301 0-35.56-14-35.56-35.279 0-18.9 12.88-35.42 33.04-35.42 18.76 0 32.06 15.82 32.06 34.72 0 1.821-.141 3.64-.42 5.18h-47.039c.979 9.52 8.68 16.1 18.34 16.1 7.699 0 13.859-4.34 17.08-7.84l10.359 10.359zm-16.94-31.92c-.56-6.02-6.021-11.9-13.44-11.9-7.56 0-13.72 5.74-14.56 11.9h28zm37.518-60.9c6.58 0 11.9 5.041 11.9 11.621s-5.32 11.619-11.9 11.619c-6.578 0-11.899-5.039-11.899-11.619s5.32-11.621 11.899-11.621m9.1 103.601h-18.2V35.7h18.2v67.9zm15.4 0V35.7h17.5v5.46c5.181-4.2 11.62-6.86 19.18-6.86 9.381 0 17.92 4.2 23.521 10.92 4.479 5.32 7 12.18 7 23.8v34.58h-18.2V67.62c0-6.72-1.54-10.22-4.06-12.739-2.38-2.38-6.021-3.781-10.22-3.781-7.701 0-14 4.901-16.521 8.401v44.1h-18.2zm126-84c-1.54-.42-3.779-.7-5.46-.7-4.479 0-7.979 1.26-10.22 3.92-1.54 1.96-2.52 4.48-2.52 10.78v2.1h21v15.399h-21V103.6h-18.2V51.099h-17.5V35.7h17.5v-2.8c0-10.92 2.52-17.5 7.28-22.12 4.76-4.62 11.899-7.98 21.141-7.98 3.639 0 7 .28 10.779 1.26l-2.8 15.54zm40.32 14.699c20.58 0 36.12 15.82 36.12 35.419 0 19.601-15.54 35.28-36.12 35.28-20.579 0-36.119-15.68-36.119-35.28 0-19.599 15.54-35.419 36.119-35.419m0 53.9c10.641 0 17.92-8.26 17.92-18.48s-7.279-18.62-17.92-18.62c-10.64 0-17.92 8.4-17.92 18.62s7.28 18.48 17.92 18.48"/></svg>