<svg id="Layer_1" xmlns="http://www.w3.org/2000/svg" viewBox="0 0 692.8 104.7"><style>.st0{fill:#ffc300}.st1{fill:#323232}</style><circle class="st0" cx="679.6" cy="45" r="12.3"/><circle class="st0" cx="679.6" cy="91.2" r="12.3"/><path class="st1" d="M54.7 18.1c-1.5-.4-3.8-.7-5.5-.7-4.5 0-8 1.3-10.2 3.9-1.5 2-2.5 4.5-2.5 10.8v2.1h21v15.4h-21v52.5H18.3V49.6H.8V34.2h17.5v-2.8c0-10.9 2.5-17.5 7.3-22.1 4.8-4.6 11.9-8 21.1-8 3.6 0 7 .3 10.8 1.3l-2.8 15.5zm52.5 32.2c-1.3-.4-3.9-.7-6.6-.7-8 0-14.3 5.7-16.5 9.8v42.7H65.9V34.2h17.5V41c4.1-5 11.5-8.3 19.7-8.3 2.7 0 4.2.3 6.2.6l-2.1 17zm73.5 51.8h-17.5v-5.5c-5.6 4.8-12 6.9-18.9 6.9-10.1 0-19.6-4.5-25.6-11.5-5.3-6.2-8.7-14.6-8.7-23.8 0-20 14.8-35.4 33.3-35.4 7.7 0 14.6 2.5 19.9 6.9v-5.5h17.5v67.9zM162.5 58c-3.8-5-9.8-8.4-16.8-8.4-10.6 0-17.5 8.8-17.5 18.6 0 10.6 7.7 18.5 17.9 18.5 6.9 0 12.9-3.4 16.4-8.4V58zm33.6 44.1V34.2h17.5v5.5c5.2-4.2 11.6-6.9 19.2-6.9 9.4 0 17.9 4.2 23.5 10.9 4.5 5.3 7 12.2 7 23.8v34.6h-18.2v-36c0-6.7-1.5-10.2-4.1-12.7-2.4-2.4-6-3.8-10.2-3.8-7.7 0-14 4.9-16.5 8.4v44.1h-18.2zm142.8-13.9c-8 10.6-18.1 15.3-30.8 15.3-21 0-36.4-15.7-36.4-35.3 0-19.7 15.8-35.4 36.5-35.4 11.8 0 22.3 5.5 28.6 13.6L324 57.7c-3.6-4.8-9.1-8.1-15.7-8.1-10.5 0-18.3 8.3-18.3 18.6 0 10.6 7.7 18.5 18.8 18.5 7.4 0 13.3-4.5 16.2-9l13.9 10.5zm66.3 3.1c-6.6 7.8-17.4 12.2-27.9 12.2-20.3 0-35.6-14-35.6-35.3 0-18.9 12.9-35.4 33-35.4 18.8 0 32.1 15.8 32.1 34.7 0 1.8-.1 3.6-.4 5.2h-47c1 9.5 8.7 16.1 18.3 16.1 7.7 0 13.9-4.3 17.1-7.8l10.4 10.3zm-17-31.9c-.6-6-6-11.9-13.4-11.9-7.6 0-13.7 5.7-14.6 11.9h28zm37.5-60.9c6.6 0 11.9 5 11.9 11.6s-5.3 11.6-11.9 11.6c-6.6 0-11.9-5-11.9-11.6s5.3-11.6 11.9-11.6zm9.1 103.6h-18.2V34.2h18.2v67.9zm15.4 0V34.2h17.5v5.5c5.2-4.2 11.6-6.9 19.2-6.9 9.4 0 17.9 4.2 23.5 10.9 4.5 5.3 7 12.2 7 23.8v34.6h-18.2v-36c0-6.7-1.5-10.2-4.1-12.7-2.4-2.4-6-3.8-10.2-3.8-7.7 0-14 4.9-16.5 8.4v44.1h-18.2zm126-84c-1.5-.4-3.8-.7-5.5-.7-4.5 0-8 1.3-10.2 3.9-1.5 2-2.5 4.5-2.5 10.8v2.1h21v15.4h-21v52.5h-18.2V49.6h-17.5V34.2h17.5v-2.8c0-10.9 2.5-17.5 7.3-22.1 4.8-4.6 11.9-8 21.1-8 3.6 0 7 .3 10.8 1.3l-2.8 15.5zm40.3 14.7c20.6 0 36.1 15.8 36.1 35.4 0 19.6-15.5 35.3-36.1 35.3s-36.1-15.7-36.1-35.3c0-19.6 15.6-35.4 36.1-35.4zm0 53.9c10.6 0 17.9-8.3 17.9-18.5s-7.3-18.6-17.9-18.6c-10.6 0-17.9 8.4-17.9 18.6 0 10.2 7.3 18.5 17.9 18.5z"/></svg>