<?xml version="1.0" encoding="UTF-8" standalone="no"?>
<svg width="309px" height="49px" viewBox="0 0 309 49" version="1.1" xmlns="http://www.w3.org/2000/svg" xmlns:xlink="http://www.w3.org/1999/xlink">
    <!-- Generator: Sketch 42 (36781) - http://www.bohemiancoding.com/sketch -->
    <title>ÉVASION FISCALE</title>
    <desc>Created with Sketch.</desc>
    <defs></defs>
    <g id="LMFR-Web-Fixed-Grid" stroke="none" stroke-width="1" fill="none" fill-rule="evenodd">
        <g id="calage-tetiere-M-Leaks-Copy" transform="translate(-296.000000, -253.000000)" fill="#2E3942">
            <g id="M-Leaks" transform="translate(180.000000, 234.000000)">
                <g id="Group-2" transform="translate(52.000000, 19.000000)">
                    <g id="Group-3" transform="translate(64.000000, 0.000000)">
                        <path d="M0.35,48 L18,48 L18,42.15 L7.35,42.15 L7.35,31.4 L14.65,31.4 L14.65,25.75 L7.35,25.75 L7.35,17 L17.55,17 L17.55,11 L0.35,11 L0.35,48 Z M4.9,8.75 L9.7,8.75 L14.7,0.8 L8.2,0.8 L4.9,8.75 Z M27.35,48.15 L34.35,48.15 L42.5,11 L36.3,11 L33.15,27.55 C32.45,31.45 31.9,34.1 31.35,39.05 L31.15,39.05 C30.55,34.05 30,31.2 29.3,27.4 L26.2,11 L19.25,11 L27.35,48.15 Z M50.8,39.7 L49.2,48 L43.1,48 L51.3,10.85 L58.3,10.85 L66.5,48 L59.6,48 L58,39.7 L50.8,39.7 Z M57.1,34.85 L56.45,31.5 C55.75,27.55 55.15,24.9 54.5,19.5 L54.3,19.5 C53.7,24.95 53.1,27.45 52.4,31.35 L51.75,34.85 L57.1,34.85 Z M78.8,48.5 C84.95,48.5 89.05,44.55 89.05,38.8 C89.05,28.55 75.55,25.8 75.55,19.5 C75.55,17.65 76.6,16.5 78.4,16.5 C80.7,16.5 81.8,18.5 82.65,22.35 L88.85,20.8 C87.4,14.55 84.85,10.45 78.65,10.45 C72.6,10.45 68.7,14.1 68.7,19.95 C68.7,30.1 82.2,32.85 82.2,39.2 C82.2,41 81.2,42.65 78.85,42.65 C75.95,42.65 74.75,40.2 73.95,36.1 L67.85,37.2 C69.1,43.65 71.5,48.5 78.8,48.5 Z M93,48 L100,48 L100,11 L93,11 L93,48 Z M115.7,48.4 C108.6,48.4 103.8,43 103.8,29.5 C103.8,16 108.6,10.55 115.7,10.55 C122.75,10.55 127.6,16 127.6,29.5 C127.6,43 122.75,48.4 115.7,48.4 Z M115.7,42.35 C119.15,42.35 120.45,38.1 120.45,29.5 C120.45,20.9 119.15,16.8 115.7,16.8 C112.25,16.8 110.9,20.9 110.9,29.5 C110.9,38.1 112.25,42.35 115.7,42.35 Z M131.1,48 L136.6,48 L136.6,22.7 L136.75,22.7 C137.15,24 138.3,27.3 139.3,29.9 L146.55,48 L152.55,48 L152.55,11 L147,11 L147,34 L146.85,34 C146.25,31.85 145.4,29.6 144.4,26.65 L138.45,11 L131.1,11 L131.1,48 Z M166.2,48 L173.2,48 L173.2,31.95 L180.6,31.95 L180.6,26.35 L173.2,26.35 L173.2,17 L183.35,17 L183.35,11 L166.2,11 L166.2,48 Z M186.55,48 L193.55,48 L193.55,11 L186.55,11 L186.55,48 Z M208.15,48.5 C214.3,48.5 218.4,44.55 218.4,38.8 C218.4,28.55 204.9,25.8 204.9,19.5 C204.9,17.65 205.95,16.5 207.75,16.5 C210.05,16.5 211.15,18.5 212,22.35 L218.2,20.8 C216.75,14.55 214.2,10.45 208,10.45 C201.95,10.45 198.05,14.1 198.05,19.95 C198.05,30.1 211.55,32.85 211.55,39.2 C211.55,41 210.55,42.65 208.2,42.65 C205.3,42.65 204.1,40.2 203.3,36.1 L197.2,37.2 C198.45,43.65 200.85,48.5 208.15,48.5 Z M232.55,48.4 C239.95,48.4 242.55,42.4 243.45,34.85 L236.8,34.2 C236.25,40.5 235.15,42.4 232.6,42.4 C229.3,42.4 228.05,38.4 228.05,29.5 C228.05,20.75 229.2,16.8 232.55,16.8 C235,16.8 236,18.85 236.45,24.7 L243.1,24.1 C242.55,15.15 239.7,10.55 232.55,10.55 C225.35,10.55 220.95,15.95 220.95,29.5 C220.95,43.1 225.2,48.4 232.55,48.4 Z M252.3,39.7 L250.7,48 L244.6,48 L252.8,10.85 L259.8,10.85 L268,48 L261.1,48 L259.5,39.7 L252.3,39.7 Z M258.6,34.85 L257.95,31.5 C257.25,27.55 256.65,24.9 256,19.5 L255.8,19.5 C255.2,24.95 254.6,27.45 253.9,31.35 L253.25,34.85 L258.6,34.85 Z M270.65,48 L287.95,48 L287.95,42.15 L277.65,42.15 L277.65,11 L270.65,11 L270.65,48 Z M291,48 L308.65,48 L308.65,42.15 L298,42.15 L298,31.4 L305.3,31.4 L305.3,25.75 L298,25.75 L298,17 L308.2,17 L308.2,11 L291,11 L291,48 Z" id="ÉVASION-FISCALE"></path>
                    </g>
                </g>
            </g>
        </g>
    </g>
</svg>