<svg id="Calque_1" xmlns="http://www.w3.org/2000/svg" viewBox="0 0 110 65"><style>.st0{fill:#1B2F53;} .st1{fill:#FBBA0F;} .st2{clip-path:url(#SVGID_6_);}</style><path class="st1" d="M1.5 20.1c-.3 0-.6-.1-.9-.3-.7-.5-.8-1.4-.3-2C6.8 8.6 15.3 5 26.9 6.3 33 7 38.6 9.6 43 13.9c.6.6.6 1.5 0 2.1-.6.6-1.5.6-2.1 0C37 12.2 32 9.8 26.6 9.2c-5.2-.6-9.6-.1-13.5 1.5-4 1.7-7.4 4.5-10.5 8.7-.2.4-.7.7-1.1.7M37.2 6.3c-.2 0-.5-.1-.7-.2-2.7-1.5-6.2-2.6-9.9-3-5-.5-9.9 0-13.6 1.4-.8.3-1.6-.1-1.9-.8-.3-.8.1-1.6.8-1.9C16.1.2 21.5-.4 26.9.2c4.1.5 8 1.6 11 3.3.7.4 1 1.3.6 2-.3.5-.8.8-1.3.8M31.4 64.8c-3.6 0-7.5-.8-11.2-2.5-.7-.3-1.1-1.2-.7-1.9.3-.7 1.2-1.1 1.9-.7 6.2 2.8 12.8 3 17.1.6.7-.4 1.6-.1 2 .6.4.7.1 1.6-.6 2-2.3 1.2-5.3 1.9-8.5 1.9"/><path class="st1" d="M49.9 29.3l-.8-1.4c-.2-.4-.5-.3-.6.1l-.7 2.4c-5.3-11.9-16.3-18.1-24.7-18.1-5.9 0-11.5 2.2-15.7 6.3C3 22.6.7 28.1.6 33.9c-.3 9.5 6.8 19.4 11 23.8l.1.1.8.5.1.1c.8.4 1.6.6 2.4.6 1.9 0 3.8-1 4.7-2.9.6-1.1.9-3.5-.9-5.6l-.1-.1c-.1-.1-.2-.2-.3-.4-.4-.4-8.1-8.8-7.8-16.2.1-3.5 1.4-6.5 3.6-8.6 2.2-2.1 5.3-3.2 8.8-3.2 3.1 0 6.4 1.4 9 3.8 2.3 2.1 7.3 8.7 6.9 11.9-.1.5-.3.9-.8 1.2-1 .6-2 0-5-4.8-2.5-4-5.6-9-10.7-8.6-2.4.1-4.9 1.4-6.4 3.2-1.4 1.6-2 3.6-1.8 5.8 0 .4.4 4.4 2.9 9 2.4 4.4 7.3 10.1 17.1 12.8h.1l.9.1h.2c2.9 0 5.3-2.4 5.3-5.3 0-.2 0-1-.5-2-.3-1.1-1.2-2.3-3.2-2.9-7.6-2-10.5-7.7-12.7-12.9-.3-.7-1.2-1.1-1.9-.8-.7.3-1.1 1.2-.8 1.9 1.8 4.2 5.1 11.9 14.6 14.5 1.7.5 1.8 1.8 1.9 2.1 0 1.3-1 2.3-2.3 2.4l-.6-.1c-6.9-2-12-5.8-15.1-11.3-2.3-4.2-2.6-7.8-2.6-7.9V34c-.1-1.4.2-2.6 1.1-3.6 1-1.2 2.7-2 4.3-2.1 3.4-.2 5.8 3.6 8.1 7.3 1.2 1.9 2.3 3.7 3.5 4.8 2.2 2 4.1 1.6 5.3 1 1.3-.7 2.1-1.9 2.3-3.4.7-5.2-6.4-13-7.8-14.4-3.2-3-7-4.6-11-4.6-4.3 0-8 1.4-10.8 4-2.9 2.8-4.5 6.5-4.7 10.8-.2 3.7 1.2 7.9 4.2 12.5 1.6 2.6 3.3 4.5 4.1 5.4l.4.4c1.3 1.2.9 2.4.8 2.7-.6 1.1-2 1.6-3.1 1l-.5-.3C10 51.7 3.3 42.5 3.6 34c0-5 2.1-9.7 5.8-13.3 3.7-3.5 8.6-5.5 13.7-5.5 3.8 0 8.3 1.6 12.2 4.3 3.1 2.1 7.3 6 10 12.4l-2.6-.4c-.4-.1-.6.2-.4.6l.8 1.4c.2.4.7.7 1.1.8l3.8.6c.4.1.9-.2 1-.6l1-3.5c.1-.5.1-1.2-.1-1.5"/><path class="st0" d="M47.8 49l1.1-.2V42h-.8l-.4 1.8h-2.1l.1-3.8h10.1l.1 3.8h-2.1l-.5-1.8h-.8v6.8l1.1.2v1.8h-5.8zM56.3 49.1l.8-.2v-7.6l-.9-.3v-1.7l3.8-.4.3.1v4h.1c.8-.6 1.5-1 2.7-1 1.2 0 2.1.6 2.1 2v4.7l.8.2v1.6h-4.5v-1.6l.5.1v-3.6c0-.6-.3-.8-.8-.8-.3 0-.6.1-.9.2V49l.5.2v1.6h-4.6v-1.7zM66.4 46.6c0-2.8 1.7-4.4 4.4-4.4 2.6 0 3.9 1.2 3.9 5h-4.9c.2 1.3.9 1.7 2.1 1.7 1.1 0 1.8-.2 2.4-.4v1.7c-.6.4-1.6.8-3.3.8-3 0-4.6-1.5-4.6-4.4m3.3-.9l1.9-.1c0-1.2-.4-1.5-.9-1.5s-.9.2-1 1.6M77.8 49.1l.8-.2v-4.5l-.9-.3v-1.7l3.7-.4.3.1v.9h.1c.8-.7 1.6-1.1 2.8-1.1 1.2 0 2.1.6 2.1 2v4.7l.8.2v1.6H83v-1.6l.5-.2V45c0-.6-.3-.8-.8-.8-.3 0-.6.1-.9.2V49l.5.2v1.6h-4.6v-1.7zM87.9 46.6c0-2.8 1.7-4.4 4.4-4.4 2.6 0 3.9 1.2 3.9 5h-4.9c.2 1.3.9 1.7 2.1 1.7 1.1 0 1.8-.2 2.4-.4v1.7c-.6.4-1.6.8-3.3.8-3 0-4.6-1.5-4.6-4.4m3.3-.9l1.9-.1c0-1.2-.4-1.5-.9-1.5s-.9.2-1 1.6M97 44.2l-.6-.2v-1.6h4.4V44l-.6.2.7 2.9h.1l1.3-4.7h2.3l1.4 4.7.7-2.9-.6-.2v-1.6h3.6V44l-.6.2-1.9 6.6h-2.9l-1.2-4.4h-.1l-1.2 4.4H99zM45.6 62.7c0-1.7 1.2-2.2 3.2-2.6l1.3-.3v-.3c0-.7-.3-1-1.5-1-.8 0-1.6.1-2.2.2v-1.9c.8-.3 2.2-.6 3.7-.6 2.2 0 3.2.9 3.2 2.8v3.5c0 .4.2.5.5.5h.2v1.6c-.3.2-1.1.4-1.8.4-1 0-1.5-.3-1.8-1h-.1c-.4.6-1.2 1-2.3 1-1.5 0-2.4-1-2.4-2.3m4.5.2v-1.7h-.5c-.5 0-.8.3-.8 1s.2.9.7.9c.2.1.4-.1.6-.2M54.4 63.2l.8-.2v-4.5l-.9-.3v-1.7l3.7-.4.3.1v1.3h.1c.4-.8 1.1-1.4 2.1-1.4h.4v2.8c-.2 0-.5-.1-.8-.1-.8 0-1.3.1-1.7.3v3.6l1.1.2v1.6h-5.2v-1.3zM61.4 63.2l.8-.2v-4.5l-.9-.3v-1.7l3.7-.4.3.1v1.3h.1c.4-.8 1.1-1.4 2.1-1.4h.4v2.8c-.2 0-.5-.1-.8-.1-.8 0-1.3.1-1.7.3v3.6l1.1.2v1.6h-5.2v-1.3zM68.3 63.2l.8-.2v-4.5l-.9-.3v-1.7l3.8-.4.3.1v6.6l.8.2v1.6h-4.8v-1.4zm.6-8.8c0-1 .8-1.5 1.8-1.5s1.8.6 1.8 1.5c0 1-.8 1.5-1.8 1.5s-1.8-.6-1.8-1.5M73.6 58.2L73 58v-1.6h4.7V58l-.7.2 1.2 3.5 1.2-3.5-.7-.2v-1.6h3.7V58l-.7.2-2.5 6.6h-3zM82.2 62.7c0-1.7 1.2-2.2 3.2-2.6l1.3-.3v-.3c0-.7-.3-1-1.5-1-.8 0-1.6.1-2.2.2v-1.9c.8-.3 2.2-.6 3.7-.6 2.2 0 3.2.9 3.2 2.8v3.5c0 .4.2.5.5.5h.2v1.6c-.3.2-1.1.4-1.8.4-1 0-1.5-.3-1.8-1h-.1c-.4.6-1.2 1-2.3 1-1.5 0-2.4-1-2.4-2.3m4.5.2v-1.7h-.5c-.5 0-.8.3-.8 1s.2.9.7.9c.2.1.4-.1.6-.2M91 63.2l.9-.3v-7.5l-.9-.3v-1.7l3.8-.3.3.1v9.7l.8.3v1.6H91zM96.5 64.5l-.1-2.3h2l.3.8c.2.1.5.2 1 .2.6 0 1-.2 1-.6 0-.4-.2-.5-.9-.6l-.9-.2c-1.6-.3-2.5-1.1-2.5-2.6 0-1.7 1.2-2.9 3.9-2.9 1.1 0 2.2.2 2.9.5V59h-2l-.2-.7c-.2-.1-.4-.2-.9-.2s-1 .2-1 .5c0 .4.3.5 1 .7l1 .2c1.7.3 2.4 1.2 2.4 2.5 0 1.9-1.2 3.1-4.1 3.1-.8-.1-2-.3-2.9-.6"/></svg>