<svg width="441" height="65" viewBox="0 0 441 65" xmlns="http://www.w3.org/2000/svg"><title>Group 13</title><g fill="none" fill-rule="evenodd"><g fill="#1F0D67"><path d="M6.283 28.6v14.408H0V6.068h13.758c7.042 0 11.81 4.765 11.81 11.265 0 6.5-4.66 11.267-11.81 11.267H6.283zm6.5-5.525c4.01 0 6.392-2.167 6.392-5.633 0-3.575-2.383-5.742-6.392-5.742h-6.5v11.483h6.5v-.108zM45.067 23.617c-.65-.11-1.41-.11-1.95-.11-4.66 0-6.825 2.71-6.825 7.476v12.134h-6.067V17.55h5.85v4.117c1.192-2.817 4.008-4.334 7.367-4.334.758 0 1.408.11 1.625.11v6.174zM72.475 35.75c-1.408 4.442-5.417 8.017-11.483 8.017-6.934 0-13-4.984-13-13.65 0-8.017 5.958-13.325 12.35-13.325 7.8 0 12.458 5.2 12.458 13.216 0 .975-.108 1.842-.108 1.95H54.167c.108 3.9 3.14 6.61 6.933 6.61 3.683 0 5.525-1.95 6.392-4.443l4.983 1.625zm-5.85-8.233c-.108-2.925-2.058-5.634-6.283-5.634-3.792 0-5.96 2.925-6.175 5.634h12.458zm-4.008-13.11h-4.984l4.66-7.69h7.15l-6.826 7.69zM81.575 34.667c.217 2.275 1.95 4.333 5.2 4.333 2.492 0 3.792-1.408 3.792-2.925 0-1.408-.975-2.383-2.925-2.817l-3.792-.866c-4.442-.975-6.825-3.9-6.825-7.367 0-4.442 4.117-8.233 9.317-8.233 7.04 0 9.425 4.55 9.858 7.04l-5.092 1.41c-.216-1.41-1.3-3.792-4.658-3.792-2.167 0-3.683 1.408-3.683 2.925 0 1.408.975 2.383 2.6 2.708l3.9.76c4.766 1.082 7.258 4.007 7.258 7.69 0 3.9-3.142 8.125-9.642 8.125-7.366 0-10.183-4.766-10.508-7.69l5.2-1.3zM105.408 4.767c2.167 0 4.01 1.733 4.01 4.008 0 2.167-1.735 3.9-4.01 3.9-2.166 0-3.9-1.733-3.9-3.9 0-2.275 1.842-4.008 3.9-4.008zm-2.925 38.24V17.55h5.96V42.9h-5.96v.108zM139.858 38.35c0 2.275.217 4.225.217 4.658h-5.742c-.108-.54-.216-2.275-.216-3.25-1.192 2.167-3.9 3.9-7.475 3.9-7.26 0-12.242-5.74-12.242-13.433 0-7.258 4.983-13.325 12.133-13.325 4.442 0 6.717 2.058 7.475 3.683V5.2h5.85v33.15zm-12.566 0c4.008 0 6.716-3.25 6.716-8.125s-2.708-7.908-6.716-7.908c-4.01 0-6.934 3.033-6.934 7.908s2.817 8.125 6.934 8.125zM170.3 35.75c-1.408 4.442-5.417 8.017-11.483 8.017-6.934 0-13-4.984-13-13.65 0-8.017 5.958-13.325 12.35-13.325 7.8 0 12.458 5.2 12.458 13.216 0 .975-.108 1.842-.108 1.95h-18.525c.108 3.9 3.14 6.61 6.933 6.61 3.683 0 5.525-1.95 6.392-4.443l4.983 1.625zm-5.85-8.233c-.108-2.925-2.058-5.634-6.283-5.634-3.792 0-5.96 2.925-6.175 5.634h12.458zM182.433 43.008h-6.066V17.55h5.85v3.358c1.625-2.925 4.658-4.116 7.475-4.116 6.175 0 9.208 4.44 9.208 10.075V42.9h-6.067V27.95c0-3.142-1.408-5.633-5.2-5.633-3.466 0-5.308 2.708-5.308 5.958v14.733h.108zM214.067 17.55h5.308v5.417h-5.308v11.808c0 2.275.975 3.142 3.25 3.142.866 0 1.84-.11 2.058-.217v4.983c-.325.11-1.517.542-3.683.542-4.66 0-7.584-2.817-7.584-7.583V22.967h-4.658V17.55h1.3c2.708 0 3.9-1.733 3.9-4.008V9.858h5.525v7.692h-.108zM228.583 4.767c2.167 0 4.01 1.733 4.01 4.008 0 2.167-1.735 3.9-4.01 3.9-2.166 0-3.9-1.733-3.9-3.9 0-2.275 1.734-4.008 3.9-4.008zm-3.033 38.24V17.55h5.958V42.9h-5.958v.108zM261.95 35.75c-1.408 4.442-5.417 8.017-11.483 8.017-6.934 0-13-4.984-13-13.65 0-8.017 5.958-13.325 12.35-13.325 7.8 0 12.458 5.2 12.458 13.216 0 .975-.108 1.842-.108 1.95h-18.525c.108 3.9 3.14 6.61 6.933 6.61 3.683 0 5.525-1.95 6.392-4.443l4.983 1.625zm-5.742-8.233c-.108-2.925-2.058-5.634-6.283-5.634-3.792 0-5.958 2.925-6.175 5.634h12.458zM268.125 43.008V5.2h6.067v37.808h-6.067M281.992 43.008V5.2h6.066v37.808h-6.066M318.392 35.75c-1.41 4.442-5.417 8.017-11.484 8.017-6.933 0-13-4.984-13-13.65 0-8.017 5.96-13.325 12.35-13.325 7.8 0 12.46 5.2 12.46 13.216 0 .975-.11 1.842-.11 1.95h-18.525c.11 3.9 3.142 6.61 6.934 6.61 3.683 0 5.525-1.95 6.39-4.443l4.985 1.625zm-5.742-8.233c-.108-2.925-2.058-5.634-6.283-5.634-3.792 0-5.96 2.925-6.175 5.634h12.458z"/></g><g fill="#FF0303"><path d="M333.45 22.642c-.108-.434-.325-1.734-.325-2.817 0-6.067 4.55-11.483 12.675-11.483 7.8 0 12.567 5.09 12.567 11.158 0 4.333-2.384 8.017-6.717 10.508l-6.392 3.792c-.975.65-1.84 1.3-2.275 2.275h15.6v6.933h-25.675c0-6.175 1.734-11.266 8.017-14.95l5.525-3.25c2.708-1.516 3.683-2.925 3.683-5.2 0-2.166-1.516-4.008-4.55-4.008-3.14 0-4.766 2.167-4.766 4.983 0 .65.108 1.41.325 2.06h-7.692zM364.975 14.192c2.275-3.36 5.958-5.742 11.483-5.742s9.317 2.383 11.484 5.742c2.383 3.575 2.925 7.8 2.925 11.916 0 4.117-.65 8.45-2.925 11.917-2.275 3.358-5.96 5.742-11.484 5.742-5.525 0-9.208-2.492-11.483-5.742-2.383-3.575-2.925-7.8-2.925-11.917 0-4.116.542-8.45 2.925-11.916zm6.5 19.283c.975 1.842 2.492 3.142 4.983 3.142 2.6 0 4.01-1.3 4.984-3.142.975-1.95 1.3-4.658 1.3-7.367 0-2.708-.325-5.416-1.3-7.366-.975-1.842-2.384-3.142-4.984-3.142-2.49 0-4.008 1.3-4.983 3.142-.975 1.95-1.3 4.658-1.3 7.366.108 2.71.433 5.417 1.3 7.367z"/></g><g fill="#1F0D67"><path d="M399.425 33.8V11.808H391.3V6.392c5.092 0 8.667-2.925 9.208-6.392h7.042v33.8h-8.125zM438.858 6.608c-2.383 2.06-11.808 10.617-13.216 27.3h-8.56c1.41-17.55 12.135-26.975 12.135-26.975h-16.575V0h26.325v6.608h-.11z"/></g><path fill="#FF0303" d="M440.592 55.683l-4.55-12.458h2.816V39h-8.775l2.275 6.392L422.5 39h-29.683l-3.467 4.225h31.958"/><path fill="#1F0D67" d="M339.517 54.708l2.383-6.39h-8.775v4.115h2.817L331.282 65l19.393-12.567h40.3l3.467-4.116h-45.067"/></g></svg>