<svg width="200" height="30" viewBox="0 0 200 30" xmlns="http://www.w3.org/2000/svg"><title>Marqueur</title><g fill="none" fill-rule="evenodd"><path d="M5.912 10.442c1.814 0 2.893-.98 2.893-2.55 0-1.617-1.08-2.597-2.893-2.597h-2.94v5.196h2.94v-.048zm-2.94 2.5v6.52H.127V2.746h6.226c3.186 0 5.343 2.157 5.343 5.1 0 2.94-2.108 5.097-5.343 5.097H2.97zM20.522 10.687c-.294-.05-.638-.05-.883-.05-2.11 0-3.09 1.227-3.09 3.384v5.492h-2.745V7.942h2.648v1.863c.54-1.275 1.814-1.96 3.333-1.96.344 0 .638.048.736.048v2.794zM28.464 6.52H26.21l2.107-3.48h3.235l-3.088 3.48zm1.814 5.932c-.05-1.323-.932-2.55-2.844-2.55-1.716 0-2.696 1.325-2.794 2.55h5.638zm2.647 3.726c-.637 2.01-2.45 3.628-5.197 3.628-3.137 0-5.883-2.255-5.883-6.177 0-3.63 2.697-6.03 5.59-6.03 3.53 0 5.637 2.352 5.637 5.98 0 .44-.05.833-.05.882H24.64c.05 1.765 1.42 2.99 3.137 2.99 1.667 0 2.5-.882 2.893-2.01l2.255.736zM37.043 15.688c.098 1.03.882 1.96 2.353 1.96 1.128 0 1.716-.637 1.716-1.323 0-.637-.44-1.078-1.324-1.275l-1.716-.392c-2.01-.44-3.088-1.765-3.088-3.333 0-2.01 1.863-3.726 4.216-3.726 3.187 0 4.265 2.058 4.46 3.185l-2.303.638c-.098-.638-.588-1.716-2.108-1.716-.98 0-1.668.637-1.668 1.323 0 .638.44 1.08 1.177 1.226l1.764.343c2.157.49 3.284 1.813 3.284 3.48 0 1.765-1.42 3.677-4.363 3.677-3.334 0-4.608-2.157-4.755-3.48l2.353-.59zM46.505 19.463V7.943H49.2v11.47h-2.695v.05zm1.323-17.306c.98 0 1.814.784 1.814 1.814 0 .98-.784 1.766-1.814 1.766-.98 0-1.765-.785-1.765-1.765 0-1.03.834-1.813 1.765-1.813zM57.73 17.355c1.815 0 3.04-1.47 3.04-3.677 0-2.206-1.225-3.58-3.04-3.58-1.813 0-3.136 1.374-3.136 3.58s1.274 3.677 3.137 3.677zm5.688 0c0 1.03.098 1.912.098 2.108h-2.598c-.05-.245-.098-1.03-.098-1.47-.54.98-1.765 1.764-3.383 1.764-3.285 0-5.54-2.598-5.54-6.08 0-3.284 2.255-6.03 5.49-6.03 2.01 0 3.04.932 3.384 1.668V2.353h2.648v15.002zM74.547 12.452c-.05-1.323-.932-2.55-2.844-2.55-1.716 0-2.696 1.325-2.794 2.55h5.637zm2.647 3.726c-.637 2.01-2.45 3.628-5.197 3.628-3.137 0-5.883-2.255-5.883-6.177 0-3.63 2.697-6.03 5.59-6.03 3.53 0 5.637 2.352 5.637 5.98 0 .44-.048.833-.048.882H68.91c.048 1.765 1.42 2.99 3.136 2.99 1.667 0 2.5-.882 2.893-2.01l2.254.736zM82.685 19.463H79.94V7.943h2.647v1.52c.735-1.325 2.108-1.864 3.382-1.864 2.794 0 4.166 2.01 4.166 4.558v7.256H87.39v-6.766c0-1.42-.636-2.55-2.352-2.55-1.57 0-2.402 1.227-2.402 2.697v6.668h.05zM97 7.942h2.402v2.45H97v5.345c0 1.03.44 1.422 1.47 1.422.393 0 .834-.05.932-.1v2.256c-.147.05-.686.245-1.667.245-2.108 0-3.432-1.274-3.432-3.43v-5.737h-2.108v-2.45h.59c1.224 0 1.764-.785 1.764-1.815V4.46h2.5v3.482H97zM102.196 19.463V7.943h2.697v11.47h-2.697v.05zm1.373-17.306c.98 0 1.813.784 1.813 1.814 0 .98-.784 1.766-1.814 1.766-.98 0-1.766-.785-1.766-1.765 0-1.03.785-1.813 1.765-1.813zM116.07 12.452c-.05-1.323-.93-2.55-2.843-2.55-1.716 0-2.697 1.325-2.795 2.55h5.638zm2.6 3.726c-.64 2.01-2.453 3.628-5.198 3.628-3.138 0-5.883-2.255-5.883-6.177 0-3.63 2.695-6.03 5.588-6.03 3.53 0 5.638 2.352 5.638 5.98 0 .44-.05.833-.05.882h-8.383c.05 1.765 1.422 2.99 3.138 2.99 1.668 0 2.5-.882 2.893-2.01l2.256.736zM121.463 19.463h2.745V2.353h-2.745M127.738 19.463h2.745V2.353h-2.745M141.612 12.452c-.05-1.323-.932-2.55-2.843-2.55-1.717 0-2.698 1.325-2.796 2.55h5.638zm2.598 3.726c-.637 2.01-2.45 3.628-5.196 3.628-3.138 0-5.883-2.255-5.883-6.177 0-3.63 2.697-6.03 5.59-6.03 3.53 0 5.637 2.352 5.637 5.98 0 .44-.05.833-.05.882h-8.382c.05 1.765 1.422 2.99 3.138 2.99 1.667 0 2.5-.882 2.892-2.01l2.255.736z" fill="#FFF"/><path d="M151.025 10.246c-.05-.196-.147-.784-.147-1.275 0-2.744 2.06-5.195 5.735-5.195 3.53 0 5.687 2.304 5.687 5.05 0 1.96-1.078 3.627-3.04 4.755l-2.892 1.716c-.44.294-.833.588-1.03 1.03h7.06v3.137H150.78c0-2.795.784-5.1 3.627-6.766l2.5-1.47c1.226-.687 1.667-1.324 1.667-2.354 0-.98-.686-1.813-2.06-1.813-1.42 0-2.156.98-2.156 2.255 0 .294.05.637.147.93h-3.48zM168.232 15.15c.44.832 1.128 1.42 2.255 1.42 1.177 0 1.814-.588 2.255-1.42.442-.884.59-2.11.59-3.335 0-1.226-.148-2.45-.59-3.334-.44-.832-1.078-1.42-2.255-1.42-1.127 0-1.814.588-2.255 1.42-.44.884-.588 2.11-.588 3.335.05 1.225.196 2.45.588 3.334m-2.94-8.728c1.028-1.52 2.695-2.598 5.195-2.598 2.5 0 4.216 1.078 5.197 2.598 1.078 1.618 1.324 3.53 1.324 5.393s-.295 3.824-1.324 5.393c-1.03 1.52-2.696 2.598-5.197 2.598-2.5 0-4.167-1.128-5.196-2.598-1.078-1.618-1.323-3.53-1.323-5.393s.245-3.824 1.324-5.393" fill="#FF0303"/><path d="M180.88 15.296V5.344h-3.676V2.892c2.304 0 3.922-1.323 4.167-2.892h3.187v15.296h-3.677zM198.725 2.99c-1.078.932-5.343 4.805-5.98 12.355h-3.874c.64-7.942 5.492-12.207 5.492-12.207h-7.5V0h11.912v2.99h-.05z" fill="#FFF"/><path fill="#FF0303" d="M199.51 25.2l-2.06-5.64h1.275v-1.91h-3.97l1.03 2.89-4.462-2.89H177.89l-1.57 1.91h14.463"/><path fill="#FFF" d="M153.77 24.757l1.08-2.892h-3.972v1.863h1.274l-2.108 5.687 8.776-5.687h18.237l1.568-1.863H158.23"/></g></svg>