<svg id="Calque_1" xmlns="http://www.w3.org/2000/svg" viewBox="0 0 660 75"><style>.st0{fill:#FF5F5F;} .st1{fill:#00456F;}</style><path class="st0" d="M419.9 23.7v-5.2h-11.3v38.3h11.7V40.2c0-7.6 4.2-10.4 8.9-10.4 1.2 0 2.4.1 3.7.4V18.6c-.8-.2-1.9-.4-3.1-.4-3.1 0-7.9 1.2-9.9 5.5zM451.3 58c5.1 0 8.8-2.2 10.8-5.4 0 2.6.3 4 .4 4.3H473c-.1-.4-.5-2.9-.5-5.9V32.2c0-7.9-4.5-14.8-17-14.8-11.3 0-16.3 7.2-16.8 12.7l10.2 2.1c.2-2.9 2.5-5.6 6.6-5.6 3.7 0 5.6 1.9 5.6 4.2 0 1.3-.7 2.3-2.8 2.6l-9 1.4c-6.3.9-11.3 4.7-11.3 11.5 0 6.1 4.8 11.7 13.3 11.7zm2.6-16.7l7.2-1.2v1.7c0 5.9-3.5 7.6-7 7.6-3.2 0-4.5-1.9-4.5-3.9 0-2.6 1.8-3.8 4.3-4.2zM505.3 56.9H517v-24c0-8.4-4.3-15.3-14-15.3-3.9 0-8.6 1.8-10.7 5.4v-4.4H481v38.3h11.7v-22c0-3.9 2.5-6.7 6.3-6.7 4.2 0 6.2 2.9 6.2 6.6v22.1zM579.9 58c5.1 0 8.8-2.2 10.8-5.4 0 2.6.3 4 .4 4.3h10.6c-.1-.4-.5-2.9-.5-5.9V32.2c0-7.9-4.5-14.8-17-14.8-11.3 0-16.3 7.2-16.8 12.7l10.2 2.1c.2-2.9 2.5-5.6 6.6-5.6 3.7 0 5.6 1.9 5.6 4.2 0 1.3-.7 2.3-2.8 2.6l-9 1.4c-6.3.9-11.3 4.8-11.3 11.6 0 6 4.8 11.6 13.2 11.6zm2.7-16.7l7.2-1.2v1.7c0 5.9-3.5 7.6-7 7.6-3.2 0-4.5-1.9-4.5-3.9 0-2.6 1.8-3.8 4.3-4.2zM647.5 33.1l-5.1-1c-1.7-.3-3-1.2-3-2.9 0-2 1.9-3.3 4.2-3.3 3.5 0 5.2 2.2 5.5 4.7l9.7-1.8c-.4-4.5-4.2-11.4-15.3-11.4-8.6 0-14.7 5.7-14.7 12.7 0 5.4 3.2 10 11.4 11.8l4.4 1c2.9.6 3.8 1.8 3.8 3.2 0 1.7-1.5 3.3-4.5 3.3-4 0-5.9-2.5-6-5.2L628 46c.3 4.2 4.2 12 16.2 12 10.3 0 15.3-6.4 15.3-12.9-.2-5.6-4.1-10.4-12-12zM609.7 18.6h11.7v38.3h-11.7zM561.9 44.7l-10.3-3.2c-.8 2.9-3.4 5.7-7.9 5.7-4.9 0-8.9-3.4-8.9-9.5 0-6.2 3.9-9.6 8.8-9.6 4.5 0 6.9 2.8 7.7 5.7l10.5-3.2c-1.7-6.9-7.9-13.3-18.4-13.3-11.3 0-20.2 8.4-20.2 20.3 0 10.7 7.5 18.6 17.3 20l-2.5 3.9 2.9 3.8c.6-.2 1.5-.3 2.1-.3 1.7 0 2.7.9 2.7 1.9 0 1.3-1.1 2-2.9 2-2.1 0-3.7-1-4.9-2-.4-.3-.7-.7-1-.9l-.7.9-2.9 3.6c.5.7 1.4 1.5 2.6 2.2 1.8 1.1 4.3 2 7 2 3.4 0 5.8-.8 7.4-2 2-1.5 2.8-3.6 2.8-5.5v-.3c-.1-3.7-3-6.3-7.5-6.5l1.9-2.9c7.9-1.1 12.9-6.9 14.4-12.8z"/><path class="st1" d="M44.4 40.2c0-7.6 4.2-10.4 8.9-10.4 1.2 0 2.4.1 3.7.4V18.6c-.8-.2-1.9-.4-3.1-.4-3.1 0-7.9 1.2-9.9 5.5v-5.2H32.7v38.3h11.7V40.2zM79.2 26.6c3.7 0 5.6 1.9 5.6 4.2 0 1.3-.7 2.3-2.8 2.6l-9 1.4c-6.3.9-11.3 4.8-11.3 11.6.1 6 4.9 11.6 13.3 11.6 5.1 0 8.8-2.2 10.8-5.4 0 2.6.3 4 .4 4.3h10.6c-.1-.4-.5-2.9-.5-5.9V32.2c0-7.9-4.5-14.8-17-14.8-11.3 0-16.3 7.2-16.8 12.7l10.2 2.1c.2-2.8 2.5-5.6 6.5-5.6zm5.7 15.3c0 5.9-3.5 7.6-7 7.6-3.2 0-4.5-1.9-4.5-3.9 0-2.7 1.8-3.9 4.3-4.2l7.2-1.2v1.7zM116.1 34.9c0-3.9 2.5-6.7 6.3-6.7 4.2 0 6.2 2.9 6.2 6.6v22h11.7v-24c0-8.4-4.3-15.3-14-15.3-3.9 0-8.6 1.8-10.7 5.4v-4.4h-11.3v38.3H116V34.9zM167.7 47.3c-4.9 0-8.9-3.4-8.9-9.5 0-6.2 3.9-9.6 8.8-9.6 4.5 0 6.9 2.8 7.7 5.7l10.5-3.2c-1.7-6.9-7.9-13.3-18.4-13.3-11.3 0-20.2 8.4-20.2 20.3 0 10.7 7.5 18.6 17.3 20l-2.5 3.9 2.9 3.8c.6-.2 1.5-.3 2.1-.3 1.4 0 2.3.6 2.6 1.4.1.2.1.4.1.5 0 1.3-1.1 2-2.9 2-2.5 0-4.3-1.4-5.5-2.5h-.7l-3.3 4.2c.4.5 1 1.1 1.7 1.7 1.8 1.4 4.6 2.6 7.8 2.6 3.9 0 6.5-1.1 8.1-2.6 1.5-1.4 2.2-3.3 2.2-5 0-.3 0-.6-.1-.8-.4-3.4-3.2-5.8-7.4-5.9l1.9-2.9c8.1-1.3 13.1-7.2 14.6-13l-10.3-3.2c-1 2.8-3.5 5.7-8.1 5.7zM204.1 58c5.1 0 8.8-2.2 10.8-5.4 0 2.6.3 4 .4 4.3h10.6c-.1-.4-.5-2.9-.5-5.9V32.2c0-7.9-4.5-14.8-17-14.8-11.3 0-16.3 7.2-16.8 12.7l10.2 2.1c.2-2.9 2.5-5.6 6.6-5.6 3.7 0 5.6 1.9 5.6 4.2 0 1.3-.7 2.3-2.8 2.6l-9 1.4c-6.3.9-11.3 4.8-11.3 11.6-.1 6 4.8 11.6 13.2 11.6zm2.6-16.7l7.2-1.2v1.7c0 5.9-3.5 7.6-7 7.6-3.2 0-4.5-1.9-4.5-3.9 0-2.6 1.8-3.8 4.3-4.2zM235.2 18.6h11.7v38.3h-11.7zM241 13.7c3.9 0 6.9-3.1 6.9-6.9S244.8 0 241 0c-3.7 0-6.8 3.1-6.8 6.9s3.1 6.8 6.8 6.8z"/><path class="st0" d="M615.5 13.7c3.9 0 6.9-3.1 6.9-6.9S619.3 0 615.5 0c-3.7 0-6.8 3.1-6.8 6.9s3.1 6.8 6.8 6.8z"/><path class="st1" d="M270.2 58c10.3 0 15.3-6.4 15.3-12.9 0-5.6-3.9-10.4-11.8-12l-5.1-1c-1.7-.3-3-1.2-3-2.9 0-2 1.9-3.3 4.2-3.3 3.5 0 5.2 2.2 5.5 4.7l9.7-1.8c-.4-4.5-4.2-11.4-15.3-11.4-8.6 0-14.7 5.7-14.7 12.7 0 5.4 3.2 10 11.4 11.8l4.4 1c2.9.6 3.8 1.8 3.8 3.2 0 1.7-1.5 3.3-4.5 3.3-4 0-5.9-2.5-6-5.2L254 46c.3 4.3 4.2 12 16.2 12zM310.2 58c9.7 0 15.8-5.5 17.7-12.2l-9.8-2.8c-1.1 3-3.5 5-7.7 5-4.5 0-8.5-3.1-8.7-7.4h26.7c.1-.2.2-2 .2-3.6 0-12.3-7.3-19.7-19.2-19.7-9.9 0-19.1 7.9-19.1 20.2-.1 13 9.3 20.5 19.9 20.5zm-.7-31.3c5.6 0 7.6 3.5 7.7 6.5h-15.3c.2-2.9 2.7-6.5 7.6-6.5zM349.1 58c10.3 0 15.3-6.4 15.3-12.9 0-5.6-3.9-10.4-11.8-12l-5.1-1c-1.7-.3-3-1.2-3-2.9 0-2 1.9-3.3 4.2-3.3 3.5 0 5.2 2.2 5.5 4.7l9.7-1.8c-.4-4.5-4.2-11.4-15.3-11.4-8.6 0-14.7 5.7-14.7 12.7 0 5.4 3.2 10 11.4 11.8l4.4 1c2.9.6 3.8 1.8 3.8 3.2 0 1.7-1.5 3.3-4.5 3.3-4 0-5.9-2.5-6-5.2l-9.9 1.8c.1 4.3 4 12 16 12z"/><path class="st0" d="M398.7 10.5c1.8 0 2.9.2 3.5.4V1.3c-1.1-.5-3.2-.8-5.5-.8-9.3 0-14.6 6-14.6 14.8v3.3H376v9.9h6.1v14.1c4.4 1.7 7.2 6.2 7.2 11.9 0 .9 0 1.7-.1 2.5h4.6V28.4h8.3v-9.9h-8.3v-2.9c-.1-4.2 2.8-5.1 4.9-5.1z"/><path class="st1" d="M382 45.8c-1.1-.7-2.5-1.1-4.1-1.1-4.4 0-7.7 3.1-7.7 7.2 0 3.9 2.7 6.9 6.9 6.9.9 0 1.8-.2 2.2-.5-.1 4.5-4.1 7.5-7.4 8.3-.1 0-.2.1-.3.1v5.5c.4 0 .8-.1 1.2-.2 5.5-1.1 12.3-5.6 13.3-15.1.1-.8.1-1.6.1-2.5.1-3.6-1.4-6.9-4.2-8.6zM6.8 57.8h11.7V29.3h8.3v-9.9h-8.3v-2.9c0-4.2 2.9-5.2 5-5.2 1.8 0 2.9.2 3.5.4V2.2c-1.1-.5-3.2-.8-5.5-.8-9.3 0-14.6 6-14.6 14.8v3.3H.7v9.9h6.1v28.4z"/></svg>