<?xml version="1.0" encoding="utf-8"?>
<!-- Generator: Adobe Illustrator 17.0.0, SVG Export Plug-In . SVG Version: 6.00 Build 0)  -->
<!DOCTYPE svg PUBLIC "-//W3C//DTD SVG 1.1//EN" "http://www.w3.org/Graphics/SVG/1.1/DTD/svg11.dtd">
<svg version="1.1" id="Calque_1" xmlns="http://www.w3.org/2000/svg" xmlns:xlink="http://www.w3.org/1999/xlink" x="0px" y="0px"
	 width="421px" height="78px" viewBox="0 0 421 78" enable-background="new 0 0 421 78" xml:space="preserve">
<path fill="#1F0D67" d="M67.425,25.011c-2.252,1.325-3.001,3.114-3.001,5.881v22.071c0,1.387,0.174,2.017,0.923,2.423l0.75,0.405
	l2.073-1.215l0.694,1.387l-7.205,4.324l-2.477-1.674c-1.098-0.749-1.561-1.672-1.561-3.459v-19.71c0-3.687,1.156-5.649,2.77-6.857
	l0.923-0.691l-6.801-3.979l-3.054,1.843v28.704c0,2.42-0.345,2.767-2.481,3.861c0,0-1.669,0.808-3.97,2.018h-0.462V28.529
	c0-1.555-0.176-1.903-1.04-2.594l-2.418-1.959l-2.941,1.669v16.486c0,2.88-0.46,4.955-2.766,6.394l-5.762,3.632l-0.58-0.978
	c1.789-1.386,2.191-3.347,2.191-5.652V28.701c0-2.479-0.342-3.458-2.939-2.996c-0.979,0.17-2.477,0.403-3.4,0.517
	c-3.805,0.52-5.42-2.189-2.826-5.589c0,0,0.636-0.865,2.248-2.942l1.271,0.867l-0.925,1.326c-1.209,1.732-0.23,2.653,1.731,1.959
	c0.921-0.346,2.707-1.035,3.975-1.557c5.473-2.131,7.492,1.385,7.78,3.461l6.803-4.092l5.873,4.494l7.261-4.494l5.592,3.171
	c1.901,1.092,2.824,0.632,4.15-0.061l1.095-0.575l0.863,1.441L67.425,25.011z M31.866,60.343c-0.576-1.616-2.246-3.286-5.245-3.401
	c-2.826-0.058-6.86,1.039-10.2,3.575l-0.636-0.808c2.422-2.653,8.07-6.916,14.005-6.975c3.115,0,5.304,1.039,6.86,2.71l2.595-1.442
	l0.75,1.5L31.866,60.343z"/>
<path fill="#1F0D67" d="M81.067,20.504h6.412l4.027,27.822h0.053l4.027-27.822h6.359V59.72h-5.034V38.416
	c0-2.491,0.053-4.61,0.106-6.518h-0.106c-0.212,2.438-0.636,5.67-0.954,7.684l-3.18,20.138h-3.126l-3.18-20.138
	c-0.371-2.226-0.689-4.716-0.901-7.631h-0.106c0.053,1.007,0.053,4.133,0.053,6.465V59.72h-4.451L81.067,20.504L81.067,20.504z"/>
<path fill="#1F0D67" d="M106.294,48.379V20.504h5.352v27.345c0,5.299,0.318,7.684,2.915,7.684s2.967-2.279,2.967-7.578V20.504h5.087
	V48.22c0,7.472-1.696,11.871-8.214,11.871S106.294,55.692,106.294,48.379z"/>
<path fill="#1F0D67" d="M126.964,20.504h5.193l4.345,16.799c0.689,2.862,1.484,6.094,2.067,9.433h0.053
	c-0.159-3.286-0.265-7.949-0.265-9.698V20.504h4.664V59.72h-4.452l-4.875-18.018c-0.795-2.703-1.696-5.617-2.226-8.903h-0.106
	c0.212,2.067,0.265,7.949,0.265,9.274V59.72h-4.663V20.504z"/>
<path fill="#1F0D67" d="M147.739,20.504h5.406V59.72h-5.406V20.504z"/>
<path fill="#1F0D67" d="M156.961,40.112c0-14.838,3.021-19.979,8.956-19.979c5.67,0,7.949,3.815,8.161,13.99l-5.087,0.265
	c-0.159-6.73-1.007-9.274-3.021-9.274c-2.968,0-3.551,4.716-3.551,14.997c0,10.44,0.636,15.156,3.604,15.156
	c2.279,0,3.074-2.278,3.339-9.327l5.034,0.212c-0.318,7.843-1.855,13.938-8.426,13.938C159.875,60.091,156.961,54.95,156.961,40.112
	z"/>
<path fill="#1F0D67" d="M177.631,20.504h5.406V59.72h-5.406V20.504z"/>
<path fill="#1F0D67" d="M187.7,20.504h7.207c4.664,0,8.956,2.279,8.956,11.977c0,11.022-4.664,12.506-9.168,12.506H193V59.72h-5.3
	V20.504z M194.801,40.43c2.438,0,3.815-1.537,3.815-7.843c0-5.882-1.325-7.366-3.869-7.366H193V40.43H194.801z"/>
<path fill="#1F0D67" d="M209.692,20.345h5.405l6.571,39.375h-5.458l-1.484-10.281h-5.087l-1.431,10.281h-5.14L209.692,20.345z
	 M214.355,45.57c-0.158-1.59-1.377-10.281-1.537-11.553c-0.211-1.59-0.37-2.967-0.529-4.875h-0.105
	c-0.159,1.961-0.318,3.286-0.53,4.875c-0.159,1.272-1.431,9.963-1.59,11.553H214.355z"/>
<path fill="#1F0D67" d="M224.373,20.504h5.406v34.605h7.578v4.61h-12.984L224.373,20.504L224.373,20.504z"/>
<path fill="#1F0D67" d="M240.008,20.504h12.983v4.716h-7.578v11.447h5.193v4.452h-5.193v13.99h7.949v4.61h-13.354V20.504z"/>
<path fill="#1F0D67" d="M254.686,48.538l4.981-0.477c0.583,5.564,1.483,7.472,3.763,7.472c1.961,0,3.073-1.378,3.073-4.292
	c0-3.709-2.49-6.253-5.141-9.433c-2.914-3.498-6.041-6.942-6.041-12.612c0-5.617,2.809-9.062,7.737-9.062
	c5.829,0,7.631,3.921,8.32,10.652l-5.035,0.583c-0.529-5.458-1.431-6.519-3.285-6.519c-1.643,0-2.438,1.431-2.438,3.869
	c0,4.187,2.438,6.677,5.034,9.698c2.968,3.445,6.147,6.677,6.147,12.56c0,5.988-3.18,9.115-8.426,9.115
	C256.806,60.091,255.374,55.48,254.686,48.538z"/>
<path fill="#D50303" d="M287.823,31.764c0.521-4.64,4.015-7.769,8.551-7.769c5.057,0,8.394,3.285,8.394,8.394
	c0,2.763-0.73,4.953-3.702,9.333l-8.186,12.305h16.111V49.7h-7.873l3.702-5.527c3.598-5.37,4.588-8.446,4.588-11.888
	c0-7.508-4.797-12.618-13.035-12.618c-7.143,0-12.044,4.64-12.931,11.471L287.823,31.764z"/>
<path fill="#D50303" d="M316.291,39.897c0-8.916,6.882-15.902,15.433-15.902c8.499,0,15.538,6.987,15.538,15.902
	c0,9.437-6.778,16.059-15.538,16.059C322.912,55.956,316.291,49.335,316.291,39.897z M311.65,39.897
	c0,11.992,8.655,20.439,20.073,20.439c11.366,0,20.178-8.447,20.178-20.439c0-11.471-9.072-20.23-20.178-20.23
	C320.566,19.667,311.65,28.427,311.65,39.897z"/>
<polygon fill="#D50303" points="361.912,59.554 366.449,59.554 366.449,19.667 352.736,24.986 352.736,29.73 361.912,26.393 "/>
<polygon fill="#D50303" points="389.077,44.903 399.818,44.903 399.818,40.575 393.457,40.575 393.457,19.198 367.491,50.273 
	383.289,50.273 383.289,59.554 387.826,59.554 387.826,46.102 376.564,46.102 389.077,30.877 "/>
<path fill="#1F0D67" d="M308.991,59.554v-4.328h-18.457l9.698-14.547c2.763-4.119,3.285-5.892,3.285-8.29
	c0-4.328-2.92-7.195-7.143-7.195c-3.754,0-6.778,2.607-7.299,6.726l4.275,0.678c0.157-1.929,1.147-3.181,3.024-3.181
	c1.512,0,2.659,1.251,2.659,2.972c0,1.616-0.678,3.285-2.659,6.205l-13.921,20.96H308.991z"/>
<path fill="#1F0D67" d="M322.026,39.845c0-5.787,4.171-10.428,9.698-10.428c5.475,0,9.75,4.64,9.75,10.428
	c0,6.205-4.275,10.688-9.75,10.688C326.197,50.534,322.026,45.998,322.026,39.845z M317.542,39.897c0,8.707,6.1,14.86,14.182,14.86
	c8.03,0,14.234-6.152,14.234-14.86c0-8.29-6.361-14.703-14.234-14.703C323.799,25.194,317.542,31.607,317.542,39.897z"/>
<polygon fill="#1F0D67" points="356.125,59.554 360.661,59.554 360.661,28.01 356.125,29.678 "/>
<path fill="#1F0D67" d="M387.826,44.903V34.371l-8.603,10.532H387.826z M389.077,59.554h4.38v-9.281h6.361v-4.171h-10.741V59.554z"
	/>
</svg>
