<svg width="98" height="64" viewBox="0 0 98 64" xmlns="http://www.w3.org/2000/svg"><title>Illus</title><g fill="#FFF" fill-rule="evenodd"><path d="M19.564 63.126C8.76 63.126 0 54.344 0 43.51 0 32.68 8.76 23.898 19.564 23.898c1.204 0 2.38.114 3.525.323C24.05 10.908 35.122.406 48.646.406c13.515 0 24.586 10.49 25.556 23.793 1.108-.195 2.245-.303 3.41-.303 10.803 0 19.563 8.78 19.563 19.614 0 10.834-8.76 19.616-19.564 19.616H19.564" opacity=".151"/><path d="M44.693 50.646h6.604v12.11h-6.604M35.063 25.347c-4.763 0-7.345 3.267-7.345 7.296V47.84c0 .556.457 1.01 1.016 1.01H41.39c.56 0 1.017-.454 1.017-1.01v-15.2c0-4.03-2.582-7.296-7.344-7.296zm-3.832 6.63h7.62v2.27h-7.62v-2.27z"/><path d="M65.012 25.39h-12.89v-2.965h6.54V18.64H50.98c-1.053 0-1.906.847-1.906 1.892v4.857H41.2s3.493.283 3.493 7.22v14.98c0 .694.57 1.262 1.27 1.262h19.05c.697 0 1.268-.568 1.268-1.26V26.65c0-.695-.57-1.263-1.268-1.263zm-2.747 7.11v8.6H49.41v-8.823h12.855v.224z"/><path d="M53.98 36.642l1.4 1.502c.124.133.29.206.466.206.176 0 .342-.073.466-.206l4.978-5.34H50.403l3.577 3.838"/><path d="M58.05 37.024l-1.39 1.492c-.217.233-.506.36-.814.36-.307 0-.596-.127-.813-.36L49.9 33.01v7.563h11.874v-7.545l-3.724 3.996"/></g></svg>