<?xml version="1.0" encoding="UTF-8" standalone="no"?>
<svg width="740px" height="50px" viewBox="0 0 740 50" version="1.1" xmlns="http://www.w3.org/2000/svg" xmlns:xlink="http://www.w3.org/1999/xlink">
    <!-- Generator: Sketch 42 (36781) - http://www.bohemiancoding.com/sketch -->
    <title>Group 2@3x</title>
    <desc>Created with Sketch.</desc>
    <defs></defs>
    <g id="LMFR-Web-Fixed-Grid" stroke="none" stroke-width="1" fill="none" fill-rule="evenodd">
        <g id="calage-tetiere-M-Leaks" transform="translate(-232.000000, -253.000000)">
            <g id="M-Leaks" transform="translate(180.000000, 234.000000)">
                <g id="Group-2" transform="translate(52.000000, 19.000000)">
                    <g id="M" transform="translate(0.000000, 6.000000)">
                        <g id="Atomes-/-05.-Icônes-/-Global-/-M-seul">
                            <path d="M42.7276367,10.2623573 L38.0899855,7.61090187 L38.7860106,7.1627907 L43.2489815,9.69946682 C43.0748405,9.86770505 42.9012386,10.0359433 42.7276367,10.2623573" id="Fill-50" fill="#8F98A9"></path>
                            <path d="M44.2625579,43.2235735 L42.2343269,41.869806 C40.9005035,40.9688667 40.2060958,39.4463369 40.2060958,37.7571412 L40.2060958,18.9359478 C40.2060958,16.3431923 40.7867457,14.5397413 41.7119037,13.3023256 C41.191098,14.5397413 40.9587302,16.061747 40.9587302,17.8096427 L41.0158786,37.0789472 C41.0158786,39.1638434 41.6547553,40.5170868 43.1621806,41.5317572 L45.0173489,42.7728417 L44.2625579,43.2235735" id="Fill-44" fill="#8F98A9"></path>
                            <path d="M27.4638769,43.118802 C27.4638769,43.118802 27.2897359,43.2325332 27.1748998,43.2901849 L26.7107034,43.2901849 L26.7107034,11.8490278 C26.7107034,10.3280703 26.5958674,10.3280703 25.6690919,9.64987635 L24.3352685,8.63625411 L25.2065129,8.18604651 C25.9014597,8.74788883 26.9452277,9.53876574 26.9452277,9.59536926 C27.3506583,9.98897334 27.4638769,10.213291 27.4638769,11.1152785 L27.4638769,43.1743573 L27.4638769,43.118802" id="Fill-45" fill="#8F98A9"></path>
                            <path d="M4.20608821,4.09302326 C3.74350919,5.38966307 3.80119679,6.62812706 4.38022926,7.64384572 C4.90426983,8.54321271 5.82942786,9.16480318 6.93357917,9.44677255 C3.51168055,9.7276937 2.0069509,7.07990698 4.20608821,4.09302326" id="Fill-46" fill="#8F98A9"></path>
                            <path d="M13.1037098,31.4604958 C13.3921478,30.5585082 13.5102186,29.5427896 13.5102186,28.4730879 L13.5102186,12.0758877 C13.5102186,10.1036744 13.3921478,9.88145321 12.6966618,9.26143506 L12.8136544,9.26143506 C13.7986566,9.09110041 14.3200015,9.26143506 14.3200015,10.9485343 L14.3200015,27.4023381 C14.3200015,29.318996 13.9749542,30.5585082 13.1037098,31.4604958" id="Fill-47" fill="#8F98A9"></path>
                            <path d="M14.8688423,43.0060193 C14.4084198,41.540093 13.0147523,40.2995326 10.5805515,39.9609597 C10.930451,39.9069767 11.2771157,39.9069767 11.6264761,39.9069767 C14.6370137,39.9609597 15.5082581,41.7638866 15.68186,42.3288735 L15.7395476,42.4960635 L14.8688423,43.0060193" id="Fill-48" fill="#8F98A9"></path>
                            <path d="M51.9339295,7.15615201 C49.6695567,8.45226773 48.9163832,10.2012116 48.9163832,12.9056018 L48.9163832,34.4835961 C48.9163832,35.8399841 49.0916025,36.4558094 49.8442369,36.8525581 L50.5990279,37.2482587 L52.6844074,36.0611571 L53.3815107,37.4175451 L46.1349786,41.6444651 L43.6441685,40.0076801 C42.5394781,39.2760272 42.0742034,38.3735156 42.0742034,36.62562 L42.0742034,17.3563154 C42.0742034,13.7515099 43.2371205,11.8332796 44.8599211,10.6524674 L45.7877748,9.97636982 L38.9482906,6.08592626 L35.8762915,7.88832898 L35.8762915,35.9505706 C35.8762915,38.316388 35.5285485,38.655485 33.3806292,39.7251866 C33.3806292,39.7251866 31.7044542,40.5155394 29.3899417,41.6984481 L28.9241278,41.6984481 L28.9241278,10.5953398 C28.9241278,9.07543052 28.7478302,8.73528531 27.8787424,8.05971185 L25.4466982,6.14515031 L22.4895351,7.77669427 L22.4895351,23.8945457 C22.4895351,26.7100465 22.0269561,28.7383392 19.7081305,30.1455655 L13.9134926,33.696388 L13.3306862,32.7404175 C15.1297843,31.3856018 15.5341366,29.4678956 15.5341366,27.2152853 L15.5341366,10.763578 C15.5341366,8.34010891 15.1896285,7.38309019 12.5780518,7.834346 C11.5941279,8.00101191 10.0867026,8.22795009 9.15938802,8.34010891 C5.33259797,8.84849234 3.70818004,6.1996574 6.31760014,2.87577311 C6.31760014,2.87577311 6.95647675,2.03038911 8.578199,0 L9.85649136,0.847480431 L8.9264811,2.14307204 C7.71018942,3.83593647 8.69519159,4.73687578 10.6673525,4.05815769 C11.5941279,3.72010891 13.3894521,3.04610777 14.6650488,2.53615201 C20.1690921,0.452828134 22.1994797,3.88991946 22.4895351,5.91926035 L29.3300975,1.91823029 L35.2374149,6.31181622 L42.5394781,1.91823029 L48.1632097,5.01832104 C50.0749873,6.08592626 51.0033801,5.63624277 52.3366644,4.95909699 L53.4386592,4.39673057 L54.3072079,5.80605332 L51.9339295,7.15615201 L51.9339295,7.15615201 Z M16.1724741,41.6984481 C15.5929025,40.1182666 13.9134926,38.4856744 10.8981029,38.3735156 C8.05577584,38.316388 3.99877456,39.3887102 0.639954887,41.8687828 L0,41.0784299 C2.43635732,38.4856744 8.11615912,34.3179784 14.0838597,34.2592785 C17.2167813,34.2592785 19.4186143,35.2755213 20.983188,36.9091617 L23.5931473,35.4993148 L24.3468599,36.9657652 L16.1724741,41.6984481 L16.1724741,41.6984481 Z" id="Fill-49" fill="#1A171B"></path>
                        </g>
                    </g>
                    <path d="M64.35,48 L82,48 L82,42.15 L71.35,42.15 L71.35,31.4 L78.65,31.4 L78.65,25.75 L71.35,25.75 L71.35,17 L81.55,17 L81.55,11 L64.35,11 L64.35,48 Z M68.9,8.75 L73.7,8.75 L78.7,0.8 L72.2,0.8 L68.9,8.75 Z M91.35,48.15 L98.35,48.15 L106.5,11 L100.3,11 L97.15,27.55 C96.45,31.45 95.9,34.1 95.35,39.05 L95.15,39.05 C94.55,34.05 94,31.2 93.3,27.4 L90.2,11 L83.25,11 L91.35,48.15 Z M114.8,39.7 L113.2,48 L107.1,48 L115.3,10.85 L122.3,10.85 L130.5,48 L123.6,48 L122,39.7 L114.8,39.7 Z M121.1,34.85 L120.45,31.5 C119.75,27.55 119.15,24.9 118.5,19.5 L118.3,19.5 C117.7,24.95 117.1,27.45 116.4,31.35 L115.75,34.85 L121.1,34.85 Z M142.8,48.5 C148.95,48.5 153.05,44.55 153.05,38.8 C153.05,28.55 139.55,25.8 139.55,19.5 C139.55,17.65 140.6,16.5 142.4,16.5 C144.7,16.5 145.8,18.5 146.65,22.35 L152.85,20.8 C151.4,14.55 148.85,10.45 142.65,10.45 C136.6,10.45 132.7,14.1 132.7,19.95 C132.7,30.1 146.2,32.85 146.2,39.2 C146.2,41 145.2,42.65 142.85,42.65 C139.95,42.65 138.75,40.2 137.95,36.1 L131.85,37.2 C133.1,43.65 135.5,48.5 142.8,48.5 Z M157,48 L164,48 L164,11 L157,11 L157,48 Z M179.7,48.4 C172.6,48.4 167.8,43 167.8,29.5 C167.8,16 172.6,10.55 179.7,10.55 C186.75,10.55 191.6,16 191.6,29.5 C191.6,43 186.75,48.4 179.7,48.4 Z M179.7,42.35 C183.15,42.35 184.45,38.1 184.45,29.5 C184.45,20.9 183.15,16.8 179.7,16.8 C176.25,16.8 174.9,20.9 174.9,29.5 C174.9,38.1 176.25,42.35 179.7,42.35 Z M195.1,48 L200.6,48 L200.6,22.7 L200.75,22.7 C201.15,24 202.3,27.3 203.3,29.9 L210.55,48 L216.55,48 L216.55,11 L211,11 L211,34 L210.85,34 C210.25,31.85 209.4,29.6 208.4,26.65 L202.45,11 L195.1,11 L195.1,48 Z M230.2,48 L237.2,48 L237.2,31.95 L244.6,31.95 L244.6,26.35 L237.2,26.35 L237.2,17 L247.35,17 L247.35,11 L230.2,11 L230.2,48 Z M250.55,48 L257.55,48 L257.55,11 L250.55,11 L250.55,48 Z M272.15,48.5 C278.3,48.5 282.4,44.55 282.4,38.8 C282.4,28.55 268.9,25.8 268.9,19.5 C268.9,17.65 269.95,16.5 271.75,16.5 C274.05,16.5 275.15,18.5 276,22.35 L282.2,20.8 C280.75,14.55 278.2,10.45 272,10.45 C265.95,10.45 262.05,14.1 262.05,19.95 C262.05,30.1 275.55,32.85 275.55,39.2 C275.55,41 274.55,42.65 272.2,42.65 C269.3,42.65 268.1,40.2 267.3,36.1 L261.2,37.2 C262.45,43.65 264.85,48.5 272.15,48.5 Z M296.55,48.4 C303.95,48.4 306.55,42.4 307.45,34.85 L300.8,34.2 C300.25,40.5 299.15,42.4 296.6,42.4 C293.3,42.4 292.05,38.4 292.05,29.5 C292.05,20.75 293.2,16.8 296.55,16.8 C299,16.8 300,18.85 300.45,24.7 L307.1,24.1 C306.55,15.15 303.7,10.55 296.55,10.55 C289.35,10.55 284.95,15.95 284.95,29.5 C284.95,43.1 289.2,48.4 296.55,48.4 Z M316.3,39.7 L314.7,48 L308.6,48 L316.8,10.85 L323.8,10.85 L332,48 L325.1,48 L323.5,39.7 L316.3,39.7 Z M322.6,34.85 L321.95,31.5 C321.25,27.55 320.65,24.9 320,19.5 L319.8,19.5 C319.2,24.95 318.6,27.45 317.9,31.35 L317.25,34.85 L322.6,34.85 Z M334.65,48 L351.95,48 L351.95,42.15 L341.65,42.15 L341.65,11 L334.65,11 L334.65,48 Z M355,48 L372.65,48 L372.65,42.15 L362,42.15 L362,31.4 L369.3,31.4 L369.3,25.75 L362,25.75 L362,17 L372.2,17 L372.2,11 L355,11 L355,48 Z" id="ÉVASION-FISCALE" fill="#2E3942"></path>
                    <path d="M385.41,48 L385.41,25.8 L388.32,25.8 C392.46,25.8 394.11,28.38 394.11,36.9 C394.11,45.36 392.37,48 388.32,48 L385.41,48 Z M387.6,46.08 L388.62,46.08 C391.38,46.08 391.89,43.17 391.89,36.9 C391.89,30.69 391.38,27.78 388.59,27.78 L387.6,27.78 L387.6,46.08 Z M395.835405,48 L399.645405,25.71 L401.775405,25.71 L405.525405,48 L403.335405,48 L402.285405,41.31 L398.985405,41.31 L397.935405,48 L395.835405,48 Z M399.195405,39.6 L402.075405,39.6 C402.045405,39.15 401.055405,32.85 401.025405,32.49 C400.875405,31.56 400.755405,30.72 400.665405,29.46 L400.635405,29.46 C400.515405,30.78 400.395405,31.56 400.245405,32.49 C400.215405,32.88 399.255405,39.15 399.195405,39.6 Z M407.820811,48 L409.740811,48 L409.740811,35.07 C409.740811,34.68 409.680811,31.44 409.620811,30.54 L409.650811,30.54 C409.890811,32.13 410.340811,33.54 410.640811,34.65 L414.270811,48 L416.100811,48 L416.100811,25.8 L414.180811,25.8 L414.180811,37.65 C414.180811,38.16 414.210811,41.04 414.300811,42.57 L414.270811,42.57 C413.970811,40.86 413.580811,39.36 413.250811,38.07 L410.010811,25.8 L407.820811,25.8 L407.820811,48 Z M423.046216,48.21 C425.626216,48.21 427.366216,46.59 427.366216,43.35 C427.366216,40.17 425.626216,38.28 423.976216,36.24 C422.476216,34.38 421.066216,32.76 421.066216,30.21 C421.066216,28.53 421.636216,27.54 422.776216,27.54 C424.036216,27.54 424.666216,28.41 425.086216,31.38 L427.126216,31.08 C426.586216,27.66 425.656216,25.59 422.806216,25.59 C420.406216,25.59 418.906216,27.36 418.906216,30.39 C418.876216,33.48 420.616216,35.49 422.236216,37.53 C423.766216,39.51 425.206216,41.13 425.206216,43.41 C425.206216,45.39 424.456216,46.29 423.076216,46.29 C421.576216,46.29 420.946216,45.03 420.526216,41.91 L418.486216,42.15 C418.966216,45.9 419.896216,48.21 423.046216,48.21 Z M434.177027,48 L440.987027,48 L440.987027,46.05 L436.367027,46.05 L436.367027,25.8 L434.177027,25.8 L434.177027,48 Z M443.042433,48 L450.062433,48 L450.062433,46.08 L445.232433,46.08 L445.232433,37.17 L448.292433,37.17 L448.292433,35.25 L445.232433,35.25 L445.232433,27.78 L449.762433,27.78 L449.762433,25.8 L443.042433,25.8 L443.042433,48 Z M456.017838,48.21 C458.597838,48.21 460.337838,46.59 460.337838,43.35 C460.337838,40.17 458.597838,38.28 456.947838,36.24 C455.447838,34.38 454.037838,32.76 454.037838,30.21 C454.037838,28.53 454.607838,27.54 455.747838,27.54 C457.007838,27.54 457.637838,28.41 458.057838,31.38 L460.097838,31.08 C459.557838,27.66 458.627838,25.59 455.777838,25.59 C453.377838,25.59 451.877838,27.36 451.877838,30.39 C451.847838,33.48 453.587838,35.49 455.207838,37.53 C456.737838,39.51 458.177838,41.13 458.177838,43.41 C458.177838,45.39 457.427838,46.29 456.047838,46.29 C454.547838,46.29 453.917838,45.03 453.497838,41.91 L451.457838,42.15 C451.937838,45.9 452.867838,48.21 456.017838,48.21 Z M471.408649,48.21 C474.588649,48.21 475.608649,45.06 475.788649,40.8 L473.748649,40.68 C473.538649,44.55 472.998649,46.2 471.408649,46.2 C469.338649,46.2 468.828649,43.05 468.828649,36.9 C468.828649,30.78 469.308649,27.63 471.378649,27.63 C472.758649,27.63 473.358649,29.46 473.508649,33.03 L475.578649,32.88 C475.398649,27.93 474.198649,25.59 471.348649,25.59 C468.258649,25.59 466.638649,28.41 466.638649,36.9 C466.638649,45.39 468.168649,48.21 471.408649,48.21 Z M482.434055,48.21 C479.224055,48.21 477.604055,45.06 477.604055,36.9 C477.604055,28.74 479.224055,25.59 482.434055,25.59 C485.644055,25.59 487.264055,28.74 487.264055,36.9 C487.264055,45.06 485.644055,48.21 482.434055,48.21 Z M482.434055,46.2 C484.504055,46.2 485.044055,43.11 485.044055,36.9 C485.044055,30.69 484.504055,27.63 482.434055,27.63 C480.364055,27.63 479.794055,30.69 479.794055,36.9 C479.794055,43.11 480.364055,46.2 482.434055,46.2 Z M494.11946,48.21 C497.71946,48.21 498.34946,45.51 498.34946,41.25 L498.34946,25.8 L496.27946,25.8 L496.27946,41.07 C496.27946,44.49 496.12946,46.29 494.17946,46.29 C492.19946,46.29 492.10946,44.4 492.10946,41.01 L492.10946,25.8 L489.91946,25.8 L489.91946,41.34 C489.91946,45.48 490.51946,48.21 494.11946,48.21 Z M501.514866,48 L508.324866,48 L508.324866,46.05 L503.704866,46.05 L503.704866,25.8 L501.514866,25.8 L501.514866,48 Z M510.530271,48 L512.720271,48 L512.720271,25.8 L510.530271,25.8 L510.530271,48 Z M519.815676,48.21 C522.395676,48.21 524.135676,46.59 524.135676,43.35 C524.135676,40.17 522.395676,38.28 520.745676,36.24 C519.245676,34.38 517.835676,32.76 517.835676,30.21 C517.835676,28.53 518.405676,27.54 519.545676,27.54 C520.805676,27.54 521.435676,28.41 521.855676,31.38 L523.895676,31.08 C523.355676,27.66 522.425676,25.59 519.575676,25.59 C517.175676,25.59 515.675676,27.36 515.675676,30.39 C515.645676,33.48 517.385676,35.49 519.005676,37.53 C520.535676,39.51 521.975676,41.13 521.975676,43.41 C521.975676,45.39 521.225676,46.29 519.845676,46.29 C518.345676,46.29 517.715676,45.03 517.295676,41.91 L515.255676,42.15 C515.735676,45.9 516.665676,48.21 519.815676,48.21 Z M530.331082,48.21 C532.911082,48.21 534.651082,46.59 534.651082,43.35 C534.651082,40.17 532.911082,38.28 531.261082,36.24 C529.761082,34.38 528.351082,32.76 528.351082,30.21 C528.351082,28.53 528.921082,27.54 530.061082,27.54 C531.321082,27.54 531.951082,28.41 532.371082,31.38 L534.411082,31.08 C533.871082,27.66 532.941082,25.59 530.091082,25.59 C527.691082,25.59 526.191082,27.36 526.191082,30.39 C526.161082,33.48 527.901082,35.49 529.521082,37.53 C531.051082,39.51 532.491082,41.13 532.491082,43.41 C532.491082,45.39 531.741082,46.29 530.361082,46.29 C528.861082,46.29 528.231082,45.03 527.811082,41.91 L525.771082,42.15 C526.251082,45.9 527.181082,48.21 530.331082,48.21 Z M537.126487,48 L544.146487,48 L544.146487,46.08 L539.316487,46.08 L539.316487,37.17 L542.376487,37.17 L542.376487,35.25 L539.316487,35.25 L539.316487,27.78 L543.846487,27.78 L543.846487,25.8 L537.126487,25.8 L537.126487,48 Z M550.101893,48.21 C552.681893,48.21 554.421893,46.59 554.421893,43.35 C554.421893,40.17 552.681893,38.28 551.031893,36.24 C549.531893,34.38 548.121893,32.76 548.121893,30.21 C548.121893,28.53 548.691893,27.54 549.831893,27.54 C551.091893,27.54 551.721893,28.41 552.141893,31.38 L554.181893,31.08 C553.641893,27.66 552.711893,25.59 549.861893,25.59 C547.461893,25.59 545.961893,27.36 545.961893,30.39 C545.931893,33.48 547.671893,35.49 549.291893,37.53 C550.821893,39.51 552.261893,41.13 552.261893,43.41 C552.261893,45.39 551.511893,46.29 550.131893,46.29 C548.631893,46.29 548.001893,45.03 547.581893,41.91 L545.541893,42.15 C546.021893,45.9 546.951893,48.21 550.101893,48.21 Z M561.232704,48 L561.232704,25.8 L564.142704,25.8 C568.282704,25.8 569.932704,28.38 569.932704,36.9 C569.932704,45.36 568.192704,48 564.142704,48 L561.232704,48 Z M563.422704,46.08 L564.442704,46.08 C567.202704,46.08 567.712704,43.17 567.712704,36.9 C567.712704,30.69 567.202704,27.78 564.412704,27.78 L563.422704,27.78 L563.422704,46.08 Z M572.618109,48 L579.638109,48 L579.638109,46.08 L574.808109,46.08 L574.808109,37.17 L577.868109,37.17 L577.868109,35.25 L574.808109,35.25 L574.808109,27.78 L579.338109,27.78 L579.338109,25.8 L572.618109,25.8 L572.618109,48 Z M585.593515,48.21 C588.173515,48.21 589.913515,46.59 589.913515,43.35 C589.913515,40.17 588.173515,38.28 586.523515,36.24 C585.023515,34.38 583.613515,32.76 583.613515,30.21 C583.613515,28.53 584.183515,27.54 585.323515,27.54 C586.583515,27.54 587.213515,28.41 587.633515,31.38 L589.673515,31.08 C589.133515,27.66 588.203515,25.59 585.353515,25.59 C582.953515,25.59 581.453515,27.36 581.453515,30.39 C581.423515,33.48 583.163515,35.49 584.783515,37.53 C586.313515,39.51 587.753515,41.13 587.753515,43.41 C587.753515,45.39 587.003515,46.29 585.623515,46.29 C584.123515,46.29 583.493515,45.03 583.073515,41.91 L581.033515,42.15 C581.513515,45.9 582.443515,48.21 585.593515,48.21 Z M596.724326,48 L596.724326,25.8 L600.354326,25.8 C602.844326,25.8 605.004326,27.21 605.004326,32.19 C605.004326,37.83 602.664326,38.88 600.234326,38.88 L598.884326,38.88 L598.884326,48 L596.724326,48 Z M598.884326,36.96 L600.294326,36.96 C602.034326,36.96 602.844326,35.73 602.844326,32.25 C602.844326,28.98 602.034326,27.78 600.264326,27.78 L598.884326,27.78 L598.884326,36.96 Z M606.309731,48 L610.119731,25.71 L612.249731,25.71 L615.999731,48 L613.809731,48 L612.759731,41.31 L609.459731,41.31 L608.409731,48 L606.309731,48 Z M609.669731,39.6 L612.549731,39.6 C612.519731,39.15 611.529731,32.85 611.499731,32.49 C611.349731,31.56 611.229731,30.72 611.139731,29.46 L611.109731,29.46 C610.989731,30.78 610.869731,31.56 610.719731,32.49 C610.689731,32.88 609.729731,39.15 609.669731,39.6 Z M618.295137,48 L618.295137,25.8 L621.955137,25.8 C624.715137,25.8 626.545137,27.45 626.545137,32.16 C626.545137,35.61 625.675137,37.5 624.025137,38.19 L626.725137,48 L624.565137,48 L622.015137,38.73 L620.455137,38.73 L620.455137,48 L618.295137,48 Z M620.455137,36.93 L621.895137,36.93 C623.785137,36.93 624.385137,35.55 624.385137,32.22 C624.385137,29.04 623.785137,27.78 621.865137,27.78 L620.455137,27.78 L620.455137,36.93 Z M628.210542,48 L632.020542,25.71 L634.150542,25.71 L637.900542,48 L635.710542,48 L634.660542,41.31 L631.360542,41.31 L630.310542,48 L628.210542,48 Z M631.570542,39.6 L634.450542,39.6 C634.420542,39.15 633.430542,32.85 633.400542,32.49 C633.250542,31.56 633.130542,30.72 633.040542,29.46 L633.010542,29.46 C632.890542,30.78 632.770542,31.56 632.620542,32.49 C632.590542,32.88 631.630542,39.15 631.570542,39.6 Z M640.195947,48 L640.195947,25.8 L643.105947,25.8 C647.245947,25.8 648.895947,28.38 648.895947,36.9 C648.895947,45.36 647.155947,48 643.105947,48 L640.195947,48 Z M642.385947,46.08 L643.405947,46.08 C646.165947,46.08 646.675947,43.17 646.675947,36.9 C646.675947,30.69 646.165947,27.78 643.375947,27.78 L642.385947,27.78 L642.385947,46.08 Z M651.731353,48 L653.921353,48 L653.921353,25.8 L651.731353,25.8 L651.731353,48 Z M661.016758,48.21 C663.596758,48.21 665.336758,46.59 665.336758,43.35 C665.336758,40.17 663.596758,38.28 661.946758,36.24 C660.446758,34.38 659.036758,32.76 659.036758,30.21 C659.036758,28.53 659.606758,27.54 660.746758,27.54 C662.006758,27.54 662.636758,28.41 663.056758,31.38 L665.096758,31.08 C664.556758,27.66 663.626758,25.59 660.776758,25.59 C658.376758,25.59 656.876758,27.36 656.876758,30.39 C656.846758,33.48 658.586758,35.49 660.206758,37.53 C661.736758,39.51 663.176758,41.13 663.176758,43.41 C663.176758,45.39 662.426758,46.29 661.046758,46.29 C659.546758,46.29 658.916758,45.03 658.496758,41.91 L656.456758,42.15 C656.936758,45.9 657.866758,48.21 661.016758,48.21 Z M672.147569,48 L674.337569,48 L674.337569,37.2 L677.607569,37.2 L677.607569,35.31 L674.337569,35.31 L674.337569,27.78 L679.047569,27.78 L679.047569,25.8 L672.147569,25.8 L672.147569,48 Z M681.222975,48 L683.412975,48 L683.412975,25.8 L681.222975,25.8 L681.222975,48 Z M690.50838,48.21 C693.08838,48.21 694.82838,46.59 694.82838,43.35 C694.82838,40.17 693.08838,38.28 691.43838,36.24 C689.93838,34.38 688.52838,32.76 688.52838,30.21 C688.52838,28.53 689.09838,27.54 690.23838,27.54 C691.49838,27.54 692.12838,28.41 692.54838,31.38 L694.58838,31.08 C694.04838,27.66 693.11838,25.59 690.26838,25.59 C687.86838,25.59 686.36838,27.36 686.36838,30.39 C686.33838,33.48 688.07838,35.49 689.69838,37.53 C691.22838,39.51 692.66838,41.13 692.66838,43.41 C692.66838,45.39 691.91838,46.29 690.53838,46.29 C689.03838,46.29 688.40838,45.03 687.98838,41.91 L685.94838,42.15 C686.42838,45.9 687.35838,48.21 690.50838,48.21 Z M701.563786,48.21 C704.743786,48.21 705.763786,45.06 705.943786,40.8 L703.903786,40.68 C703.693786,44.55 703.153786,46.2 701.563786,46.2 C699.493786,46.2 698.983786,43.05 698.983786,36.9 C698.983786,30.78 699.463786,27.63 701.533786,27.63 C702.913786,27.63 703.513786,29.46 703.663786,33.03 L705.733786,32.88 C705.553786,27.93 704.353786,25.59 701.503786,25.59 C698.413786,25.59 696.793786,28.41 696.793786,36.9 C696.793786,45.39 698.323786,48.21 701.563786,48.21 Z M707.309191,48 L711.119191,25.71 L713.249191,25.71 L716.999191,48 L714.809191,48 L713.759191,41.31 L710.459191,41.31 L709.409191,48 L707.309191,48 Z M710.669191,39.6 L713.549191,39.6 C713.519191,39.15 712.529191,32.85 712.499191,32.49 C712.349191,31.56 712.229191,30.72 712.139191,29.46 L712.109191,29.46 C711.989191,30.78 711.869191,31.56 711.719191,32.49 C711.689191,32.88 710.729191,39.15 710.669191,39.6 Z M723.434597,48.21 C727.034597,48.21 727.664597,45.51 727.664597,41.25 L727.664597,25.8 L725.594597,25.8 L725.594597,41.07 C725.594597,44.49 725.444597,46.29 723.494597,46.29 C721.514597,46.29 721.424597,44.4 721.424597,41.01 L721.424597,25.8 L719.234597,25.8 L719.234597,41.34 C719.234597,45.48 719.834597,48.21 723.434597,48.21 Z M729.780002,48 L731.700002,48 L734.310002,38.58 L737.010002,48 L739.140002,48 L735.570002,36.09 L738.600002,25.8 L736.650002,25.8 L734.580002,33.39 L732.450002,25.8 L730.290002,25.8 L733.320002,35.94 L729.780002,48 Z" id="DANS-LES-COULISSES-D" fill="#A2A9AE"></path>
                </g>
            </g>
        </g>
    </g>
</svg>