<?xml version="1.0" encoding="utf-8"?>
<!-- Generator: Adobe Illustrator 17.0.0, SVG Export Plug-In . SVG Version: 6.00 Build 0)  -->
<!DOCTYPE svg PUBLIC "-//W3C//DTD SVG 1.1//EN" "http://www.w3.org/Graphics/SVG/1.1/DTD/svg11.dtd">
<svg version="1.1" id="Calque_1" xmlns="http://www.w3.org/2000/svg" xmlns:xlink="http://www.w3.org/1999/xlink" x="0px" y="0px"
	 width="307.393px" height="42.25px" viewBox="0 0 307.393 42.25" enable-background="new 0 0 307.393 42.25" xml:space="preserve">
<path fill="#6FAA12" d="M0,32.198l6.592-3.993c2.197,4.43,6.163,6.891,10.718,6.891c4.019,0,6.913-1.532,6.913-4.649
	c0-3.061-2.84-4.374-8.039-5.851c-7.075-2.024-14.47-3.883-14.47-12.36c0-7.547,5.789-12.086,14.309-12.086
	c8.146,0,12.969,3.992,15.756,8.312l-6.056,4.704c-2.089-3.446-5.895-5.742-9.754-5.742c-3.697,0-5.734,1.64-5.734,4.046
	c0,3.226,2.947,4.375,8.146,5.852c6.967,1.914,14.362,4.156,14.362,12.523c0,6.509-4.824,12.305-15.863,12.305
	C8.307,42.15,2.948,37.994,0,32.198z"/>
<path fill="#6FAA12" d="M34.839,21.15c0-14.219,9.111-21,18.704-21c9.539,0,18.649,6.781,18.649,21s-9.111,21-18.649,21
	C43.95,42.15,34.839,35.37,34.839,21.15z M63.511,21.15c0-8.476-3.859-13.618-9.968-13.618c-6.163,0-9.968,5.141-9.968,13.618
	c0,8.477,3.805,13.837,9.968,13.837C59.652,34.987,63.511,29.628,63.511,21.15z"/>
<path fill="#6FAA12" d="M83.988,8.353h-11.79V0.916h32.369v7.437H92.723v33.032h-8.735V8.353z"/>
<path fill="#6FAA12" d="M104.464,21.095c0-14.054,7.985-20.945,18.006-20.945c10.022,0,14.362,5.468,16.077,12.742l-8.253,2.461
	c-1.286-4.648-3.216-7.82-7.878-7.82c-6.002,0-9.218,5.196-9.218,13.562c0,8.532,3.323,13.892,9.325,13.892
	c4.663,0,6.968-3.009,8.361-8.532l8.199,1.86c-1.929,8.147-6.645,13.835-16.613,13.835C112.127,42.15,104.464,35.37,104.464,21.095z
	"/>
<path fill="#6FAA12" d="M143.429,0.916h8.735v15.695h15.596V0.916h8.735v40.469h-8.735V24.103h-15.596v17.282h-8.735V0.916z"/>
<path fill="#6FAA12" d="M183.039,0.916h8.681v40.469h-8.681V0.916z"/>
<path fill="#6FAA12" d="M220.712,41.385H196.26v-3.142l10.221-12.156c4.649-5.514,7.611-10.554,7.611-14.527
	c0-4.506-2.207-7.589-7.088-7.589c-1.509,0-3.368,0.475-4.646,1.186c-0.407,1.719-1.277,3.913-2.382,5.692h-2.207l0.407-8.123
	c2.788-1.186,6.737-1.897,10.223-1.897c7.725,0,11.56,3.973,11.56,9.783c0,5.039-3.428,9.783-9.235,16.188l-9.411,10.316v0.06
	h15.393c0.407-1.304,1.219-3.379,2.265-5.691h2.207L220.712,41.385z"/>
<path fill="#6FAA12" d="M236.344,41.919c-7.435,0-12.316-5.811-12.316-20.338c0-13.46,6.333-20.753,14-20.753
	c7.551,0,12.372,6.167,12.372,19.922C250.4,34.743,243.719,41.919,236.344,41.919z M236.807,4.742
	c-4.704,0-7.144,5.574-7.144,16.246c0,10.613,2.44,16.959,8.018,16.959c4.761,0,7.084-5.574,7.084-16.662
	C244.765,10.967,242.442,4.742,236.807,4.742z"/>
<path fill="#6FAA12" d="M255.053,41.385v-1.958c1.916-0.711,5.575-1.481,8.481-1.837V5.809l-8.074,3.617l-0.756-2.312l10.805-6.048
	h3.6v36.525c2.091,0.356,5.344,1.126,7.667,1.837v1.958H255.053z"/>
<path fill="#6FAA12" d="M301.004,31.424v6.344c1.626,0.475,3.195,1.067,4.474,1.779v1.839h-14.463v-1.839
	c1.451-0.83,2.846-1.363,4.53-1.779v-6.344h-15.8l-0.581-3.498l15.626-26.564h6.214v25.971h6.389v4.091H301.004z M295.602,5.75
	h-0.058l-12.779,21.583h12.837V5.75z"/>
</svg>
