<?xml version="1.0" encoding="utf-8"?>
<!-- Generator: Adobe Illustrator 16.0.0, SVG Export Plug-In . SVG Version: 6.00 Build 0)  -->
<!DOCTYPE svg PUBLIC "-//W3C//DTD SVG 1.0//EN" "http://www.w3.org/TR/2001/REC-SVG-20010904/DTD/svg10.dtd">
<svg version="1.0" id="Calque_1" xmlns="http://www.w3.org/2000/svg" xmlns:xlink="http://www.w3.org/1999/xlink" x="0px" y="0px"
	 width="568.05px" height="148px" viewBox="0 0 568.05 148" style="enable-background:new 0 0 568.05 148;" xml:space="preserve">
<path style="fill:#FFFFFF;" d="M561.64,27.57C561.64,12.036,541.79,0,519.745,0c-39.129,0-54.936,20.091-53.732,40.341
	c2.453,41.395,83.266,32.276,83.266,69.937c0,19.144-12.076,34.244-38.33,34.611c-6.09,0.009-13.078,0.886-25.742-5.859
	c4.09-3.28,7.508-6.213,7.322-16.201c-0.166-9.144-6.133-18.083-16.275-18.083c-5.289,0-10.969,5.383-10.969,13.042
	c0,15.318,20.705,29.652,45.664,29.652c29.318,0,57.102-15.041,57.102-45.037c0-46.383-81.871-37.97-81.871-68.82
	c0-18.082,13.178-31.298,33.326-30.938c11.131,0.198,16.648,2.417,21.119,4.732c-2.203,4.254-3.895,10.828-3.895,15.083
	c0,8.937,5.154,17.694,14.855,17.694C556.872,40.154,561.64,35.01,561.64,27.57L561.64,27.57z M387.862,71.053
	c20.918-1.884,41.115-13.414,41.115-33.536C428.981,9.851,404.636,0,374.813,0h-66.672v1.382
	c9.939,4.192,18.787,3.268,18.391,25.443v94.346c0.066,23.556-8.451,21.252-18.391,25.447V148h71.021
	c33.551,0,55.297-10.481,55.297-38.566C434.46,84.702,408.78,71.893,387.862,71.053L387.862,71.053z M372.536,69.438h-25.17V2.775
	h25.17c21.332,0,35.908,12.586,35.908,33.749C408.444,57.694,393.868,69.438,372.536,69.438L372.536,69.438z M413.302,108.442
	c0,22.635-13.428,35.64-37.244,35.64h-28.691V73.199h28.691C399.874,73.199,413.302,85.807,413.302,108.442L413.302,108.442z
	 M292.2,74.941c0-45.146-35.398-74.545-73.257-74.545c-37.865,0-73.26,29.399-73.26,74.545c0,45.146,35.395,73.059,73.26,73.059
	C256.802,148.007,292.2,120.088,292.2,74.941L292.2,74.941z M265.358,74.941c0,41.271-12.37,69.908-46.415,70.352
	c-38.173,0.501-46.894-29.08-46.894-70.352c0-41.277,12.926-71.83,46.894-71.83C253.757,3.111,265.358,33.667,265.358,74.941
	L265.358,74.941z M103.385,148l10.688-46.918h-1.724c-10.395,22.109-27.437,44.134-49.411,44.134H36.173V25.73
	c0-13.767,4.53-19.527,13.948-23.697V0H0.082v1.743C9.504,5.917,15.498,11.964,15.498,25.73v96.47
	c0,13.772-6.083,20.036-15.498,24.206V148H103.385L103.385,148z M111.832,20.774c0-11.503-5.36-18.854-14.817-18.854
	c-7.884,0-14.665,6.715-14.665,15.019c0,5.753,3.315,10.872,6.781,13.433c6.305,4.469,9.145,9.259,9.145,14.691
	c0,6.072-4.585,11.977-10.891,17.09c-2.38,1.806-5.135,3.15-8.286,4.43v1.981C97.735,64.504,111.832,35.153,111.832,20.774
	L111.832,20.774z"/>
</svg>
