<svg xmlns="http://www.w3.org/2000/svg" width="25.994" height="25.994" viewBox="0 0 25.994 25.994"><path fill="#A0A0A0" d="M20.104 21.538c-.381-.148-.791-.301-1.229-.455-.425-.156-.796-.297-1.114-.426-.318-.127-.576-.24-.773-.338-.523-.271-.92-.646-1.188-1.125-.269-.496-.403-1.025-.403-1.592 0-.367.213-.8.638-1.295.255-.269.479-.687.68-1.252.606-.255.912-.765.912-1.527 0-.566-.101-.984-.297-1.252l.095-.807c.035-.284.067-.588.096-.913l.012-.212-.012-.213c-.014-.664-.115-1.255-.308-1.771-.19-.516-.442-.938-.753-1.262-.297-.326-.637-.595-1.02-.807-.381-.213-.771-.361-1.166-.446-.596-.127-1.129-.184-1.604-.169-.475.014-.789.062-.944.148-.198.113-.371.265-.52.455-.148.191-.252.344-.308.457l-.085.254-.021.021c-.271-.111-.604-.075-.999.109-.397.17-.722.488-.977.955-.183.325-.296.693-.339 1.103-.07.452-.092.771-.063.954l.063.425.106.997.085.723c-.198.24-.297.657-.297 1.251 0 .764.304 1.273.912 1.527.198.553.417.969.658 1.252.438.48.657.912.657 1.295 0 .58-.142 1.111-.424 1.592-.27.494-.658.869-1.167 1.125-.198.099-.46.212-.785.339-.326.129-.7.27-1.125.426-.877.324-1.642.623-2.292.892l-.328.152c2.233 2.085 5.223 3.37 8.519 3.37s6.284-1.285 8.519-3.37l-.328-.152c-.338-.143-.7-.289-1.083-.438z"/><circle stroke="#A0A0A0" stroke-width=".994" cx="12.997" cy="12.997" r="12.5" fill="none"/></svg>