<?xml version="1.0" encoding="UTF-8" standalone="no"?>
<svg width="61px" height="60px" viewBox="0 0 61 60" version="1.1" xmlns="http://www.w3.org/2000/svg" xmlns:xlink="http://www.w3.org/1999/xlink" xmlns:sketch="http://www.bohemiancoding.com/sketch/ns">
    <!-- Generator: Sketch 3.3.2 (12043) - http://www.bohemiancoding.com/sketch -->
    <title>Logo COP21 Desktop</title>
    <desc>Created with Sketch.</desc>
    <defs></defs>
    <g id="Page-1" stroke="none" stroke-width="1" fill="none" fill-rule="evenodd" sketch:type="MSPage">
        <g id="Rubrique-COP21-DESKTOP" sketch:type="MSArtboardGroup" transform="translate(-1000.000000, -138.000000)">
            <g id="International" sketch:type="MSLayerGroup" transform="translate(0.000000, -1.000000)">
                <g id="Header" sketch:type="MSShapeGroup">
                    <g id="Nav-4" transform="translate(78.000000, 87.000000)">
                        <g id="Gratuit-2" transform="translate(24.000000, 47.000000)">
                            <g id="International-2" transform="translate(12.000000, 0.000000)">
                                <g id="Logo-COP21-Desktop" transform="translate(886.000000, 5.000000)">
                                    <path d="M14.6290541,56.683277 C14.6260135,57.0329392 14.622973,58.5152027 14.6168919,59.9168919 L27.0253378,59.9168919 C26.997973,58.7630068 26.9614865,57.0663851 26.964527,56.4856419 C26.9766892,54.8954392 27.2913851,52.3246622 28.9347973,50.2221284 C28.9347973,50.2221284 33.5974662,44.9878378 33.8452703,42.0628378 C33.8452703,42.0628378 35.233277,37.1508446 37.2643581,35.3827703 L37.2673986,35.3858108 C38.1734797,34.7731419 39.6451014,33.6694257 39.6451014,33.6694257 L39.6420608,33.6679054 C39.6618243,33.654223 39.6967905,33.6298986 39.7059122,33.6222973 C39.7059122,33.6222973 39.9157095,31.1351351 36.0648649,32.0275338 C36.0648649,32.0275338 32.4739865,32.8819257 29.4364865,38.1466216 L28.6581081,39.5331081 C28.6581081,39.5331081 26.2728041,35.7521959 25.4670608,34.0251689 C25.4670608,34.0251689 24.0744932,29.3503378 23.9452703,28.1128378 C23.9452703,28.1128378 23.2885135,23.0518581 21.8959459,20.097973 C21.8959459,20.097973 20.1141892,15.2878378 18.2837838,15.6222973 C18.0329392,15.5614865 17.6255068,15.5873311 17.1481419,16.0966216 C17.1481419,16.0966216 17.2378378,17.5408784 17.7744932,18.5716216 C18.0435811,19.9535473 18.5011824,22.3601351 18.5893581,23.2221284 C18.5893581,23.2221284 19.2658784,29.6726351 19.3646959,31.5760135 C19.3646959,31.5760135 19.4133446,32.3011824 18.8934122,31.122973 C18.8934122,31.122973 17.0523649,26.1243243 16.1858108,24.0126689 C16.1858108,24.0126689 13.3459459,18.1824324 12.1768581,16.6515203 C12.1768581,16.6515203 11.4015203,15.1951014 10.1989865,15.002027 C10.1974662,15.002027 10.1853041,14.9898649 10.1853041,14.9898649 C8.45371622,14.5413851 8.39746622,16.59375 8.39746622,16.59375 C8.41722973,16.6423986 8.44155405,16.6788851 8.46435811,16.7260135 C8.46435811,16.7260135 8.46283784,16.7260135 8.46283784,16.7275338 C8.46283784,16.7275338 11.079223,22.3966216 11.4288851,23.7967905 C11.4288851,23.7967905 13.5557432,30.6045608 13.8081081,31.3601351 C13.8081081,31.3601351 13.7412162,31.7675676 13.4994932,31.9408784 C13.4994932,31.9408784 13.160473,31.4650338 12.5037162,30.6456081 C12.5037162,30.6456081 11.0944257,28.0277027 9.22905405,24.6192568 C9.22905405,24.6192568 6.38158784,19.5856419 5.33868243,19.2922297 C5.33868243,19.2922297 4.44932432,18.9516892 3.83513514,19.366723 C3.52347973,19.535473 3.21486486,19.8410473 3.08108108,20.4248311 C3.08108108,20.4248311 3.20726351,20.8277027 3.43530405,21.2868243 C3.975,22.5 5.64881757,26.2429054 6.31621622,27.6810811 C6.31621622,27.6810811 9.54222973,34.70625 9.7125,34.9449324 C9.7125,34.9449324 9.68513514,35.6108108 8.95236486,35.1988176 C8.95236486,35.1988176 7.12956081,33.3136824 6.16875,32.2753378 C6.16875,32.2753378 2.84847973,28.0474662 1.57297297,28.389527 C1.57297297,28.389527 1.18378378,28.422973 0.825,28.6114865 C0.519425676,28.7224662 0.218412162,28.9748311 0.212331081,29.5540541 C0.212331081,29.5540541 0.492060811,29.9675676 0.850844595,30.3765203 C1.62466216,31.5349662 2.93057432,33.4869932 3.57668919,34.4219595 C3.57668919,34.4219595 7.24054054,39.1241554 8.94172297,41.495777 C8.94172297,41.495777 14.4253378,49.3449324 14.6199324,53.1577703 C14.6184122,53.1577703 14.6381757,55.2222973 14.6290541,56.683277" id="Fill-1" fill="#006131"></path>
                                    <path d="M29.1871622,0.752533784 C17.3959459,0.752533784 7.84256757,10.0581081 7.84256757,21.5361486 C7.84256757,33.0157095 17.3959459,42.3212838 29.1871622,42.3212838 C40.9753378,42.3212838 50.5287162,33.0157095 50.5287162,21.5361486 C50.5287162,10.0581081 40.9753378,0.752533784 29.1871622,0.752533784" id="Fill-2" fill="#FFFFFF"></path>
                                    <path d="M11.4136824,10.0900338 C11.4136824,10.0900338 11.5018581,9.87415541 11.6295608,10.0474662 C11.7572635,10.220777 11.9320946,10.3043919 11.9320946,10.3043919 L12.1905405,10.1326014 L12.4900338,9.79054054 C12.4900338,9.79054054 12.7439189,9.48648649 12.9202703,9.48648649 C13.0951014,9.48648649 13.1376689,9.44239865 13.2653716,9.57314189 C13.3930743,9.70236486 13.2197635,9.65827703 13.3048986,9.83158784 C13.3930743,10.0064189 13.352027,10.3910473 13.352027,10.3910473 L13.1787162,10.7361486 L12.9643581,11.1222973 L12.6618243,11.3366554 L12.4900338,11.5084459 L12.4474662,11.7684122 L12.1905405,12.0268581 C12.1905405,12.0268581 11.9320946,12.0694257 11.7572635,12.1986486 C11.5824324,12.3263514 11.327027,12.3263514 11.327027,12.3263514 C11.327027,12.3263514 10.9819257,12.1119932 10.9439189,12.3263514 C10.89375,12.54375 10.595777,12.4555743 10.6839527,12.672973 C10.7690878,12.8888514 10.7690878,12.6288851 10.7690878,12.8888514 C10.7690878,13.145777 10.7280405,13.404223 10.7280405,13.404223 C10.7280405,13.404223 10.7280405,13.5319257 10.6839527,13.6626689 C10.6413851,13.7918919 10.6839527,13.8755068 10.5106419,13.9636824 C10.3388514,14.0488176 10.3783784,14.0913851 10.1640203,14.2206081 C9.94966216,14.3498311 9.69121622,14.3498311 9.69121622,14.5672297 C9.69121622,14.7815878 9.56503378,14.7390203 9.56503378,14.9959459 C9.56503378,15.2543919 9.60456081,15.5143581 9.56503378,15.7271959 C9.52094595,15.9430743 9.69121622,15.8989865 9.47533784,16.2425676 C9.26402027,16.5876689 9.13175676,16.6743243 9.04662162,16.8886824 C8.95692568,17.1060811 9.17736486,17.2778716 9.17736486,17.2778716 L9.82195946,16.6743243 C9.82195946,16.6743243 10.0363176,16.4143581 10.0773649,16.2030405 C10.1199324,15.9856419 10.2096284,15.597973 10.3388514,15.3380068 C10.4695946,15.0795608 10.6413851,14.8226351 10.8070946,14.6949324 C10.9819257,14.5672297 10.9819257,14.3498311 11.1081081,14.0488176 C11.2434122,13.7478041 10.9439189,13.7052365 11.45625,13.404223 C11.9716216,13.1032095 11.4136824,12.9298986 12.1023649,12.8006757 C12.789527,12.672973 13.352027,12.8006757 13.520777,12.54375 C13.6940878,12.2853041 14.1243243,11.7684122 14.2535473,11.5981419 C14.3842905,11.4248311 14.5986486,10.5202703 14.5986486,10.5202703 C14.5986486,10.5202703 14.7278716,9.87415541 14.8540541,9.61570946 C14.9817568,9.35878378 14.9391892,9.01368243 15.3298986,8.71266892 C15.7160473,8.41013514 15.7631757,8.62753378 16.0185811,8.23834459 C16.2785473,7.85371622 16.2785473,8.06807432 16.5780405,7.67736486 C16.8775338,7.29425676 16.6206081,7.12246622 17.0918919,7.12246622 C17.5677365,7.12246622 18.2077703,6.8625 18.3400338,6.69070946 C18.4692568,6.51891892 19.0758446,6.43226351 19.2035473,6.2589527 C19.3327703,6.08868243 19.4589527,5.87432432 19.6733108,5.70101351 C19.8891892,5.52618243 19.7143581,5.65844595 20.1476351,5.31334459 C20.5778716,4.96976351 20.4501689,4.41182432 20.9214527,4.58361486 C21.395777,4.75540541 21.5706081,5.18564189 21.9111486,4.75540541 C22.2592905,4.32212838 22.1726351,4.27956081 22.5603041,4.15185811 C22.9434122,4.02263514 23.0726351,3.80523649 23.2459459,3.76570946 C23.4192568,3.72314189 23.6746622,3.50726351 23.9787162,3.3339527 C24.2751689,3.16216216 24.1945946,2.90371622 24.6658784,2.77297297 C25.1371622,2.64527027 25.2694257,2.90371622 25.6555743,2.42939189 C26.0447635,1.95810811 25.8684122,1.65557432 25.8684122,1.65557432 C25.8684122,1.65557432 25.8684122,1.43969595 26.0873311,1.35304054 C26.3032095,1.26942568 26.6452703,1.18125 26.6452703,1.18125 C26.6452703,1.18125 27.3795608,1.13868243 27.6851351,1.26942568 C27.9800676,1.39712838 28.6702703,1.26942568 28.8435811,1.26942568 C29.0108108,1.26942568 28.9697635,0.965371622 29.0594595,1.09611486 C29.1461149,1.22533784 29.2266892,1.61300676 29.3118243,1.74070946 C29.4015203,1.8714527 29.9594595,2.25760135 29.9594595,2.25760135 C29.9594595,2.25760135 30.1753378,2.04172297 30.3030405,2.08581081 C30.4337838,2.12837838 30.6040541,2.00067568 30.8244932,2.00067568 C30.9643581,2.00067568 31.1741554,1.8714527 31.3064189,1.78175676 C31.3748311,1.73462838 31.4204392,1.69814189 31.4204392,1.69814189 C31.4204392,1.69814189 31.7670608,1.52635135 32.0665541,1.61300676 C32.3736486,1.69814189 32.6275338,1.78631757 32.6275338,1.78631757 L33.2326014,1.74070946 L34.2177365,2.04172297 L35.2515203,2.12837838 L35.6391892,2.77297297 L35.8125,3.37652027 L35.8565878,3.80523649 L35.9402027,4.23851351 L35.5540541,4.02263514 L35.4673986,3.63496622 L35.2515203,3.80523649 L35.2956081,4.27956081 L35.3822635,4.67027027 L35.8565878,4.88158784 L36.2001689,5.09898649 L36.0268581,5.31334459 L35.7258446,5.35743243 L35.3822635,5.14307432 L35.2515203,5.44256757 L35.3822635,5.78766892 L35.1298986,5.87432432 L34.9064189,5.74358108 L34.7787162,5.61435811 L34.5202703,5.83023649 C34.5202703,5.83023649 34.35,5.87432432 34.35,6.00202703 C34.35,6.13125 34.1766892,6.17381757 34.1766892,6.17381757 L33.9668919,6.04459459 L33.9152027,5.78766892 L33.8741554,5.61435811 L33.61875,5.57179054 L33.3587838,5.61435811 L33.5320946,5.95793919 L33.5761824,6.08868243 L33.1018581,5.91537162 L32.8008446,5.65844595 L32.5849662,5.48513514 L32.3280405,5.52618243 L32.0665541,5.57179054 L31.8978041,5.57179054 L31.7244932,5.48513514 L31.59375,5.26925676 L31.2942568,5.18564189 L30.8640203,5.01385135 L30.6040541,4.92719595 L29.4456081,4.92719595 L28.8831081,5.31334459 L28.6246622,5.44256757 L28.1518581,5.61435811 L27.808277,5.78766892 L27.5908784,6.00202703 L27.3795608,6.21790541 L27.2944257,6.43226351 L27.20625,6.64662162 C27.0785473,6.73327703 26.8185811,6.90658784 26.8185811,6.90658784 L26.4734797,7.07685811 C26.4734797,7.07685811 26.4339527,7.12246622 26.3032095,7.20760135 C26.1709459,7.29425676 25.9535473,7.29425676 25.9535473,7.29425676 L25.7847973,7.46452703 L25.6114865,7.80810811 L25.6114865,8.06807432 C25.6114865,8.06807432 25.5248311,8.19577703 25.6114865,8.32804054 L25.7011824,8.45422297 L25.9185811,8.80084459 C26.0873311,8.75371622 26.345777,8.54087838 26.345777,8.54087838 L26.6027027,8.45422297 L26.8185811,8.54087838 L26.8991554,8.75371622 L26.8991554,8.92702703 L26.8611486,9.14290541 L26.8991554,9.35878378 L26.8991554,9.53209459 L26.9508446,9.74493243 C27.0329392,9.87415541 27.1636824,9.87415541 27.1636824,9.87415541 L27.3795608,9.87415541 L27.76875,9.65827703 L28.0652027,9.35878378 L28.1092905,9.01368243 L28.1518581,8.75371622 L28.1974662,8.49679054 L28.0652027,8.32804054 L27.9329392,8.06807432 L27.9329392,7.80810811 L28.1518581,7.59527027 C28.1518581,7.59527027 28.2385135,7.46452703 28.3677365,7.46452703 C28.4954392,7.46452703 28.6702703,7.33682432 28.6702703,7.33682432 L28.8831081,7.07685811 L28.9697635,6.81841216 L28.9697635,6.60405405 L29.1461149,6.43226351 L29.4015203,6.34560811 L29.7876689,6.51891892 L29.8743243,6.69070946 L29.7876689,6.90658784 L29.5778716,6.99324324 L29.2692568,7.12246622 L29.0594595,7.33682432 L28.8435811,7.55118243 L28.8831081,7.93885135 L29.1871622,8.23834459 L29.4015203,8.49679054 L29.4881757,8.75371622 L29.4456081,9.01368243 L29.3118243,9.14290541 L29.1871622,9.31621622 L29.0108108,9.44239865 L28.7143581,9.57314189 L28.3677365,9.70236486 L28.1518581,9.91824324 L27.639527,10.0474662 L27.3795608,10.1326014 L27.20625,10.1766892 L26.9888514,10.1326014 C26.8611486,9.96081081 26.7319257,9.79054054 26.7319257,9.79054054 C26.7319257,9.79054054 26.6452703,9.65827703 26.6452703,9.53209459 L26.6452703,9.27212838 L26.5616554,9.01368243 C26.4339527,8.97111486 26.1298986,9.01368243 26.1298986,9.01368243 L25.9185811,9.18851351 C25.9185811,9.18851351 25.74375,9.27212838 25.74375,9.40135135 C25.74375,9.53209459 25.5248311,9.44239865 25.6114865,9.65827703 C25.7011824,9.87415541 25.7011824,10.0900338 25.7011824,10.0900338 C25.6114865,10.2633446 25.3119932,10.3469595 25.3119932,10.3469595 C25.3119932,10.3469595 24.9699324,10.5202703 24.8407095,10.5628378 C24.7084459,10.6069257 24.4043919,10.6494932 24.4043919,10.6494932 L24.0653716,10.8197635 L23.8935811,10.9064189 L23.5074324,11.08125 L23.3766892,11.1648649 L23.0726351,11.210473 L22.9023649,11.2515203 L22.6880068,11.1648649 L22.3429054,11.1648649 L22.1726351,11.1222973 L22.0403716,11.0356419 L21.7469595,11.0356419 L21.7819257,11.210473 L21.9978041,11.3366554 L22.3429054,11.5981419 L22.5146959,11.7243243 L22.6013514,11.9402027 L22.5603041,12.1119932 L22.6013514,12.3263514 L22.3429054,12.7140203 L22.2972973,12.8432432 L21.9111486,13.0150338 L21.7469595,13.0576014 L21.395777,12.8888514 L21.2665541,12.8432432 L21.0947635,12.7581081 L20.9214527,12.5847973 L20.7070946,12.6288851 L20.4942568,12.672973 L20.4501689,12.9298986 L20.4501689,13.145777 L20.3239865,13.3616554 L20.1476351,13.5760135 L19.9363176,13.6626689 L19.7143581,14.1369932 L19.7599662,14.3939189 L19.6322635,14.5672297 L19.5501689,14.6949324 L19.3327703,14.8226351 L19.1579392,14.9092905 L18.9876689,14.9959459 L18.7717905,15.0385135 L19.0758446,15.2543919 L19.3327703,15.3836149 L19.5045608,15.3380068 L19.5866554,15.1677365 L19.7143581,15.1251689 L19.9363176,15.1677365 L20.1902027,15.2984797 C20.3680743,15.4246622 20.4942568,15.4702703 20.4942568,15.4702703 L20.664527,15.5538851 L20.8393581,15.5143581 L21.0506757,15.4702703 L21.3121622,15.3836149 L21.4793919,15.2543919 L21.6496622,15.0795608 L21.8670608,14.9092905 L22.0829392,14.7815878 L22.2972973,14.6067568 L22.4721284,14.3939189 L22.9434122,14.3939189 L23.1212838,14.5231419 L23.2900338,14.6067568 L23.2459459,14.2206081 L23.2033784,14.0488176 L23.1608108,13.7478041 C23.3310811,13.6201014 23.5074324,13.5319257 23.5074324,13.5319257 L23.6746622,13.4893581 L23.8494932,13.6201014 L24.0653716,13.8344595 C24.1945946,13.9636824 24.3648649,13.9636824 24.3648649,13.9636824 L24.5381757,14.0047297 L24.7084459,14.0047297 L24.6217905,14.2631757 L24.5381757,14.3939189 L24.4515203,14.6949324 L24.4515203,14.9092905 L24.3253378,15.2087838 L24.2751689,15.3380068 C24.1094595,15.4702703 24.3648649,15.5538851 24.3648649,15.5538851 L24.6217905,15.5143581 L24.883277,15.3836149 L24.9258446,15.0795608 L25.0565878,14.8682432 L25.1371622,14.6067568 L25.0961149,14.3498311 L25.1827703,14.1369932 L25.3560811,14.0913851 L25.6114865,14.1765203 L25.8684122,14.3498311 L26.1709459,14.6067568 L26.345777,14.9092905 L26.6027027,15.0385135 C26.6027027,15.0385135 26.6452703,15.0795608 26.7775338,15.2087838 C26.8991554,15.3380068 27.0329392,15.4702703 27.0329392,15.4702703 L27.0785473,15.6420608 L27.1636824,15.7697635 L26.9888514,15.9430743 L26.8611486,16.1574324 L26.7775338,16.3733108 L26.8185811,16.5010135 L27.0785473,16.329223 L27.3339527,15.9856419 L27.4206081,15.7271959 L27.5483108,15.4246622 L27.7231419,15.3380068 L27.9800676,15.5143581 L28.2385135,15.6420608 L28.0652027,15.2984797 L27.8934122,15.1251689 L27.7231419,14.9959459 L27.5072635,14.9092905 L27.2503378,14.6949324 L27.1195946,14.5231419 C26.9888514,14.3498311 26.8991554,14.2206081 26.8991554,14.2206081 L26.8185811,14.0913851 L26.6863176,13.9211149 L26.5160473,13.6626689 L26.3883446,13.5319257 L26.2195946,13.1898649 L26.3883446,13.0576014 L26.6027027,12.9298986 L26.8185811,12.9739865 L26.8991554,13.2324324 L26.8991554,13.4452703 L27.0329392,13.7052365 L27.3339527,13.9636824 L27.5072635,14.0913851 L27.7231419,14.3939189 L27.8934122,14.6523649 L28.0652027,14.8682432 L28.1518581,15.0795608 L28.4118243,15.6815878 L28.539527,16.1574324 L28.6246622,16.2851351 L28.7569257,16.5451014 L28.8435811,16.7609797 L29.0108108,16.93125 L29.1871622,17.0163851 L29.4456081,17.0163851 L29.6554054,16.8035473 L29.7010135,16.6317568 C29.7010135,16.6317568 29.7876689,16.5876689 29.8317568,16.4584459 C29.8743243,16.329223 30.0035473,16.2030405 30.0035473,16.2030405 L29.8743243,16.0282095 L29.5778716,16.0722973 L29.4881757,15.8594595 L29.8317568,15.7271959 L30.0461149,15.3836149 L30.3896959,15.3836149 L30.733277,15.4246622 L30.8244932,15.6420608 L30.9886824,15.9430743 L31.1209459,16.2030405 L31.1209459,16.5876689 L31.0753378,16.8035473 L31.0403716,17.0163851 L30.9886824,17.1440878 L31.2516892,17.3630068 L31.4675676,17.3630068 L31.7670608,17.2778716 L31.8537162,17.060473 L32.1532095,17.060473 L32.454223,17.1440878 L32.71875,17.060473 L32.9711149,16.9738176 L33.1429054,16.8476351 L33.4454392,16.8476351 L33.7875,16.8886824 L34.0961149,16.8035473 L34.35,16.7168919 L34.6525338,16.7609797 L34.8653716,16.5451014 L35.2515203,16.6317568 L35.3822635,16.8476351 L35.2515203,17.1912162 L35.0402027,17.5788851 C35.0402027,17.5788851 34.8653716,17.7491554 34.8653716,17.8783784 C34.8653716,18.0076014 34.9064189,18.2234797 34.9064189,18.2234797 L34.7787162,18.4378378 L34.3925676,18.5670608 L34.0489865,18.6521959 L33.7054054,18.8255068 L33.4454392,18.9547297 L33.1839527,19.0824324 L33.016723,19.2557432 L32.9711149,19.4716216 L32.8844595,19.6008446 L32.71875,19.6859797 L32.454223,19.8152027 L32.3280405,19.9429054 L31.9829392,19.9003378 L31.7670608,19.7300676 L31.6834459,19.558277 L31.5101351,19.5141892 L31.2942568,19.6859797 L31.0753378,19.558277 L30.8244932,19.6008446 L30.6496622,19.558277 L30.4337838,19.2983108 L30.3425676,18.9972973 L30.1342905,18.8665541 C29.9594595,18.7814189 29.7876689,18.7388514 29.7876689,18.7388514 L29.6143581,18.7388514 L29.1871622,18.8255068 L29.0594595,18.9547297 L29.0594595,19.1706081 L28.9697635,19.2983108 L28.8831081,19.6008446 L28.6702703,19.8152027 L28.4954392,19.8592905 L28.1092905,19.7300676 L27.9800676,19.4716216 L27.8493243,19.2983108 L27.808277,19.1706081 L27.5908784,19.1706081 L27.4662162,19.2116554 L27.2944257,19.3408784 L27.1636824,19.4275338 L27.0785473,18.8665541 L26.9508446,18.6521959 L26.8185811,18.5670608 L26.6863176,18.5244932 L26.4339527,18.5244932 L26.3032095,18.5244932 C26.1709459,18.3952703 26.0447635,18.2234797 26.0447635,18.2234797 L25.9185811,18.1368243 L25.7847973,18.1809122 L25.5689189,18.0076014 L25.5689189,17.8783784 L25.74375,17.7491554 L25.9185811,17.5788851 L26.1298986,17.2778716 L26.1298986,16.9738176 L25.7847973,16.7168919 L25.1371622,16.5876689 L24.2356419,16.7609797 C24.2356419,16.7609797 23.2459459,16.5010135 23.2459459,16.6317568 C23.2459459,16.7609797 22.5603041,16.5010135 22.5603041,16.5010135 L21.7819257,16.2851351 L21.2665541,16.1574324 L20.754223,15.8138514 L20.3680743,16.2425676 L20.1476351,16.6743243 L19.6733108,16.6743243 L19.2902027,17.060473 L19.1579392,17.4055743 L19.0758446,17.791723 L18.5954392,17.7491554 L18.166723,17.7491554 C18.166723,17.7491554 17.9569257,17.7081081 17.7790541,17.7081081 C17.6118243,17.7081081 17.6543919,17.7491554 17.4780405,17.7491554 C17.3077703,17.7491554 16.8334459,18.5244932 16.8334459,18.5244932 L16.4047297,18.8255068 C16.4047297,18.8255068 16.0185811,18.8255068 15.9775338,18.9547297 C15.9288851,19.0824324 15.6719595,19.1706081 15.6719595,19.3864865 C15.6719595,19.6008446 15.545777,19.6434122 15.5853041,19.8152027 C15.6309122,19.9885135 15.5853041,20.2028716 15.5853041,20.3731419 C15.5853041,20.5449324 15.4621622,20.8048986 15.4621622,20.8048986 L15.4135135,21.4084459 L15.3709459,21.9222973 L15.5032095,22.4407095 L15.5032095,23.3011824 L15.545777,23.945777 L15.5032095,24.2057432 L15.6309122,24.935473 L15.7631757,25.3231419 L16.1006757,25.7974662 L16.6646959,26.4010135 L16.9611486,26.5697635 L17.2621622,26.702027 L17.5221284,26.702027 L17.9113176,26.7856419 L18.2533784,26.9589527 L18.6410473,27.1748311 L18.8554054,27.3040541 L19.3327703,27.1322635 C19.3327703,27.1322635 19.5501689,27.0440878 19.6733108,27.0440878 C19.8040541,27.0440878 20.1050676,27.0896959 20.1050676,27.0896959 L20.664527,27.3451014 L20.8804054,27.5609797 L21.0506757,27.9045608 L21.1388514,28.2922297 L21.1388514,28.7650338 L21.3121622,28.7239865 L21.6983108,28.6798986 L22.0403716,28.7650338 L22.2592905,28.9809122 L22.4721284,29.4126689 L22.3429054,29.6695946 L22.1726351,30.0146959 L21.9978041,30.1880068 L22.1300676,30.4844595 L22.2136824,30.7459459 L22.4721284,31.089527 L22.6454392,31.3905405 L22.8613176,31.6930743 L23.0300676,31.8633446 L23.2459459,32.4684122 L23.2459459,32.9837838 L23.2900338,33.3273649 L23.2900338,33.5858108 C23.2900338,33.7150338 23.2459459,33.8853041 23.2459459,33.8853041 L22.9890203,34.1011824 L22.6880068,34.1878378 L22.4326014,34.4037162 L22.2592905,34.6621622 L22.1726351,34.8324324 L22.2592905,35.0087838 L22.1726351,35.2626689 C22.1726351,35.2626689 21.9978041,35.2626689 22.1726351,35.4359797 C22.3429054,35.6077703 22.385473,35.7369932 22.385473,35.7369932 L22.5146959,36.0805743 L22.6013514,36.3390203 C22.6013514,36.3390203 22.6454392,36.5959459 22.6013514,36.7266892 C22.5603041,36.8543919 22.5146959,36.9866554 22.5603041,37.1143581 C22.6013514,37.2435811 22.6454392,37.4153716 22.6454392,37.4153716 C22.6454392,37.4153716 22.6880068,37.502027 22.7290541,37.6738176 C22.7746622,37.8456081 22.9890203,38.1451014 22.9890203,38.1451014 L23.1608108,38.4065878 L23.1212838,38.6179054 L22.9434122,38.9219595 L23.2459459,39.0952703 L23.7628378,39.3521959 C23.7628378,39.3521959 24.1094595,39.3947635 24.2751689,39.4798986 C24.4515203,39.5665541 24.8407095,39.7398649 25.0961149,39.8265203 C25.3560811,39.9101351 25.7011824,39.9527027 26.0873311,40.0393581 C26.4734797,40.1260135 26.8611486,40.2126689 27.0785473,40.2126689 C27.2944257,40.2126689 27.5908784,40.1685811 27.8934122,40.1685811 C28.1974662,40.1685811 28.4543919,40.2552365 28.7143581,40.1685811 C28.9697635,40.0834459 29.2692568,40.2126689 29.4015203,40.0834459 C29.5307432,39.9527027 29.7876689,39.7824324 29.7876689,39.7824324 C29.7876689,39.7824324 29.9153716,39.4798986 30.0035473,39.3081081 C30.0932432,39.1363176 30.0932432,39.0496622 30.2163851,38.9630068 C30.3425676,38.8793919 30.3896959,39.0496622 30.6040541,38.8793919 C30.8244932,38.7060811 31.0403716,38.4902027 31.0403716,38.4902027 C31.0403716,38.4902027 31.0403716,38.4902027 31.2942568,38.2317568 C31.5511824,37.9748311 31.59375,37.7179054 31.7244932,37.7589527 C31.8537162,37.8015203 31.7670608,37.8015203 32.0255068,37.7179054 C32.285473,37.6297297 32.1988176,37.4579392 32.5423986,37.4153716 C32.8844595,37.3743243 33.2766892,37.2846284 33.2766892,37.2846284 L33.4454392,37.1994932 L33.747973,36.5959459 L33.8741554,36.039527 L33.8331081,35.6518581 C33.8331081,35.6518581 33.5320946,35.4785473 33.5320946,35.2626689 C33.5320946,35.0483108 33.4454392,34.6180743 33.4454392,34.6180743 C33.4454392,34.6180743 33.4454392,34.6180743 33.5320946,34.2304054 C33.61875,33.8442568 33.7875,33.4535473 33.7875,33.4535473 C33.7875,33.4535473 33.8331081,33.4125 34.1766892,33.1966216 C34.5202703,32.9837838 35.4293919,32.8971284 35.4293919,32.8971284 C35.4293919,32.8971284 35.8565878,32.3376689 36.1119932,32.2069257 C36.3734797,32.079223 36.7596284,31.7341216 36.9283784,31.6489865 C37.1047297,31.5623311 37.1898649,31.2643581 37.5790541,31.0469595 C37.9652027,30.8310811 38.3528716,30.7459459 38.5231419,30.5315878 C38.697973,30.3141892 38.8195946,30.0587838 39.0415541,29.8413851 C39.2528716,29.6285473 39.5143581,29.2804054 39.7302365,29.1101351 C39.9400338,28.9383446 40.1148649,28.5491554 40.2836149,28.4199324 C40.4614865,28.2922297 40.8932432,27.6476351 41.1091216,27.4743243 C41.3204392,27.3040541 41.7947635,26.7445946 41.9224662,26.5697635 C42.0501689,26.4010135 42.225,26.0118243 42.4819257,25.5390203 C42.7403716,25.0646959 42.8680743,24.6755068 42.8680743,24.4626689 C42.8680743,24.2483108 42.5670608,23.9032095 42.5670608,23.9032095 C42.5670608,23.9032095 41.9680743,23.9898649 41.9224662,24.1616554 C41.8783784,24.3349662 41.6625,24.8077703 41.4922297,24.9780405 C41.3204392,25.1513514 41.2368243,25.36875 40.9783784,25.5815878 C40.7168919,25.7974662 40.5481419,25.9677365 40.3748311,25.9677365 C40.2015203,25.9677365 40.2015203,26.0118243 39.9400338,25.7974662 C39.6861486,25.5815878 39.6451014,25.3231419 39.3851351,25.2790541 C39.1266892,25.2380068 38.5657095,25.2790541 38.5657095,25.2790541 L38.1810811,24.935473 L37.8375,24.2483108 L37.4513514,23.5170608 L36.9755068,23.1719595 C36.9755068,23.1719595 36.8006757,22.9560811 36.7596284,22.8298986 C36.7170608,22.6991554 36.4601351,22.0089527 36.4601351,22.0089527 L36.1119932,21.8371622 L35.7258446,21.5361486 L35.5540541,21.15 L35.3822635,20.8930743 C35.3822635,20.8930743 35.4293919,20.8474662 35.2515203,20.6315878 C35.0842905,20.4217905 34.7969595,20.177027 34.8243243,20.2423986 C34.7878378,20.1724662 34.6099662,19.7711149 34.6099662,19.7711149 C34.6099662,19.7711149 34.6966216,19.0824324 34.7376689,19.2116554 C34.7787162,19.3408784 34.8653716,19.3864865 34.9535473,19.6008446 C35.0402027,19.8152027 35.0402027,19.9003378 35.2074324,19.9429054 C35.3822635,19.9885135 35.7258446,20.1131757 35.7258446,20.1131757 L36.0268581,20.3320946 L36.4175676,20.6771959 L36.5878378,21.1043919 C36.5878378,21.1043919 36.8006757,21.4935811 36.8462838,21.6197635 C36.8903716,21.7505068 36.8903716,22.1822635 37.1488176,22.3966216 C37.4072635,22.6125 37.4513514,22.5699324 37.5790541,22.6991554 C37.7052365,22.8298986 38.0488176,22.9135135 38.2677365,23.0427365 C38.4820946,23.1719595 38.8195946,23.2570946 38.8195946,23.2570946 C38.8195946,23.2570946 39.0810811,23.3878378 39.2148649,23.5170608 C39.3410473,23.6447635 39.3410473,23.6006757 39.5143581,23.8165541 C39.6861486,24.0324324 39.597973,24.0324324 39.6451014,24.2057432 C39.6861486,24.3760135 39.7302365,24.7636824 39.7302365,24.7636824 L40.1148649,24.8077703 C40.1148649,24.8077703 40.5481419,24.8913851 40.5891892,24.7636824 C40.6317568,24.6359797 41.2368243,24.075 41.2368243,24.075 L41.7947635,23.7314189 L42.2675676,23.472973 L42.6081081,23.1719595 L42.6537162,22.7858108 L42.7875,22.3966216 L43.0839527,22.2673986 L43.2557432,21.88125 L43.4320946,21.4084459 L43.6449324,20.8474662 L43.8608108,20.41875 L44.0326014,20.0751689 L43.9869932,19.6859797 L43.9033784,19.3864865 L43.5537162,19.2983108 L43.2557432,19.3864865 L42.95625,19.4275338 L42.6993243,19.1706081 L42.5670608,18.9972973 C42.5670608,18.9972973 42.3116554,18.8255068 42.3527027,18.9547297 C42.3983108,19.0824324 42.3116554,19.2557432 42.3116554,19.2557432 C42.3116554,19.2557432 42.225,19.4716216 42.1793919,19.6008446 C42.1368243,19.7300676 42.0106419,19.9003378 42.0106419,19.9003378 C42.0106419,19.9003378 41.9680743,20.1131757 41.8783784,20.2028716 C41.7947635,20.2864865 41.5804054,20.2864865 41.5804054,20.2864865 L41.4922297,20.1131757 L41.4070946,19.8592905 C41.4070946,19.8592905 41.3204392,19.7711149 41.4070946,19.6434122 C41.4922297,19.5141892 41.4922297,19.1706081 41.4922297,19.1706081 L41.4922297,18.9972973 L41.2368243,18.9972973 L41.1456081,19.3408784 L40.9783784,19.558277 L40.7594595,19.3408784 L40.6317568,19.0398649 L40.2836149,18.8255068 L40.0738176,18.6521959 L39.8594595,18.2660473 L39.7302365,17.9239865 L39.9841216,17.5788851 L40.329223,17.4481419 C40.329223,17.4481419 40.4143581,17.791723 40.5891892,17.8783784 C40.7594595,17.9650338 41.2368243,18.2234797 41.2368243,18.2234797 L41.5363176,18.5244932 L42.095777,18.7388514 L42.3116554,18.3952703 L42.4819257,18.2660473 L42.6993243,18.5244932 L42.8680743,18.7388514 L43.1736486,18.8665541 L43.3880068,18.6521959 L43.6008446,18.4378378 L43.9869932,18.3952703 L44.3305743,18.0076014 L44.7608108,17.8358108 C44.7608108,17.8358108 45.0192568,17.7491554 45.1059122,17.9239865 C45.1940878,18.0942568 45.583277,18.5670608 45.583277,18.5670608 L46.0530405,19.4275338 L46.0986486,19.6859797 C46.0986486,19.6859797 46.1807432,19.7300676 46.3114865,19.9885135 C46.4391892,20.2454392 46.9591216,20.8474662 47.0032095,20.9782095 C47.0442568,21.1043919 47.3878378,21.1043919 47.3422297,21.3658784 C47.3011824,21.6197635 47.6006757,21.8371622 47.6447635,22.0545608 C47.6858108,22.2673986 48.3364865,22.4407095 48.2513514,22.8694257 C48.1616554,23.3011824 48.2513514,23.0837838 48.3364865,23.3011824 C48.4185811,23.5170608 48.5918919,23.4304054 48.5918919,23.4304054 L48.8944257,21.5817568 L48.80625,21.0177365 C48.80625,21.0177365 49.0221284,20.6315878 48.9780405,20.4597973 C48.9369932,20.2864865 48.7652027,19.9003378 48.80625,19.7711149 C48.8533784,19.6434122 49.0662162,18.8665541 49.0662162,18.8665541 C49.0662162,18.8665541 49.1559122,18.8255068 49.1559122,18.6521959 C49.1559122,18.4804054 49.0662162,18.4378378 49.2820946,18.2234797 C49.4918919,18.0076014 49.5831081,17.8783784 49.5831081,17.7081081 C49.5831081,17.5347973 49.4918919,16.93125 49.4918919,16.93125 C49.4918919,16.93125 49.7153716,16.689527 49.8871622,16.4584459 C47.5641892,7.43564189 39.1738176,0.752533784 29.1871622,0.752533784 C21.5021959,0.752533784 14.7628378,4.70827703 11.0092905,10.6403716 L11.0685811,10.6069257 L11.4136824,10.0900338 L11.4136824,10.0900338 Z M42.95625,10.1326014 L43.3439189,9.83158784 L43.5172297,9.83158784 L43.5537162,10.0900338 L43.4731419,10.3910473 L43.2983108,10.4777027 L42.95625,10.4336149 L42.95625,10.1326014 L42.95625,10.1326014 Z M39.9841216,11.08125 L40.3748311,11.08125 L40.8932432,11.210473 C40.8932432,11.210473 41.1091216,11.4673986 41.1456081,11.5981419 C41.1881757,11.7243243 41.0194257,11.9402027 41.0194257,11.9402027 L40.8035473,12.1986486 L40.4143581,12.1560811 L40.2015203,11.9402027 L40.0327703,11.6817568 L39.9400338,11.4673986 L39.9841216,11.08125 L39.9841216,11.08125 Z M37.3190878,12.8888514 L37.4513514,12.5011824 C37.4513514,12.5011824 37.5790541,12.2853041 37.7478041,12.0694257 C37.9211149,11.8535473 38.0898649,11.8125 38.1810811,11.6376689 C38.1810811,11.6376689 38.3087838,11.4673986 38.697973,11.6817568 C39.0810811,11.8991554 39.0415541,12.0268581 39.0415541,12.0268581 L38.9974662,12.3263514 C38.9974662,12.3263514 38.6128378,12.5011824 38.4820946,12.5011824 C38.3528716,12.5011824 38.4820946,12.7140203 38.5231419,12.8432432 C38.5657095,12.9739865 38.7846284,13.1898649 38.7846284,13.1898649 C38.7846284,13.1898649 39.0415541,13.404223 39.1692568,13.404223 C39.2954392,13.404223 39.6861486,13.404223 39.8153716,13.5319257 C39.9400338,13.6626689 39.9400338,13.7918919 39.9400338,13.7918919 C39.9400338,13.7918919 39.7302365,14.0913851 39.597973,14.2206081 C39.4672297,14.3498311 39.597973,14.2206081 39.6861486,14.3498311 C39.7728041,14.4775338 39.9005068,14.5672297 39.9005068,14.5672297 L40.4614865,14.9092905 C40.4614865,14.9092905 40.5025338,15.2543919 40.329223,15.3836149 C40.160473,15.5143581 40.2015203,15.597973 39.9400338,15.6420608 C39.6861486,15.6815878 39.7302365,15.597973 39.3410473,15.3836149 C38.9533784,15.1677365 38.9123311,15.2984797 38.697973,15.2087838 C38.4820946,15.1251689 38.697973,15.0795608 38.6554054,14.9092905 C38.6128378,14.7390203 38.6554054,14.6523649 38.6554054,14.3498311 C38.6554054,14.0488176 38.5657095,14.1369932 38.4820946,14.0047297 C38.3923986,13.8755068 38.1339527,13.6201014 38.1339527,13.6201014 L37.8375,13.3616554 C37.8375,13.3616554 37.7052365,13.2324324 37.4923986,13.1032095 C37.2795608,12.9739865 37.3190878,12.8888514 37.3190878,12.8888514 L37.3190878,12.8888514 Z M36.5011824,14.2631757 C36.4601351,14.3939189 36.4175676,14.5231419 36.2396959,14.5672297 C36.0739865,14.6067568 36.0268581,14.6949324 35.8565878,14.6523649 C35.683277,14.6067568 35.4293919,14.7390203 35.08125,14.6949324 C34.7376689,14.6523649 34.7376689,14.8226351 34.5658784,14.8226351 C34.3925676,14.8226351 34.2618243,14.9518581 33.9152027,14.9518581 C33.5761824,14.9518581 33.747973,14.9518581 33.3587838,14.9959459 C32.9711149,15.0385135 32.9285473,15.1677365 32.9285473,15.1677365 L32.4177365,15.0795608 L31.7670608,14.9092905 L31.2942568,14.5672297 L31.3383446,14.4349662 L31.2076014,14.3498311 L31.3778716,14.1369932 L31.59375,13.9211149 C31.59375,13.9211149 31.7670608,13.6626689 31.8096284,13.4452703 C31.8537162,13.2324324 31.9829392,13.3160473 32.1121622,13.2324324 C32.2413851,13.145777 32.4998311,13.2324324 32.9285473,13.2324324 C33.3587838,13.2324324 33.1018581,13.3616554 33.1018581,13.3616554 L33.3131757,13.5319257 L33.4864865,13.7052365 L33.61875,13.6626689 L34.0489865,13.7478041 L34.3059122,13.6626689 L34.1341216,13.4452703 L33.747973,13.0576014 L33.9668919,12.8006757 L34.3059122,12.5847973 L34.5658784,12.7140203 C34.5658784,12.7140203 34.5658784,13.0576014 34.4777027,13.1898649 C34.3925676,13.3160473 34.6525338,13.404223 34.6525338,13.404223 C34.6525338,13.404223 34.6525338,13.404223 34.8653716,13.2734797 C35.08125,13.145777 35.08125,13.2734797 35.08125,13.2734797 L35.5981419,13.404223 L36.1119932,13.404223 L36.4175676,13.7052365 C36.4175676,13.7052365 36.5391892,14.1369932 36.5011824,14.2631757 L36.5011824,14.2631757 Z" id="Fill-3" fill="#E36529"></path>
                                    <path d="M11.4136824,31.820777 C11.7572635,32.0366554 11.5824324,31.8633446 11.7162162,32.1217905 C11.8423986,32.3817568 11.8423986,32.5079392 12.1464527,32.8971284 C12.4474662,33.283277 12.3152027,32.9837838 12.7043919,33.1966216 C13.0951014,33.4125 13.1787162,33.1966216 13.4341216,33.2407095 C13.6940878,33.283277 13.8217905,33.4991554 14.2535473,33.7591216 C14.6853041,34.0160473 14.814527,34.2760135 15.2873311,34.8324324 C15.7631757,35.3918919 15.7631757,35.308277 15.7631757,35.308277 C15.7631757,35.308277 16.1478041,35.8221284 16.1918919,35.9939189 C16.2344595,36.1672297 16.2785473,36.7266892 16.2785473,36.7266892 L16.7072635,36.8543919 C16.7072635,36.8543919 16.6646959,36.4241554 16.5780405,35.8646959 C16.4944257,35.308277 16.1918919,35.3493243 15.9288851,34.7032095 C15.6719595,34.0586149 15.6719595,34.3155405 15.2432432,33.5432432 C14.814527,32.7679054 14.5986486,33.0704392 14.2094595,32.6827703 C13.8217905,32.2935811 13.7807432,32.2935811 13.4341216,31.8633446 C13.0951014,31.4346284 12.789527,31.3905405 12.4048986,30.9603041 C12.0172297,30.5315878 12.058277,30.4844595 11.6295608,29.9295608 C11.2008446,29.3670608 11.1081081,29.3670608 10.854223,28.7239865 C10.595777,28.0778716 10.595777,28.2922297 10.4695946,27.9471284 C10.3388514,27.6050676 10.0773649,27.5184122 9.86756757,27.0896959 C9.64560811,26.6564189 9.69121622,26.702027 9.64560811,26.0984797 C9.60456081,25.4949324 9.73986486,25.6226351 9.69121622,25.1939189 C9.64560811,24.7636824 9.60456081,24.5478041 9.52094595,24.1190878 C9.43125,23.6873311 9.13175676,22.6125 9.13175676,22.483277 C9.13175676,22.3540541 9.30506757,21.6668919 9.34763514,21.3202703 C9.39172297,20.9782095 9.26402027,20.8930743 9.21841216,20.6771959 C9.17736486,20.4597973 9.13175676,20.3731419 8.95692568,19.8152027 L8.70152027,19.4716216 C8.70152027,19.4716216 8.49172297,19.2116554 8.27128378,18.7388514 C8.07060811,18.2994932 8.24391892,18.2675676 8.16486486,17.9194257 C7.95050676,19.0915541 7.84256757,20.3016892 7.84256757,21.5361486 C7.84256757,25.1513514 8.78817568,28.5491554 10.4589527,31.5121622 C10.6444257,31.5760135 10.595777,31.5197635 10.9819257,31.7797297 C11.5018581,32.1217905 11.0685811,31.6064189 11.4136824,31.820777" id="Fill-4" fill="#E36529"></path>
                                    <path d="M8.57685811,17.0163851 C8.74408784,16.6317568 9.04662162,15.8594595 9.04662162,15.597973 C9.04662162,15.3380068 9.21841216,15.2087838 9.21841216,14.9092905 C9.21841216,14.6067568 9.60456081,14.2206081 9.60456081,14.2206081 C9.60456081,14.2206081 9.99375,13.7478041 10.0363176,13.5319257 C10.0773649,13.3160473 10.3783784,13.1032095 10.3783784,13.1032095 L10.5106419,12.6288851 C10.5106419,12.6288851 10.4255068,12.0268581 10.3388514,11.8535473 C10.3327703,11.8459459 10.3221284,11.8322635 10.3114865,11.8201014 C9.37652027,13.5486486 8.68175676,15.4185811 8.26824324,17.3903716 C8.36706081,17.2945946 8.49172297,17.1988176 8.57685811,17.0163851" id="Fill-5" fill="#E36529"></path>
                                    <path d="M36.7596284,35.3918919 C36.7170608,35.5652027 36.4601351,35.4785473 36.2868243,35.6518581 C36.1119932,35.8221284 35.9858108,35.6518581 35.8991554,35.9939189 C35.8125,36.3390203 35.5981419,36.5959459 35.4293919,36.6415541 C35.2515203,36.6826014 35.0402027,36.8984797 35.0402027,36.8984797 L34.6966216,36.9866554 L34.6099662,37.1569257 C34.6099662,37.1569257 34.7787162,37.4579392 34.7376689,37.5871622 C34.6966216,37.7179054 34.5658784,38.0158784 34.5658784,38.0158784 C34.5658784,38.0158784 34.3925676,38.2317568 34.35,38.4065878 C34.3059122,38.5768581 34.2177365,38.3199324 34.3059122,38.5768581 C34.3925676,38.8337838 34.35,39.0496622 34.5202703,39.0496622 C34.6966216,39.0496622 34.9535473,39.0086149 35.08125,39.0086149 C35.2074324,39.0086149 35.5540541,38.9219595 35.6391892,38.7927365 C35.7258446,38.6635135 35.8991554,38.5327703 35.9402027,38.2758446 C35.9858108,38.0158784 36.8006757,37.2846284 36.8462838,37.1569257 C36.8903716,37.0277027 37.0165541,36.9410473 37.1047297,36.5959459 C37.1898649,36.2523649 37.1488176,36.0805743 37.2339527,35.9103041 C37.3190878,35.7369932 37.1898649,35.5211149 37.1898649,35.5211149 C37.1898649,35.5211149 36.8006757,35.2216216 36.7596284,35.3918919" id="Fill-6" fill="#E36529"></path>
                                    <path d="M35.5981419,13.404223 L35.08125,13.2734797 C35.08125,13.2734797 35.08125,13.145777 34.8653716,13.2734797 L34.6525338,13.404223 C34.6525338,13.404223 34.3925676,13.3160473 34.4777027,13.1898649 C34.5658784,13.0576014 34.5658784,12.7140203 34.5658784,12.7140203 L34.3059122,12.5847973 L33.9668919,12.8006757 L33.747973,13.0576014 L34.1341216,13.4452703 L34.3059122,13.6626689 L34.0489865,13.7478041 L33.61875,13.6626689 L33.4864865,13.7052365 L33.3131757,13.5319257 L33.1018581,13.3616554 C33.1018581,13.3616554 33.3587838,13.2324324 32.9285473,13.2324324 C32.4998311,13.2324324 32.2413851,13.145777 32.1121622,13.2324324 C31.9829392,13.3160473 31.8537162,13.2324324 31.8096284,13.4452703 C31.7670608,13.6626689 31.59375,13.9211149 31.59375,13.9211149 L31.3778716,14.1369932 L31.2076014,14.3498311 L31.3383446,14.4349662 L31.2942568,14.5672297 L31.7670608,14.9092905 L32.4177365,15.0795608 L32.9285473,15.1677365 C32.9285473,15.1677365 32.9711149,15.0385135 33.3587838,14.9959459 C33.747973,14.9518581 33.5761824,14.9518581 33.9152027,14.9518581 C34.2618243,14.9518581 34.3925676,14.8226351 34.5658784,14.8226351 C34.7376689,14.8226351 34.7376689,14.6523649 35.08125,14.6949324 C35.4293919,14.7390203 35.683277,14.6067568 35.8565878,14.6523649 C36.0268581,14.6949324 36.0739865,14.6067568 36.2396959,14.5672297 C36.4175676,14.5231419 36.4601351,14.3939189 36.5011824,14.2631757 C36.5391892,14.1369932 36.4175676,13.7052365 36.4175676,13.7052365 L36.1119932,13.404223 L35.5981419,13.404223" id="Fill-7" fill="#E36529"></path>
                                    <path d="M40.2015203,11.9402027 L40.4143581,12.1560811 L40.8035473,12.1986486 L41.0194257,11.9402027 C41.0194257,11.9402027 41.1881757,11.7243243 41.1456081,11.5981419 C41.1091216,11.4673986 40.8932432,11.210473 40.8932432,11.210473 L40.3748311,11.08125 L39.9841216,11.08125 L39.9400338,11.4673986 L40.0327703,11.6817568 L40.2015203,11.9402027" id="Fill-8" fill="#E36529"></path>
                                    <path d="M43.4731419,10.3910473 L43.5537162,10.0900338 L43.5172297,9.83158784 L43.3439189,9.83158784 L42.95625,10.1326014 L42.95625,10.4336149 L43.2983108,10.4777027 L43.4731419,10.3910473" id="Fill-9" fill="#E36529"></path>
                                    <path d="M60.2934122,30.6319257 C59.9346284,30.4403716 59.5393581,30.4069257 59.5393581,30.4069257 C58.2744932,30.0709459 54.9587838,34.295777 54.9587838,34.295777 C54.0025338,35.3326014 52.18125,37.2192568 52.18125,37.2192568 C51.4530405,37.63125 51.4287162,36.9684122 51.4287162,36.9684122 C51.5989865,36.73125 54.8341216,29.7197635 54.8341216,29.7197635 C55.5030405,28.2815878 57.1844595,24.5326014 57.7226351,23.3315878 C57.9476351,22.8755068 58.0738176,22.4802365 58.0738176,22.4802365 C57.9430743,21.897973 57.6359797,21.5954392 57.3288851,21.4297297 C56.7192568,21.0192568 55.8375,21.3628378 55.8375,21.3628378 C54.7991554,21.6592905 51.9501689,26.6837838 51.9501689,26.6837838 C50.0847973,30.0831081 48.6755068,32.6994932 48.6755068,32.6994932 C48.0157095,33.5158784 47.68125,33.9902027 47.68125,33.9902027 C47.439527,33.8199324 47.3756757,33.4140203 47.3756757,33.4140203 C47.6295608,32.6599662 49.7701014,25.875 49.7701014,25.875 C50.1212838,24.4778716 52.7452703,18.8224662 52.7452703,18.8224662 C52.7452703,18.8209459 52.74375,18.8194257 52.74375,18.8194257 C52.7650338,18.7722973 52.7908784,18.7358108 52.8121622,18.6871622 C52.8106419,18.6871622 52.7619932,16.6439189 51.039527,17.0969595 C51.039527,17.0969595 51.0273649,17.1076014 51.0243243,17.1091216 C49.8293919,17.3052365 49.0555743,18.7586149 49.0555743,18.7586149 C47.8880068,20.289527 45.0435811,26.1060811 45.0435811,26.1060811 C44.177027,28.2146959 42.3238176,33.2011824 42.3238176,33.2011824 C41.8069257,34.3733108 41.8555743,33.6527027 41.8555743,33.6527027 C41.9619932,31.7569257 42.6597973,25.3307432 42.6597973,25.3307432 C42.7494932,24.46875 43.2146959,22.066723 43.4898649,20.6893581 C44.025,19.6631757 44.120777,18.2295608 44.120777,18.2295608 C43.6449324,17.7233108 43.2420608,17.6989865 42.9896959,17.7597973 C41.1775338,17.4344595 39.3881757,22.2324324 39.3881757,22.2324324 C37.9925676,25.1817568 37.3206081,30.2214527 37.3206081,30.2214527 C37.1883446,31.4559122 35.7851351,36.1170608 35.7851351,36.1170608 C34.9793919,37.8380068 32.5940878,41.6143581 32.5940878,41.6143581 L31.8248311,40.2385135 C28.8283784,35.0057432 25.2663851,34.1711149 25.2663851,34.1711149 C21.4444257,33.2954392 21.6451014,35.7704392 21.6451014,35.7704392 C21.6557432,35.7795608 21.6891892,35.8038851 21.7089527,35.8175676 C21.7074324,35.8190878 21.7043919,35.8190878 21.7013514,35.8206081 C21.7013514,35.8206081 23.1638514,36.9136824 24.0592905,37.51875 L24.0623311,37.5157095 C26.0706081,39.2670608 27.4327703,44.1577703 27.4327703,44.1577703 C27.6623311,47.0660473 32.2763514,52.2623311 32.2763514,52.2623311 C33.8711149,54.3131757 34.1888514,56.8185811 34.2055743,58.4087838 C34.2086149,58.7067568 34.2010135,59.2768581 34.1888514,59.9168919 L46.4635135,59.9168919 C46.460473,59.3285473 46.460473,58.8192568 46.460473,58.6018581 C46.4574324,57.15 46.4802365,55.125 46.4802365,55.125 C46.6900338,51.3304054 52.1675676,43.4888514 52.1675676,43.4888514 C53.86875,41.1202703 57.5265203,36.4226351 57.5265203,36.4226351 C58.1711149,35.4891892 59.4739865,33.541723 60.2462838,32.3863176 C60.6050676,31.9758446 60.8878378,31.5608108 60.8878378,31.5608108 C60.883277,30.9922297 60.5944257,30.7413851 60.2934122,30.6319257" id="Fill-10" fill="#009248"></path>
                                </g>
                            </g>
                        </g>
                    </g>
                </g>
            </g>
        </g>
    </g>
</svg>