<?xml version="1.0" encoding="utf-8"?>
<!-- Generator: Adobe Illustrator 17.1.0, SVG Export Plug-In . SVG Version: 6.00 Build 0)  -->
<!DOCTYPE svg PUBLIC "-//W3C//DTD SVG 1.1//EN" "http://www.w3.org/Graphics/SVG/1.1/DTD/svg11.dtd" [
	<!ENTITY ns_flows "http://ns.adobe.com/Flows/1.0/">
	<!ENTITY ns_extend "http://ns.adobe.com/Extensibility/1.0/">
	<!ENTITY ns_ai "http://ns.adobe.com/AdobeIllustrator/10.0/">
	<!ENTITY ns_graphs "http://ns.adobe.com/Graphs/1.0/">
]>
<svg version="1.1" xmlns:x="&ns_extend;" xmlns:i="&ns_ai;" xmlns:graph="&ns_graphs;"
	 xmlns="http://www.w3.org/2000/svg" xmlns:xlink="http://www.w3.org/1999/xlink" xmlns:a="http://ns.adobe.com/AdobeSVGViewerExtensions/3.0/"
	 x="0px" y="0px" viewBox="0 0 200 24" enable-background="new 0 0 200 24" xml:space="preserve">
<g id="Calque_1">
	<g>
		<g>
			<path fill="#FE2F2F" d="M92.2,8.9c1.5,0,2.9,0.6,3.9,1.6c0.1,0.1,0.3,0.1,0.4,0l2-2c0.1-0.1,0.1-0.2,0-0.3
				c-1.6-1.6-3.8-2.6-6.3-2.6c-2.7,0-5,1-6.6,2.8l2.4,2.4C89,9.7,90.4,8.9,92.2,8.9z"/>
			<path fill="#0386C3" d="M96.5,19.1c-0.1-0.1-0.3-0.1-0.4,0c-1,1-2.4,1.6-3.9,1.6c-1.6,0-3.1-0.6-4.1-1.8l-2.4,2.4
				c1.6,1.7,4,2.7,6.5,2.7c2.5,0,4.7-1,6.3-2.6c0.1-0.1,0.1-0.2,0-0.3L96.5,19.1z"/>
			<path d="M86.7,14.9c0-1.6,0.5-3,1.3-4.1l-2.4-2.4c-1.5,1.6-2.4,3.9-2.4,6.5c0,2.7,0.9,4.8,2.4,6.4l2.4-2.4
				C87.2,17.9,86.7,16.6,86.7,14.9z"/>
		</g>
		<path d="M118.3,14.8c0,4.5-3,9.2-8.8,9.2c-6,0-8.9-4.6-8.9-9.2s2.9-9.1,8.9-9.1C115.3,5.7,118.3,10.3,118.3,14.8z M114.8,14.9
			c0-3-1.8-5.9-5.4-5.9c-3.6,0-5.4,3-5.4,5.9c0,2.9,1.8,5.9,5.4,5.9C113,20.8,114.8,17.8,114.8,14.9z"/>
		<g>
			<rect x="143.1" y="9.4" fill="none" width="5.3" height="4.1"/>
			<rect x="143.1" y="16.7" fill="none" width="5.3" height="4.1"/>
			<path fill="#0386C3" d="M140,20.8h3.1v-4.1h-1.7c-0.2,0-0.2-0.1-0.2-0.2v-2.8c0-0.1,0.1-0.2,0.2-0.2h1.7V9.4H140
				c-0.2,0-0.3-0.1-0.3-0.2V21C139.8,20.9,139.9,20.8,140,20.8z"/>
			<path fill="#FE2F2F" d="M140,6.2L140,6.2c-0.2,0-0.3,0.1-0.3,0.2C139.8,6.3,139.9,6.2,140,6.2z"/>
			<path fill="#FE2F2F" d="M139.8,23.8c0,0.1,0.1,0.2,0.2,0.2h0C139.9,24,139.8,23.9,139.8,23.8z"/>
			<path fill="#FE2F2F" d="M151.6,24L151.6,24c0.2,0,0.3-0.1,0.3-0.2C151.8,23.9,151.7,24,151.6,24z"/>
			<path fill="#FDCF30" d="M151.6,9.4h-3.1v4.1h1.7c0.2,0,0.2,0.1,0.2,0.2v2.8c0,0.1-0.1,0.2-0.2,0.2h-1.7v4.1h3.1
				c0.2,0,0.3,0.1,0.3,0.2V9.2C151.8,9.3,151.7,9.4,151.6,9.4z"/>
			<path fill="#FE2F2F" d="M151.8,6.4c0-0.1-0.1-0.2-0.2-0.2h0C151.7,6.2,151.8,6.3,151.8,6.4z"/>
			<path d="M151.6,20.8h-3.1h-5.3H140c-0.2,0-0.3,0.1-0.3,0.2v2.8c0,0.1,0.1,0.2,0.3,0.2h11.6c0.2,0,0.3-0.1,0.3-0.2V21
				C151.8,20.9,151.7,20.8,151.6,20.8z"/>
			<path d="M151.6,6.2H140c-0.2,0-0.3,0.1-0.3,0.2v2.8c0,0.1,0.1,0.2,0.3,0.2h3.1h5.3h3.1c0.2,0,0.3-0.1,0.3-0.2V6.4
				C151.8,6.3,151.7,6.2,151.6,6.2z"/>
			<path d="M141.5,13.5c-0.2,0-0.2,0.1-0.2,0.2v2.8c0,0.1,0.1,0.2,0.2,0.2h1.7h5.3h1.7c0.2,0,0.2-0.1,0.2-0.2v-2.8
				c0-0.1-0.1-0.2-0.2-0.2h-1.7h-5.3H141.5z"/>
		</g>
		<g>
			<rect x="16.9" y="9.4" fill="none" width="5.3" height="4.1"/>
			<rect x="16.9" y="16.7" fill="none" width="5.3" height="4.1"/>
			<path fill="#0386C3" d="M13.8,20.8h3.1v-4.1h-1.7c-0.2,0-0.2-0.1-0.2-0.2v-2.8c0-0.1,0.1-0.2,0.2-0.2h1.7V9.4h-3.1
				c-0.2,0-0.3-0.1-0.3-0.2V21C13.5,20.9,13.6,20.8,13.8,20.8z"/>
			<path fill="#FE2F2F" d="M13.8,6.2L13.8,6.2c-0.2,0-0.3,0.1-0.3,0.2C13.5,6.3,13.6,6.2,13.8,6.2z"/>
			<path fill="#FE2F2F" d="M13.5,23.8c0,0.1,0.1,0.2,0.2,0.2h0C13.6,24,13.5,23.9,13.5,23.8z"/>
			<path fill="#FE2F2F" d="M25.3,24L25.3,24c0.2,0,0.3-0.1,0.3-0.2C25.6,23.9,25.5,24,25.3,24z"/>
			<path fill="#FDCF30" d="M25.3,9.4h-3.1v4.1h1.7c0.2,0,0.2,0.1,0.2,0.2v2.8c0,0.1-0.1,0.2-0.2,0.2h-1.7v4.1h3.1
				c0.2,0,0.3,0.1,0.3,0.2V9.2C25.6,9.3,25.5,9.4,25.3,9.4z"/>
			<path fill="#FE2F2F" d="M25.6,6.4c0-0.1-0.1-0.2-0.2-0.2h0C25.5,6.2,25.6,6.3,25.6,6.4z"/>
			<path d="M25.3,20.8h-3.1h-5.3h-3.1c-0.2,0-0.3,0.1-0.3,0.2v2.8c0,0.1,0.1,0.2,0.3,0.2h11.6c0.2,0,0.3-0.1,0.3-0.2V21
				C25.6,20.9,25.5,20.8,25.3,20.8z"/>
			<path d="M25.3,6.2H13.8c-0.2,0-0.3,0.1-0.3,0.2v2.8c0,0.1,0.1,0.2,0.3,0.2h3.1h5.3h3.1c0.2,0,0.3-0.1,0.3-0.2V6.4
				C25.6,6.3,25.5,6.2,25.3,6.2z"/>
			<path d="M15.2,13.5c-0.2,0-0.2,0.1-0.2,0.2v2.8c0,0.1,0.1,0.2,0.2,0.2h1.7h5.3h1.7c0.2,0,0.2-0.1,0.2-0.2v-2.8
				c0-0.1-0.1-0.2-0.2-0.2h-1.7h-5.3H15.2z"/>
		</g>
		<g>
			<path fill="none" d="M60.5,15c0-3.2-1.3-4.8-3.4-5.4c-2.1,0.6-3.4,2.2-3.4,5.4c0,3.2,1.6,4.7,3.4,5.3
				C58.8,19.7,60.5,18.3,60.5,15z"/>
			<path fill="#FE2F2F" d="M57.1,9.7c2.1,0.6,3.4,2.2,3.4,5.4c0,3.2-1.6,4.7-3.4,5.3c1.2,0.4,2.5,0.5,3.4,0.4V9.4
				C59.2,9.3,58.1,9.4,57.1,9.7z"/>
			<path fill="#FE2F2F" d="M50.3,15v8.7c0,0.1,0.1,0.2,0.3,0.2h2.9c1.1,0,2.4-0.1,3.6-0.4C53.6,22.9,50.3,20.6,50.3,15z"/>
			<path fill="#FE2F2F" d="M57.1,6.5c-1.2-0.2-2.5-0.3-3.6-0.3h-2.9c-0.2,0-0.3,0.1-0.3,0.2V15C50.3,9.3,53.6,7.2,57.1,6.5z"/>
			<path fill="#FDCF30" d="M57.1,23.6c1.2,0.3,2.5,0.4,3.6,0.4h2.9c0.2,0,0.3-0.1,0.3-0.2V15C63.9,20.6,60.6,22.9,57.1,23.6z"/>
			<path fill="#FDCF30" d="M63.6,6.2h-2.9c-1.1,0-2.4,0.1-3.6,0.3c3.5,0.7,6.8,2.8,6.8,8.5V6.4C63.9,6.3,63.8,6.2,63.6,6.2z"/>
			<path fill="#FDCF30" d="M53.7,15c0-3.2,1.3-4.8,3.4-5.4c-1-0.3-2.1-0.4-3.4-0.3v11.5c0.9,0,2.2,0,3.4-0.4
				C55.3,19.7,53.7,18.3,53.7,15z"/>
			<path d="M57.1,6.5c-3.5,0.7-6.8,2.8-6.8,8.5c0,5.6,3.3,7.8,6.8,8.6c3.5-0.8,6.8-3,6.8-8.6C63.9,9.3,60.6,7.2,57.1,6.5z
				 M60.5,20.8c-0.9,0-2.2,0-3.4-0.4c-1.2,0.4-2.5,0.5-3.4,0.4V9.4c1.2-0.1,2.4,0,3.4,0.3c1-0.3,2.1-0.4,3.4-0.3V20.8z"/>
		</g>
		<g>
			<path fill="none" d="M132,15c0-3.2-1.3-4.8-3.4-5.4c-2.1,0.6-3.4,2.2-3.4,5.4c0,3.2,1.6,4.7,3.4,5.3C130.4,19.7,132,18.3,132,15z
				"/>
			<path fill="#FE2F2F" d="M128.6,9.7c2.1,0.6,3.4,2.2,3.4,5.4c0,3.2-1.6,4.7-3.4,5.3c1.2,0.4,2.5,0.5,3.4,0.4V9.4
				C130.7,9.3,129.6,9.4,128.6,9.7z"/>
			<path fill="#FE2F2F" d="M121.8,15v8.7c0,0.1,0.1,0.2,0.3,0.2h2.9c1.1,0,2.4-0.1,3.6-0.4C125.1,22.9,121.8,20.6,121.8,15z"/>
			<path fill="#FE2F2F" d="M128.6,6.5c-1.2-0.2-2.5-0.3-3.6-0.3h-2.9c-0.2,0-0.3,0.1-0.3,0.2V15C121.8,9.3,125.1,7.2,128.6,6.5z"/>
			<path fill="#FDCF30" d="M128.6,23.6c1.2,0.3,2.5,0.4,3.6,0.4h2.9c0.2,0,0.3-0.1,0.3-0.2V15C135.4,20.6,132.1,22.9,128.6,23.6z"/>
			<path fill="#FDCF30" d="M135.1,6.2h-2.9c-1.1,0-2.4,0.1-3.6,0.3c3.5,0.7,6.8,2.8,6.8,8.5V6.4C135.4,6.3,135.3,6.2,135.1,6.2z"/>
			<path fill="#FDCF30" d="M125.2,15c0-3.2,1.3-4.8,3.4-5.4c-1-0.3-2.1-0.4-3.4-0.3v11.5c0.9,0,2.2,0,3.4-0.4
				C126.9,19.7,125.2,18.3,125.2,15z"/>
			<path d="M128.6,6.5c-3.5,0.7-6.8,2.8-6.8,8.5c0,5.6,3.3,7.8,6.8,8.6c3.5-0.8,6.8-3,6.8-8.6C135.4,9.3,132.1,7.2,128.6,6.5z
				 M132,20.8c-0.9,0-2.2,0-3.4-0.4c-1.2,0.4-2.5,0.5-3.4,0.4V9.4c1.2-0.1,2.4,0,3.4,0.3c1-0.3,2.1-0.4,3.4-0.3V20.8z"/>
		</g>
		<g>
			<path fill="#FE2F2F" d="M169.1,6.1h-2.9c-0.2,0-0.3,0.1-0.3,0.2V18c0,1.8-1.7,2.7-3.4,2.7V24c3.8,0,6.8-2.2,6.8-6V6.3
				C169.3,6.2,169.2,6.1,169.1,6.1z"/>
			<path d="M159.2,18V6.3c0-0.1-0.1-0.2-0.3-0.2h-2.9c-0.2,0-0.3,0.1-0.3,0.2V18c0,3.7,3,6,6.8,6v-3.3
				C160.9,20.7,159.4,19.8,159.2,18z"/>
		</g>
		<g>
			<g>
				<path fill="none" d="M192.1,10.8C192.1,10.9,192.1,10.9,192.1,10.8c0,0.1,0,0.2,0,0.3c0,1.3,1.1,2.1,2.3,2.1
					c1.2,0,2.3-0.8,2.3-2.1c0-0.1,0-0.2,0-0.3c0,0,0,0,0,0"/>
				<path fill="#FE2F2F" d="M196.6,10.9C196.6,10.9,196.6,10.9,196.6,10.9"/>
				<path fill="#0386C3" d="M188.7,11.2c0,1.5,0.5,2.8,1.4,3.7c0.4-0.4,0.9-0.7,1.5-1c1.3-0.6,2.5-0.6,2.7-0.6c0,0,0,0,0,0
					c-1.2,0-2.3-0.9-2.3-2.1c0-0.1,0-0.2,0-0.3c0,0.1-0.1,0.2-0.2,0.2l-2.9,0c-0.2,0-0.3-0.1-0.3-0.2L188.7,11.2z"/>
				<path fill="#0386C3" d="M198.5,14.9c-0.4,0.4-0.9,0.7-1.5,1c-1.3,0.6-2.5,0.6-2.7,0.6c0,0,0,0,0,0c1,0.1,2.3,0.9,2.3,2.2
					c0-0.1,0.1-0.1,0.2-0.1l2.9,0c0.1,0,0.2,0.1,0.3,0.2c0,0,0,0,0,0C200,17.3,199.5,15.9,198.5,14.9z"/>
				<path fill="#FDCF30" d="M200,10.9c0,0.1-0.1,0.2-0.3,0.2l-2.9,0c-0.1,0-0.2-0.1-0.2-0.2c0,0.1,0,0.2,0,0.3
					c0,1.3-1.1,2.1-2.3,2.1c0,0,0,0,0,0c0.1,0,1.4,0,2.7,0.6c0.6,0.3,1.1,0.6,1.5,1c1-0.9,1.5-2.2,1.5-3.7L200,10.9z"/>
				<path fill="#FE2F2F" d="M192.1,10.9C192.1,10.9,192.1,10.9,192.1,10.9"/>
				<path fill="#FDCF30" d="M188.9,18.6l2.9,0c0.1,0,0.2,0,0.2,0.1c0-1.3,1.3-2.1,2.3-2.2c0,0,0,0,0,0c-0.2,0-1.4,0-2.7-0.6
					c-0.6-0.3-1-0.6-1.4-1c-1,1-1.5,2.3-1.5,3.8c0,0,0,0,0,0C188.7,18.6,188.8,18.6,188.9,18.6z"/>
				<path d="M194.3,16.5c0.2,0,1.4,0,2.7-0.6c0.6-0.3,1-0.6,1.5-1c-0.4-0.4-0.9-0.8-1.5-1c-1.3-0.6-2.5-0.6-2.7-0.6c0,0,0,0,0,0
					c0,0,0,0,0,0c-0.1,0-1.4,0-2.7,0.6c-0.6,0.3-1.1,0.6-1.5,1c0.4,0.4,0.9,0.7,1.4,1C192.9,16.5,194.1,16.5,194.3,16.5z"/>
			</g>
			<path d="M199.7,18.6l-2.9,0c-0.1,0-0.2,0-0.2,0.1c0,0,0,0,0,0c0,0.5-0.2,0.9-0.4,1.2c-0.3,0.4-0.8,0.7-1.4,0.7c0,0,0,0-0.1,0
				c0,0-0.1,0-0.1,0c0,0-0.1,0-0.1,0c0,0,0,0,0,0c-0.1,0-0.1,0-0.2,0c0,0,0,0,0,0c0,0,0,0,0,0c-0.1,0-0.1,0-0.2,0c0,0,0,0,0,0
				c0,0-0.1,0-0.1,0c0,0-0.1,0-0.1,0c0,0,0,0-0.1,0c-0.6-0.1-1-0.3-1.4-0.8c-0.3-0.3-0.4-0.7-0.4-1.2c0,0,0,0,0,0
				c0-0.1-0.1-0.1-0.2-0.1l-2.9,0c-0.1,0-0.2,0.1-0.3,0.2c0,0.1,0,0.2,0,0.2c0,0.3,0,0.7,0.1,1c0.3,1.5,1.2,2.6,2.4,3.3
				c0.9,0.5,1.9,0.8,3.1,0.8c1.2,0,2.2-0.3,3.1-0.8c1.2-0.7,2.1-1.8,2.4-3.2c0.1-0.3,0.1-0.6,0.1-1c0-0.1,0-0.2,0-0.2
				C200,18.7,199.9,18.6,199.7,18.6z"/>
			<path d="M189,11l2.9,0c0.1,0,0.2-0.1,0.2-0.2c0-0.1,0-0.1,0-0.2c0.1-1.2,1.1-1.8,2.2-1.8c0,0,0,0,0,0c0,0,0,0,0,0
				c1.1,0,2.1,0.6,2.2,1.8c0,0,0,0.1,0,0.2c0,0.1,0.1,0.2,0.2,0.2l2.9,0c0.2,0,0.3-0.1,0.3-0.2c0-0.4,0-0.7-0.1-1.1
				c0-0.1,0-0.1-0.1-0.2c0-0.1,0-0.1,0-0.2c-0.8-2.3-3-3.7-5.4-3.7c-2.4,0-4.6,1.3-5.4,3.7c0,0.1,0,0.1,0,0.2c0,0.1,0,0.1-0.1,0.2
				c-0.1,0.3-0.1,0.7-0.1,1.1C188.7,10.9,188.8,11,189,11z"/>
		</g>
		<g>
			<g>
				<path fill="none" d="M32,10.9C32,10.9,32,10.9,32,10.9c0,0.1,0,0.2,0,0.3c0,1.3,1.1,2.1,2.3,2.1c1.2,0,2.3-0.8,2.3-2.1
					c0-0.1,0-0.2,0-0.3c0,0,0,0,0,0"/>
				<path fill="#FE2F2F" d="M36.5,10.9C36.5,10.9,36.5,10.9,36.5,10.9"/>
				<path fill="#0386C3" d="M28.6,11.2c0,1.5,0.5,2.8,1.5,3.7c0.4-0.4,0.9-0.8,1.5-1c1.3-0.6,2.5-0.6,2.7-0.6c0,0,0,0,0,0
					c-1.2,0-2.3-0.8-2.3-2.1c0-0.1,0-0.2,0-0.3c0,0.1-0.1,0.2-0.2,0.2h-2.9c-0.2,0-0.3-0.1-0.3-0.2V11.2z"/>
				<path fill="#0386C3" d="M38.4,14.9c-0.4,0.4-0.9,0.7-1.5,1c-1.3,0.6-2.5,0.6-2.7,0.6c0,0,0,0,0,0c1,0.1,2.3,0.9,2.3,2.2
					c0-0.1,0.1-0.1,0.2-0.1h2.9c0.1,0,0.2,0.1,0.3,0.2c0,0,0,0,0,0C39.9,17.2,39.4,15.9,38.4,14.9z"/>
				<path fill="#FDCF30" d="M39.9,10.9c0,0.1-0.1,0.2-0.3,0.2h-2.9c-0.1,0-0.2-0.1-0.2-0.2c0,0.1,0,0.2,0,0.3c0,1.3-1.1,2.1-2.3,2.1
					c0,0,0,0,0,0c0.1,0,1.4,0,2.7,0.6c0.6,0.3,1.1,0.6,1.5,1c1-0.9,1.5-2.2,1.5-3.7V10.9z"/>
				<path fill="#FE2F2F" d="M32,10.9C32,10.9,32,10.9,32,10.9"/>
				<path fill="#FDCF30" d="M28.8,18.6h2.9c0.1,0,0.2,0,0.2,0.1c0-1.3,1.3-2.1,2.3-2.2c0,0,0,0,0,0c-0.2,0-1.4,0-2.7-0.6
					c-0.6-0.3-1-0.6-1.5-1c-1,1-1.5,2.3-1.5,3.8c0,0,0,0,0,0C28.6,18.7,28.7,18.6,28.8,18.6z"/>
				<path d="M34.2,16.5c0.2,0,1.4,0,2.7-0.6c0.6-0.3,1-0.6,1.5-1c-0.4-0.4-0.9-0.8-1.5-1c-1.3-0.6-2.5-0.6-2.7-0.6c0,0,0,0,0,0
					c0,0,0,0,0,0c-0.1,0-1.4,0-2.7,0.6c-0.6,0.3-1.1,0.6-1.5,1c0.4,0.4,0.9,0.7,1.5,1C32.8,16.5,34.1,16.5,34.2,16.5z"/>
			</g>
			<path d="M39.7,18.6h-2.9c-0.1,0-0.2,0-0.2,0.1c0,0,0,0,0,0c0,0.5-0.2,0.9-0.4,1.2c-0.3,0.4-0.8,0.7-1.4,0.8c0,0,0,0-0.1,0
				c0,0-0.1,0-0.1,0c0,0-0.1,0-0.1,0c0,0,0,0,0,0c-0.1,0-0.1,0-0.2,0c0,0,0,0,0,0c0,0,0,0,0,0c-0.1,0-0.1,0-0.2,0c0,0,0,0,0,0
				c0,0-0.1,0-0.1,0c0,0-0.1,0-0.1,0c0,0,0,0-0.1,0c-0.6-0.1-1-0.3-1.4-0.8c-0.3-0.3-0.4-0.7-0.4-1.2c0,0,0,0,0,0
				c0-0.1-0.1-0.1-0.2-0.1h-2.9c-0.1,0-0.2,0.1-0.3,0.2c0,0.1,0,0.2,0,0.2c0,0.3,0.1,0.7,0.1,1c0.3,1.5,1.2,2.6,2.4,3.3
				c0.9,0.5,2,0.7,3.1,0.8c1.2,0,2.2-0.3,3.1-0.8c1.2-0.7,2.1-1.8,2.4-3.3c0.1-0.3,0.1-0.6,0.1-1c0-0.1,0-0.2,0-0.2
				C39.9,18.7,39.8,18.6,39.7,18.6z"/>
			<path d="M28.9,11.1h2.9c0.1,0,0.2-0.1,0.2-0.2c0-0.1,0-0.1,0-0.2C32.1,9.5,33.1,9,34.2,9c0,0,0,0,0,0c0,0,0,0,0,0
				c1.1,0,2.1,0.6,2.2,1.8c0,0,0,0.1,0,0.2c0,0.1,0.1,0.2,0.2,0.2h2.9c0.2,0,0.3-0.1,0.3-0.2c0-0.4,0-0.7-0.1-1.1
				c0-0.1,0-0.1-0.1-0.2c0-0.1,0-0.1,0-0.2c-0.8-2.3-3-3.7-5.4-3.7c-2.4,0-4.6,1.4-5.4,3.7c0,0.1,0,0.1,0,0.2c0,0.1,0,0.1-0.1,0.2
				c-0.1,0.3-0.1,0.7-0.1,1.1C28.6,11,28.7,11.1,28.9,11.1z"/>
		</g>
		<g>
			<path fill="none" d="M182,11.5c0-1.8-1.9-2-2.5-2.1c-0.7,0-2.5,0.2-2.5,2.1c0,1.9,1.7,2,2.5,2.1C180.2,13.5,182,13.4,182,11.5z"
				/>
			<path fill="#FE2F2F" d="M182.2,23.8v-7.5h-1.9l-0.8,2.3l2.5,5.3c0,0.1,0.2,0.1,0.2,0.1h0.3C182.3,24,182.2,23.9,182.2,23.8z"/>
			<polygon fill="#FE2F2F" points="173.5,24 173.5,24 173.5,24 			"/>
			<path fill="#FE2F2F" d="M176.8,16.3c-1.8-0.6-3.3-2.1-3.3-4.8c0-5.1,4.7-5.3,6-5.3c0,0-0.1,0-0.1,0h-5.8c-0.1,0-0.2,0.1-0.2,0.2
				v17.4c0,0,0,0,0,0c0,0,0-0.1,0-0.1C174.5,21.2,175.7,18.8,176.8,16.3z"/>
			<path fill="#FE2F2F" d="M185.3,24c0.1,0,0.2-0.1,0.2-0.2C185.6,23.9,185.5,24,185.3,24z"/>
			<path fill="#0386C3" d="M182.2,9.4h-2.6c0,0-0.1,0-0.1,0c0.7,0,2.5,0.2,2.5,2.1c0,1.9-1.7,2-2.5,2.1c0,0,0.1,0,0.1,0h2.6V9.4z"/>
			<polygon fill="#FE2F2F" points="185.3,24 185.3,24 185.3,24 			"/>
			<path fill="#FDCF30" d="M185.6,6.4c0-0.1-0.1-0.2-0.2-0.2h-5.8c0,0-0.1,0-0.1,0c1.2,0,6,0.2,6,5.3c0,2.7-1.5,4.1-3.3,4.8
				c1.1,2.5,2.3,5,3.5,7.4c0,0,0,0.1,0,0.1c0,0,0,0,0,0V6.4z"/>
			<path fill="#FE2F2F" d="M173.3,23.8c0,0.1,0.1,0.2,0.2,0.2C173.4,24,173.3,23.9,173.3,23.8z"/>
			<path fill="#FDCF30" d="M176.9,11.5c0-1.8,1.9-2,2.5-2.1c0,0-0.1,0-0.1,0h-2.6v4.1h2.6c0,0,0.1,0,0.1,0
				C178.6,13.5,176.9,13.4,176.9,11.5z"/>
			<path fill="#FDCF30" d="M176.7,16.3v7.5c0,0.1-0.1,0.2-0.3,0.2h0.3c0.1,0,0.2-0.1,0.2-0.1l2.5-5.3l-0.8-2.3H176.7z"/>
			<g>
				<path fill="none" d="M182.2,9.4h-2.6c0,0-0.1,0-0.1,0c0,0-0.1,0-0.1,0h-2.6v4.1h2.6c0,0,0.1,0,0.1,0c0,0,0.1,0,0.1,0h2.6V9.4z"
					/>
				<path fill="#0386C3" d="M173.3,23.8c0,0.1,0.1,0.2,0.2,0.2c0,0,0,0,0,0h2.9c0.2,0,0.3-0.1,0.3-0.2v-7.4
					C175.6,18.9,174.4,21.3,173.3,23.8C173.3,23.7,173.3,23.8,173.3,23.8z"/>
				<path d="M176.7,16.4c0-0.1,0.1-0.1,0.1-0.2h-0.1V16.4z"/>
				<path d="M185.4,11.5c0-5.1-4.7-5.3-6-5.3c-1.2,0-6,0.2-6,5.3c0,2.7,1.5,4.1,3.3,4.8c0,0,0,0,0,0h1.8l0.8,2.3l0.8-2.3h1.8
					c0,0,0,0,0,0C183.9,15.6,185.4,14.2,185.4,11.5z M179.6,13.5c0,0-0.1,0-0.1,0c0,0-0.1,0-0.1,0h-2.6V9.4h2.6c0,0,0.1,0,0.1,0
					c0,0,0.1,0,0.1,0h2.6v4.1H179.6z"/>
				<path d="M182.1,16.3c0,0.1,0.1,0.1,0.1,0.2L182.1,16.3L182.1,16.3z"/>
				<path d="M185.5,23.7c-1.2-2.6-2.4-5-3.4-7.3v7.4c0,0.1,0.1,0.2,0.3,0.2h2.9c0,0,0,0,0,0C185.5,24,185.6,23.9,185.5,23.7
					C185.6,23.8,185.6,23.7,185.5,23.7z"/>
			</g>
		</g>
		<g>
			<path fill="#FE2F2F" d="M0.3,20.7h3.1V6.4c0-0.1-0.1-0.2-0.3-0.2H0.3C0.1,6.2,0,6.3,0,6.4v14.5C0,20.8,0.1,20.7,0.3,20.7z"/>
			<path fill="#FE2F2F" d="M9.6,24c0.2,0,0.3-0.1,0.3-0.2C9.8,23.9,9.7,24,9.6,24z"/>
			<path fill="#FE2F2F" d="M0,23.8C0,23.9,0.1,24,0.3,24C0.1,24,0,23.9,0,23.8z"/>
			<path fill="#FDCF30" d="M9.6,6.2H6.7c-0.2,0-0.3,0.1-0.3,0.2v14.3h3.1c0.2,0,0.3,0.1,0.3,0.2V6.4C9.8,6.3,9.7,6.2,9.6,6.2z"/>
			<path d="M9.6,20.7H6.4h-3H0.3c-0.2,0-0.3,0.1-0.3,0.2v2.9C0,23.9,0.1,24,0.3,24h9.3c0.2,0,0.3-0.1,0.3-0.2v-2.9
				C9.8,20.8,9.7,20.7,9.6,20.7z"/>
		</g>
		<g>
			<rect x="71.4" y="9.4" fill="none" width="5.3" height="4.1"/>
			<rect x="71.4" y="16.7" fill="none" width="5.3" height="4.1"/>
			<path fill="#0386C3" d="M68.2,20.8h3.1v-4.1h-1.7c-0.2,0-0.2-0.1-0.2-0.2v-2.8c0-0.1,0.1-0.2,0.2-0.2h1.7V9.4h-3.1
				c-0.2,0-0.3-0.1-0.3-0.2V21C68,20.9,68.1,20.8,68.2,20.8z"/>
			<path fill="#FE2F2F" d="M68.2,6.2L68.2,6.2c-0.2,0-0.3,0.1-0.3,0.2C68,6.3,68.1,6.2,68.2,6.2z"/>
			<path fill="#FE2F2F" d="M68,23.8c0,0.1,0.1,0.2,0.2,0.2h0C68.1,24,68,23.9,68,23.8z"/>
			<path fill="#FE2F2F" d="M79.8,24L79.8,24c0.2,0,0.3-0.1,0.3-0.2C80.1,23.9,80,24,79.8,24z"/>
			<path fill="#FDCF30" d="M79.8,9.4h-3.1v4.1h1.7c0.2,0,0.2,0.1,0.2,0.2v2.8c0,0.1-0.1,0.2-0.2,0.2h-1.7v4.1h3.1
				c0.2,0,0.3,0.1,0.3,0.2V9.2C80.1,9.3,80,9.4,79.8,9.4z"/>
			<path fill="#FE2F2F" d="M80.1,6.4c0-0.1-0.1-0.2-0.2-0.2h0C80,6.2,80.1,6.3,80.1,6.4z"/>
			<path d="M79.8,20.8h-3.1h-5.3h-3.1c-0.2,0-0.3,0.1-0.3,0.2v2.8c0,0.1,0.1,0.2,0.3,0.2h11.6c0.2,0,0.3-0.1,0.3-0.2V21
				C80.1,20.9,80,20.8,79.8,20.8z"/>
			<path d="M79.8,6.2H68.2c-0.2,0-0.3,0.1-0.3,0.2v2.8c0,0.1,0.1,0.2,0.3,0.2h3.1h5.3h3.1c0.2,0,0.3-0.1,0.3-0.2V6.4
				C80.1,6.3,80,6.2,79.8,6.2z"/>
			<path d="M69.7,13.6c-0.2,0-0.2,0.1-0.2,0.2v2.8c0,0.1,0.1,0.2,0.2,0.2h1.7h5.3h1.7c0.2,0,0.2-0.1,0.2-0.2v-2.8
				c0-0.1-0.1-0.2-0.2-0.2h-1.7h-5.3H69.7z"/>
		</g>
		<g>
			<g>
				<polygon fill="#FDCF30" points="71.9,0 70.5,2.2 71.3,2.7 74,1.2 				"/>
				<polygon fill="#FDCF30" points="74,4.1 75.7,4.9 77,2.8 76.8,2.7 				"/>
				<polygon fill="#0386C3" points="77.6,2.2 76.2,0 74,1.2 76.8,2.7 				"/>
				<polygon fill="#0386C3" points="71.1,2.8 72.4,4.9 74,4.1 71.3,2.7 				"/>
			</g>
			<polygon points="74,1.2 71.3,2.7 71.3,2.7 71.3,2.7 74,4.1 76.8,2.7 			"/>
		</g>
	</g>
</g>
<g id="Calque_2">
</g>
</svg>
