<?xml version="1.0" encoding="utf-8"?>
<!-- Generator: Adobe Illustrator 18.0.0, SVG Export Plug-In . SVG Version: 6.00 Build 0)  -->
<!DOCTYPE svg PUBLIC "-//W3C//DTD SVG 1.1//EN" "http://www.w3.org/Graphics/SVG/1.1/DTD/svg11.dtd">
<svg version="1.1" id="Calque_1" xmlns="http://www.w3.org/2000/svg" xmlns:xlink="http://www.w3.org/1999/xlink" x="0px" y="0px"
	 viewBox="0 0 570 60" enable-background="new 0 0 570 60" xml:space="preserve">
<g>
	<path fill="#2A255C" d="M16.7,43.8c-3.8,0-8.6-0.2-10.3-0.2H1.6v-4.5c1.4-0.3,3.1-0.6,4.8-0.7V11.6c-1.6-0.1-3.4-0.4-4.8-0.7V6.5
		h4.6c2.9,0,7.5-0.2,12.2-0.2c11.5,0,18.8,5.1,18.8,18.1C37.1,37.1,28.8,43.8,16.7,43.8z M17.9,12.2c-1.6,0-3.2,0.1-4.3,0.2v25
		c1,0.2,2.5,0.3,3.8,0.3c7.1,0,12.1-4,12.1-12.8C29.5,17,26.3,12.2,17.9,12.2z"/>
	<path fill="#2A255C" d="M65.1,31.2H48.2c-0.1,5.1,2.3,7.5,7.5,7.5c2.6,0,5.3-0.5,7.9-1.6l0.8,5.3c-3,1.1-6.5,1.8-9.9,1.8
		c-8.6,0-13.5-4.3-13.5-14c0-8.2,4.8-14.5,13-14.5c8,0,11.3,5.1,11.3,11.6C65.4,28.3,65.3,29.9,65.1,31.2z M53.7,20.9
		c-2.9,0-4.9,2.2-5.3,5.6h10.1C58.5,22.9,56.6,20.9,53.7,20.9z M52,12.8L49.4,9l9.3-6.9l3.2,4.7L52,12.8z"/>
	<path fill="#2A255C" d="M83.2,44c-1.3,0-2.4-0.1-3.5-0.2v8c1.6,0.1,3.4,0.4,4.8,0.7v4.5H68.2v-4.5c1.4-0.3,2.8-0.5,4.5-0.7V21.6
		c-1.3-0.2-2.9-0.4-4.5-0.5v-4.4c3.4-0.4,7.4-0.6,11-0.5c0,1.3-0.1,3.2-0.3,4.6H79c1.5-3.2,4.5-5.1,8.6-5.1c6.4,0,10,4.7,10,12.8
		C97.6,38,92.7,44,83.2,44z M85.6,21.5c-3.7,0-5.9,4.3-5.9,9V38c1.1,0.3,2.3,0.5,3.7,0.5c4,0,6.9-2.5,6.9-9.3
		C90.2,24.1,88.8,21.5,85.6,21.5z"/>
	<path fill="#2A255C" d="M117.8,43.6c0-1.6,0-3.2,0.2-4.7l-0.1-0.1c-1.3,3.1-4.7,5.2-8.7,5.2c-4.9,0-7.8-3-7.8-7.4
		c0-6.5,6.5-9.6,15.8-9.7v-1.6c0-2.9-1.2-4.6-4.8-4.6c-1.3,0-2.9,0.3-4,0.7c-0.1,1-0.3,2.4-0.5,3.6h-4.4v-8c2.9-0.9,6.2-1.4,9.5-1.4
		c9,0,11.4,3.5,11.4,9.5v13c1.3,0.2,3,0.4,4.5,0.5v4.5C125.6,43.6,121.3,43.7,117.8,43.6z M117.2,31.5c-6.3,0-9.1,1.4-9.1,4.2
		c0,1.8,1.3,3.1,3.3,3.1c3.5,0,5.8-3.2,5.8-6.6V31.5z"/>
	<path fill="#2A255C" d="M150.7,22.6c-5.6-1-8.1,2.3-8.1,9.8v6c1.6,0.1,3.4,0.4,4.8,0.7v4.5h-16.6v-4.5c1.4-0.3,3.1-0.6,4.8-0.7
		V21.6c-1.3-0.2-3.2-0.4-4.8-0.5v-4.4c3.5-0.4,7.8-0.6,11.4-0.5c0,1.4-0.2,3.6-0.5,5.6h0.1c1.3-3.5,4-6.5,9.2-6L150.7,22.6z"/>
	<path fill="#2A255C" d="M165.3,44.1c-6,0-7.9-2.2-7.9-8.6V21.7h-4.7v-5.4h4.7V7.8l7-1.9v10.3h6.7v5.4h-6.7v12
		c0,3.5,0.8,4.5,3.2,4.5c1.2,0,2.2-0.1,3.1-0.4l0.5,5.6C169.4,43.8,167.2,44.1,165.3,44.1z"/>
	<path fill="#2A255C" d="M198.8,31.2h-16.9c-0.1,5.1,2.3,7.5,7.5,7.5c2.6,0,5.3-0.5,7.9-1.6l0.8,5.3c-3,1.1-6.5,1.8-9.9,1.8
		c-8.6,0-13.5-4.3-13.5-14c0-8.2,4.8-14.5,13-14.5c8,0,11.3,5.1,11.3,11.6C199.1,28.3,199,29.9,198.8,31.2z M187.4,20.9
		c-2.9,0-4.9,2.2-5.3,5.6h10.1C192.2,22.9,190.3,20.9,187.4,20.9z"/>
	<path fill="#2A255C" d="M240.3,43.6V26.3c0-2.9-0.7-4.7-3.2-4.7c-3.1,0-6.3,3.6-6.3,8.9v7.9c1.4,0.1,2.8,0.3,4,0.7v4.5h-10.9V26.3
		c0-2.7-0.5-4.7-3.2-4.7c-3.2,0-6.3,3.8-6.3,8.9v7.9c1.3,0.1,2.8,0.3,4,0.7v4.5h-15.8v-4.5c1.4-0.3,3.1-0.6,4.8-0.7V21.6
		c-1.3-0.2-3.2-0.4-4.8-0.5v-4.4c3.5-0.4,7.8-0.6,11.4-0.5c0,1.3-0.1,3.4-0.3,4.9l0.1,0.1c1.7-3.4,4.9-5.5,9-5.5
		c4.8,0,6.9,2.8,7.5,5.4c1.3-2.6,4.3-5.4,8.9-5.4c5.3,0,8.2,2.9,8.2,9.1v13.6c1.6,0.1,3.1,0.4,4.5,0.7v4.5H240.3z"/>
	<path fill="#2A255C" d="M278.7,31.2h-16.9c-0.1,5.1,2.3,7.5,7.5,7.5c2.6,0,5.3-0.5,7.9-1.6l0.8,5.3c-3,1.1-6.5,1.8-9.9,1.8
		c-8.6,0-13.5-4.3-13.5-14c0-8.2,4.8-14.5,13-14.5c8,0,11.3,5.1,11.3,11.6C279,28.3,278.9,29.9,278.7,31.2z M267.3,20.9
		c-2.9,0-4.9,2.2-5.3,5.6H272C272.1,22.9,270.3,20.9,267.3,20.9z"/>
	<path fill="#2A255C" d="M304,43.6V26.1c0-2.8-0.8-4.5-3.4-4.5c-3.6,0-6.4,4-6.4,8.8v8c1.3,0.1,2.8,0.3,4,0.7v4.5h-15.8v-4.5
		c1.4-0.3,3.1-0.6,4.8-0.7V21.6c-1.3-0.2-3.2-0.4-4.8-0.5v-4.4c3.5-0.4,7.8-0.6,11.4-0.5c0,1.3-0.1,3.5-0.4,4.9h0.1
		c1.6-3.2,4.8-5.4,9.3-5.4c6.2,0,8.1,3.9,8.1,8.7v14c1.6,0.1,3.2,0.4,4.5,0.7v4.5H304z"/>
	<path fill="#2A255C" d="M328.4,44.1c-6,0-7.9-2.2-7.9-8.6V21.7h-4.7v-5.4h4.7V7.8l7-1.9v10.3h6.7v5.4h-6.7v12
		c0,3.5,0.8,4.5,3.2,4.5c1.2,0,2.2-0.1,3.1-0.4l0.5,5.6C332.6,43.8,330.3,44.1,328.4,44.1z"/>
	<path fill="#2A255C" d="M354.2,43.6c0-1.6,0-3.2,0.2-4.7l-0.1-0.1c-1.3,3.1-4.7,5.2-8.7,5.2c-4.9,0-7.8-3-7.8-7.4
		c0-6.5,6.5-9.6,15.8-9.7v-1.6c0-2.9-1.2-4.6-4.8-4.6c-1.3,0-2.9,0.3-4,0.7c-0.1,1-0.3,2.4-0.5,3.6h-4.4v-8c2.9-0.9,6.2-1.4,9.5-1.4
		c9,0,11.4,3.5,11.4,9.5v13c1.3,0.2,3,0.4,4.5,0.5v4.5C362,43.6,357.8,43.7,354.2,43.6z M353.6,31.5c-6.3,0-9.1,1.4-9.1,4.2
		c0,1.8,1.3,3.1,3.3,3.1c3.5,0,5.8-3.2,5.8-6.6V31.5z"/>
	<path fill="#2A255C" d="M366.6,43.6v-4.5c1.3-0.3,2.9-0.6,4.5-0.7V8.8c-1.3-0.2-3.1-0.4-4.6-0.5V3.9c3.5-0.4,7.6-0.6,11.6-0.5v35
		c1.6,0.1,3.1,0.4,4.5,0.7v4.5H366.6z"/>
	<path fill="#2A255C" d="M408.6,31.2h-16.9c-0.1,5.1,2.3,7.5,7.5,7.5c2.6,0,5.3-0.5,7.9-1.6l0.8,5.3c-3,1.1-6.5,1.8-9.9,1.8
		c-8.6,0-13.5-4.3-13.5-14c0-8.2,4.8-14.5,13-14.5c8,0,11.3,5.1,11.3,11.6C408.9,28.3,408.8,29.9,408.6,31.2z M397.1,20.9
		c-2.9,0-4.9,2.2-5.3,5.6h10.1C402,22.9,400.1,20.9,397.1,20.9z"/>
	<path fill="#2A255C" d="M420.8,44.1c-2.1,0-4.9-0.3-7.2-0.8v-8.2h4.5c0.3,1.1,0.4,2.4,0.5,3.6c0.8,0.2,1.9,0.3,2.8,0.3
		c2.8,0,4.7-1.2,4.7-3.2c0-4.8-13.2-2.3-13.2-11.3c0-4.9,4-8.7,11.8-8.7c2,0,4.6,0.3,7.1,0.8v7.9h-4.5c-0.3-1.1-0.4-2.4-0.5-3.5
		c-0.8-0.2-1.8-0.3-2.5-0.3c-3,0-4.3,1.2-4.3,3c0,4.8,13.2,2.6,13.2,11.2C433.1,40.1,428.3,44.1,420.8,44.1z"/>
</g>
<g>
	<g>
		<polygon fill="none" points="534.2,6.8 525.4,17.5 530.8,10.9 		"/>
		<path fill="#F7A723" d="M505.4,25.4c0,2.2-0.4,4.1-1.1,5.7c-1.1,2.6-3.1,4.2-5.6,4.2c0,0-0.1,0-0.1,0v3.1v1.5v4.4h0
			c1.1,0,2.1-0.1,3.1-0.3c1.1-0.2,2.1-0.5,3-0.9c2.7-1,4.9-2.8,6.7-5c2.7-3.4,4.2-7.9,4.2-12.9l-10.2,0v0V25.4z"/>
		<path fill="#2A255C" d="M490.4,33.8c-1.1-2.4-1.8-5.3-1.8-8.5v0v-0.1c0-3,0.6-5.9,1.6-8.2l-4.4-4.4c-2.6,3.4-4.1,7.9-4.1,12.7v0
			v0.1c0,4.9,1.5,9.5,4.2,12.9c2.9,3.7,7.3,6,12.7,6v-4.4C495,39.7,492.1,37.4,490.4,33.8z"/>
		<path fill="#E30513" d="M504.7,7.4c-0.3-0.1-1.9-0.6-2-0.6c-1.3-0.3-2.6-0.5-4-0.5c0,0-0.1,0-0.1,0c-5.5,0-9.9,2.5-12.8,6.3
			l7.1,7.1c1.1-2.8,3.1-4.5,5.7-4.5h0c2.6,0,4.7,1.7,5.8,4.5c0.6,1.6,1,3.4,1,5.5h10.2v-0.1c0-4.8-1.4-9.3-4-12.6
			C509.8,10.3,507.5,8.5,504.7,7.4z"/>
		<polygon fill="#F7A723" points="530.8,10.9 525.4,17.5 525.4,33.5 530.8,33.5 		"/>
		<polygon fill="#E30513" points="530.8,10.9 530.8,33.5 530.8,43.6 534.2,43.6 534.2,6.8 		"/>
		<polygon fill="#2A255C" points="531.1,6.8 517.5,11.1 519.4,18.8 525.4,17.5 534.2,6.8 		"/>
		<rect x="525.4" y="33.5" fill="#40C0F0" width="5.4" height="10.1"/>
		<path fill="#40C0F0" d="M493.1,31.1c-0.7-1.6-1.1-3.6-1.1-5.8v0v-0.1c0-2.1,0.3-4,1-5.5l-2.7-2.7c-1,2.3-1.6,5.2-1.6,8.2v0.1v0
			c0,3.1,0.6,6.1,1.8,8.5c1.7,3.6,4.6,5.9,8.2,6.1v-4.6C496.2,35.3,494.2,33.7,493.1,31.1z"/>
	</g>
	<g>
		<polygon fill="#F7A723" points="477.1,38.8 477.2,38.8 477.2,34 465.1,34 458.6,38.8 		"/>
		<polygon fill="#40C0F0" points="458.6,38.8 452,43.6 477.2,43.6 477.2,38.8 477.1,38.8 		"/>
		<g>
			<path fill="none" d="M471.5,14.1c-0.4-0.5-0.8-1.1-1.4-1.5C470.6,13,471.1,13.5,471.5,14.1z"/>
			<path fill="none" d="M452.8,17.1c0,0,0,0,0.1-0.1C452.8,17,452.8,17.1,452.8,17.1z"/>
			<path fill="none" d="M452.9,17c0,0.1-0.1,0.1-0.1,0.1c0.1-0.1,0.2-0.2,0.3-0.4C453,16.8,453,16.9,452.9,17z"/>
			<path fill="none" d="M452.8,17.1c0,0,0,0,0.1-0.1C452.9,17.1,452.8,17.1,452.8,17.1z"/>
			<path fill="#2A255C" d="M472.7,18c0-0.2,0-0.4,0-0.6c-0.1-1.1-0.5-2.3-1.2-3.4c-0.4-0.5-0.8-1.1-1.4-1.5
				c-1.4-1.1-3.3-1.8-6.1-1.8c-4.4,0-7.2,1.7-10.8,5.9c-0.1,0.1-0.2,0.2-0.3,0.4l3.5,2.9c2.9-3.3,4.8-4.7,7.3-4.7
				c0.7,0,1.3,0.1,1.9,0.3c1.4,0.5,2.2,1.7,2.2,3.3c0,0,0,0.1,0,0.1c0,2.2-1.4,3.9-4.8,6.6L449.2,36v4.8l14.4-11
				C468.2,26.2,472.7,23.9,472.7,18z"/>
			<path fill="#E30513" d="M469.7,7.3c-1.6-0.5-3.4-0.8-5.4-0.8c-7,0-11,2.8-14.9,7.8l3.4,2.8c0,0,0,0,0.1-0.1
				c0.1-0.1,0.1-0.2,0.2-0.3c3.6-4.2,6.5-5.9,10.8-5.9c2.7,0,4.7,0.7,6.1,1.8c0.6,0.5,1.1,1,1.4,1.5c0.8,1.1,1.1,2.3,1.2,3.4
				c0,0.2,0,0.4,0,0.6c0,5.9-4.5,8.2-9.1,11.8l-14.4,11v2.8h2.8l13.1-9.6l4.2-3.1c5.2-3.8,8.2-6.7,8.4-12.1c0-0.2,0-0.4,0-0.7v-0.1
				C477.8,12.9,474.7,8.9,469.7,7.3z"/>
		</g>
	</g>
	<polygon fill="#2A255C" points="542.5,7.1 542.1,15.4 567.1,15.4 567.1,7.1 	"/>
	<g>
		<path fill="#40C0F0" d="M557.6,23.7l1.7-3.7c-1-0.2-2.1-0.3-3.2-0.3c-3.5,0-4.7,0.5-5.7,0.8c0,0,0,0,0,0l0.3-5h-8.6l-0.6,10.1
			l6,3.4l0,0c1.7-1,3.6-1.8,5.8-1.8c0.9,0,1.7,0.1,2.4,0.4L557.6,23.7"/>
		<line fill="#40C0F0" x1="557.5" y1="23.7" x2="557.6" y2="23.7"/>
		<g>
			<path fill="#F7A723" d="M563.7,31c0-4.7-3.4-6.6-6.1-7.3l-1.8,3.8c0,0,0,0,0.1,0c1.7,0.6,2.8,1.8,2.9,3.5c0,0.1,0,0.2,0,0.3v0.1
				c0,2.2-1.7,4-4.8,4c0,0-0.1,0-0.1,0c-2.5,0-6.4-1.2-9.3-3.7l-2.6,3c3.8,2.8,7.2,4.9,12,5C558.8,39.8,563.7,37.3,563.7,31z"/>
			<path fill="#E30513" d="M562.2,20.9c-0.9-0.4-1.9-0.7-2.9-0.9l-1.7,3.8c2.8,0.7,6.1,2.6,6.1,7.3c0,6.2-4.9,8.8-9.7,8.8
				c-4.8-0.1-8.2-2.2-12-5l-2.6,3c5.5,5.5,11.8,6.1,14.6,6.2c0.3,0,0.6,0,0.8,0c4.8,0,13.8-3.3,13.8-13
				C568.5,25.8,565.9,22.5,562.2,20.9z"/>
		</g>
	</g>
</g>
</svg>
