<?xml version="1.0" encoding="UTF-8" standalone="no"?>
<svg width="192px" height="22px" viewBox="0 0 192 22" version="1.1" xmlns="http://www.w3.org/2000/svg" xmlns:xlink="http://www.w3.org/1999/xlink" xmlns:sketch="http://www.bohemiancoding.com/sketch/ns">
    <!-- Generator: Sketch 3.4.4 (17249) - http://www.bohemiancoding.com/sketch -->
    <title>elections-2016</title>
    <desc>Created with Sketch.</desc>
    <defs></defs>
    <g id="Page-1" stroke="none" stroke-width="1" fill="none" fill-rule="evenodd" sketch:type="MSPage">
        <g id="elections-2016" sketch:type="MSLayerGroup">
            <path d="M14.6257769,5.09278846 L19.0695874,5.09278846 L19.0695874,18.0389423 L25.971676,18.0389423 L25.971676,21.65625 L14.6257769,21.65625 L14.6257769,5.09278846 L14.6257769,5.09278846 Z" id="Shape" fill="#0B85C4" sketch:type="MSShapeGroup"></path>
            <rect id="Rectangle-path" fill="#E53023" sketch:type="MSShapeGroup" x="27.8153846" y="5.09278846" width="11.7240958" height="3.66490385"></rect>
            <rect id="Rectangle-path" fill="#E53023" sketch:type="MSShapeGroup" x="27.8153846" y="11.4706731" width="9.59673968" height="3.52211538"></rect>
            <rect id="Rectangle-path" fill="#E53023" sketch:type="MSShapeGroup" x="27.8153846" y="17.9913462" width="12.0550178" height="3.66490385"></rect>
            <rect id="Rectangle-path" fill="#E53023" sketch:type="MSShapeGroup" x="0.348853795" y="5.09278846" width="11.7240958" height="3.66490385"></rect>
            <rect id="Rectangle-path" fill="#E53023" sketch:type="MSShapeGroup" x="0.348853795" y="11.4706731" width="9.59673968" height="3.52211538"></rect>
            <rect id="Rectangle-path" fill="#E53023" sketch:type="MSShapeGroup" x="0.348853795" y="17.9913462" width="12.0550178" height="3.66490385"></rect>
            <path d="M41.4304636,13.3745192 C41.4304636,7.32980769 44.9760571,4.80721154 49.1362201,4.80721154 C53.6273051,4.80721154 55.3764646,7.13942308 56.0855833,10.0903846 L51.8781457,11.3278846 C51.4526745,9.75721154 50.7908304,8.47211538 49.0889455,8.47211538 C46.8670402,8.47211538 45.8269995,10.2807692 45.8269995,13.3745192 C45.8269995,16.4206731 46.9143148,18.3721154 49.1362201,18.3721154 C50.8853795,18.3721154 51.5944982,17.2774038 52.067244,15.2307692 L56.2746816,16.1826923 C55.4710138,19.5144231 53.5800306,21.9894231 49.0889455,21.9894231 C44.7869587,21.9418269 41.4304636,19.4192308 41.4304636,13.3745192 L41.4304636,13.3745192 Z" id="Shape" fill="#0B85C4" sketch:type="MSShapeGroup"></path>
            <path d="M62.0421803,8.80528846 L57.3147224,8.80528846 L57.3147224,5.09278846 L71.2134488,5.09278846 L71.2134488,8.80528846 L66.4859908,8.80528846 L66.4859908,21.65625 L62.0421803,21.65625 L62.0421803,8.80528846 L62.0421803,8.80528846 Z" id="Shape" fill="#0B85C4" sketch:type="MSShapeGroup"></path>
            <path d="M73.2462557,5.09278846 L77.6900662,5.09278846 L77.6900662,21.65625 L73.2462557,21.65625 L73.2462557,5.09278846 L73.2462557,5.09278846 Z" id="Shape" fill="#0B85C4" sketch:type="MSShapeGroup"></path>
            <path d="M80.1010698,13.3745192 C80.1010698,7.32980769 84.2139582,4.80721154 88.1850229,4.80721154 C92.1560876,4.80721154 96.2689761,7.32980769 96.2689761,13.3745192 C96.2689761,19.4192308 92.1560876,21.9418269 88.1850229,21.9418269 C84.2139582,21.9418269 80.1010698,19.4192308 80.1010698,13.3745192 L80.1010698,13.3745192 Z M91.8251656,13.3745192 C91.8251656,10.3283654 90.5014773,8.47211538 88.1850229,8.47211538 C85.8685685,8.47211538 84.5448803,10.3283654 84.5448803,13.3745192 C84.5448803,16.4206731 85.8685685,18.3721154 88.1850229,18.3721154 C90.5014773,18.3721154 91.8251656,16.4206731 91.8251656,13.3745192 L91.8251656,13.3745192 Z" id="Shape" fill="#0B85C4" sketch:type="MSShapeGroup"></path>
            <path d="M98.5381559,5.09278846 L102.934692,5.09278846 L108.938563,14.3740385 L108.985838,14.3740385 L108.985838,5.09278846 L113.051452,5.09278846 L113.051452,21.65625 L108.938563,21.65625 L102.651044,12.375 L102.60377,12.375 L102.60377,21.65625 L98.5381559,21.65625 L98.5381559,5.09278846 L98.5381559,5.09278846 Z" id="Shape" fill="#0B85C4" sketch:type="MSShapeGroup"></path>
            <path d="M115.178808,17.9913462 L118.488029,15.9447115 C119.480795,17.5153846 121.08813,18.4673077 122.790015,18.4673077 C124.160978,18.4673077 125.153744,18.0865385 125.153744,17.0394231 C125.153744,15.9923077 123.830056,15.5639423 122.22272,15.1831731 C119.528069,14.4692308 115.982476,13.8028846 115.982476,10.0427885 C115.982476,6.66346154 118.535303,4.80721154 122.22272,4.80721154 C125.721039,4.80721154 127.801121,6.42548077 129.124809,8.04375 L126.14651,10.51875 C125.248293,9.42403846 123.640958,8.42451923 122.22272,8.42451923 C120.946307,8.42451923 120.331737,8.85288462 120.331737,9.61442308 C120.331737,10.7091346 121.608151,11.0899038 123.262761,11.5182692 C125.957412,12.1846154 129.55028,12.99375 129.55028,16.70625 C129.55028,19.3240385 127.706572,21.9418269 122.648192,21.9418269 C118.818951,21.9418269 116.597045,20.2283654 115.178808,17.9913462 L115.178808,17.9913462 Z" id="Shape" fill="#0B85C4" sketch:type="MSShapeGroup"></path>
            <path d="M136.121447,21.2754808 C136.121447,18.8956731 136.452369,16.5158654 140.80163,13.7076923 C143.401732,12.0418269 144.394498,11.6134615 144.394498,9.99519231 C144.394498,9.04326923 143.779929,8.47211538 142.739888,8.47211538 C141.652573,8.47211538 140.28161,9.28125 139.336118,10.6615385 L136.263271,8.37692308 C137.776057,6.23509615 139.761589,4.75961538 142.881712,4.75961538 C146.616403,4.75961538 148.74376,6.61586538 148.74376,9.66201923 C148.74376,11.3278846 148.507387,12.99375 145.33999,14.9927885 C143.212634,16.3730769 141.605298,17.4201923 141.510749,18.1817308 L148.885583,18.1817308 L148.885583,21.6086538 L136.215996,21.6086538 L136.215996,21.2754808 L136.121447,21.2754808 Z" id="Shape" fill="#E53023" sketch:type="MSShapeGroup"></path>
            <path d="M167.748141,18.1817308 L170.679165,18.1817308 L170.679165,9.04326923 C169.875497,9.47163462 168.788181,9.80480769 167.795415,9.80480769 L167.795415,6.13990385 C169.071829,6.09230769 170.01732,5.75913462 170.726439,5.04519231 L174.933877,5.04519231 L174.933877,18.1341346 L177.439429,18.1341346 L177.439429,21.5610577 L167.700866,21.5610577 L167.700866,18.1817308 L167.748141,18.1817308 Z" id="Shape" fill="#E53023" sketch:type="MSShapeGroup"></path>
            <path d="M178.243097,13.6600962 C178.243097,6.80625 182.450535,4.75961538 185.80703,4.75961538 C188.548956,4.75961538 189.919918,5.47355769 190.912685,6.1875 L189.068976,9.18605769 C188.07621,8.56730769 187.272542,8.28173077 186.043403,8.28173077 C184.294244,8.28173077 182.923281,9.42403846 182.592359,12.0418269 C183.774223,11.2802885 185.050637,10.8519231 186.468874,10.8519231 C189.163525,10.8519231 191.858176,12.1370192 191.858176,16.1350962 C191.858176,19.7048077 189.2108,21.9418269 185.334284,21.9418269 C181.032298,21.9418269 178.243097,18.9432692 178.243097,13.6600962 L178.243097,13.6600962 Z M187.650739,16.3254808 C187.650739,15.2783654 187.272542,14.0884615 185.476108,14.0884615 C184.246969,14.0884615 183.254203,14.4692308 182.545084,14.9927885 C182.639633,17.325 183.53785,18.6100962 185.476108,18.6100962 C186.988895,18.6100962 187.650739,17.3725962 187.650739,16.3254808 L187.650739,16.3254808 Z" id="Shape" fill="#E53023" sketch:type="MSShapeGroup"></path>
            <path d="M9.99286806,0.0951923077 L5.73815588,0.0951923077 L4.60356597,2.33221154 L8.10188487,2.33221154 L9.99286806,0.0951923077 Z" id="Shape" fill="#E53124" sketch:type="MSShapeGroup"></path>
            <path d="M158.482323,4.75961538 C154.511258,4.75961538 150.39837,7.28221154 150.39837,13.3269231 C150.39837,19.3716346 154.511258,21.8942308 158.482323,21.8942308 C162.453388,21.8942308 166.566276,19.3716346 166.566276,13.3269231 C166.519002,7.28221154 162.406113,4.75961538 158.482323,4.75961538 L158.482323,4.75961538 Z" id="Shape" fill="#E53023" sketch:type="MSShapeGroup"></path>
            <path d="M158.482323,7.09182692 L159.853286,11.4706731 L164.43892,11.4706731 L160.751503,14.1836538 L162.16974,18.5625 L158.482323,15.8495192 L154.747631,18.5625 L156.165869,14.1836538 L152.478451,11.4706731 L157.064086,11.4706731 L158.482323,7.09182692 Z" id="polygon257_32_" fill="#FFFFFF" sketch:type="MSShapeGroup"></path>
        </g>
    </g>
</svg>