<?xml version="1.0" encoding="UTF-8" standalone="no"?>
<svg width="170px" height="25px" viewBox="0 0 170 25" version="1.1" xmlns="http://www.w3.org/2000/svg" xmlns:xlink="http://www.w3.org/1999/xlink" xmlns:sketch="http://www.bohemiancoding.com/sketch/ns">
    <!-- Generator: Sketch 3.5.2 (25235) - http://www.bohemiancoding.com/sketch -->
    <title>Calque_2</title>
    <desc>Created with Sketch.</desc>
    <defs></defs>
    <g id="Page-1" stroke="none" stroke-width="1" fill="none" fill-rule="evenodd" sketch:type="MSPage">
        <g id="Calque_2" sketch:type="MSLayerGroup">
            <g id="Group" fill="#1E1915" sketch:type="MSShapeGroup">
                <path d="M18.3,10 L16.1,11.4 L16.1,7.8 L16.3,7.7 L18.3,10 L18.3,10 Z M20.9,9.4 L17.6,5.7 L12.4,8.7 L12.4,9.4 L13.5,8.8 L13.5,15.6 C13.5,16 13.6,16.2 13.9,16.4 L16.6,18.2 L20.5,16 L20.2,15.3 L18.2,16.4 L16.4,15.1 C16.2,15 16.2,14.8 16.2,14.5 L16.2,12.3 L20.9,9.4 L20.9,9.4 Z M14.5,2.9 C14.1,2.2 12.9,0.9 10.5,0.9 C7.7,0.9 5.2,3.1 5.1,5.7 C5,7.8 6,10.6 5.9,12.7 C5.9,13.4 5.7,13.9 5.4,14.3 L5.7,14.6 L7.4,13.3 C8.2,12.7 8.7,11.9 8.7,10.6 C8.7,8.9 7.9,6.4 7.9,4.5 C7.9,2.8 8.5,1.6 10,1.6 C11,1.6 11.8,2.6 11.9,3.2 C12,3.5 11.9,3.6 11.7,3.8 L11,4.3 L11,5 L14.5,2.9 L14.5,2.9 Z M12.1,16.4 L11.8,15.8 L11,16.3 C10.4,15.6 9.5,14.8 7.3,14.8 C5,14.8 2.2,16.6 0.9,18.2 L1.1,18.5 C2.9,17.3 4.7,16.8 6.2,16.8 C7.5,16.8 8.5,17.4 9,18.3 L12.1,16.4 L12.1,16.4 Z" id="Shape"></path>
                <path d="M44.7,3.2 C43.7,3.8 43.4,4.5 43.4,5.7 L43.4,15.2 C43.4,15.8 43.5,16.1 43.8,16.2 L44.1,16.4 L45,15.9 L45.3,16.5 L42.2,18.4 L41.1,17.7 C40.6,17.4 40.4,17 40.4,16.2 L40.4,7.8 C40.4,6.2 40.9,5.4 41.6,4.9 L42,4.6 L39.1,2.9 L37.8,3.7 L37.8,16 C37.8,17 37.7,17.2 36.7,17.7 C36.7,17.7 36,18 35,18.6 L34.8,18.6 L34.8,4.7 C34.8,4 34.7,3.9 34.4,3.6 L33.4,2.8 L32.1,3.5 L32.1,10.6 C32.1,11.8 31.9,12.7 30.9,13.3 L28.4,14.9 L28.2,14.5 C29,13.9 29.1,13.1 29.1,12.1 L29.1,4.9 C29.1,3.8 29,3.4 27.8,3.6 C27.4,3.7 26.7,3.8 26.3,3.8 C24.7,4 24,2.9 25.1,1.4 C25.1,1.4 25.4,1 26.1,0.1 L26.6,0.5 L26.4,1 C25.9,1.7 26.3,2.1 27.1,1.8 C27.5,1.7 28.3,1.4 28.8,1.1 C31.1,0.2 32,1.7 32.1,2.6 L35,0.8 L37.5,2.7 L40.6,0.8 L43,2.2 C43.8,2.7 44.2,2.5 44.8,2.2 L45.3,2 L45.7,2.6 L44.7,3.2 L44.7,3.2 Z M29.5,18.3 C29.3,17.6 28.5,16.9 27.3,16.8 C26.1,16.8 24.4,17.2 22.9,18.3 L22.6,18 C23.6,16.9 26.1,15 28.6,15 C29.9,15 30.9,15.4 31.5,16.2 L32.6,15.6 L32.9,16.2 L29.5,18.3 L29.5,18.3 Z" id="Shape"></path>
                <path d="M52.5,16.3 L52.4,16.3 L50.4,15.1 C50.1,14.9 50,14.7 50,14.2 L50,7.7 L50.1,7.7 L52.1,8.8 C52.5,9 52.6,9.2 52.6,9.6 L52.6,16.3 L52.5,16.3 Z M68.4,16.7 L68.2,16.1 L67.3,16.6 L67,16.4 C66.7,16.2 66.6,16 66.6,15.4 L66.6,8.3 C66.6,7.7 66.5,7.5 66.1,7.2 L64.2,5.8 L61.3,7.5 L59.7,5.8 L56.6,7.7 L57,8.2 L58.1,7.6 L58.9,8.5 L58.9,18.3 L59,18.3 C60.2,17.8 60.6,17.6 60.6,17.6 C61.2,17.4 61.4,17.2 61.4,16.5 L61.4,8.3 L62.4,7.7 L63.6,8.6 C63.9,8.9 64,9.1 64,9.5 L64,16.2 C64,16.9 64.2,17.4 64.7,17.7 L65.7,18.3 L68.4,16.7 L68.4,16.7 Z M56.2,15.3 L56,14.8 L55.1,15.2 L55.1,8.5 C55.1,8.2 55,7.9 54.6,7.7 L51.4,5.8 L46.2,8.8 L46.2,9.5 L47.3,8.9 L47.3,15.4 C47.3,16 47.4,16.2 47.8,16.4 L50.9,18.3 L56.2,15.3 L56.2,15.3 Z" id="Shape"></path>
                <path d="M85.6,10 L83.4,11.4 L83.4,7.8 L83.6,7.7 L85.6,10 L85.6,10 Z M88.2,9.4 L84.9,5.7 L79.7,8.7 L79.7,9.4 L80.8,8.8 L80.8,15.6 C80.8,16 80.9,16.2 81.2,16.4 L83.9,18.2 L87.8,16 L87.5,15.3 L85.5,16.4 L83.7,15.1 C83.5,14.9 83.4,14.8 83.4,14.5 L83.4,12.3 L88.2,9.4 L88.2,9.4 Z M78.6,15.3 L78.4,14.7 L77.5,15.2 L77.5,4.7 C77.5,3.2 76.8,2.2 75.7,1.5 L74.6,0.8 L71.1,2.8 L71.8,3.1 L72.9,2.5 L73.6,2.9 C74.4,3.3 74.9,4.2 74.9,5.1 L74.9,5.5 L68.9,9 L68.9,9.7 L69.9,9.2 L69.9,15.5 C69.9,16 70,16.3 70.4,16.5 L73.4,18.4 L78.6,15.3 L78.6,15.3 Z M75,16.3 L74.9,16.3 L73.1,15.2 C72.8,15 72.6,14.8 72.6,14.4 L72.6,8.1 L74.8,6.8 L75,6.9 L75,16.3 L75,16.3 Z" id="Shape"></path>
                <path d="M11.6,3.3 C11.5,3 10.9,2.2 10.3,2.2 C10.2,2.2 10.1,2.2 10,2.3 C10.6,2.5 11.1,3.2 11.3,3.6 L11.6,3.3 L11.6,3.3 L11.6,3.3 L11.6,3.3 Z" id="Shape" opacity="0.6"></path>
                <path d="M15.9,18.6 L13.5,17 C13.2,16.8 12.9,16.4 12.9,15.7 L12.9,9.8 L12.6,10 L12.5,10 L12.5,15.9 C12.5,16.4 12.8,16.9 13.1,17.2 L15.6,18.9 L15.9,18.6 L15.9,18.6 Z" id="Shape" opacity="0.6"></path>
                <path d="M5.4,12.7 C5.4,11.7 5.2,10.5 5,9.3 C4.8,8.1 4.6,6.9 4.6,5.8 C4.6,5.1 4.7,4.5 5,3.9 C4.5,4.6 4.2,5.4 4.2,6.3 C4.1,8.4 5.1,11.1 5,13.3 C5,13.6 5,13.9 4.9,14.2 L4.9,14.2 C5.3,13.7 5.4,13.3 5.4,12.7" id="Shape" opacity="0.6"></path>
                <path d="M8.7,18.6 C8.3,17.8 7.4,17.4 6.4,17.4 L6.1,17.4 C7.1,17.6 8,18.1 8.3,18.9 L8.7,18.6 L8.7,18.6 Z" id="Shape" opacity="0.6"></path>
                <path d="M17.4,9.8 L16.6,8.9 L16.6,9.5 L17.1,10.1 L17.4,9.8 Z" id="Shape" opacity="0.6"></path>
                <path d="M40.9,4.7 L38.9,3.5 L39.2,3.3 L41.1,4.4 C41,4.5 40.9,4.6 40.9,4.7" id="Shape" opacity="0.6"></path>
                <path d="M41.4,18.8 L40.5,18.2 C39.9,17.8 39.6,17.1 39.6,16.4 L39.6,8.2 C39.6,7.1 39.8,6.3 40.2,5.7 C40,6.2 39.9,6.9 39.9,7.7 L39.9,16.1 C39.9,17 40.2,17.6 40.8,18.1 L41.6,18.6 L41.4,18.8 L41.4,18.8 Z" id="Shape" opacity="0.6"></path>
                <path d="M34.4,18.7 C34.4,18.7 34.3,18.7 34.3,18.8 L34,18.8 L34,5 C34,4.3 34,4.3 33.6,4 L33,3.6 L33.4,3.4 C33.7,3.6 34.1,4 34.1,4 C34.3,4.2 34.3,4.3 34.3,4.7 L34.3,18.3 L34.3,18.7 L34.4,18.7 L34.4,18.7 Z" id="Shape" opacity="0.6"></path>
                <path d="M24.3,1.8 C24.1,2.4 24.1,2.9 24.4,3.4 C24.6,3.8 25,4.1 25.5,4.2 C24,4.3 23.4,3.1 24.3,1.8" id="Shape" opacity="0.6"></path>
                <path d="M28.2,13.7 C28.3,13.3 28.4,12.9 28.4,12.4 L28.4,5.2 C28.4,4.3 28.3,4.2 28.1,4 L28,4 C28.4,3.9 28.6,4 28.6,4.7 L28.6,11.9 C28.7,12.8 28.5,13.3 28.2,13.7" id="Shape" opacity="0.6"></path>
                <path d="M28.6,18.8 C28.4,18.2 27.8,17.6 26.8,17.5 L27.2,17.5 C28.5,17.5 28.9,18.3 28.9,18.6 L28.9,18.7 L28.6,18.8 L28.6,18.8 Z" id="Shape" opacity="0.6"></path>
                <path d="M65.1,18.6 L64.4,18.2 C63.7,17.8 63.4,17.2 63.4,16.2 L63.4,9.5 C63.4,9.1 63.4,9.1 63.2,9 C63.2,9 62.7,8.6 62.3,8.3 L62,8.5 L62.7,9 C63.1,9.3 63,9.3 63,9.9 L63,16.4 C63,17.3 63.4,17.9 63.9,18.2 L64.8,18.7 L65.1,18.6 L65.1,18.6 Z" id="Shape" opacity="0.6"></path>
                <path d="M58.2,18.7 L58.2,18.3 L58.2,8.7 L57.9,8.3 L57.5,8.5 L57.9,8.9 L57.9,18.7 L58.1,18.7 C58.1,18.7 58.2,18.7 58.2,18.7 L58.2,18.7 L58.2,18.7 Z" id="Shape" opacity="0.6"></path>
                <path d="M50.4,18.6 L47.6,16.9 C47,16.6 46.8,16.1 46.8,15.4 L46.8,9.8 L46.5,10 L46.4,10 L46.4,15.7 C46.4,16.4 46.7,16.9 47.2,17.2 L50,18.9 L50.4,18.6 L50.4,18.6 Z" id="Shape" opacity="0.6"></path>
                <path d="M51.9,15.5 L51.9,9.9 C51.9,9.6 51.8,9.5 51.6,9.4 L50.4,8.7 L50.4,9 L51.1,9.4 C51.6,9.7 51.6,9.7 51.6,10.2 L51.6,15.3 L51.9,15.5 L51.9,15.5 Z" id="Shape" opacity="0.6"></path>
                <path d="M74.4,5.3 L74.4,5.3 C74.4,4.5 74,3.8 73.3,3.4 C73.1,3.3 72.8,3.1 72.8,3.1 L72.5,3.3 L72.7,3.4 C73.5,3.9 74,4.5 74,5.4 L74.4,5.3 L74.4,5.3 Z" id="Shape" opacity="0.6"></path>
                <path d="M83.4,18.6 L80.9,17 C80.6,16.8 80.3,16.4 80.3,15.7 L80.3,9.8 L80,10 L79.9,10 L79.9,15.8 C79.9,16.4 80.1,16.9 80.6,17.2 L83.1,18.8 L83.4,18.6 L83.4,18.6 Z" id="Shape" opacity="0.6"></path>
                <path d="M72.9,18.6 L70.2,16.9 C69.6,16.5 69.4,16.1 69.4,15.4 L69.4,10.1 L69.2,10.2 L69.1,10.3 L69.1,15.6 C69.1,16.4 69.4,16.8 69.8,17.1 L72.6,18.9 L72.9,18.6 L72.9,18.6 Z" id="Shape" opacity="0.6"></path>
                <path d="M84.8,9.8 L83.9,8.9 L84,9.5 L84.4,10.1 L84.8,9.8 Z" id="Shape" opacity="0.6"></path>
                <path id="Shape" opacity="0.6" d="M74.4,15.4 L74.4,7.6 L74.1,7.8 L74.1,15.2 L74.4,15.4 Z"></path>
            </g>
            <path d="M93.6,14.3 C93,15.6 91,17.8 89,18.1 L89,18.3 L92.9,18.3 L93.7,18.3 L96.6,18.3 L96.6,18.1 C95.8,18 93.8,17.8 93.6,16.8 C93.4,16.1 93.8,15 94,14.5 L93.6,14.3 L93.6,14.3 Z" id="Shape" fill="#F7350F" sketch:type="MSShapeGroup"></path>
            <g id="Group" transform="translate(95.000000, 0.000000)" fill="#F7350F" sketch:type="MSShapeGroup">
                <path d="M25.1,16.2 L25.1,7.2 L24.9,7.1 C23.1,7.5 21.2,8.4 20.1,8.9 L20.1,9 C21.4,9.2 21.7,10 21.7,10.8 L21.7,16.2 C21.7,17.7 21.5,17.5 19.9,18.1 L19.9,18.3 L27.8,18.3 L27.8,18.1 C25.3,17.5 25.1,17.7 25.1,16.2 L25.1,16.2 Z" id="Shape"></path>
                <path d="M28.3,7 C27.2,7 26.4,8 25.8,8.7 L25.9,8.9 C26.1,8.8 26.4,8.6 26.6,8.6 L26.6,8.9 C26.6,10 27.3,10.8 28.3,10.8 C29.3,10.8 30,10 30,8.9 C30.1,7.9 29.4,7 28.3,7 L28.3,7 Z" id="Shape"></path>
                <path d="M35.6,16.2 L35.6,7.3 L35.6,7.2 L35.4,7.1 C33.6,7.5 31.7,8.4 30.6,8.9 L30.6,9 C31.9,9.2 32.2,10 32.2,10.8 L32.2,16.2 C32.2,17.7 32,17.8 30.6,18.1 L30.6,18.3 L32.8,18.3 L37,18.3 L37.2,18.3 L37.2,18.1 C35.8,17.8 35.6,17.7 35.6,16.2 L35.6,16.2 Z" id="Shape"></path>
                <path d="M44.6,17.4 L44.6,17.2 C42.5,17.9 41,15.8 41,12.3 C41,9.8 41.6,7.5 42.9,7.3 L42.9,7 C39.9,7.2 37.6,9.7 37.6,13.2 C37.6,16.9 40,18.6 42.1,18.6 C43.4,18.7 44.3,17.9 44.6,17.4 L44.6,17.4 Z" id="Shape"></path>
                <path d="M48.9,22.3 L48.9,12.3 C48.9,10.5 48.9,8.7 49,6.8 L48.8,6.8 L47.7,8.5 C46.9,7.8 45.7,7.1 44.1,7 L44.1,7.2 C45.2,7.3 45.5,9.7 45.5,11.7 L45.5,14.1 L45.5,17.7 L45.5,22.1 C45.5,23.6 45.3,23.4 42.6,24 L42.6,24.2 L50.7,24.2 L50.7,24 C49.1,23.6 48.9,23.7 48.9,22.3 L48.9,22.3 Z" id="Shape"></path>
                <path d="M61.7,15.4 L61.7,11.5 C61.7,10.1 61.8,8.3 61.8,7.1 L56.9,7.5 L56.9,7.7 C58.1,8 58.3,8.1 58.3,9.6 L58.3,18.6 L58.5,18.7 C60.6,18 62.5,17.5 63.9,17.2 L63.9,17 C61.9,17 61.7,16.6 61.7,15.4 L61.7,15.4 Z" id="Shape"></path>
                <path d="M55.2,14.7 L55.2,14.5 L55.2,10.9 L55.2,7 L50.2,7.4 L50.2,7.6 C51.6,7.9 51.8,8 51.8,9.5 L51.8,15 C51.8,17.2 52.8,18.6 54.8,18.6 C56.2,18.6 57,18 57.8,17.5 L57.8,17.3 C55.7,18 55.2,16.7 55.2,14.7 L55.2,14.7 Z" id="Shape"></path>
                <path d="M70.9,11 L70.9,11.9 L68.5,12.4 L68.5,12.6 L74.1,12.6 C74.1,10 72.6,7.2 69.8,7.1 L69.8,7.3 C70.8,7.7 70.9,9.7 70.9,11 L70.9,11 Z" id="Shape"></path>
                <path d="M74,15.2 C73.2,16.4 72.2,16.9 71.1,16.9 C68.3,16.9 67.5,13.7 67.5,12.3 C67.5,11.1 67.5,7.6 69.1,7.3 L69.1,7 C66.2,7.2 64.1,9.4 64.1,12.9 C64.1,16.7 66.8,18.8 69.3,18.8 C71.2,18.8 73.2,17.6 74.3,15.3 L74,15.2 L74,15.2 Z" id="Shape"></path>
                <path d="M6.2,14.8 C6.3,15.1 6.7,16 6.7,16.5 C6.7,17.8 5.5,17.9 4.7,18 L4.7,18.2 L13.2,18.2 L19,18.2 L19,18 C16.6,17.5 16.4,17.6 16.4,16.1 L16.4,10.2 L16.4,8.4 L19.2,8.4 L19.2,7.3 L16.4,7.3 C16.4,5.4 16.2,1.2 18.7,0.6 C18.2,0.9 17.9,1.5 17.9,2.1 C17.8,3.3 18.7,4.1 19.7,4.1 C21.1,4.1 21.6,3 21.6,2.5 L21.6,2.4 C21.6,2.2 21.8,0.1 18.2,0.3 C13.4,0.6 13,4.8 13,6.9 L10.9,8.1 L10.9,8.3 L13,8.3 L13,16.1 C13,17.2 12.9,17.6 12.2,17.6 C11.8,17.6 11.5,17.2 11.2,16.7 C11.1,16.5 11,16.4 11,16.2 C9.2,11 7.4,5.9 5.5,0.7 L0.3,0.7 L0.3,0.8 C0.3,0.9 0.7,0.9 1.3,1.1 C1.4,1.1 1.5,1.1 1.6,1.3 L6.2,14.8 L6.2,14.8 Z" id="Shape"></path>
                <circle id="Oval" cx="33.7" cy="3.1" r="2"></circle>
            </g>
            <path d="M96.6,9.3 C97.4,9.3 98.1,10 98.1,10.8 C98.1,11.6 97.4,12.3 96.6,12.3 C95.8,12.3 95.1,11.6 95.1,10.8 C95.1,10 95.8,9.3 96.6,9.3 L96.6,9.3 Z" id="Shape" fill="#F7350F" sketch:type="MSShapeGroup"></path>
        </g>
    </g>
</svg>