<?xml version="1.0" encoding="UTF-8" standalone="no"?>
<svg width="96px" height="15px" viewBox="0 0 96 15" version="1.1" xmlns="http://www.w3.org/2000/svg" xmlns:xlink="http://www.w3.org/1999/xlink">
    <!-- Generator: Sketch 3.7.2 (28276) - http://www.bohemiancoding.com/sketch -->
    <title>Marqueur Euro 2016 bloc 1000@2x</title>
    <desc>Created with Sketch.</desc>
    <defs></defs>
    <g id="LMFR-Web-Fixed-Grid" stroke="none" stroke-width="1" fill="none" fill-rule="evenodd">
        <g id="Bloc-1000px" transform="translate(-472.000000, -35.000000)">
            <g id="Marqueur-Euro-2016-bloc-1000" transform="translate(472.000000, 34.000000)">
                <g id="Page-1-Copy-5" transform="translate(0.000000, 0.745098)">
                    <g id="Group-5" transform="translate(0.000000, 0.151803)" fill="#6FAA12">
                        <path d="M7.60123247,3.01094757 C5.89179716,3.01094757 4.69565627,3.97981654 4.35346,5.68899417 L10.9062094,5.68899417 C10.4787218,3.95121429 9.33901235,3.01094757 7.60123247,3.01094757 L7.60123247,3.01094757 Z M4.21122178,8.08230667 C4.29677085,10.418157 5.49291175,11.6715024 7.60123247,11.6715024 C9.0828805,11.6715024 10.0228895,11.1587233 10.9062094,9.87677569 L14.4956628,10.4465016 C13.3276088,13.1820103 10.9628986,14.6061962 7.68678154,14.6061962 C3.15706142,14.6061962 0.222625293,11.8139983 0.222625293,7.48372087 C0.222625293,3.12484121 3.07151235,0.333158644 7.48733883,0.333158644 C11.9317676,0.333158644 14.6092988,3.06789439 14.6092988,7.59787218 L14.6092988,8.08230667 L4.21122178,8.08230667 Z" id="Fill-23"></path>
                        <path d="M19.4609843,8.2205033 C19.4609843,10.2304405 20.4373805,11.2928135 22.3044557,11.2928135 C24.1710114,11.2928135 25.1476674,10.2304405 25.1476674,8.2205033 L25.1476674,0.552455408 L29.0529924,0.552455408 L29.0529924,8.85221268 C29.0529924,12.4702554 26.6407042,14.5098039 22.3044557,14.5098039 C17.9676877,14.5098039 15.5265674,12.4702554 15.5265674,8.85221268 L15.5265674,0.552455408 L19.4609843,0.552455408 L19.4609843,8.2205033 Z" id="Fill-26"></path>
                        <path d="M33.986926,0.552588235 L33.986926,2.63797723 C34.5155787,1.75680076 34.7796395,1.43349905 35.3675332,0.993043643 C36.1605123,0.43516888 37.1591082,0.112398482 38.1574383,0.112398482 C38.8040417,0.112398482 39.1273435,0.170842505 39.8905693,0.43516888 L39.3321632,4.07729412 C38.5689374,3.66606072 38.2456357,3.60735104 37.4234345,3.60735104 C36.3363757,3.60735104 35.4849526,3.9303871 34.8678368,4.60621252 C34.2220304,5.31099431 33.986926,6.16241746 33.986926,7.74864137 L33.986926,14.3862884 L29.9627894,14.3862884 L29.9627894,0.552588235 L33.986926,0.552588235 Z" id="Fill-28"></path>
                        <path d="M47.0106155,11.3511844 C49.1845141,11.3511844 50.9294286,9.6968071 50.9578895,7.61406195 C50.9866092,5.5313168 49.1845141,3.84803757 47.0106155,3.84803757 C44.8649192,3.84803757 43.0633416,5.5313168 43.0633416,7.5567742 C43.0633416,9.66842128 44.8082561,11.3511844 47.0106155,11.3511844 M47.0106155,0.4530933 C51.7304747,0.4530933 54.9915812,3.36289808 54.9915812,7.58541808 C55.0203009,11.8079381 51.7022725,14.7466448 47.0106155,14.7466448 C42.3474195,14.7466448 39.0296499,11.836582 39.0296499,7.72812134 C39.0296499,3.39154195 42.261778,0.4530933 47.0106155,0.4530933" id="Fill-30"></path>
                    </g>
                    <g id="Group-4" transform="translate(55.256167, 0.324536)" fill="#419306">
                        <path d="M0.869178581,3.32751515 C1.65363043,1.45590998 3.41864708,0.350456088 5.61100699,0.350456088 C8.60562471,0.350456088 10.7806733,2.36500361 10.7806733,5.12789643 C10.7806733,6.58971701 10.2996648,7.62345242 8.80173767,9.24602132 L6.87696191,11.3317927 L10.923121,11.3317927 L10.923121,14.2729925 L0.191562547,14.2729925 L3.5789008,10.7254006 C4.11357448,10.1731682 4.61263621,9.60263531 5.09413928,8.99649045 C5.57514775,8.42595754 6.10982142,7.71248226 6.35959959,7.32050364 C6.87696191,6.55410507 7.17991068,5.71623532 7.17991068,5.03886659 C7.17991068,4.05854909 6.48473598,3.29190321 5.61100699,3.29190321 C5.2009751,3.29190321 4.80874917,3.45240423 4.55946561,3.71974107 C4.20309893,4.09416102 4.05990926,4.55761082 4.05990926,5.50206908 L0.441835331,5.50206908 C0.512811901,4.41516307 0.60208905,3.96951924 0.869178581,3.32751515" id="Fill-32"></path>
                        <path d="M14.808829,7.27300831 C14.808829,9.88331951 15.6552072,11.4314748 17.0590112,11.4314748 C18.4628152,11.4314748 19.2734801,9.91953221 19.2734801,7.27300831 C19.2734801,4.62673415 18.4807967,3.13252329 17.0769927,3.13252329 C15.6364765,3.13252329 14.808829,4.62673415 14.808829,7.27300831 M22.7653832,7.29074005 C22.7653832,11.6115393 20.4612567,14.5098039 17.0590112,14.5098039 C13.620553,14.5098039 11.3166762,11.6115393 11.3166762,7.27300831 C11.3166762,2.95245877 13.620553,0 17.004817,0 C20.4792381,0 22.7653832,2.89851433 22.7653832,7.29074005" id="Fill-34"></path>
                        <polygon id="Fill-36" points="22.6677896 3.37429861 22.6677896 0.392156863 28.1078039 0.392156863 28.1078039 14.3173073 24.5835913 14.3173073 24.5835913 3.37429861"></polygon>
                        <path d="M32.0668186,9.55737612 C32.0668186,10.7696658 33.0651894,11.7680366 34.2777264,11.7680366 C35.4717155,11.7680366 36.4700863,10.7696658 36.4700863,9.55737612 C36.4700863,8.34533371 35.4895215,7.34696294 34.2777264,7.34696294 C33.0473834,7.34696294 32.0668186,8.32728044 32.0668186,9.55737612 L32.0668186,9.55737612 Z M37.6282162,0.590834311 L34.2777264,4.67309996 C34.5089567,4.58407011 34.6518991,4.56601684 34.9904598,4.56601684 C37.8423824,4.56601684 40.0171837,6.68740018 40.0171837,9.46834627 C40.0171837,12.4275994 37.6465168,14.5131235 34.2777264,14.5131235 C30.9974713,14.5131235 28.679975,12.4988232 28.679975,9.64640596 C28.679975,8.09580285 29.4463736,6.2058971 30.7120812,4.5304049 L33.6893875,0.590834311 L37.6282162,0.590834311 Z" id="Fill-38"></path>
                    </g>
                </g>
            </g>
        </g>
    </g>
</svg>