<?xml version="1.0" encoding="UTF-8" standalone="no"?>
<svg width="364px" height="51px" viewBox="0 0 364 51" version="1.1" xmlns="http://www.w3.org/2000/svg" xmlns:xlink="http://www.w3.org/1999/xlink">
    <!-- Generator: Sketch 3.7.2 (28276) - http://www.bohemiancoding.com/sketch -->
    <title>Group Copy</title>
    <desc>Created with Sketch.</desc>
    <defs></defs>
    <g id="LMFR-Web-Fixed-Grid" stroke="none" stroke-width="1" fill="none" fill-rule="evenodd">
        <g id="Group-Copy">
            <g id="Marqueur-Euro-2016" transform="translate(62.000000, 0.000000)">
                <g id="Page-1-Copy-5" transform="translate(0.000000, 7.000000)">
                    <g id="Group-5" transform="translate(0.000000, 0.387097)" fill="#6FAA12">
                        <path d="M19.3831428,7.6779163 C15.0240828,7.6779163 11.9739235,10.1485322 11.101323,14.5069351 L27.8108341,14.5069351 C26.7207405,10.0755964 23.8144815,7.6779163 19.3831428,7.6779163 L19.3831428,7.6779163 Z M10.7386156,20.609882 C10.9567657,26.5663003 14.006925,29.7623311 19.3831428,29.7623311 C23.1613453,29.7623311 25.5583683,28.4547445 27.8108341,25.185778 L36.9639403,26.638579 C33.9854025,33.6141264 27.9553914,37.2458003 19.6012929,37.2458003 C8.05050663,37.2458003 0.567694497,30.1256956 0.567694497,19.0834882 C0.567694497,7.96834508 7.8323565,0.849554542 19.092714,0.849554542 C30.4260073,0.849554542 37.253712,7.82313069 37.253712,19.3745741 L37.253712,20.609882 L10.7386156,20.609882 Z" id="Fill-23"></path>
                        <path d="M49.6255099,20.9622834 C49.6255099,26.0876231 52.1153202,28.7966745 56.876362,28.7966745 C61.6360792,28.7966745 64.1265518,26.0876231 64.1265518,20.9622834 L64.1265518,1.40876129 L74.0851307,1.40876129 L74.0851307,22.5731423 C74.0851307,31.7991513 67.9337957,37 56.876362,37 C45.8176037,37 39.5927468,31.7991513 39.5927468,22.5731423 L39.5927468,1.40876129 L49.6255099,1.40876129 L49.6255099,20.9622834 Z" id="Fill-26"></path>
                        <path d="M86.6666613,1.4091 L86.6666613,6.72684194 C88.0147258,4.47984194 88.6880806,3.65542258 90.1872097,2.53226129 C92.2093065,1.10968065 94.7557258,0.286616129 97.3014677,0.286616129 C98.9503065,0.286616129 99.7747258,0.435648387 101.720952,1.10968065 L100.297016,10.3971 C98.3507903,9.34845484 97.526371,9.19874516 95.4297581,9.19874516 C92.6577581,9.19874516 90.486629,10.0224871 88.9129839,11.7458419 C87.2661774,13.5430355 86.6666613,15.7141645 86.6666613,19.7590355 L86.6666613,36.6850355 L76.4051129,36.6850355 L76.4051129,1.4091 L86.6666613,1.4091 Z" id="Fill-28"></path>
                        <path d="M119.87707,28.9455202 C125.420511,28.9455202 129.870043,24.7268581 129.942618,19.415858 C130.015853,14.1048578 125.420511,9.81249581 119.87707,9.81249581 C114.405544,9.81249581 109.811521,14.1048578 109.811521,19.2697742 C109.811521,24.6544743 114.261053,28.9455202 119.87707,28.9455202 M119.87707,1.15538792 C131.912711,1.15538792 140.228532,8.57539009 140.228532,19.3428161 C140.301767,30.1102421 131.840795,37.6039442 119.87707,37.6039442 C107.98592,37.6039442 99.5256071,30.183284 99.5256071,19.7067094 C99.5256071,8.64843197 107.767534,1.15538792 119.87707,1.15538792" id="Fill-30"></path>
                    </g>
                    <g id="Group-4" transform="translate(140.903226, 0.827566)" fill="#419306">
                        <path d="M2.21640538,8.48516362 C4.21675759,3.71257046 8.71755006,0.893663025 14.3080678,0.893663025 C21.944343,0.893663025 27.4907168,6.03075921 27.4907168,13.0761359 C27.4907168,16.8037784 26.2641452,19.4398037 22.4444311,23.5773544 L17.5362529,28.8960714 L27.8539586,28.8960714 L27.8539586,36.396131 L0.488484496,36.396131 L9.12619704,27.3497714 C10.4896149,25.941579 11.7622223,24.48672 12.9900552,22.9410507 C14.2166268,21.4861917 15.5800446,19.6668298 16.216979,18.6672843 C17.5362529,16.7129679 18.3087722,14.5764001 18.3087722,12.8491098 C18.3087722,10.3493002 16.5360768,8.39435318 14.3080678,8.39435318 C13.2624865,8.39435318 12.2623104,8.80363079 11.6266373,9.48533973 C10.7179023,10.4401106 10.3527686,11.6219076 10.3527686,14.0302762 L1.12668009,14.0302762 C1.30767035,11.2586658 1.53532708,10.1222741 2.21640538,8.48516362" id="Fill-32"></path>
                        <path d="M37.762514,18.5461712 C37.762514,25.2024648 39.9207784,29.1502608 43.5004786,29.1502608 C47.0801787,29.1502608 49.1473744,25.2948071 49.1473744,18.5461712 C49.1473744,11.7981721 47.1260315,7.98793439 43.5463313,7.98793439 C39.8730151,7.98793439 37.762514,11.7981721 37.762514,18.5461712 M58.0517273,18.5913871 C58.0517273,29.6094253 52.1762045,37 43.5004786,37 C34.7324103,37 28.8575243,29.6094253 28.8575243,18.5461712 C28.8575243,7.52876986 34.7324103,0 43.3622834,0 C52.2220572,0 58.0517273,7.39121155 58.0517273,18.5913871" id="Fill-34"></path>
                        <polygon id="Fill-36" points="57.8028636 8.60446147 57.8028636 1 71.6748999 1 71.6748999 36.5091335 62.6881578 36.5091335 62.6881578 8.60446147"></polygon>
                        <path d="M81.7703875,24.3713091 C81.7703875,27.4626478 84.316233,30.0084933 87.4082024,30.0084933 C90.4528746,30.0084933 92.9987201,27.4626478 92.9987201,24.3713091 C92.9987201,21.280601 90.4982799,18.7347555 87.4082024,18.7347555 C84.2708278,18.7347555 81.7703875,21.2345651 81.7703875,24.3713091 L81.7703875,24.3713091 Z M95.9519513,1.50662749 L87.4082024,11.9164049 C87.9978396,11.6893788 88.3623426,11.6433429 89.2256724,11.6433429 C96.4980752,11.6433429 102.043818,17.0528704 102.043818,24.144283 C102.043818,31.6903784 95.9986178,37.0084648 87.4082024,37.0084648 C79.0435518,37.0084648 73.1339362,31.8719992 73.1339362,24.5983352 C73.1339362,20.6442973 75.0882526,15.8250376 78.315807,11.5525325 L85.9079382,1.50662749 L95.9519513,1.50662749 Z" id="Fill-38"></path>
                    </g>
                </g>
                <g id="Group-3-Copy-3" transform="translate(240.000000, 0.000000)">
                    <path d="M60.53544,36.1324536 L60.4831905,36.0284169 C60.4258547,35.9271545 60.3222804,35.8624206 60.2062217,35.8596462 L60.1604455,35.8596462 C60.0480859,35.8564095 59.9431244,35.9132829 59.8834767,36.0062224 L59.7822143,36.1634334 C59.7318143,36.2535985 59.6684675,36.3340536 59.6180675,36.4237563 C59.5880125,36.4496499 59.5593446,36.4783178 59.5426987,36.515771 C59.4460602,36.737716 59.3443354,36.9518004 59.2296639,37.1552499 C59.3110437,36.8903031 59.3688418,36.616571 59.3776272,36.3266554 C59.3790143,36.263771 59.3595941,36.2064352 59.3300015,36.1537233 C59.3309262,36.1551105 59.3313886,36.1560352 59.3323134,36.1578848 C59.3295391,36.1148829 59.3133556,36.0709563 59.3272272,36.0372022 C59.4534583,35.7311031 59.5292895,35.4481233 59.5491721,35.1313894 L59.6171428,34.9788022 C59.6370253,34.8775398 59.607895,34.7725783 59.5413116,34.6976719 L59.5426987,34.713393 C59.5269776,34.6874994 59.5066327,34.662993 59.4996969,34.6338628 C59.4640932,34.5256646 59.5066327,34.4174664 59.4946106,34.3083435 C59.4654804,34.072527 59.3313886,33.8524316 59.4104565,33.6244756 C59.4608565,33.4765123 59.5292895,33.3340976 59.4742657,33.1768866 L59.4705666,33.1255618 C59.465018,33.0668389 59.4418987,33.0095031 59.4058327,32.9628022 C59.2971721,32.8217747 59.0937226,32.7944939 58.952695,32.9031545 L58.827851,33.0372462 C58.5633666,33.5939582 58.3155281,34.161305 58.229062,34.7748903 C57.9747501,35.4143692 57.7615905,36.044138 57.4665886,36.6896279 C57.366251,36.9101857 57.2723868,37.132593 57.1808345,37.3554628 C57.0240859,37.5709343 56.8599391,37.7799325 56.6957923,37.995404 C56.6925556,37.9903178 56.6893189,37.9824572 56.6860822,37.977371 C56.5954547,38.0786334 56.580196,38.2201233 56.6361446,38.3343325 C56.0752712,38.7241233 55.5296565,39.1263985 54.9553739,39.5314481 C54.7972382,39.6428829 54.6571354,39.767727 54.5026987,39.8948829 C53.8558217,40.4307875 53.2084822,40.8820756 52.4603428,41.2154554 C52.2911097,41.3546334 52.1043061,41.460982 51.9082547,41.5516095 C51.8472198,41.5539215 51.786185,41.5650187 51.7330106,41.6020095 C51.6923207,41.6297527 51.6507061,41.6533343 51.6100161,41.6755288 C51.4486437,41.7347141 51.2844969,41.7869637 51.1198877,41.8373637 C50.582596,41.9247545 50.0046143,41.7804903 49.4280198,41.7841894 C49.2893042,41.7832646 49.1686217,41.8230297 49.0349923,41.8160939 C48.2128712,41.7712426 47.4448492,41.5978481 46.6666547,41.3587949 C46.6167171,41.3439985 46.580651,41.2963728 46.530251,41.2741783 C46.0849739,41.0799765 45.6179648,41.0531582 45.2332602,40.7863618 C44.3981923,40.2079178 43.6033519,39.6636903 42.8787941,38.8808719 C42.5320051,38.5049527 42.1824418,38.2210481 41.8712565,37.832182 C41.6733556,37.5880426 41.5369519,37.3217086 41.4208932,37.0276316 C41.0269409,36.0103839 40.6662804,35.0735912 40.4415611,34.0429343 C40.3851501,33.138971 40.280651,32.2400939 40.2811134,31.3342811 C40.3735905,31.0129233 40.4877996,30.7026628 40.5021336,30.3637343 C40.5109189,30.1501123 40.544673,29.9475875 40.5714914,29.744138 C40.9205923,28.9012095 41.1656565,28.0208279 41.6326657,27.2190517 C41.8042106,26.9291361 42.0853409,26.7316976 42.2568859,26.441782 C42.3655464,26.2572903 42.4964015,26.0899068 42.6087611,25.9114261 C42.7932528,25.7694738 42.9772822,25.6298334 43.1418914,25.4499655 C43.4429042,25.1202848 43.725884,24.843316 44.0527905,24.532593 C44.3824712,24.2218701 44.7565409,24.0378407 45.0880712,23.7617967 L45.1740749,23.6859655 C45.2568418,23.6249306 45.3053923,23.530604 45.3081666,23.4311912 C45.340996,23.4214811 45.3715134,23.4071472 45.3997189,23.3872646 C45.5754253,23.3766297 45.7543684,23.3183692 45.8963207,23.2235802 C46.5603061,23.0571215 47.1031464,22.6640939 47.7569593,22.3788022 C47.7768418,22.3700169 47.7957996,22.3630811 47.8152198,22.3538334 C47.8420382,22.3570701 47.8683941,22.3579949 47.8975244,22.3542958 C48.4463758,22.3223912 48.9813556,22.1938481 49.5265079,22.1041453 C49.8534143,22.0491215 50.1895684,22.0768646 50.5049152,22.2026334 C52.0048932,22.7958738 53.5807024,22.9165563 54.8180455,24.0692829 C54.9299428,24.1723949 55.0631097,24.2500756 55.1874914,24.3374664 C55.735418,24.7240206 56.1312198,25.2973783 56.7461923,25.5835949 C57.3879831,25.6779215 58.0450327,25.4342444 58.6378106,25.2002774 L58.7751391,25.125371 C58.8694657,25.0879178 58.9397483,25.006538 58.9647171,24.905738 L59.0271391,24.7767325 C59.0789262,24.5210334 59.0289886,24.2731949 58.8736272,24.06096 C58.5430217,23.6129086 58.086185,23.3428756 57.6723501,22.9674187 C57.1549409,22.4962481 56.6157996,22.0976719 56.0613996,21.7134297 C56.037818,21.6167912 55.9712345,21.5340242 55.8764455,21.4928719 L55.8473152,21.4651288 C55.2045996,21.0337233 54.6224565,20.5463692 53.9200932,20.1824719 C53.3730914,19.9008793 52.7988088,19.7515288 52.2180528,19.5915435 C51.1342217,19.2923802 50.0323574,19.0880059 48.925407,18.9072132 C48.1439758,18.7819068 47.3519097,18.9733343 46.6231905,19.2748095 C46.1608051,19.2512279 45.7409593,19.4588389 45.3100161,19.5809086 C45.086684,19.7598517 44.8240492,19.9152132 44.6589776,20.1440939 C44.211851,20.3040793 43.8400932,20.5986187 43.3758583,20.7438077 C43.022596,20.8543178 42.7072492,21.0332609 42.4122473,21.2695398 C42.3382657,21.3278004 42.2457886,21.3532316 42.1662583,21.4050187 C42.1186327,21.4378481 42.0719317,21.4716022 42.0256932,21.5044316 C41.78664,21.6061563 41.5457372,21.6949343 41.3321152,21.8576939 C41.1984859,21.9594187 41.1129446,22.0995215 41.0052088,22.2211288 C40.8669556,22.3043582 40.7250033,22.3801894 40.5751905,22.4449233 C40.3722033,22.6414371 40.1202033,22.7644316 39.9260015,22.9789783 C39.5745886,23.3632206 39.2684895,23.7169453 38.9045923,24.0988756 C38.8278363,24.1788683 38.8005556,24.2833673 38.7718877,24.387404 C38.7769739,24.3638224 38.7834473,24.3416279 38.7885336,24.3171215 C38.5957189,24.5644976 38.4343464,24.8312939 38.3067281,25.1188976 C37.9109262,25.5073013 37.5752345,25.9405563 37.2548015,26.3964683 C37.1188602,26.5915949 37.0194473,26.8116903 36.9634987,27.0364095 C36.7198217,28.0490334 36.4100235,29.0413123 36.2597483,30.0775178 C36.1788308,30.6388536 36.2269189,31.2025013 36.299051,31.7689233 C36.361473,32.2636756 36.5219207,32.7260609 36.6467648,33.2009306 C36.6467648,33.2564169 36.6564749,33.3109783 36.6694217,33.3660022 C36.7938033,33.9268756 36.8913666,34.4715655 36.927895,35.0537086 C36.9311317,35.0957857 36.8969152,35.136938 36.8987648,35.1780903 C36.9214217,35.8263545 37.2238217,36.3738187 37.5354694,36.9231325 C37.6917556,37.2001013 37.9132382,37.4174224 38.095418,37.6805196 C38.3053409,37.9847692 38.4283354,38.3255472 38.6660015,38.6173123 C38.9055171,38.9141637 39.0793739,39.2077783 39.3498694,39.4856719 C39.4483574,39.5878591 39.5584051,39.6516683 39.6531941,39.7612536 C40.0545446,40.2157783 40.3134804,40.799771 40.9219794,40.9606811 C41.2146694,41.1974224 41.4736051,41.4771655 41.8032859,41.6662811 C42.2749189,41.9367765 42.7030877,42.2414884 43.1626987,42.5230811 C43.5635868,42.7695325 43.9445923,43.0104352 44.3783097,43.2203582 C44.9160639,43.4797563 45.439484,43.6776572 46.0045189,43.8135985 C46.9866253,44.051727 47.9460749,44.3411802 48.973495,44.4142371 C49.1316308,44.4257967 49.2800565,44.4743472 49.435418,44.4946921 C49.7419794,44.5321453 50.0577886,44.5765343 50.3578767,44.4863692 L50.3722106,44.4988536 C50.4133629,44.4951545 50.4522033,44.484982 50.4901189,44.4655618 L50.5363574,44.4447545 L50.5391317,44.4433673 L50.5821336,44.4220976 C50.6149629,44.4059141 50.6427061,44.3832572 50.6685996,44.3573637 C50.8812969,44.3545894 51.0935317,44.3291582 51.3039171,44.2496279 C51.9646657,43.9994774 52.592585,43.874171 53.2057079,43.5407912 C53.7490106,43.2467141 54.3066473,43.0955141 54.8554987,42.8088352 C55.086229,42.6890774 55.3109483,42.6178701 55.5296565,42.4791545 C56.0840565,42.1300536 56.571873,41.739338 57.0911317,41.3606444 C57.1156382,41.3389123 57.1350583,41.3144059 57.1521666,41.2880499 C57.2104272,41.2450481 57.2673006,41.1974224 57.3223244,41.1493343 C57.7865593,40.7396609 58.273451,40.3836242 58.5217519,39.8222884 C58.839873,39.408916 59.1898987,39.0214371 59.4849006,38.5914187 C59.9038217,38.1914554 60.28344,37.7609747 60.4642327,37.1964022 C60.5715061,36.8616352 60.7023611,36.4778554 60.53544,36.1324536" id="Fill-1" fill="#419307"></path>
                    <path id="Fill-3" fill="#221F20"></path>
                    <path d="M25.8565409,14.3718606 L25.8200125,14.3815706 C25.866251,14.3575266 25.9143391,14.3344073 25.9642767,14.3145248 C25.928673,14.3348697 25.8916822,14.3510532 25.8565409,14.3718606 L25.8565409,14.3718606 Z M24.8832198,14.9179376 L24.8170987,14.9318092 C24.8416051,14.9276477 24.8637996,14.9193248 24.8873813,14.9133138 L24.8832198,14.9179376 Z M15.6563207,2.36741284 C15.6415244,2.38683303 15.6262657,2.40717798 15.6119317,2.42706055 C15.6225666,2.39977982 15.6396749,2.37666055 15.6604822,2.35446606 C15.659095,2.35908991 15.6577079,2.36278899 15.6563207,2.36741284 L15.6563207,2.36741284 Z M26.8645409,12.567633 L26.7531061,12.4039486 C26.604218,12.2814165 26.440996,12.1746055 26.2791611,12.069644 C26.0123648,11.4102826 25.5439684,10.9890495 25.0644749,10.4656294 C24.9812455,10.3689908 24.9322327,10.2561688 24.8527024,10.1572183 C24.5165483,9.75170642 24.1840932,9.42988624 23.9589116,8.93374679 C23.8914033,8.79271927 23.731418,8.73260917 23.6588235,8.58325872 C23.5399905,8.33865688 23.3980382,8.1176367 23.2431391,7.90771376 C23.1192198,7.68761835 22.9939134,7.47862018 22.8755428,7.24141651 C22.6295538,6.74897615 22.2994106,6.34762569 21.9697299,5.92593028 C21.9900749,5.9786422 22.0113446,6.02765505 22.0312272,6.08036697 C21.721429,5.42562936 21.3598437,4.80880734 20.8798877,4.2303633 C20.3712639,3.61354128 20.2191391,2.84413211 19.7387207,2.20419083 C19.6018547,2.01692477 19.4617519,1.8615633 19.340607,1.66181284 C19.2800345,1.56101284 19.1981923,1.47547156 19.1084895,1.39594128 C19.0867574,1.09585321 18.9087391,0.853100917 18.7321079,0.623757798 C18.7510657,0.664910092 18.7690987,0.710223853 18.7885189,0.752300917 C18.6479538,0.547926606 18.614662,0.290377982 18.3973409,0.142877064 C18.1781703,-0.0601100917 17.8378547,-0.0434642202 17.6357923,0.172469725 C17.5849299,0.227493578 17.5474767,0.289915596 17.5243574,0.356499083 C17.3768565,0.409211009 17.2312051,0.487816514 17.1012749,0.577056881 C16.6171574,0.786979817 16.2204308,1.16937248 15.7733042,1.45188991 L16.088651,1.34600367 C16.0031097,1.42784587 15.9332895,1.52355963 15.8902877,1.6252844 C15.6946987,1.85647706 15.5763281,2.14593028 15.5851134,2.45988991 L15.5333262,2.50844037 C15.3465226,2.60045505 15.2281519,2.79326972 15.2327758,3.00319266 L15.2350877,3.0586789 C15.2350877,3.09520734 15.2397116,3.13127339 15.2480345,3.16641468 C15.2022583,3.27230092 15.1980969,3.3957578 15.2350877,3.5122789 C15.1421483,3.78231193 15.1296639,4.08055046 15.2036455,4.35428257 L15.2711538,4.62986422 C15.2771648,4.65113394 15.2868749,4.67379083 15.2956602,4.69274862 L15.6775905,4.60350826 C15.6956235,4.64651009 15.7164308,4.68766239 15.735851,4.72973945 C15.6688051,4.80649541 15.6017593,4.88278899 15.534251,4.9581578 C15.6442987,5.0557211 15.7834767,5.09964771 15.9208051,5.09178716 C16.1667941,5.52874128 16.4705813,5.93564037 16.800262,6.34300183 C16.8899648,6.45859817 16.8922767,6.64771376 16.9630217,6.80631193 C17.1072859,7.12766972 17.1863538,7.41157431 17.3153593,7.73663119 C17.3652969,7.86424954 17.4022877,8.02007339 17.4947648,8.07278532 C17.9825813,8.34050642 18.427396,8.65169174 18.6895684,9.13395963 C19.263851,10.2034569 20.0323354,11.0163303 20.7703024,11.9614459 C20.9362987,12.1741431 21.1892235,12.2980624 21.3834253,12.5089101 C21.47544,12.6101725 21.5614437,12.6961761 21.6497593,12.8006752 C21.7746033,12.9463266 21.9244161,13.0554495 22.0492602,13.2015633 C22.3983611,13.6163229 22.7715061,13.9598752 23.162684,14.2978789 C23.1760932,14.3367193 23.1941262,14.3732477 23.2177079,14.4093138 L23.4054363,14.6326459 C23.3938767,14.6206239 23.3864785,14.6086018 23.3749189,14.595655 C23.5848418,14.8319339 23.9085116,14.8596771 24.1572749,15.0201248 L24.1947281,15.0557284 C24.3403794,15.1509798 24.525796,15.1676257 24.6871684,15.1015046 L24.7500528,15.0765358 C24.8457666,15.0363083 24.9262217,14.9683376 24.9849446,14.8846459 C25.2905813,14.773211 25.5250106,14.541556 25.8121519,14.3861945 C25.9929446,14.4213358 26.1820602,14.3621505 26.3087538,14.2271339 L26.4460822,14.0278459 C26.5209886,13.8673982 26.5561299,13.6953908 26.5889593,13.5229211 C26.61624,13.4900917 26.6439831,13.4558752 26.672651,13.4216587 C26.6749629,13.4040881 26.6763501,13.3846679 26.6781996,13.3666349 L26.8816492,13.1382165 C26.8830363,13.1312807 26.8844235,13.1248073 26.8858106,13.1183339 L26.9033813,13.0674716 C26.906618,13.0503633 26.9093923,13.0374165 26.9117042,13.0240073 L26.9274253,12.9481761 C26.9547061,12.8163963 26.9301996,12.6813798 26.8645409,12.567633 L26.8645409,12.567633 Z" id="Fill-5" fill="#6FAA12"></path>
                    <path d="M40.3566672,13.5582011 C40.3548176,13.4518525 40.3243002,13.3510525 40.2637277,13.2622745 L40.222113,13.1998525 C40.2022305,13.1702598 40.1795736,13.1439039 40.1550672,13.1198598 C40.1139149,12.9862305 40.0759993,12.8498268 40.0094158,12.7268323 C40.0306855,12.7763075 40.0519552,12.8211589 40.073225,12.8701717 C40.0251369,12.7328433 40.0034048,12.58488 39.9909204,12.4447772 C39.9187883,11.6924763 39.70008,10.960058 39.2575772,10.3594194 C39.2242855,10.2563075 39.1609387,10.1652176 39.0726231,10.0995589 L39.056902,10.0926231 C38.7290708,9.82998826 38.2491149,9.69034789 37.8399039,9.92986349 C37.4242194,9.92708917 36.9761681,9.98673688 36.670069,10.3057828 C36.2770415,10.7196176 35.908058,11.0983112 35.4091442,11.3503112 L35.335625,11.3923883 C35.282913,11.4099589 35.2334378,11.4372396 35.1927479,11.4677571 C35.1502084,11.4982745 35.1159919,11.5357277 35.0854745,11.5754928 C34.7058561,11.6707442 34.3484323,11.9310672 34.2545681,12.326869 C34.2582672,12.2903406 34.2652029,12.2565864 34.2698268,12.2195956 C34.123713,12.5293938 33.922113,12.7938782 33.7440947,13.0911919 C33.6802855,13.201702 33.6405204,13.3311699 33.6483809,13.459713 C33.6719626,13.9318084 33.5535919,14.3784727 33.7052543,14.8283736 L33.7385461,14.9347222 C33.7704506,15.1298488 33.9128653,15.2935332 34.1019809,15.3559552 L34.1029057,15.3527185 C34.3562928,15.5589424 34.5703772,15.7919846 34.8186782,16.0176286 C34.8422598,16.0398231 34.837636,16.0943846 34.843647,16.1327626 C34.823302,16.0976213 34.8024947,16.0629424 34.7826121,16.0278011 C34.8080433,16.1563442 34.829313,16.288124 34.8903479,16.4060323 L35.0498708,16.6529461 C35.1728653,16.794436 35.3587442,16.8550084 35.540924,16.8249534 L35.5418488,16.8286525 C35.5395369,16.8739662 35.5404617,16.9178928 35.5501717,16.9608947 C35.611669,17.251735 35.8964983,17.4376139 36.190113,17.3775039 L36.1947369,17.3710305 C36.3186561,17.3724176 36.4337901,17.3303406 36.551236,17.2933497 C36.5179442,17.3035222 36.4814158,17.316469 36.448124,17.3266415 C36.7722561,17.3862892 37.1181204,17.360858 37.3978635,17.1500103 C37.6137974,16.9807772 37.6933277,16.7112066 37.8759699,16.5262525 C38.5043516,15.8710525 39.2622011,15.4595295 39.7740617,14.7326598 C39.889658,14.5680506 39.996469,14.3867956 40.0658268,14.1949057 C40.3058048,14.0830084 40.4306488,13.8129754 40.3566672,13.5582011" id="Fill-7" fill="#6FAA12"></path>
                    <path d="M43.3576404,41.621476 C43.3599523,41.4836851 43.3090899,41.3588411 43.2263229,41.2622026 C43.2041284,41.016676 43.0182495,40.8099897 42.7644,40.7753108 L42.6973541,40.7651383 L42.6270716,40.7582026 C42.5419927,40.7471053 42.4569138,40.7595897 42.3769211,40.7854833 C42.3473284,40.7864081 42.3191229,40.7868705 42.2895303,40.7873328 C42.2992404,40.7850209 42.3071009,40.7822466 42.3163486,40.7803971 C42.2738092,40.7845585 42.230345,40.7859457 42.1882679,40.7896448 C42.0139486,40.7914943 41.8414789,40.7877952 41.6727083,40.7554283 C41.3675339,40.699942 41.0609725,40.6370576 40.7627339,40.6865328 C40.0603706,40.8104521 39.375578,40.9352961 38.6681284,41.0342466 C38.4836367,41.0619897 38.2829615,41.0171383 38.0956954,41.0619897 C37.9616037,41.0920448 37.8307486,41.1271861 37.694345,41.1239494 C36.8860954,41.1202503 36.1166862,41.0379457 35.3606862,40.9107897 C35.2187339,40.8793475 35.0763193,40.8539163 34.9306679,40.8344961 C34.1164073,40.6782099 33.3141688,40.4752228 32.4994459,40.2579017 C32.4078936,40.2320081 32.3279009,40.1529402 32.2321872,40.1339824 C31.1109028,39.8912301 30.0506532,39.5929916 28.9543376,39.1500264 C28.2834165,38.7398906 27.5944624,38.3736815 26.9096697,37.9774172 C26.8093321,37.8678319 26.7089945,37.7568594 26.5906239,37.6685439 C26.0408477,37.2644191 25.4762752,36.9190172 24.9163266,36.5301512 C24.7817725,36.4335127 24.7179633,36.273065 24.5884954,36.1704154 C24.5140514,36.1140044 24.4104771,36.0793255 24.3845835,36.0076558 C24.3637761,35.9567934 24.3425064,35.9082429 24.3207743,35.8578429 C24.3314092,35.8337989 24.3392697,35.8088301 24.3448183,35.7833989 L24.3508294,35.760742 C25.3606789,34.8877585 26.2988587,33.9412558 27.0234165,32.7926906 C27.3087083,32.3390906 27.6157321,31.9141585 27.8982495,31.4577842 C28.4466385,30.5700044 28.4702202,29.4986576 28.6741321,28.4999053 C28.7647596,28.0541659 28.7083486,27.595942 28.4961138,27.1714723 C28.4757688,27.1326319 28.4512624,27.0993402 28.4272183,27.0641989 C28.5737945,27.0974906 28.7212954,27.1312448 28.8715706,27.148353 C29.3986899,27.2080007 29.9322826,27.1871934 30.4603266,27.0369182 C30.7853835,26.9458283 31.1192257,27.0586503 31.4512183,26.9615494 C32.1577431,26.7525512 32.8198789,26.5888668 33.5023596,26.2749072 C34.4650459,25.8324044 35.2853174,25.2826283 35.9178606,24.4563457 C36.5203486,23.6758393 36.7062275,22.4158393 35.7398422,21.8845585 C34.9884661,21.4707237 34.1275046,21.0467163 33.2670055,21.3935053 L33.2156807,21.3759347 C33.1301394,21.3888815 33.0515339,21.4244851 32.9821761,21.4758099 L32.8050826,21.6219237 C32.5789761,21.8840961 32.2395853,22.0658136 32.1429468,22.4236998 C32.154044,22.3853218 32.1646789,22.3497182 32.1757761,22.3104154 C32.0319743,22.4421952 31.9612294,22.6373218 31.8280624,22.7857475 C31.682411,22.9420338 31.4526055,23.0076925 31.2426826,23.077975 C31.3051046,23.0571677 31.3652147,23.0321989 31.4280991,23.0100044 C30.6013541,23.1394723 29.7773835,23.2180778 28.9432404,23.3364484 C28.1016991,23.4534319 27.2638569,23.3678906 26.4237028,23.4432594 C25.9848991,23.29992 25.5276,23.2324117 25.0772367,23.1422466 C25.1826606,22.979487 25.2663523,22.8023934 25.3001064,22.5947824 L25.4059927,22.5758246 C25.3953578,22.5767494 25.3847229,22.5776741 25.3736257,22.5795237 C25.6663156,22.4435824 25.9215523,22.2720374 26.1643046,22.0394576 C26.4888991,21.7319714 26.6044954,21.316287 26.9619193,21.0628998 C27.0224917,21.019898 27.0946239,21.0000154 27.1533468,20.9510026 C27.3050092,20.8136741 27.4159817,20.6402796 27.6222055,20.6065255 C28.1294422,20.5242209 28.6440771,20.3152228 29.1513138,20.4557879 L29.1628734,20.4641108 C29.7741468,21.0846319 30.7738239,21.0693732 31.4410459,20.5593622 C31.803556,20.2837806 32.1142789,19.9721328 32.2252514,19.5143714 C32.343622,19.0196191 32.5105431,18.538276 32.5965468,18.0333512 C32.6529578,17.7087567 32.4962092,17.3809255 32.6275266,17.0604925 L32.6381615,17.0087053 C32.6649798,16.8796998 32.6432477,16.7483824 32.5808257,16.6327861 L32.5757394,16.641109 C32.506844,16.4556925 32.4125174,16.2781365 32.3667413,16.0834723 C32.3912477,16.1163017 32.4129798,16.1440448 32.4370239,16.1773365 C32.3653541,15.9387457 32.2622422,15.7047787 32.0694275,15.5387824 C31.984811,15.4661879 31.8881725,15.4033035 31.7855229,15.3519787 L31.6833358,15.2396191 C31.6833358,15.2428558 31.6833358,15.2428558 31.682411,15.2460925 C30.9869835,14.7809328 29.8148367,14.6898429 29.2054128,15.3482796 C28.8674092,15.4634136 28.5654716,15.6617769 28.3338165,15.9331971 C28.0230936,16.0668264 27.6753798,16.137109 27.422455,16.374775 C27.2185431,16.3641402 27.0317394,16.4700264 26.8370752,16.4644778 C25.8591303,16.4233255 25.0749248,17.0868484 24.4229615,17.7027457 C23.6628,18.0934613 23.1430789,18.8221806 22.4129725,19.2669952 C22.0689578,19.7085732 21.7096844,20.1228705 21.3716807,20.5797072 C20.9338018,21.1697108 20.4247156,21.6834209 20.0178165,22.2965439 C20.013655,22.2928448 20.0104183,22.2886833 20.0062569,22.285909 L19.7852367,22.1753989 C19.7977211,22.1809475 19.8102055,22.1878833 19.8226899,22.1934319 C19.7431596,22.1296228 19.6502202,22.096331 19.5521945,22.0732117 C19.1526936,21.9742613 18.7471817,21.9428191 18.3569284,21.8013292 C17.659189,21.5521035 16.9882679,21.4563897 16.2521505,21.4258723 C15.6390275,21.4004411 15.100811,21.1082136 14.4983229,21.0633622 C14.0105064,21.0296081 13.5545945,21.0628998 13.0630789,20.9940044 C12.7389468,20.951465 12.4365468,21.1031273 12.1364587,21.209476 L12.1961064,21.1673989 C11.9524294,21.1345695 11.7138385,21.2746723 11.6227486,21.503553 L11.5950055,21.5733732 C11.5117761,21.7897695 11.5755853,22.0292851 11.7471303,22.1772484 C12.0208624,22.6216007 12.544745,22.7954576 12.9484073,23.1177402 C13.4126422,23.483487 13.9610312,23.6772264 14.5001725,23.9463347 C15.3329284,24.3606319 16.1841798,24.6140191 17.0733468,24.8193182 C17.4525028,24.9085585 17.7401064,25.1115457 17.9823963,25.372331 C17.9370826,25.4250429 17.9000917,25.4842283 17.8783596,25.5512741 L17.8418312,25.6664081 C17.6383817,26.07192 17.5283339,26.5102613 17.3960917,26.9402796 C17.3276587,27.1562136 17.1968037,27.3592007 17.1524147,27.5737475 C17.0035266,28.3228117 16.9346312,29.09592 17.0317321,29.8611677 C17.0913798,30.3087567 17.1949541,30.7457108 17.2610752,31.1956117 C17.2841945,31.351898 17.2583009,31.5118833 17.3114752,31.6704815 C17.5435927,32.3492631 17.8006789,32.9725585 17.8570899,33.6915677 C17.9065651,34.2889695 18.2122018,34.7943567 18.5261615,35.3089916 C18.6514679,35.5166026 18.743945,35.7385475 18.8396587,35.9600301 L19.0805615,36.2087934 C19.0847229,36.2111053 19.0888844,36.2134172 19.0921211,36.2161916 L18.9178018,36.3562943 C18.8720257,36.421953 18.8401211,36.50472 18.7776991,36.5315383 C18.6274239,36.5971971 18.5062789,36.6656301 18.3966936,36.7668925 C18.0050532,37.1196925 17.6943303,37.4613952 17.2610752,37.7503861 C16.9739339,37.9427383 16.8190349,38.2474503 16.6095743,38.5137842 C16.4703963,38.6945769 16.3621982,38.9031127 16.1245321,38.9918906 C15.6533615,39.6336815 15.0129578,40.0734099 14.3808771,40.5797218 C14.1501468,40.7669879 13.8569945,40.8539163 13.6193284,41.0458062 C13.4172661,41.2104154 13.2545064,41.4009182 13.0482826,41.5544301 C12.909567,41.6566172 12.7768624,41.7532558 12.6423083,41.8559053 C12.5179266,41.9520815 12.4004807,42.0533439 12.2858092,42.1532191 L12.2631523,42.0672154 L12.0314972,42.1744888 C12.0157761,42.1828117 12.0005174,42.1915971 11.9847963,42.1994576 C11.851167,42.2618796 11.6768477,42.35112 11.498367,42.4704154 C11.1830202,42.6539824 10.8769211,42.8541952 10.5740587,43.0900117 C9.88233028,43.4118319 9.24608807,43.8039347 8.61400734,44.2205439 L8.54511193,44.254298 C8.54233761,44.2552228 8.54048807,44.2556851 8.53771376,44.2566099 L8.53771376,44.2575347 L8.37356697,44.3366026 C8.36062018,44.3458503 8.34906055,44.3574099 8.33703853,44.3680448 C7.91256881,44.5405145 7.34106055,44.7888154 6.82642569,45.0676338 C6.38392294,45.3464521 6.00014312,45.5873549 5.6353211,45.7838686 C5.00092844,46.0497402 4.36884771,46.3202356 3.72243303,46.5560521 C3.70532477,46.5449549 3.68914128,46.53432 3.67018349,46.5250723 C3.38859083,46.6258723 3.38859083,46.6258723 3.30628624,46.6573145 C3.30628624,46.6573145 3.24525138,46.6716484 3.19438899,46.7021659 C3.13844037,46.7257475 3.13844037,46.7257475 2.96597064,46.7937182 C2.96597064,46.7937182 2.95764771,46.7974172 2.94608807,46.8038906 C2.54473761,46.9458429 2.13598899,47.0942686 1.8867633,47.4489182 C1.72862752,47.5339971 1.56725505,47.6116778 1.45905688,47.7809108 C1.48125138,47.7374466 1.50714495,47.6949072 1.53026422,47.6514429 C1.16035596,47.8465695 0.859805505,48.0911714 0.61520367,48.4296374 L0.610579817,48.4351861 C0.50053211,48.505931 0.416840367,48.6118172 0.380311927,48.7385108 L0.365515596,48.7898356 C0.354880734,48.8296007 0.345633028,48.8726026 0.344708257,48.9132925 C0.3276,49.2119934 0.555093578,49.4644558 0.85333211,49.4806393 L0.86812844,49.4769402 C1.17330275,49.5148558 1.47662752,49.525953 1.78041468,49.501909 L1.78457615,49.4995971 C2.03472661,49.7465108 2.41989358,49.8348264 2.75743486,49.7289402 C3.38026789,50.0290283 4.06321101,50.0336521 4.75910092,50.0216301 C4.99445505,50.0174686 5.16692477,49.8889255 5.34910459,49.7728668 C5.43140917,49.7872007 5.51787523,49.7848888 5.60295413,49.7580705 L5.59555596,49.7465108 C6.27942385,49.7238539 6.96652844,49.5929989 7.5380367,49.1639053 C8.78416514,48.9854246 10.0598862,48.5253512 10.9328697,47.580698 C11.9089651,47.0743861 12.8092294,46.4520154 13.6466092,45.7473402 C14.5001725,45.2655347 15.2062349,44.8549365 15.8457138,44.4212191 C16.1703083,44.1867897 16.5041505,43.9440374 16.826433,43.6823273 C17.1181982,43.5505475 17.3771339,43.341087 17.6235853,43.1015714 C17.6656624,43.0622686 17.7414936,43.0636558 17.786345,43.0252778 C18.6325101,42.3150539 19.4481578,41.6880594 20.3132807,41.0680007 C20.4760404,40.8030539 20.6878128,40.5852705 20.8445615,40.3133879 C21.2389761,40.1090136 21.5214936,39.703964 21.9639963,39.6077879 C22.2788807,39.7913549 22.6067119,39.9453292 22.9285321,40.1113255 L23.039967,40.2333952 C23.535644,40.6814466 24.0928183,41.046731 24.5991303,41.4772117 L24.7521798,41.5525806 C24.8539046,41.6020558 24.9653394,41.6145402 25.0716881,41.5969695 C25.350044,41.7620411 25.634411,41.917865 25.9132294,42.0917218 C26.3959596,42.3968961 26.908745,42.6119053 27.4340147,42.7922356 L27.5033725,42.8329255 C28.1659706,43.1034209 28.8207083,43.397498 29.5304697,43.5195677 C29.7098752,43.6069585 29.8814202,43.7281035 30.0774716,43.7845145 C30.1852073,43.857109 30.2961798,43.9260044 30.4233358,43.9560594 C31.3915706,44.1812411 32.357956,44.3953255 33.3405248,44.5414393 C34.0267046,44.6473255 34.6957761,44.6681328 35.4161725,44.6741439 C35.9377431,44.6783053 36.426022,44.6348411 36.9138385,44.548375 C37.045156,44.5603971 37.1750862,44.5668705 37.303167,44.5345035 C39.1087817,44.0550099 41.0031743,43.8783787 42.5609505,42.8121182 L42.7509908,42.6863494 C42.844855,42.6160668 42.9132881,42.5171163 42.945655,42.4061439 L43.0090018,42.3312374 C43.0529284,42.2466209 43.0977798,42.1596925 43.1407817,42.075076 L43.2933688,41.8660778 C43.3326716,41.7916338 43.3567156,41.707942 43.3576404,41.621476 M25.402756,27.1654613 L25.3861101,27.1612998 C25.1368844,27.1007273 24.8821101,27.2200228 24.7706752,27.4479787 L24.6985431,27.628309 C24.6994679,27.6250723 24.7036294,27.6232228 24.7040917,27.6199861 C24.594044,28.1942686 24.3901321,28.7375714 24.1922312,29.2841108 C24.196855,29.24712 24.2000917,29.2101292 24.2047156,29.1731383 C23.6618752,29.9619677 23.2059633,30.8007347 22.7121358,31.6330283 C22.533655,31.9345035 22.2918275,32.1758686 22.0481505,32.4195457 C22.118433,32.1855787 22.124444,31.9479127 22.0019119,31.7097842 C21.9020367,31.1900631 21.7836661,30.670342 21.5335156,30.1936228 L21.5298165,30.1894613 C21.5127083,30.097909 21.4937505,30.0045072 21.477567,29.9138796 C21.4891266,29.9541072 21.4992991,29.991098 21.5117835,30.0313255 C21.5413761,29.7654539 21.4965248,29.4820117 21.5695817,29.2424961 C21.7147706,28.767164 21.8775303,28.3061659 21.9639963,27.815575 C21.9538239,27.8687494 21.9464257,27.9182246 21.9362532,27.9704741 C22.177156,27.5140998 22.4014128,27.0568007 22.6524881,26.5995017 C22.7458899,26.4321182 22.8896917,26.2994136 22.9974275,26.1417402 C23.0621615,26.205087 23.140767,26.2522503 23.2309321,26.2744448 L23.3289578,26.3008007 C23.8778092,26.4543127 24.4257358,26.6147604 24.9949321,26.6859677 C25.2117908,26.7141732 25.4439083,26.6790319 25.648745,26.7109365 C25.6515193,26.7234209 25.6542936,26.7372925 25.6561431,26.7497769 C25.5377725,26.8625989 25.4526936,27.0082503 25.402756,27.1654613" id="Fill-9" fill="#6FAA12"></path>
                    <path id="Fill-11" fill="#005AAA"></path>
                    <path id="Fill-13" fill="#005AAA"></path>
                    <path d="M48.6583794,36.5194239 C48.690284,36.3968917 48.7041556,36.2711229 48.7064675,36.1430422 C48.7305116,36.0292954 48.7545556,35.9150862 48.7462327,35.797178 C48.7425336,35.8179853 48.7392969,35.8411046 48.734673,35.8637615 C48.7638033,35.6584624 48.6796492,35.4702716 48.6213886,35.2765321 C48.5927207,35.1835927 48.5548051,35.0985138 48.5127281,35.0157468 C48.4789739,34.9209578 48.4294987,34.833567 48.3596785,34.7605101 C48.3596785,34.7595853 48.3587538,34.7591229 48.3582914,34.7581982 C48.3615281,34.7614349 48.3652272,34.7655963 48.3689262,34.7702202 C48.36384,34.762822 48.3582914,34.7558862 48.3527428,34.7494128 C48.2658143,34.6204073 48.1737996,34.4955633 48.0910327,34.3628587 C48.0975061,34.3827413 48.1025923,34.4012367 48.1086033,34.4211193 C48.049418,34.2574349 47.9879207,34.0960624 47.898218,33.9448624 C47.9093152,33.9786165 47.9199501,34.0095963 47.9301226,34.0424257 C47.8584528,33.8005982 47.7091024,33.5985358 47.5542033,33.4052587 C47.5283097,33.319255 47.4991794,33.2332514 47.4561776,33.1504844 C47.325785,32.8970972 47.1889189,32.6561945 47.0437299,32.4240771 C46.9359941,32.1970459 46.7991281,31.9815743 46.6289703,31.7966202 C46.5771831,31.7073798 46.5004272,31.6343229 46.4079501,31.5871596 C46.3062253,31.5067046 46.1961776,31.4359596 46.0750327,31.3795486 C46.1083244,31.4017431 46.1411538,31.4253248 46.1744455,31.4479817 C46.1254327,31.4202385 46.0782694,31.3906459 46.033418,31.3550422 L45.9575868,31.3004807 C45.9136602,31.261178 45.8627978,31.2338972 45.8086987,31.2112404 C45.8049996,31.1511303 45.7976015,31.0910202 45.7869666,31.0313725 C45.7952895,30.9518422 45.7902033,30.8709248 45.7615354,30.7946312 L45.781418,30.908378 C45.7384161,30.4145505 45.1988125,30.2143376 44.7558473,30.2443927 C44.6430253,30.259189 44.5292785,30.2693615 44.4196932,30.3017284 C44.4455868,30.2943303 44.471018,30.2864697 44.4969116,30.2786092 C44.4016602,30.3132881 44.2966987,30.3077394 44.2028345,30.3465798 L44.085851,30.4020661 C43.9471354,30.3761725 43.807495,30.3743229 43.6710914,30.4187119 C43.261418,30.3280844 42.8508198,30.2166495 42.4263501,30.372011 C42.2478694,30.4372073 42.0823354,30.5130385 41.9417703,30.6309468 C41.7901079,30.7072404 41.678673,30.8464183 41.6481556,31.0138018 L41.6370583,31.0739119 C41.6287354,31.1358716 41.6273483,31.1992183 41.6268859,31.2621028 C41.281484,31.6851853 41.1714363,32.2529945 41.2014914,32.803233 C41.2116639,32.992811 41.2713116,33.1736037 41.3647134,33.333589 C41.3531538,33.5749541 41.4474804,33.8005982 41.5972932,33.9994239 C41.5829593,33.9841651 41.5677006,33.968444 41.553829,33.9531853 C41.6865336,34.1506239 41.7346217,34.3929138 41.8941446,34.5746312 C41.880273,34.5579853 41.8659391,34.5436514 41.8520675,34.5265431 C41.9043171,34.6902275 41.9949446,34.839578 42.0975941,34.9736697 C42.0832602,34.958411 42.0707758,34.9454642 42.0564418,34.9306679 C42.1165519,35.0573615 42.2007061,35.172033 42.3010437,35.2700587 L42.3810363,35.4365174 C42.3759501,35.4277321 42.3713262,35.4161725 42.36624,35.4064624 C42.3828859,35.450389 42.4055428,35.4892294 42.4318987,35.527145 L42.4762877,35.6501394 C42.5007941,35.7056257 42.5336235,35.7551009 42.5747758,35.797178 L42.6658657,35.8887303 C42.6677152,35.8891927 42.66864,35.8905798 42.6704895,35.8910422 L42.7948712,35.9802826 C42.8429593,36.0089505 42.894284,36.0274459 42.946996,36.0403927 C43.303495,36.583233 43.7885372,37.0770606 44.4016602,37.3138018 C44.408596,37.3179633 44.4150694,37.3207376 44.4220051,37.3244367 C44.4303281,37.3276734 44.438651,37.3304477 44.4474363,37.333222 C44.456684,37.3359963 44.4659317,37.3401578 44.4742547,37.3438569 C44.4576088,37.3369211 44.4395758,37.3313725 44.4224675,37.3244367 C44.4543721,37.3420073 44.4853519,37.3618899 44.5191061,37.3771486 C44.9093593,37.5426826 45.3088602,37.5634899 45.7074363,37.6490312 C45.7902033,37.6666018 45.873895,37.6693761 45.9594363,37.661978 C46.0643978,37.6730752 46.1707464,37.667989 46.2738583,37.6444073 C46.4181226,37.649956 46.5637739,37.6328477 46.7061886,37.6106532 C46.676596,37.6051046 46.6483905,37.5977064 46.6192602,37.5916954 C46.730695,37.617589 46.8430547,37.6300734 46.9577262,37.6236 C46.9244345,37.6194385 46.8925299,37.6157394 46.8583134,37.6129651 C46.9383061,37.6152771 47.0196859,37.6152771 47.1006033,37.6236 C47.0502033,37.6157394 46.9998033,37.6106532 46.9494033,37.6041798 C47.2924932,37.6434826 47.6536161,37.6878716 47.9768235,37.5186385 C48.1187758,37.4441945 48.2260492,37.3359963 48.3176015,37.214389 C48.4086914,37.1279229 48.4891464,37.0312844 48.5538804,36.9235486 C48.6287868,36.7977798 48.6560675,36.6609138 48.6583794,36.5194239 M41.6181006,33.805222 C41.6204125,33.8079963 41.6236492,33.8093835 41.6264235,33.811233 L41.6301226,33.8140073 C41.6254987,33.8121578 41.6227244,33.8079963 41.6181006,33.805222 M43.8010217,30.4473798 C43.7737409,30.4418312 43.7478473,30.4362826 43.7214914,30.4298092 C43.7483097,30.4307339 43.7742033,30.4348954 43.8010217,30.4473798 M45.8156345,31.3286862 C45.8156345,31.3286862 45.8156345,31.3282239 45.8151721,31.3272991 C45.8156345,31.3268367 45.8156345,31.3268367 45.8151721,31.3259119 C45.8156345,31.3268367 45.8156345,31.3282239 45.8156345,31.3286862 M46.5845813,31.7429835 L46.6016895,31.7661028 C46.6007648,31.765178 46.6003024,31.7637908 46.5989152,31.7628661 C46.5942914,31.7563927 46.5896675,31.7494569 46.5845813,31.7429835" id="Fill-15" fill="#419307"></path>
                    <path d="M55.3408183,29.4544998 C55.497567,29.2381035 55.4790716,28.9370906 55.2788587,28.7484374 L55.2316954,28.7021989 C55.1248844,28.5981622 54.9787706,28.5496117 54.8432917,28.4853402 C54.7780954,28.453898 54.7249211,28.397487 54.6634239,28.3572594 C54.6879303,28.3692815 54.7101248,28.383153 54.7350936,28.3947127 C54.7304697,28.3822283 54.7258459,28.3692815 54.7207596,28.3572594 C54.7115119,28.2971494 54.7022642,28.237964 54.6948661,28.1773916 C54.7013394,28.2116081 54.7059633,28.2472117 54.7133615,28.2795787 C54.7082752,28.2032851 54.7004147,28.1274539 54.6957908,28.0502356 C54.7022642,28.0765916 54.7073505,28.1052594 54.7133615,28.1320778 C54.7161358,28.0377512 54.7115119,27.9475861 54.6897798,27.8588081 C54.6907046,27.8615824 54.6916294,27.8638943 54.6925541,27.8652815 C54.6786826,27.7797402 54.6786826,27.6928117 54.6763706,27.6054209 C54.6860807,27.5883127 54.6957908,27.570742 54.703189,27.552709 L54.7175229,27.5171053 C54.7313945,27.4847383 54.7424917,27.4528338 54.7494275,27.419542 L54.7563633,27.3839383 C54.8053761,27.1569072 54.7004147,26.9257145 54.5029761,26.8101182 C54.3591743,26.6820374 54.166822,26.6297879 53.9906532,26.5534943 C53.9152844,26.3361732 53.7668587,26.1530686 53.5518495,26.0434833 C53.3520991,25.3670136 52.4957615,25.2948815 51.8923486,25.2833218 C51.9270275,25.2814723 51.9649431,25.2773108 51.999622,25.2754613 C51.4336624,25.1668007 50.860767,25.2551163 50.2911083,25.2537292 C50.3197761,25.2477182 50.348444,25.2421695 50.3766495,25.2366209 C50.2850972,25.2084154 50.1921578,25.2084154 50.1010679,25.210265 C49.995644,25.1631017 49.9013174,25.0942062 49.7843339,25.0761732 C49.8111523,25.0789475 49.8356587,25.0844961 49.8620147,25.0881952 C49.6927817,25.0405695 49.5304844,24.9739861 49.3626385,24.9245108 L49.2623009,24.8301842 C49.1050899,24.724298 48.9016404,24.709964 48.731945,24.7904191 L48.5899927,24.8842833 C48.3403046,24.8052154 48.0818312,24.7492668 47.8215083,24.8630136 C47.8441651,24.8537659 47.8649725,24.8422062 47.8876294,24.8334209 C47.816422,24.8463677 47.7461394,24.861164 47.6777064,24.8842833 L47.5893908,24.9097145 C47.4090606,24.943931 47.2555486,25.0673879 47.187578,25.2398576 L47.1334789,25.4835347 C47.1348661,25.4779861 47.1381028,25.4747494 47.1390275,25.4705879 C47.1381028,25.5182136 47.1394899,25.5686136 47.1390275,25.6167017 C47.1357908,25.587109 47.1325541,25.5561292 47.1297798,25.5251494 C47.1098972,25.5764741 47.0951009,25.6282613 47.0816917,25.6832851 C47.0877028,25.6513806 47.0946385,25.6185512 47.1011119,25.5884961 C47.0178826,25.625487 46.9337284,25.6601659 46.8518862,25.7003934 C46.6456624,25.7050172 46.4325028,25.7359971 46.2604954,25.8488191 C46.2456991,25.8529806 46.2318275,25.8552925 46.2184183,25.8603787 C46.1245541,25.8793365 46.0362385,25.9209512 45.9641064,25.9866099 L45.9187927,26.0268374 C45.8794899,26.0624411 45.8457358,26.1035934 45.8203046,26.1489072 L45.800422,26.1817365 C45.738,26.2857732 45.7111817,26.405531 45.725978,26.5234393 L45.7370752,26.6015824 C45.7671303,26.7564815 45.7564954,26.9206283 45.8374128,27.0616558 C46.0154312,27.3612815 46.0445615,27.6969732 46.1638569,28.0076961 C46.1550716,27.9878136 46.1435119,27.9646943 46.1338018,27.943887 L46.123167,27.8967237 C46.1250165,27.9970613 46.1583083,28.0932374 46.2147193,28.1783163 L46.2512477,28.2338026 C46.4292661,28.5708815 46.6267046,28.8922393 46.8514239,29.2080484 C47.1307046,29.6089365 47.5265064,29.9830062 48.0157101,30.0417292 C48.2570752,30.0703971 48.4780954,30.1665732 48.7310202,30.1545512 C48.8253468,30.1480778 48.9168991,30.1281952 49.0089138,30.1115494 C48.9857945,30.123109 48.9640624,30.1328191 48.9404807,30.1439163 C49.4676,30.1207971 49.9669761,30.2206723 50.5098165,30.2104998 C50.6110789,30.2081879 50.7109541,30.256276 50.8145284,30.2655237 C50.8838862,30.2752338 50.9574055,30.2521145 51.0221394,30.2701475 C51.2006202,30.3145365 51.3772514,30.3603127 51.5589688,30.3774209 C51.7406862,30.3936044 51.9150055,30.4264338 52.0902495,30.4601879 L52.1494349,30.5817952 C52.2035339,30.6664117 52.2784404,30.7343824 52.3676807,30.7806209 L52.5336771,30.8416558 L52.5318275,30.8388815 C52.8277541,30.9184117 53.1306165,30.8698613 53.3886275,30.7121879 C53.3659706,30.7255971 53.3414642,30.7417806 53.318345,30.7551897 C53.7909028,30.6497659 54.3050752,30.7482539 54.7078128,30.3996154 C54.9903303,30.1564007 55.1720477,29.8456778 55.2987413,29.5090613 C55.3056771,29.5016631 55.3103009,29.4933402 55.3163119,29.485942 C55.3130752,29.5048998 55.3093761,29.5224705 55.3047523,29.5414283 C55.3163119,29.512298 55.3287963,29.4827053 55.3408183,29.4544998" id="Fill-17" fill="#419307"></path>
                    <path d="M57.4879508,34.7592617 C57.4930371,34.741691 57.4990481,34.7245828 57.5036719,34.7070121 L57.4990481,34.5155846 C57.4768536,34.3898158 57.4116572,34.2779185 57.3140939,34.1956139 L57.2706297,34.1211699 C57.1471728,34.0430268 57.0667178,33.9357534 57.0412866,33.7975002 C57.065793,33.6564727 57.0949233,33.5159075 57.0866004,33.3725681 L57.0884499,33.3623956 C57.1032462,33.2902635 57.1009343,33.2172066 57.0875251,33.146924 C57.0953857,32.8884506 56.9182921,32.6540213 56.6579692,32.600847 L56.6232903,32.5939112 C56.5728903,32.5837387 56.5224903,32.5832763 56.4725527,32.586513 C56.1100426,32.4431736 55.7003692,32.396935 55.3216756,32.4029461 L55.28376,32.4094194 C55.1603031,32.4320763 55.0493306,32.4968103 54.9679508,32.592524 L54.969338,32.5943736 C54.8763985,32.6919369 54.7783728,32.7871883 54.6937563,32.891225 C54.7076279,32.8662561 54.7238114,32.844524 54.7376829,32.8200176 C54.6858958,32.8713424 54.634571,32.9203552 54.5832462,32.97168 C54.5989673,32.9494855 54.6119141,32.9296029 54.6276352,32.9074084 C54.5333086,32.9665938 54.4496169,33.042425 54.346505,33.0747919 C54.1855949,33.1242672 54.0709233,33.2444873 53.9335949,33.3240176 C53.8651618,33.3656323 53.7967288,33.4063222 53.7306077,33.4511736 C53.5891178,33.496025 53.451327,33.5589094 53.3408169,33.659247 C53.3602371,33.6421387 53.3819692,33.6245681 53.4018517,33.6069974 C52.9343802,33.7434011 52.6393783,34.1220947 52.2731692,34.4120103 C52.2939765,34.3907406 52.3120095,34.3671589 52.3328169,34.3463516 C52.1450884,34.4217204 51.9804793,34.5350048 51.8431508,34.6996139 C51.8574848,34.6769571 51.868582,34.6561497 51.8815288,34.6344176 C51.8621086,34.6492139 51.8426884,34.6653974 51.8232683,34.6825057 C51.376604,34.9081497 50.9382628,35.2771332 50.8115692,35.7732727 C50.7024462,35.7686488 50.5933233,35.7950048 50.4989967,35.8532653 L50.3870994,35.9314084 C50.1263141,36.1755479 49.8128169,36.4441938 49.9256389,36.8866965 C49.9205527,36.8487809 49.9122297,36.8076286 49.9057563,36.7701754 C49.860905,37.1632029 50.0033196,37.513691 50.2285013,37.8211772 C50.2419105,37.8780506 50.2539325,37.9367736 50.2724279,37.9922598 C50.2691912,37.9848617 50.2664169,37.9770011 50.2631802,37.9686782 C50.2969343,38.0888983 50.225727,38.2054194 50.2109306,38.3274892 C50.2155545,38.2928103 50.2201783,38.2581314 50.225727,38.2225277 C49.8877233,38.5716286 49.6708646,39.0529717 49.73976,39.5435626 L49.7591802,39.6684066 L49.7591802,39.6739552 C49.7582554,39.8362525 49.8299251,39.9930011 49.9547692,40.096113 L50.1055068,40.1978378 C50.0990334,40.1950635 50.0920976,40.1876653 50.0856242,40.1844286 C50.7135435,40.656524 51.6096462,40.606124 52.2223068,40.1381901 C52.2001123,40.1594598 52.1783802,40.1779552 52.1557233,40.1978378 C52.5214701,39.989302 52.8229453,39.7340653 53.1480022,39.4436873 C53.1794444,39.4127075 53.2321563,39.4150194 53.2682224,39.3923626 C53.4536389,39.2800029 53.6039141,39.144524 53.7481783,38.999335 C54.047804,38.8735662 54.3266224,38.7024837 54.5494921,38.4583442 C54.5175875,38.4791516 54.4838334,38.4981094 54.4523912,38.5193791 C54.773749,38.3242525 55.0687508,38.0888983 55.3397086,37.8276506 C55.3059545,37.8489204 55.2745123,37.8678782 55.2407582,37.8886855 C55.4627031,37.7499699 55.6513563,37.540047 55.7840609,37.3028433 C56.0850738,37.0041424 56.3259765,36.6485681 56.6214407,36.322124 C56.9908866,35.9138378 57.3584829,35.4741094 57.462982,34.9363552 L57.477316,34.866535 C57.4847141,34.830469 57.4874884,34.7939406 57.4879508,34.7592617" id="Fill-19" fill="#419307"></path>
                    <path d="M61.9041006,33.5816587 C61.958662,33.2149872 61.9114987,32.8529394 61.9207464,32.4723963 C61.9387794,31.832455 61.9073372,31.2489248 61.9147354,30.6052844 C61.9235207,29.9334385 61.7848051,29.3277138 61.6867794,28.6886972 C61.587829,28.0603156 61.368196,27.4652257 61.0990877,26.889556 L61.071807,26.8201982 C61.0348161,26.744367 60.9645336,26.6837945 60.8813042,26.6551266 L60.805473,26.6333945 C60.6699941,26.6236844 60.5285042,26.5880807 60.4651574,26.4858936 C60.3139574,26.246378 60.0513226,26.1765578 59.8076455,26.1358679 L59.7701923,26.1289321 C59.6999097,26.1141358 59.6268528,26.1243083 59.5611941,26.1548257 L59.5699794,26.1562128 C59.180651,26.3240587 58.9434473,26.7013651 58.7871611,27.0749725 L58.7816125,27.094855 C58.5573556,27.2164624 58.3687024,27.4000294 58.1370473,27.5091523 L58.0871097,27.5521541 C58.0283868,27.5817468 57.9779868,27.6265982 57.9460822,27.681622 C57.9275868,27.7130642 57.9174143,27.7468183 57.9100161,27.7805725 C57.852218,27.847156 57.7971941,27.9179009 57.7440198,27.9881835 L57.6834473,28.1241248 C57.6552418,28.2290862 57.6815978,28.336822 57.7495684,28.4200514 L57.837884,28.5134532 C58.1116161,28.6637284 58.2212015,28.9564183 58.4158657,29.1792881 C58.4621042,29.4826128 58.5018694,29.780389 58.5874106,30.0772404 C58.6072932,30.1484477 58.652607,30.1988477 58.6812749,30.266356 C58.8024198,30.5493358 58.7700528,30.8554349 58.9503831,31.1023486 C59.1057446,31.3178202 59.2629556,31.524044 59.4525336,31.7066862 C59.5565703,32.0802936 59.4867501,32.5588624 59.8104198,32.8358312 C59.7877629,32.8131743 59.7660308,32.7919046 59.7433739,32.7687853 C59.7017593,32.9070385 59.6957483,33.0596257 59.753084,33.1927927 L59.7595574,33.2052771 C59.7641813,33.2977541 59.8048712,33.3860697 59.8779281,33.4438679 L59.9255538,33.4822459 C60.0060088,33.5488294 60.1128198,33.572411 60.2122327,33.5455927 L60.1692308,33.5432807 C60.1988235,33.5432807 60.2265666,33.5437431 60.2561593,33.5432807 C60.2455244,33.5631633 60.221018,33.5922936 60.2284161,33.6033908 C60.3315281,33.7823339 60.4004235,33.9474055 60.4841152,34.1439193 C60.58584,34.3723376 60.8244308,34.447244 61.0385152,34.5226128 L61.0916895,34.5337101 C61.1638217,34.548044 61.2415024,34.536022 61.3085483,34.499956 L61.3654217,34.4708257 C61.700651,34.3094532 61.8537006,33.9210495 61.9041006,33.5816587" id="Fill-21" fill="#419307"></path>
                </g>
            </g>
            <g id="Atomes-/-05.-Icônes-/-Global-/-M-seul" transform="translate(0.000000, 4.000000)">
                <path d="M41.9363841,10.2623573 L37.3846154,7.61090187 L38.0677511,7.1627907 L42.4480745,9.69946682 C42.2771583,9.86770505 42.1067712,10.0359433 41.9363841,10.2623573" id="Fill-50" fill="#8F98A9"></path>
                <path d="M43.4428809,43.2235735 L41.4522097,41.869806 C40.1430867,40.9688667 39.4615385,39.4463369 39.4615385,37.7571412 L39.4615385,18.9359478 C39.4615385,16.3431923 40.0314356,14.5397413 40.939461,13.3023256 C40.4282999,14.5397413 40.2002352,16.061747 40.2002352,17.8096427 L40.2563253,37.0789472 C40.2563253,39.1638434 40.8833709,40.5170868 42.3628809,41.5317572 L44.1836943,42.7728417 L43.4428809,43.2235735" id="Fill-44" fill="#8F98A9"></path>
                <path d="M26.9552866,43.118802 C26.9552866,43.118802 26.7843704,43.2325332 26.671661,43.2901849 L26.2160608,43.2901849 L26.2160608,11.8490278 C26.2160608,10.3280703 26.1033513,10.3280703 25.1937384,9.64987635 L23.8846154,8.63625411 L24.7397256,8.18604651 C25.421803,8.74788883 26.446242,9.53876574 26.446242,9.59536926 C26.8441646,9.98897334 26.9552866,10.213291 26.9552866,11.1152785 L26.9552866,43.1743573 L26.9552866,43.118802" id="Fill-45" fill="#8F98A9"></path>
                <path d="M4.12819769,4.09302326 C3.67418495,5.38966307 3.73080425,6.62812706 4.2991139,7.64384572 C4.81345001,8.54321271 5.72147549,9.16480318 6.80517956,9.44677255 C3.44664943,9.7276937 1.96978514,7.07990698 4.12819769,4.09302326" id="Fill-46" fill="#8F98A9"></path>
                <path d="M12.8610485,31.4604958 C13.144145,30.5585082 13.2600294,29.5427896 13.2600294,28.4730879 L13.2600294,12.0758877 C13.2600294,10.1036744 13.144145,9.88145321 12.4615385,9.26143506 L12.5763645,9.26143506 C13.5431259,9.09110041 14.0548163,9.26143506 14.0548163,10.9485343 L14.0548163,27.4023381 C14.0548163,29.318996 13.7161587,30.5585082 12.8610485,31.4604958" id="Fill-47" fill="#8F98A9"></path>
                <path d="M14.5934934,43.0060193 C14.1415973,41.540093 12.7737384,40.2995326 10.3846154,39.9609597 C10.7280353,39.9069767 11.0682803,39.9069767 11.411171,39.9069767 C14.3659579,39.9609597 15.2210681,41.7638866 15.3914552,42.3288735 L15.4480745,42.4960635 L14.5934934,43.0060193" id="Fill-48" fill="#8F98A9"></path>
                <path d="M50.9721901,7.15615201 C48.7497501,8.45226773 48.0105243,10.2012116 48.0105243,12.9056018 L48.0105243,34.4835961 C48.0105243,35.8399841 48.1824988,36.4558094 48.9211955,36.8525581 L49.6620088,37.2482587 L51.7087702,36.0611571 L52.3929642,37.4175451 L45.2806271,41.6444651 L42.8359432,40.0076801 C41.7517099,39.2760272 41.2950514,38.3735156 41.2950514,36.62562 L41.2950514,17.3563154 C41.2950514,13.7515099 42.4364331,11.8332796 44.0291818,10.6524674 L44.939853,9.97636982 L38.227026,6.08592626 L35.2119157,7.88832898 L35.2119157,35.9505706 C35.2119157,38.316388 34.8706124,38.655485 32.7624694,39.7251866 C32.7624694,39.7251866 31.1173346,40.5155394 28.8456835,41.6984481 L28.3884958,41.6984481 L28.3884958,10.5953398 C28.3884958,9.07543052 28.215463,8.73528531 27.3624694,8.05971185 L24.975463,6.14515031 L22.0730622,7.77669427 L22.0730622,23.8945457 C22.0730622,26.7100465 21.6190495,28.7383392 19.3431651,30.1455655 L13.6558354,33.696388 L13.0838217,32.7404175 C14.8496031,31.3856018 15.2464674,29.4678956 15.2464674,27.2152853 L15.2464674,10.763578 C15.2464674,8.34010891 14.908339,7.38309019 12.3451249,7.834346 C11.3794219,8.00101191 9.89991181,8.22795009 8.98976972,8.34010891 C5.23384615,8.84849234 3.63951004,6.1996574 6.20060755,2.87577311 C6.20060755,2.87577311 6.82765311,2.03038911 8.41934346,0 L9.67396374,0.847480431 L8.76117589,2.14307204 C7.56740813,3.83593647 8.53416952,4.73687578 10.4698089,4.05815769 C11.3794219,3.72010891 13.1414993,3.04610777 14.3934738,2.53615201 C19.7955904,0.452828134 21.7883782,3.88991946 22.0730622,5.91926035 L28.7869476,1.91823029 L34.5848702,6.31181622 L41.7517099,1.91823029 L47.2712984,5.01832104 C49.1476727,6.08592626 50.0588731,5.63624277 51.3674669,4.95909699 L52.4490544,4.39673057 L53.3015189,5.80605332 L50.9721901,7.15615201 L50.9721901,7.15615201 Z M15.8729838,41.6984481 C15.304145,40.1182666 13.6558354,38.4856744 10.6962861,38.3735156 C7.90659481,38.316388 3.92472317,39.3887102 0.628103871,41.8687828 L0,41.0784299 C2.39123959,38.4856744 7.96585987,34.3179784 13.8230475,34.2592785 C16.897952,34.2592785 19.0590103,35.2755213 20.5946105,36.9091617 L23.1562371,35.4993148 L23.8959922,36.9657652 L15.8729838,41.6984481 L15.8729838,41.6984481 Z" id="Fill-49" fill="#1A171B"></path>
            </g>
        </g>
    </g>
</svg>