<?xml version="1.0" encoding="UTF-8" standalone="no"?>
<svg width="522px" height="53px" viewBox="0 0 522 53" version="1.1" xmlns="http://www.w3.org/2000/svg" xmlns:xlink="http://www.w3.org/1999/xlink" xmlns:sketch="http://www.bohemiancoding.com/sketch/ns">
    <!-- Generator: Sketch 3.4.4 (17249) - http://www.bohemiancoding.com/sketch -->
    <title>m-elections-2016</title>
    <desc>Created with Sketch.</desc>
    <defs></defs>
    <g id="Page-1" stroke="none" stroke-width="1" fill="none" fill-rule="evenodd" sketch:type="MSPage">
        <g id="m-elections-2016" sketch:type="MSLayerGroup">
            <g id="Group" transform="translate(0.000000, 7.875000)" fill="#0B85C4" sketch:type="MSShapeGroup">
                <path d="M52.4230769,7.7625 C50.1923077,9.1125 49.4115385,10.9125 49.4115385,13.725 L49.4115385,36.1125 C49.4115385,37.575 49.6346154,38.1375 50.3038462,38.5875 L51.0846154,39.0375 L53.2038462,37.8 L53.8730769,39.2625 L46.6230769,43.65 L44.1692308,41.9625 C43.0538462,41.175 42.6076923,40.275 42.6076923,38.475 L42.6076923,18.3375 C42.6076923,14.625 43.7230769,12.6 45.3961538,11.3625 L46.2884615,10.6875 L39.4846154,6.6375 L36.3615385,8.55 L36.3615385,37.6875 C36.3615385,40.1625 36.0269231,40.5 33.9076923,41.625 C33.9076923,41.625 32.2346154,42.4125 29.8923077,43.65 L29.4461538,43.65 L29.4461538,11.3625 C29.4461538,9.7875 29.2230769,9.45 28.4423077,8.775 L25.9884615,6.75 L22.9769231,8.4375 L22.9769231,25.2 C22.9769231,28.125 22.5307692,30.2625 20.1884615,31.725 L14.3884615,35.4375 L13.8307692,34.425 C15.6153846,32.9625 16.0615385,31.05 16.0615385,28.6875 L16.0615385,11.475 C16.0615385,9 15.7269231,7.9875 13.05,8.4375 C12.0461538,8.6625 10.5961538,8.8875 9.59230769,9 C5.8,9.5625 4.12692308,6.75 6.69230769,3.375 C6.69230769,3.375 7.36153846,2.475 8.92307692,0.3375 L10.15,1.2375 L9.36923077,2.5875 C8.14230769,4.275 9.14615385,5.175 11.1538462,4.5 C12.0461538,4.1625 13.8307692,3.4875 15.1692308,2.925 C20.6346154,0.7875 22.7538462,4.3875 22.9769231,6.4125 L29.7807692,2.25 L35.6923077,6.8625 L43.0538462,2.25 L48.7423077,5.5125 C50.6384615,6.6375 51.6423077,6.1875 52.8692308,5.4 L53.9846154,4.8375 L54.8769231,6.3 L52.4230769,7.7625 L52.4230769,7.7625 Z M16.6192308,43.65 C16.0615385,41.9625 14.3884615,40.275 11.3769231,40.1625 C8.47692308,40.1625 4.46153846,41.2875 1.11538462,43.7625 L0.446153846,42.975 C2.9,40.275 8.58846154,36 14.5,35.8875 C17.6230769,35.8875 19.8538462,36.9 21.4153846,38.5875 L23.9807692,37.125 L24.7615385,38.7 L16.6192308,43.65 L16.6192308,43.65 Z" id="Shape"></path>
                <path d="M43.3884615,11.3625 L38.7038462,8.6625 L39.3730769,8.2125 L43.8346154,10.8 C43.7230769,10.9125 43.6115385,11.1375 43.3884615,11.3625" id="Shape" opacity="0.25"></path>
                <path d="M44.5038462,44.775 L42.4961538,43.3125 C41.1576923,42.4125 40.4884615,40.8375 40.4884615,39.0375 L40.4884615,19.4625 C40.4884615,16.7625 41.0461538,14.85 42.05,13.6125 C41.4923077,14.85 41.2692308,16.425 41.2692308,18.3375 L41.2692308,38.3625 C41.2692308,40.5 41.9384615,41.9625 43.3884615,42.975 L45.2846154,44.2125 L44.5038462,44.775 L44.5038462,44.775 Z" id="Shape" opacity="0.25"></path>
                <path d="M28.1076923,44.55 C28.1076923,44.55 27.8846154,44.6625 27.7730769,44.775 L27.3269231,44.775 L27.3269231,12.15 C27.3269231,10.575 27.2153846,10.575 26.3230769,9.9 L24.9846154,8.8875 L25.8769231,8.4375 C26.5461538,9 27.6615385,9.7875 27.6615385,9.9 C28.1076923,10.35 28.2192308,10.575 28.2192308,11.475 L28.2192308,43.7625 L28.2192308,44.55 L28.1076923,44.55 L28.1076923,44.55 Z" id="Shape" opacity="0.25"></path>
                <path d="M4.46153846,4.6125 C4.01538462,5.9625 4.01538462,7.2 4.68461538,8.325 C5.24230769,9.225 6.13461538,9.9 7.25,10.2375 C3.79230769,10.4625 2.23076923,7.65 4.46153846,4.6125" id="Shape" opacity="0.25"></path>
                <path d="M13.4961538,32.7375 C13.8307692,31.8375 13.9423077,30.7125 13.9423077,29.5875 L13.9423077,12.6 C13.9423077,10.575 13.8307692,10.35 13.1615385,9.675 L13.2730769,9.675 C14.2769231,9.45 14.8346154,9.675 14.8346154,11.475 L14.8346154,28.575 C14.7230769,30.4875 14.3884615,31.8375 13.4961538,32.7375" id="Shape" opacity="0.25"></path>
                <path d="M14.5,44.775 C14.0538462,43.2 12.6038462,41.9625 10.15,41.625 L11.1538462,41.625 C14.1653846,41.625 15.0576923,43.5375 15.1692308,44.1 L15.2807692,44.325 L14.5,44.775 L14.5,44.775 Z" id="Shape" opacity="0.25"></path>
            </g>
            <path d="M103.507692,12.0375 L113.992308,12.0375 L113.992308,42.6375 L130.276923,42.6375 L130.276923,51.1875 L103.507692,51.1875 L103.507692,12.0375 L103.507692,12.0375 Z" id="Shape" fill="#0B85C4" sketch:type="MSShapeGroup"></path>
            <rect id="Rectangle-path" fill="#E53023" sketch:type="MSShapeGroup" x="134.626923" y="12.0375" width="27.6615385" height="8.6625"></rect>
            <rect id="Rectangle-path" fill="#E53023" sketch:type="MSShapeGroup" x="134.626923" y="27.1125" width="22.6423077" height="8.325"></rect>
            <rect id="Rectangle-path" fill="#E53023" sketch:type="MSShapeGroup" x="134.626923" y="42.525" width="28.4423077" height="8.6625"></rect>
            <rect id="Rectangle-path" fill="#E53023" sketch:type="MSShapeGroup" x="69.8230769" y="12.0375" width="27.6615385" height="8.6625"></rect>
            <rect id="Rectangle-path" fill="#E53023" sketch:type="MSShapeGroup" x="69.8230769" y="27.1125" width="22.6423077" height="8.325"></rect>
            <rect id="Rectangle-path" fill="#E53023" sketch:type="MSShapeGroup" x="69.8230769" y="42.525" width="28.4423077" height="8.6625"></rect>
            <path d="M166.75,31.6125 C166.75,17.325 175.115385,11.3625 184.930769,11.3625 C195.526923,11.3625 199.653846,16.875 201.326923,23.85 L191.4,26.775 C190.396154,23.0625 188.834615,20.025 184.819231,20.025 C179.576923,20.025 177.123077,24.3 177.123077,31.6125 C177.123077,38.8125 179.688462,43.425 184.930769,43.425 C189.057692,43.425 190.730769,40.8375 191.846154,36 L201.773077,38.25 C199.876923,46.125 195.415385,51.975 184.819231,51.975 C174.669231,51.8625 166.75,45.9 166.75,31.6125 L166.75,31.6125 Z" id="Shape" fill="#0B85C4" sketch:type="MSShapeGroup"></path>
            <path d="M215.380769,20.8125 L204.226923,20.8125 L204.226923,12.0375 L237.019231,12.0375 L237.019231,20.8125 L225.865385,20.8125 L225.865385,51.1875 L215.380769,51.1875 L215.380769,20.8125 L215.380769,20.8125 Z" id="Shape" fill="#0B85C4" sketch:type="MSShapeGroup"></path>
            <path d="M241.815385,12.0375 L252.3,12.0375 L252.3,51.1875 L241.815385,51.1875 L241.815385,12.0375 L241.815385,12.0375 Z" id="Shape" fill="#0B85C4" sketch:type="MSShapeGroup"></path>
            <path d="M257.988462,31.6125 C257.988462,17.325 267.692308,11.3625 277.061538,11.3625 C286.430769,11.3625 296.134615,17.325 296.134615,31.6125 C296.134615,45.9 286.430769,51.8625 277.061538,51.8625 C267.692308,51.8625 257.988462,45.9 257.988462,31.6125 L257.988462,31.6125 Z M285.65,31.6125 C285.65,24.4125 282.526923,20.025 277.061538,20.025 C271.596154,20.025 268.473077,24.4125 268.473077,31.6125 C268.473077,38.8125 271.596154,43.425 277.061538,43.425 C282.526923,43.425 285.65,38.8125 285.65,31.6125 L285.65,31.6125 Z" id="Shape" fill="#0B85C4" sketch:type="MSShapeGroup"></path>
            <path d="M301.488462,12.0375 L311.861538,12.0375 L326.026923,33.975 L326.138462,33.975 L326.138462,12.0375 L335.730769,12.0375 L335.730769,51.1875 L326.026923,51.1875 L311.192308,29.25 L311.080769,29.25 L311.080769,51.1875 L301.488462,51.1875 L301.488462,12.0375 L301.488462,12.0375 Z" id="Shape" fill="#0B85C4" sketch:type="MSShapeGroup"></path>
            <path d="M340.75,42.525 L348.557692,37.6875 C350.9,41.4 354.692308,43.65 358.707692,43.65 C361.942308,43.65 364.284615,42.75 364.284615,40.275 C364.284615,37.8 361.161538,36.7875 357.369231,35.8875 C351.011538,34.2 342.646154,32.625 342.646154,23.7375 C342.646154,15.75 348.669231,11.3625 357.369231,11.3625 C365.623077,11.3625 370.530769,15.1875 373.653846,19.0125 L366.626923,24.8625 C364.507692,22.275 360.715385,19.9125 357.369231,19.9125 C354.357692,19.9125 352.907692,20.925 352.907692,22.725 C352.907692,25.3125 355.919231,26.2125 359.823077,27.225 C366.180769,28.8 374.657692,30.7125 374.657692,39.4875 C374.657692,45.675 370.307692,51.8625 358.373077,51.8625 C349.338462,51.8625 344.096154,47.8125 340.75,42.525 L340.75,42.525 Z" id="Shape" fill="#0B85C4" sketch:type="MSShapeGroup"></path>
            <path d="M390.161538,50.2875 C390.161538,44.6625 390.942308,39.0375 401.203846,32.4 C407.338462,28.4625 409.680769,27.45 409.680769,23.625 C409.680769,21.375 408.230769,20.025 405.776923,20.025 C403.211538,20.025 399.976923,21.9375 397.746154,25.2 L390.496154,19.8 C394.065385,14.7375 398.75,11.25 406.111538,11.25 C414.923077,11.25 419.942308,15.6375 419.942308,22.8375 C419.942308,26.775 419.384615,30.7125 411.911538,35.4375 C406.892308,38.7 403.1,41.175 402.876923,42.975 L420.276923,42.975 L420.276923,51.075 L390.384615,51.075 L390.384615,50.2875 L390.161538,50.2875 Z" id="Shape" fill="#E53023" sketch:type="MSShapeGroup"></path>
            <path d="M464.780769,42.975 L471.696154,42.975 L471.696154,21.375 C469.8,22.3875 467.234615,23.175 464.892308,23.175 L464.892308,14.5125 C467.903846,14.4 470.134615,13.6125 471.807692,11.925 L481.734615,11.925 L481.734615,42.8625 L487.646154,42.8625 L487.646154,50.9625 L464.669231,50.9625 L464.669231,42.975 L464.780769,42.975 Z" id="Shape" fill="#E53023" sketch:type="MSShapeGroup"></path>
            <path d="M489.542308,32.2875 C489.542308,16.0875 499.469231,11.25 507.388462,11.25 C513.857692,11.25 517.092308,12.9375 519.434615,14.625 L515.084615,21.7125 C512.742308,20.25 510.846154,19.575 507.946154,19.575 C503.819231,19.575 500.584615,22.275 499.803846,28.4625 C502.592308,26.6625 505.603846,25.65 508.95,25.65 C515.307692,25.65 521.665385,28.6875 521.665385,38.1375 C521.665385,46.575 515.419231,51.8625 506.273077,51.8625 C496.123077,51.8625 489.542308,44.775 489.542308,32.2875 L489.542308,32.2875 Z M511.738462,38.5875 C511.738462,36.1125 510.846154,33.3 506.607692,33.3 C503.707692,33.3 501.365385,34.2 499.692308,35.4375 C499.915385,40.95 502.034615,43.9875 506.607692,43.9875 C510.176923,43.9875 511.738462,41.0625 511.738462,38.5875 L511.738462,38.5875 Z" id="Shape" fill="#E53023" sketch:type="MSShapeGroup"></path>
            <path d="M92.5769231,0.225 L82.5384615,0.225 L79.8615385,5.5125 L88.1153846,5.5125 L92.5769231,0.225 Z" id="Shape" fill="#E53124" sketch:type="MSShapeGroup"></path>
            <path d="M442.919231,11.25 C433.55,11.25 423.846154,17.2125 423.846154,31.5 C423.846154,45.7875 433.55,51.75 442.919231,51.75 C452.288462,51.75 461.992308,45.7875 461.992308,31.5 C461.880769,17.2125 452.176923,11.25 442.919231,11.25 L442.919231,11.25 Z" id="Shape" fill="#E53023" sketch:type="MSShapeGroup"></path>
            <path d="M442.919231,16.7625 L446.153846,27.1125 L456.973077,27.1125 L448.273077,33.525 L451.619231,43.875 L442.919231,37.4625 L434.107692,43.875 L437.453846,33.525 L428.753846,27.1125 L439.573077,27.1125 L442.919231,16.7625 Z" id="polygon257_32_" fill="#FFFFFF" sketch:type="MSShapeGroup"></path>
        </g>
    </g>
</svg>