<svg id="Calque_1" xmlns="http://www.w3.org/2000/svg" viewBox="0 0 500 60"><style>.st0{fill:#FFC522;} .st1{fill:#1E2314;} .st2{fill:#6DAC23;}</style><ellipse class="st0" cx="387.7" cy="36" rx="7.3" ry="10.3"/><ellipse class="st0" cx="352" cy="21" rx="10" ry="10.3"/><path class="st1" d="M337.1 45.4c-.6 0-1-1.6-1-2 0-.8.9-1.3 1.6-1.3.6 0 1.1.3 1.1.8 0 1.1-.3 2.5-1.7 2.5zm1.3-7.2c-.2 0-1.6 0-1.6-1.9 0-.1.8-.8 1.5-.8.5 0 1 .4 1 1.6 0 .3-.1 1.1-.9 1.1zm12.3-4.8c3.2.2 5.9 6.9 9.1 10 .9.8 2.2 1.3 2.9 2.4.2.4.3.6.3.9 0 .8-.7 1.3-1.7 1.3-2.2 0-6.4-5.7-9-9.6-1-1.5-2.1-2.4-2.6-2.4-.6 0-.7 2.6-.7 4 0 1.5.1 3 .1 4.2 0 1.4-.3 4-2.1 4-2 0-5.5-2.3-5.5-4.6 0-.2.1-1.5.1-1.8 0-.4-.4-2.3-.4-2.8 0-1.3.6-2.7.6-4.1 0-1.2-.8-1.6-.8-2.6 0-.5.5-1.6.5-3 0-.5-.1-1.1-.2-1.6-.4-1.2-.6-2-.6-2.6 0-1.5.8-2.2.8-4.1 0-1.8-1-2.2-1-4.6 0-.3.1-1.5.1-1.8 0-1.5-1.1-3.1-1.1-5.4 0-.2.1-1.3.1-1.6 0-.5.1-1.3 1.6-1.3 1.1 0 3.6.6 4.5 1.2 1.6 1 1.4.8 2 2.5 2.4-3 5.4-4.3 8.2-4.3 4.9 0 9.2 3.9 9.2 10-.1 8.9-6.5 15-14.4 17.7zm-.5-2.7c5.3-1.2 10.6-6.7 10.6-12.1 0-3.9-2.1-5.7-4.5-5.7-3.6 0-6.5 4-6.5 7.1 0 .4-.1.9-.3 1.8-.1.2-.1.4-.1.6 0 .6.3 1.2.3 1.9 0 .2-.3 1.2-.3 1.5 0 .8.5 1.3.5 2.3 0 .3-.3 1.6-.3 1.9 0 .5.2 1 .5 1h.1zm13.4-27c-1.7 0-2.1-2-2.1-2.5 0-.6.3-1.2 1.2-1.2 1.1 0 2.1 1.4 2.1 2.6-.1 1.1-.6 1.1-1.2 1.1zM366.1 51.6c-.3 0-1.1-1.7-1.1-2 0-.4.1-.9.6-.9.7 0 2 .9 2 1.6 0 .8-.7 1.3-1.5 1.3zm6.5-12.7c0 2.1.8 4.3.8 6.4 0 1.7-.9 2.3-2.5 2.3-4.9 0-5.2-9-5.2-12.6 0-2.2.2-6 .5-6.7.2-.6.3-1.1.3-1.6 0-.2-.2-1.5-.2-1.8 0-.8 1.1-.8 1.8-1 1.5-.4 1.1-1.2 3.3-1.2 1.7 0 2.2.9 2.2 2.5 0 4.6-1 7.5-1 13.7zm-2.3-22.3c-1.3 0-4.2-.1-4.2-1.9 0-3 3.3-3.7 5.7-3.7 1.7 0 2 .5 2 2.2 0 2.8-.9 3.4-3.5 3.4zM397.3 33.9c0 .8.6.7.6 1.3 0 .6-.5 1.2-.5 1.9 0 .3.1.6.1.9-.1 1.1-.7 2-1.7 3.6-2 3.3-4.9 6.7-10.7 6.8-7.7 0-9.4-7.8-9.4-9.2 0-.6.5-1.2.5-1.9 0-.2-.3-1.2-.3-1.4 0-6.7 6.4-14.9 13.3-14.9 2.1 0 5.8 2.3 5.8 4.6 0 2.1-4.9 1.3-6.5 2-1.2.5-2.3 1.2-3 2.2-1.8 2.6-2.6 1.9-3.3 5.5-.2 1.2-.4 2.5-.4 3.8 0 3.3 1.1 6.2 5.3 6.2 3.8 0 7.9-5.4 7.9-9.8 0-1.3-.7-4.1-2.4-4.1-2.4 0-2.2 2.9-4 2.9-.6 0-.2-1.7-.2-2.5 0-1.6 1.1-5.3 4.5-5.3 2.7 0 2.1 3.7 3.6 4.6.7.5.9.9.9 1.5l-.1 1.3zm-18.6 17.9c-.7 0-1.7-1.1-1.7-1.8s.5-1.1 1.2-1.1c.4 0 1.8 1.2 1.8 1.6l-1.3 1.3zm18.5-29c-.6 0-2.9-2.5-2.9-3s.4-1.1.9-1.1c1.2 0 2.9 1.5 2.9 2.8 0 .5-.4 1.3-.9 1.3zM382.3 19.9c-1.1 0-4.3-1.5-4.3-1.9 0-.4.4-.9 2.4-.9M387.5 14.3c1 .4 1.4 2.1.9 3.2-.4 1-.9.7-1.5.5M336.9 29.6c.6 0 1.1 0 1.1-1.1 0-1.2-1-2.6-2.1-2.6-.9 0-1.2.5-1.2 1.2.1.5.5 2.5 2.2 2.5zM348.9 3c-.7 0-1.5.7-1.5.8 0 1.9 1.4 1.9 1.6 1.9.7 0 .9-.9.9-1.1 0-1.2-.5-1.6-1-1.6zM335 13.7c-.7 0-1.6.5-1.6 1.3 0 .5.3 2 1 2 1.4 0 1.7-1.3 1.7-2.5-.1-.5-.6-.8-1.1-.8zM355.7 51.8c.6 0 1.1 0 1.2-1 0-1.2-1-2.6-2.1-2.6-.9 0-1.2.5-1.2 1.2 0 .4.4 2.4 2.1 2.4zM342.4 49.7c-.7 0-1.6.5-1.6 1.3 0 .5.3 2 1 2 1.4 0 1.7-1.3 1.7-2.5 0-.5-.5-.8-1.1-.8zM338.3 5.7c-1.1 0-4.3-1.5-4.3-1.9 0-.4.4-.9 2.4-.9M398.8 48.9c-.9.6-2.5-.1-3.1-1.1-.5-.9-.1-1.2.4-1.5M390.2 49.2c.6.9 1.3 4.5 1 4.6-.3.2-.9.1-2.1-1.5"/><path class="st1" d="M338.3 45.8c.7 0 1.4 0 1.4-1.3 0-1.4-1.2-3.1-2.5-3.1-1 0-1.4.6-1.4 1.4-.1.6.4 3 2.5 3zM378.8 51.9c.6 0 1.2 0 1.2-.9 0-1-1-2.3-2.1-2.3-.9 0-1.2.5-1.2 1s.4 2.2 2.1 2.2zM397.9 22.7c.5-.3 1-.5.2-1.9-.8-1.5-2.6-2.8-3.5-2.3-.7.4-.6 1.2-.2 2 .3.7 2.1 3 3.5 2.2z"/><g><path class="st2" d="M.5 46.9l2.8-5.8c1.3.8 2.8 1.6 4.6 1.6 2.3 0 3.3-1.4 3.3-4.7V7.1H19v31.6c0 7.5-3.5 10.5-9.9 10.5-3.9 0-6.6-1-8.6-2.3zM22.2 33.7c0-10.8 4.5-15.4 10.6-15.4 7.2 0 10 6.4 10 15.6v2.4H29.3c.1 4.4 1.3 7.1 3.9 7.1 2.2 0 3.4-1.8 4.1-4.4l5.6 2c-1.6 5.1-4.9 8.1-9.9 8.1-6.4 0-10.8-4.8-10.8-15.4zM36 31.4c-.1-5.2-1.1-7.2-3.2-7.2-1.9 0-3.4 1.8-3.5 7.2H36zM45.9 42.1V18.7h7.3v20.8c0 1.8.5 2.9 1.9 2.9 1.3 0 2.8-1.1 3.8-2V18.7h7.4v29.9h-7.4v-3.8c-1.3 1.8-4.2 4.1-7.3 4.1-3.6.1-5.7-1.5-5.7-6.8zM75.8 33.2l-6.6-14.5h7.4L80 27l3-8.2h6.6L83.1 33l7.1 15.6h-7.4L79 39.5l-3.6 9.1h-6.6l7-15.4zM100.7 33.7c0-10.8 4.5-15.4 10.9-15.4 6.2 0 10.9 4.6 10.9 15.4 0 10.6-4.6 15.4-10.9 15.4-6.3-.1-10.9-4.9-10.9-15.4zm14.3-.1c0-6.6-.8-9.4-3.4-9.4-2.5 0-3.5 2.4-3.5 9.4 0 6.6.9 9.8 3.5 9.8 2.5 0 3.4-2.7 3.4-9.8zM125.9 7.1h7.4v41.5h-7.4V7.1zM135.1 59.2l1.3-6.1c.7.2 1.7.4 3 .4 1.9 0 2.6-.8 3.2-3l.6-2-7.4-29.8h7.6l2.5 13.8c.4 2.5.6 3.9 1 7.8h.2c.4-3.6.7-5.3 1.2-7.7l2.6-13.9h7l-8.3 32.6c-1.5 5.8-3.5 8.6-8.9 8.6-2.7 0-4.5-.4-5.6-.7zM160.1 18.7h7.4v3.8c1.3-1.8 4.1-4.2 7.2-4.2 3.1 0 4.8 1.2 5.4 4.3 1.5-2 4.4-4.3 7.3-4.3 3.8 0 5.7 2 5.7 7.2v23.1h-7.4V27.9c0-1.9-.4-2.9-1.8-2.9-1.3 0-2.4 1-3.6 2v21.6h-7.4V27.9c0-1.9-.4-2.9-1.8-2.9-1.3 0-2.5 1-3.6 2v21.6h-7.4V18.7zM197.2 18.7h7.4v3.6c1.2-1.9 3.1-4 6.2-4 4.7 0 7.8 4.3 7.8 15.4 0 11-3.1 15.3-7.8 15.3-2.7 0-4.7-1.5-6.1-3.8v14.7h-7.4V18.7zm13.8 15c0-6.7-.9-8.8-3.2-8.8-1.4 0-2.5 1.1-3.3 1.9v14.1c1 1.1 2 1.9 3.3 1.9 2.2 0 3.2-2.1 3.2-9.1zM222 8.1h7.4v7.1H222V8.1zm0 10.6h7.4v29.9H222V18.7zM246.8 45.3c-1.2 1.8-3.2 3.7-6.1 3.7-4.7 0-7.8-4.3-7.8-15.2 0-11 3.1-15.4 7.8-15.4 2.8 0 4.8 1.7 6.1 3.7v-3.3h7.4v41.1h-7.4V45.3zm0-4.4V26.8c-.8-1-1.9-2-3.3-2-2.3 0-3.1 2-3.1 8.8 0 6.9.9 9.1 3.1 9.1 1.5 0 2.4-.9 3.3-1.8zM258.3 42.1V18.7h7.3v20.8c0 1.8.5 2.9 1.9 2.9 1.3 0 2.8-1.1 3.8-2V18.7h7.4v29.9h-7.4v-3.8c-1.3 1.8-4.2 4.1-7.3 4.1-3.5.1-5.7-1.5-5.7-6.8zM282 33.7c0-10.8 4.5-15.4 10.6-15.4 7.2 0 10 6.4 10 15.6v2.4H289c.1 4.4 1.3 7.1 3.9 7.1 2.2 0 3.4-1.8 4.1-4.4l5.6 2c-1.6 5.1-4.9 8.1-9.9 8.1-6.3 0-10.7-4.8-10.7-15.4zm13.8-2.3c-.1-5.2-1.1-7.2-3.2-7.2-1.9 0-3.4 1.8-3.5 7.2h6.7zM304 41.7l5.5-2.6c1.2 3 3.1 4.4 5.1 4.4 1.7 0 2.9-.8 2.9-2.5 0-4.6-12.3-4.5-12.3-14.5 0-5.9 5.2-8.5 9.2-8.5 4.8 0 7.9 2.1 9.9 6.9l-5.5 2.6c-1-2.5-2.5-3.7-4.2-3.7-1.4 0-2.3.8-2.3 2.2 0 4.8 12.3 4.7 12.3 14.5 0 5.2-3.8 8.4-9.8 8.4-5.7.2-8.9-2.7-10.8-7.2z"/></g><g><path class="st0" d="M405.2 47.7c0-20 14.5-18.6 14.5-30 0-3-1-4.5-3.1-4.5-1.9 0-3.4 1.1-4.2 6.6l-6.9-1c1.1-7.5 4.6-12.2 11.7-12.2 6.6 0 10 4.1 10 10.7 0 13.4-13.6 16.5-13.6 24.7h13.5v6.6h-21.8v-.9zM430.2 27.9c0-15.5 4.2-21.2 12.2-21.2 8.1 0 12.2 5.8 12.2 21.2 0 15.5-4.1 21.2-12.2 21.2-8 0-12.2-5.8-12.2-21.2zm16.7 0c0-11.5-1.3-14.7-4.5-14.7s-4.5 3.2-4.5 14.7 1.4 14.9 4.5 14.9c3.2-.1 4.5-3.4 4.5-14.9zM456.8 42.1h5.3V14.7c-1.4 1.1-3.5 1.9-5.2 1.9V9.8c2.3-.1 4.1-1 5.4-2.7h7.2V42h4.7v6.6h-17.4v-6.5zM476.4 28.6c0-14.7 3.6-22.1 12.3-22.1 6.1 0 8.7 4 9.9 9.1l-6.5 1.7c-.7-2.4-1.7-4.2-3.6-4.2-3.6 0-4.7 3.6-4.7 12.3 1.8-2 4.5-3.1 7-3.1 6.4 0 8.7 5 8.7 12.6 0 8.6-3.7 14.2-11.3 14.2-7.9 0-11.8-6.3-11.8-20.5zm16.1 6.7c0-4.3-.9-6.7-3.9-6.7-1.8 0-3.5.9-4.9 2.2.1 9.2 1.5 12.1 4.6 12.1 2.9 0 4.2-2.4 4.2-7.6z"/></g></svg>