<svg id="Calque_1" xmlns="http://www.w3.org/2000/svg" xmlns:xlink="http://www.w3.org/1999/xlink" viewBox="0 0 240 60"><style>.st0{fill:#B1CD4D;} .st1{fill:#4D4C4C;} .st2{fill:#1D1E1C;} .st3{fill:#FFFFFF;} .st4{fill:#A3BC41;} .st5{fill:#C1D6D2;} .st6{fill:#B0D5A5;} .st7{clip-path:url(#SVGID_2_);} .st8{clip-path:url(#SVGID_4_);} .st9{clip-path:url(#SVGID_6_);} .st10{clip-path:url(#SVGID_8_);}</style><path class="st0" d="M64.2 9.6l1.7-1c.6 1.1 1.6 1.7 2.8 1.7 1 0 1.8-.4 1.8-1.2 0-.8-.7-1.1-2.1-1.5-1.8-.5-3.7-1-3.7-3.1 0-1.9 1.5-3.1 3.7-3.1 2.1 0 3.3 1 4.1 2.1l-1.6 1.2c-.5-.9-1.5-1.5-2.5-1.5s-1.5.4-1.5 1c0 .8.8 1.1 2.1 1.5 1.8.5 3.7 1.1 3.7 3.2 0 1.6-1.2 3.1-4.1 3.1-2.2.1-3.6-.9-4.4-2.4zM75 1.7h3l2.3 7.5 2.1-7.5h3v10.2h-2.2V5c-.2.9-.3 1.5-.6 2.3L81.1 12h-2l-1.5-4.7c-.2-.8-.4-1.2-.6-2.4V12h-2V1.7zM91.1 1.7h2.1L96.8 12h-2.3l-.8-2.3h-3.5l-.8 2.3h-2.1l3.8-10.3zM93.3 8l-1.2-3.5L90.9 8h2.4zM98.8 1.7h3.8c2.5 0 4 .9 4 3.2 0 1.6-.8 2.5-2.1 2.9l2.3 4.1h-2.4L102.3 8H101v3.9h-2.2V1.7zm3.7 4.6c1.3 0 1.9-.4 1.9-1.4 0-1-.6-1.4-1.9-1.4H101v2.8h1.5zM111.2 3.6h-3V1.7h8.3v1.9h-3.1v8.3h-2.3V3.6zM122.1 6.8c0-3.6 2.1-5.3 4.6-5.3 2.6 0 3.7 1.4 4.1 3.2l-2.1.6c-.3-1.2-.8-2-2-2-1.5 0-2.4 1.3-2.4 3.4 0 2.2.9 3.5 2.4 3.5 1.2 0 1.8-.8 2.2-2.2l2.1.5c-.5 2.1-1.7 3.5-4.3 3.5-2.6.1-4.6-1.6-4.6-5.2zM133.4 1.7h2.2v10.2h-2.2V1.7zM140.9 3.6h-3V1.7h8.3v1.9h-3.1v8.3h-2.3V3.6zM148.3 1.7h2.2v10.2h-2.2V1.7zM153.5 1.7h7v1.9h-4.7v2.2h3.4v1.8h-3.4v2.5h5v1.8h-7.2V1.7zM162.2 9.6l1.7-1c.6 1.1 1.6 1.7 2.8 1.7 1 0 1.8-.4 1.8-1.2 0-.8-.7-1.1-2.1-1.5-1.8-.5-3.7-1-3.7-3.1 0-1.9 1.5-3.1 3.7-3.1 2.1 0 3.3 1 4.1 2.1l-1.6 1.2c-.5-.9-1.5-1.5-2.5-1.5s-1.5.4-1.5 1c0 .8.8 1.1 2.1 1.5 1.8.5 3.7 1.1 3.7 3.2 0 1.6-1.2 3.1-4.1 3.1-2.3.1-3.7-.9-4.4-2.4zM64.6 17.4h1.9v7.2h3.9v1.6h-5.8v-8.8zM72.2 17.4h6V19h-4v1.9H77v1.5h-2.9v2.2h4.2v1.6h-6.2v-8.8zM79.6 24.2l1.5-.9c.5 1 1.4 1.5 2.4 1.5.9 0 1.5-.3 1.5-1s-.6-.9-1.8-1.3c-1.6-.4-3.2-.8-3.2-2.7 0-1.6 1.3-2.6 3.2-2.6 1.8 0 2.9.9 3.5 1.8l-1.3 1c-.5-.7-1.3-1.2-2.2-1.2-.8 0-1.3.4-1.3.9 0 .7.7.9 1.8 1.3 1.5.4 3.2.9 3.2 2.7 0 1.4-1.1 2.7-3.5 2.7-1.9-.1-3.1-1-3.8-2.2zM92.7 17.4h3.2c1.9 0 3.6.5 3.6 2.8 0 2.4-1.8 2.8-3.6 2.8h-1.2v3.1h-1.9v-8.7zm3.2 4.1c1.2 0 1.6-.5 1.6-1.3s-.4-1.3-1.6-1.3h-1.3v2.6h1.3zM101.3 17.4h3.3c2.2 0 3.4.8 3.4 2.7 0 1.4-.7 2.1-1.8 2.5l2 3.5h-2l-1.8-3.3h-1.1v3.3h-1.9v-8.7zm3.2 4c1.1 0 1.6-.3 1.6-1.2 0-.9-.5-1.2-1.6-1.2h-1.3v2.4h1.3zM110.3 17.4h1.9v8.8h-1.9v-8.8zM117 21.5l-2.6-4.1h2.2l1.6 2.6 1.5-2.6h2l-2.5 4.1 2.8 4.6h-2.1L118 23l-1.8 3.1h-2l2.8-4.6zM127.3 17.4h2.7c2.7 0 4.7 1.1 4.7 4.3 0 3.3-2 4.4-4.7 4.4h-2.7v-8.7zm2.8 7.2c1.9 0 2.6-.9 2.6-2.8s-.7-2.7-2.7-2.7h-.9v5.6h1zM136.6 17.4h6V19h-4v1.9h2.9v1.5h-2.9v2.2h4.2v1.6h-6.2v-8.8zM148.5 17.4h1.9v7.2h3.9v1.6h-5.8v-8.8zM155.3 19.2h-.7v-1.8h2v1.7l-.9 1.6h-.9l.5-1.5zM158.9 17.4h1.9v8.8h-1.9v-8.8zM163.3 17.4h1.9l3.7 5.6v-5.6h1.8v8.8h-1.8l-3.8-5.6v5.6h-1.8v-8.8zM173.1 17.4h1.9l3.7 5.6v-5.6h1.8v8.8h-1.8l-3.8-5.6v5.6h-1.8v-8.8zM182.4 21.8c0-3.1 2-4.5 4.1-4.5 2.1 0 4.1 1.5 4.1 4.5s-2 4.5-4.1 4.5c-2.1 0-4.1-1.5-4.1-4.5zm6.4 0c0-1.8-.9-2.9-2.2-2.9-1.4 0-2.2 1.1-2.2 2.9 0 1.8.8 3 2.2 3 1.3 0 2.2-1.2 2.2-3zM191.5 17.4h2l2 6.3 2.1-6.3h1.8l-3 8.8h-1.8l-3.1-8.8zM202.7 17.4h1.8l3.1 8.8h-2l-.7-2h-3l-.7 2h-1.8l3.3-8.8zm1.9 5.4l-1-3-1 3h2zM210.3 19h-2.6v-1.6h7.1V19h-2.6v7.1h-1.9V19zM216.7 17.4h1.9v8.8h-1.9v-8.8zM220.7 21.8c0-3.1 2-4.5 4.1-4.5 2.1 0 4.1 1.5 4.1 4.5s-2 4.5-4.1 4.5c-2.1 0-4.1-1.5-4.1-4.5zm6.3 0c0-1.8-.9-2.9-2.2-2.9-1.4 0-2.2 1.1-2.2 2.9 0 1.8.8 3 2.2 3 1.3 0 2.2-1.2 2.2-3zM230.9 17.4h1.9l3.7 5.6v-5.6h1.8v8.8h-1.8l-3.8-5.6v5.6h-1.8v-8.8z"/><g><path class="st1" d="M65.5 33.2h.5v7.5h4v.5h-4.6v-8zM71.2 38.4c0-2 1.2-3 2.4-3 1.3 0 2.3 1.1 2.3 2.9v.1h-4.2c0 1.6.9 2.5 1.9 2.5.9 0 1.4-.4 1.8-1.2l.4.2c-.5.9-1.1 1.4-2.2 1.4-1.3.1-2.4-1-2.4-2.9zm4.1-.4c-.1-1.2-.6-2.1-1.7-2.1-.9 0-1.7.7-1.9 2.1h3.6zM77.4 40.3l.4-.3c.4.6 1 .9 1.8.9 1.1 0 1.6-.4 1.6-1.1s-.4-1-1.7-1.3c-1.4-.4-1.9-.7-1.9-1.6 0-.7.7-1.4 1.9-1.4.9 0 1.5.3 2 .8l-.3.4c-.4-.5-.9-.7-1.7-.7-.9 0-1.3.5-1.3.9 0 .6.3.9 1.4 1.1 1.6.4 2.2.8 2.2 1.8s-.9 1.6-2.2 1.6c-1.1-.1-1.8-.5-2.2-1.1zM86.6 35.6h.5v.9c.6-.6 1.3-1.1 2.1-1.1 1 0 1.4.4 1.6 1.1.7-.6 1.4-1.1 2.2-1.1 1.2 0 1.6.7 1.6 1.7v4.1h-.5v-4.1c0-.9-.3-1.3-1.2-1.3-.7 0-1.4.4-2.1 1.1v4.3h-.5v-4.1c0-.9-.3-1.3-1.2-1.3-.7 0-1.4.4-2.1 1.1v4.3h-.5v-5.6zM97 39.7v-4.1h.5v4.1c0 .9.4 1.3 1.2 1.3.8 0 1.5-.4 2.2-1.1v-4.3h.5v5.7h-.5v-.9c-.6.6-1.4 1.1-2.2 1.1-1.2-.1-1.7-.8-1.7-1.8zM104.2 40v-4h-1v-.5h1v-2.1h.5v2.1h1.5v.5h-1.5v3.9c0 .6.2 1 .9 1 .2 0 .4 0 .6-.1v.5c-.2 0-.4.1-.6.1-1-.1-1.4-.5-1.4-1.4zM107.8 39.9c0-1.1.9-1.9 3.9-2.4v-.3c0-.9-.5-1.3-1.2-1.3-.9 0-1.6.4-2.2.9l-.3-.3c.7-.7 1.4-1.1 2.5-1.1 1.2 0 1.7.7 1.7 1.7v2.7c0 .7 0 1.1.2 1.4h-.6c-.1-.2-.1-.5-.1-.8-.7.6-1.5.9-2.3.9-1.1 0-1.6-.5-1.6-1.4zm3.9 0v-2c-2.8.5-3.4 1.2-3.4 2 0 .6.4 1 1.1 1 .9 0 1.6-.4 2.3-1zM114.9 40v-4h-1v-.5h1v-2.1h.5v2.1h1.5v.5h-1.5v3.9c0 .6.2 1 .9 1 .2 0 .4 0 .6-.1v.5c-.2 0-.4.1-.6.1-1-.1-1.4-.5-1.4-1.4zM118.9 33.4h.6v.7h-.6v-.7zm0 2.2h.5v5.7h-.5v-5.7zM121.5 38.4c0-1.8 1.1-3 2.5-3s2.5 1.1 2.5 3c0 1.8-1.1 3-2.5 3s-2.5-1.2-2.5-3zm4.5 0c0-1.3-.7-2.5-2-2.5-1.2 0-2 1.1-2 2.5 0 1.3.7 2.5 2 2.5s2-1.1 2-2.5zM128.6 35.6h.5v.9c.6-.6 1.4-1.1 2.2-1.1 1.2 0 1.7.7 1.7 1.7v4.1h-.5v-4.1c0-.9-.4-1.3-1.2-1.3-.8 0-1.5.4-2.2 1.1v4.3h-.5v-5.6zM134.9 40.3l.4-.3c.4.6 1 .9 1.8.9 1.1 0 1.6-.4 1.6-1.1s-.4-1-1.7-1.3c-1.4-.4-1.9-.7-1.9-1.6 0-.7.7-1.4 1.9-1.4.9 0 1.5.3 2 .8l-.3.4c-.4-.5-.9-.7-1.7-.7-.9 0-1.3.5-1.3.9 0 .6.3.9 1.4 1.1 1.6.4 2.2.8 2.2 1.8s-.9 1.6-2.2 1.6c-1-.1-1.7-.5-2.2-1.1zM143.9 38.4c0-2 1.1-3 2.4-3 .8 0 1.5.4 1.9 1v-3.2h.5v6.6c0 .7 0 1.1.2 1.4h-.6c-.1-.2-.1-.6-.1-.9-.5.5-1.1 1-1.9 1-1.3 0-2.4-.9-2.4-2.9zm4.3 1.5v-3c-.6-.7-1.2-1-2-1-1 0-1.9.8-1.9 2.5s.9 2.5 1.9 2.5c.8 0 1.4-.4 2-1zM150.8 38.4c0-2 1.2-3 2.4-3 1.3 0 2.3 1.1 2.3 2.9v.1h-4.2c0 1.6.9 2.5 1.9 2.5.9 0 1.4-.4 1.8-1.2l.4.2c-.5.9-1.1 1.4-2.2 1.4-1.3.1-2.4-1-2.4-2.9zm4.1-.4c-.1-1.2-.6-2.1-1.7-2.1-.9 0-1.7.7-1.9 2.1h3.6zM160.4 33.2h.5v8h-.5v-8zM163 39.9c0-1.1.9-1.9 3.9-2.4v-.3c0-.9-.5-1.3-1.2-1.3-.9 0-1.6.4-2.2.9l-.3-.3c.7-.7 1.4-1.1 2.5-1.1 1.2 0 1.7.7 1.7 1.7v2.7c0 .7 0 1.1.2 1.4h-.6c-.1-.2-.1-.5-.1-.8-.7.6-1.5.9-2.3.9-1 0-1.6-.5-1.6-1.4zm4 0v-2c-2.8.5-3.4 1.2-3.4 2 0 .6.4 1 1.1 1 .8 0 1.6-.4 2.3-1zM172.1 35.6h.6l1.8 5 1.8-5h.6l-2.1 5.7h-.5l-2.2-5.7zM178.7 33.4h.6v.7h-.6v-.7zm0 2.2h.5v5.7h-.5v-5.7zM181.7 33.2h.5v8h-.5v-8zM184.8 33.2h.5v8h-.5v-8zM187.4 38.4c0-2 1.2-3 2.4-3 1.3 0 2.3 1.1 2.3 2.9v.1h-4.2c0 1.6.9 2.5 1.9 2.5.9 0 1.4-.4 1.8-1.2l.4.3c-.5.9-1.1 1.4-2.2 1.4-1.3 0-2.4-1.1-2.4-3zm4.1-.4c-.1-1.2-.6-2.1-1.7-2.1-.9 0-1.7.7-1.9 2.1h3.6z"/></g><g id="XMLID_91_"><path id="XMLID_119_" class="st2" d="M73 54.9l-1.3.8v-2.1l.1-.1 1.2 1.4zm-3.8-3.8c0-.2-.4-.7-.8-.7h-.2c.4.1.7.5.7.8l.3-.1zm5.3 3.5l-1.9-2.1-3 1.7v.4l.6-.3v3.9c0 .2.1.4.2.5l1.6 1 2.2-1.3-.1-.4-1.2.6-1.1-.7c-.1-.1-.1-.2-.1-.4v-1.3l2.8-1.6zm-3.7-3.8c-.3-.4-.9-1.1-2.3-1.1-1.6 0-3 1.3-3.1 2.8 0 1.2.5 2.8.5 4 0 .4-.1.7-.3.9l.2.2 1-.7c.5-.4.8-.8.7-1.6 0-1-.5-2.4-.5-3.5 0-1 .4-1.7 1.2-1.7.6 0 1 .6 1.1.9 0 .2 0 .2-.1.3l-.4.3v.4l2-1.2zm.9 9.1l-1.4-.9c-.2-.1-.4-.3-.4-.7v-3.4l-.1.1h-.1v3.4c0 .3.2.6.4.7l1.4 1 .2-.2zm-6.1-3.4c0-.6-.1-1.3-.2-2s-.2-1.4-.2-2c0-.4.1-.8.2-1.1-.3.4-.4.9-.5 1.4 0 1.2.5 2.8.5 4v.5c.1-.2.2-.5.2-.8zm3.9 2.1l-.2-.3-.4.3c-.3-.4-.9-.9-2.1-.9-1.3 0-2.9 1-3.7 1.9l.1.2c1-.7 2-1 3-1 .7 0 1.4.4 1.6.9l1.7-1.1zm-2 1.3c-.2-.4-.7-.7-1.3-.7H66c.6.1 1.1.4 1.3.8l.2-.1zm5-5.1l-.5-.5v.4l.3.3.2-.2z"/><path id="XMLID_110_" class="st2" d="M86 51.9l-1.1-.7.2-.1 1.1.6-.2.2zm.3 8.1l-.5-.3c-.3-.2-.5-.6-.5-1v-4.8c0-.7.1-1.1.4-1.4-.1.3-.2.7-.2 1.1v4.9c0 .5.2.9.5 1.1l.5.3-.2.1zm2-9c-.6.3-.7.8-.7 1.5V58c0 .3 0 .5.2.6l.2.1.5-.3.2.3-1.8 1.1-.6-.4c-.3-.2-.4-.4-.4-.9v-4.9c0-.9.3-1.4.7-1.7l.2-.2-1.7-1-.8.5v7.1c0 .6-.1.7-.6 1l-1 .5h-.1v-7.9c0-.4 0-.5-.3-.6l-.6-.5-.7.3v4.1c0 .7-.1 1.2-.7 1.6l-1.4.9-.1-.2c.4-.3.5-.8.5-1.4v-4.2c0-.6-.1-.9-.7-.7-.2 0-.6.1-.8.1-.9.1-1.3-.5-.7-1.4 0 0 .2-.2.6-.7l.3.2-.2.3c-.3.4-.1.7.4.5.2-.1.7-.3 1-.4 1.4-.5 1.9.3 1.9.9l1.7-1 1.5 1.1 1.8-1.1 1.4.8c.5.3.7.2 1 0l.3-.1.2.4-.7.2zm-6 8.9s-.1.1 0 0h-.2V52c0-.4 0-.4-.3-.6l-.3-.3.2-.1c.2.1.4.3.4.4.1.1.1.2.1.4v8.1h.1zm-5.8-9.7c-.1.3-.1.6 0 .9.1.2.4.4.6.5-.8 0-1.1-.6-.6-1.4zm2.2 6.9c.1-.2.1-.5.1-.8v-4.1c0-.5 0-.6-.2-.7.2 0 .4 0 .4.4V56c0 .5-.1.8-.3 1.1zm.8 2.6c-.1-.4-.6-.8-1.3-.8-.7 0-1.7.3-2.5.9l-.2-.2c.6-.7 2-1.7 3.5-1.7.8 0 1.3.3 1.7.7l.6-.4.2.4-2 1.1zm-.5.3c-.1-.4-.5-.7-1.1-.8h.3c.7 0 1 .5 1 .6l-.2.2z"/><path id="XMLID_102_" class="st2" d="M92.7 58.6l-1.3-.7c-.2-.1-.2-.2-.2-.5v-3.7h.1l1.1.7c.2.1.3.2.3.5v3.7zm9.2.2l-.1-.3-.5.3-.2-.1c-.2-.1-.2-.3-.2-.6V54c0-.3-.1-.5-.3-.6l-1.1-.8-1.7 1-.9-1-1.8 1.1.2.3.6-.4.4.5v5.7h.1c.7-.3.9-.4.9-.4.3-.1.4-.3.4-.7V54l.6-.3.7.5c.2.2.2.3.2.5v3.9c0 .4.1.7.4.8l.6.4 1.7-1zm-1.9 1.1l-.4-.3c-.4-.2-.6-.6-.6-1.1v-3.9c0-.2 0-.2-.1-.3 0 0-.3-.2-.5-.4l-.2.1.4.3c.2.2.2.2.2.5v3.7c0 .5.2.9.5 1l.5.3.2.1zm-4 0v-5.8l-.2-.2-.2.1.2.2V60l.2-.1c0 .1 0 0 0 0zM94.9 58l-.1-.3-.5.3v-3.9c0-.2-.1-.4-.3-.5l-1.8-1.1-3 1.7v.4l.6-.4V58c0 .3.1.5.3.6l1.8 1.1 3-1.7zm-3.4 1.9l-1.6-1c-.3-.2-.5-.4-.5-.9v-3.2l-.1.1h-.1v3.3c0 .4.2.7.5.8l1.6 1 .2-.1zm.9-1.8v-3.2c0-.2-.1-.2-.2-.3l-.7-.4v.2l.4.2c.3.2.3.2.3.5V58l.2.1z"/><path id="XMLID_92_" class="st2" d="M111.8 54.9l-1.3.8v-2.1l.1-.1 1.2 1.4zm1.6-.3l-1.9-2.1-3 1.7v.4l.6-.3v3.9c0 .2.1.4.2.5l1.6 1 2.2-1.3-.2-.4-1.2.6-1.1-.7c-.1-.1-.2-.2-.2-.4v-1.3l3-1.6zm-8-2.4c0-.4-.2-.9-.6-1.1-.1-.1-.3-.2-.3-.2l-.2.1.1.1c.5.3.8.6.8 1.2l.2-.1zm5.2 7.7l-1.4-.9c-.2-.1-.4-.3-.4-.7v-3.4l-.1.1h-.1v3.3c0 .4.1.6.4.8l1.4.9.2-.1zm-2.8-1.9l-.1-.3-.5.3v-6c0-.9-.4-1.5-1.1-1.9l-.6-.4-2 1.2.4.2.7-.4.4.2c.5.3.8.8.8 1.3v.2l-3.4 2v.4l.6-.3v3.6c0 .3.1.4.3.6l1.7 1.1 2.8-1.8zm-3.3 1.9l-1.5-1c-.4-.2-.4-.4-.4-.9v-3.1l-.1.1h-.1v3c0 .5.2.7.4.9l1.6 1h.1zm1.2-1.3l-1.1-.6c-.2-.1-.3-.2-.3-.5v-3.6l1.3-.8.1.1v5.4zm5.7-3.8l-.5-.6v.4l.3.3.2-.1zm-6 3.3v-4.5l-.2.1V58l.2.1z"/></g><g><path class="st0" d="M64.2 9.6l1.7-1c.6 1.1 1.6 1.7 2.8 1.7 1 0 1.8-.4 1.8-1.2 0-.8-.7-1.1-2.1-1.5-1.8-.5-3.7-1-3.7-3.1 0-1.9 1.5-3.1 3.7-3.1 2.1 0 3.3 1 4.1 2.1l-1.6 1.2c-.5-.9-1.5-1.5-2.5-1.5s-1.5.4-1.5 1c0 .8.8 1.1 2.1 1.5 1.8.5 3.7 1.1 3.7 3.2 0 1.6-1.2 3.1-4.1 3.1-2.2.1-3.6-.9-4.4-2.4zM75 1.7h3l2.3 7.5 2.1-7.5h3v10.2h-2.2V5c-.2.9-.3 1.5-.6 2.3L81.1 12h-2l-1.5-4.7c-.2-.8-.4-1.2-.6-2.4V12h-2V1.7zM91.1 1.7h2.1L96.8 12h-2.3l-.8-2.3h-3.5l-.8 2.3h-2.1l3.8-10.3zM93.3 8l-1.2-3.5L90.9 8h2.4zM98.8 1.7h3.8c2.5 0 4 .9 4 3.2 0 1.6-.8 2.5-2.1 2.9l2.3 4.1h-2.4L102.3 8H101v3.9h-2.2V1.7zm3.7 4.6c1.3 0 1.9-.4 1.9-1.4 0-1-.6-1.4-1.9-1.4H101v2.8h1.5zM111.2 3.6h-3V1.7h8.3v1.9h-3.1v8.3h-2.3V3.6zM122.1 6.8c0-3.6 2.1-5.3 4.6-5.3 2.6 0 3.7 1.4 4.1 3.2l-2.1.6c-.3-1.2-.8-2-2-2-1.5 0-2.4 1.3-2.4 3.4 0 2.2.9 3.5 2.4 3.5 1.2 0 1.8-.8 2.2-2.2l2.1.5c-.5 2.1-1.7 3.5-4.3 3.5-2.6.1-4.6-1.6-4.6-5.2zM133.4 1.7h2.2v10.2h-2.2V1.7zM140.9 3.6h-3V1.7h8.3v1.9h-3.1v8.3h-2.3V3.6zM148.3 1.7h2.2v10.2h-2.2V1.7zM153.5 1.7h7v1.9h-4.7v2.2h3.4v1.8h-3.4v2.5h5v1.8h-7.2V1.7zM162.2 9.6l1.7-1c.6 1.1 1.6 1.7 2.8 1.7 1 0 1.8-.4 1.8-1.2 0-.8-.7-1.1-2.1-1.5-1.8-.5-3.7-1-3.7-3.1 0-1.9 1.5-3.1 3.7-3.1 2.1 0 3.3 1 4.1 2.1l-1.6 1.2c-.5-.9-1.5-1.5-2.5-1.5s-1.5.4-1.5 1c0 .8.8 1.1 2.1 1.5 1.8.5 3.7 1.1 3.7 3.2 0 1.6-1.2 3.1-4.1 3.1-2.3.1-3.7-.9-4.4-2.4zM64.6 17.4h1.9v7.2h3.9v1.6h-5.8v-8.8zM72.2 17.4h6V19h-4v1.9H77v1.5h-2.9v2.2h4.2v1.6h-6.2v-8.8zM79.6 24.2l1.5-.9c.5 1 1.4 1.5 2.4 1.5.9 0 1.5-.3 1.5-1s-.6-.9-1.8-1.3c-1.6-.4-3.2-.8-3.2-2.7 0-1.6 1.3-2.6 3.2-2.6 1.8 0 2.9.9 3.5 1.8l-1.3 1c-.5-.7-1.3-1.2-2.2-1.2-.8 0-1.3.4-1.3.9 0 .7.7.9 1.8 1.3 1.5.4 3.2.9 3.2 2.7 0 1.4-1.1 2.7-3.5 2.7-1.9-.1-3.1-1-3.8-2.2zM92.7 17.4h3.2c1.9 0 3.6.5 3.6 2.8 0 2.4-1.8 2.8-3.6 2.8h-1.2v3.1h-1.9v-8.7zm3.2 4.1c1.2 0 1.6-.5 1.6-1.3s-.4-1.3-1.6-1.3h-1.3v2.6h1.3zM101.3 17.4h3.3c2.2 0 3.4.8 3.4 2.7 0 1.4-.7 2.1-1.8 2.5l2 3.5h-2l-1.8-3.3h-1.1v3.3h-1.9v-8.7zm3.2 4c1.1 0 1.6-.3 1.6-1.2 0-.9-.5-1.2-1.6-1.2h-1.3v2.4h1.3zM110.3 17.4h1.9v8.8h-1.9v-8.8zM117 21.5l-2.6-4.1h2.2l1.6 2.6 1.5-2.6h2l-2.5 4.1 2.8 4.6h-2.1L118 23l-1.8 3.1h-2l2.8-4.6zM127.3 17.4h2.7c2.7 0 4.7 1.1 4.7 4.3 0 3.3-2 4.4-4.7 4.4h-2.7v-8.7zm2.8 7.2c1.9 0 2.6-.9 2.6-2.8s-.7-2.7-2.7-2.7h-.9v5.6h1zM136.6 17.4h6V19h-4v1.9h2.9v1.5h-2.9v2.2h4.2v1.6h-6.2v-8.8zM148.5 17.4h1.9v7.2h3.9v1.6h-5.8v-8.8zM155.3 19.2h-.7v-1.8h2v1.7l-.9 1.6h-.9l.5-1.5zM158.9 17.4h1.9v8.8h-1.9v-8.8zM163.3 17.4h1.9l3.7 5.6v-5.6h1.8v8.8h-1.8l-3.8-5.6v5.6h-1.8v-8.8zM173.1 17.4h1.9l3.7 5.6v-5.6h1.8v8.8h-1.8l-3.8-5.6v5.6h-1.8v-8.8zM182.4 21.8c0-3.1 2-4.5 4.1-4.5 2.1 0 4.1 1.5 4.1 4.5s-2 4.5-4.1 4.5c-2.1 0-4.1-1.5-4.1-4.5zm6.4 0c0-1.8-.9-2.9-2.2-2.9-1.4 0-2.2 1.1-2.2 2.9 0 1.8.8 3 2.2 3 1.3 0 2.2-1.2 2.2-3zM191.5 17.4h2l2 6.3 2.1-6.3h1.8l-3 8.8h-1.8l-3.1-8.8zM202.7 17.4h1.8l3.1 8.8h-2l-.7-2h-3l-.7 2h-1.8l3.3-8.8zm1.9 5.4l-1-3-1 3h2zM210.3 19h-2.6v-1.6h7.1V19h-2.6v7.1h-1.9V19zM216.7 17.4h1.9v8.8h-1.9v-8.8zM220.7 21.8c0-3.1 2-4.5 4.1-4.5 2.1 0 4.1 1.5 4.1 4.5s-2 4.5-4.1 4.5c-2.1 0-4.1-1.5-4.1-4.5zm6.3 0c0-1.8-.9-2.9-2.2-2.9-1.4 0-2.2 1.1-2.2 2.9 0 1.8.8 3 2.2 3 1.3 0 2.2-1.2 2.2-3zM230.9 17.4h1.9l3.7 5.6v-5.6h1.8v8.8h-1.8l-3.8-5.6v5.6h-1.8v-8.8z"/><g><path class="st1" d="M65.5 33.2h.5v7.5h4v.5h-4.6v-8zM71.2 38.4c0-2 1.2-3 2.4-3 1.3 0 2.3 1.1 2.3 2.9v.1h-4.2c0 1.6.9 2.5 1.9 2.5.9 0 1.4-.4 1.8-1.2l.4.2c-.5.9-1.1 1.4-2.2 1.4-1.3.1-2.4-1-2.4-2.9zm4.1-.4c-.1-1.2-.6-2.1-1.7-2.1-.9 0-1.7.7-1.9 2.1h3.6zM77.4 40.3l.4-.3c.4.6 1 .9 1.8.9 1.1 0 1.6-.4 1.6-1.1s-.4-1-1.7-1.3c-1.4-.4-1.9-.7-1.9-1.6 0-.7.7-1.4 1.9-1.4.9 0 1.5.3 2 .8l-.3.4c-.4-.5-.9-.7-1.7-.7-.9 0-1.3.5-1.3.9 0 .6.3.9 1.4 1.1 1.6.4 2.2.8 2.2 1.8s-.9 1.6-2.2 1.6c-1.1-.1-1.8-.5-2.2-1.1zM86.6 35.6h.5v.9c.6-.6 1.3-1.1 2.1-1.1 1 0 1.4.4 1.6 1.1.7-.6 1.4-1.1 2.2-1.1 1.2 0 1.6.7 1.6 1.7v4.1h-.5v-4.1c0-.9-.3-1.3-1.2-1.3-.7 0-1.4.4-2.1 1.1v4.3h-.5v-4.1c0-.9-.3-1.3-1.2-1.3-.7 0-1.4.4-2.1 1.1v4.3h-.5v-5.6zM97 39.7v-4.1h.5v4.1c0 .9.4 1.3 1.2 1.3.8 0 1.5-.4 2.2-1.1v-4.3h.5v5.7h-.5v-.9c-.6.6-1.4 1.1-2.2 1.1-1.2-.1-1.7-.8-1.7-1.8zM104.2 40v-4h-1v-.5h1v-2.1h.5v2.1h1.5v.5h-1.5v3.9c0 .6.2 1 .9 1 .2 0 .4 0 .6-.1v.5c-.2 0-.4.1-.6.1-1-.1-1.4-.5-1.4-1.4zM107.8 39.9c0-1.1.9-1.9 3.9-2.4v-.3c0-.9-.5-1.3-1.2-1.3-.9 0-1.6.4-2.2.9l-.3-.3c.7-.7 1.4-1.1 2.5-1.1 1.2 0 1.7.7 1.7 1.7v2.7c0 .7 0 1.1.2 1.4h-.6c-.1-.2-.1-.5-.1-.8-.7.6-1.5.9-2.3.9-1.1 0-1.6-.5-1.6-1.4zm3.9 0v-2c-2.8.5-3.4 1.2-3.4 2 0 .6.4 1 1.1 1 .9 0 1.6-.4 2.3-1zM114.9 40v-4h-1v-.5h1v-2.1h.5v2.1h1.5v.5h-1.5v3.9c0 .6.2 1 .9 1 .2 0 .4 0 .6-.1v.5c-.2 0-.4.1-.6.1-1-.1-1.4-.5-1.4-1.4zM118.9 33.4h.6v.7h-.6v-.7zm0 2.2h.5v5.7h-.5v-5.7zM121.5 38.4c0-1.8 1.1-3 2.5-3s2.5 1.1 2.5 3c0 1.8-1.1 3-2.5 3s-2.5-1.2-2.5-3zm4.5 0c0-1.3-.7-2.5-2-2.5-1.2 0-2 1.1-2 2.5 0 1.3.7 2.5 2 2.5s2-1.1 2-2.5zM128.6 35.6h.5v.9c.6-.6 1.4-1.1 2.2-1.1 1.2 0 1.7.7 1.7 1.7v4.1h-.5v-4.1c0-.9-.4-1.3-1.2-1.3-.8 0-1.5.4-2.2 1.1v4.3h-.5v-5.6zM134.9 40.3l.4-.3c.4.6 1 .9 1.8.9 1.1 0 1.6-.4 1.6-1.1s-.4-1-1.7-1.3c-1.4-.4-1.9-.7-1.9-1.6 0-.7.7-1.4 1.9-1.4.9 0 1.5.3 2 .8l-.3.4c-.4-.5-.9-.7-1.7-.7-.9 0-1.3.5-1.3.9 0 .6.3.9 1.4 1.1 1.6.4 2.2.8 2.2 1.8s-.9 1.6-2.2 1.6c-1-.1-1.7-.5-2.2-1.1zM143.9 38.4c0-2 1.1-3 2.4-3 .8 0 1.5.4 1.9 1v-3.2h.5v6.6c0 .7 0 1.1.2 1.4h-.6c-.1-.2-.1-.6-.1-.9-.5.5-1.1 1-1.9 1-1.3 0-2.4-.9-2.4-2.9zm4.3 1.5v-3c-.6-.7-1.2-1-2-1-1 0-1.9.8-1.9 2.5s.9 2.5 1.9 2.5c.8 0 1.4-.4 2-1zM150.8 38.4c0-2 1.2-3 2.4-3 1.3 0 2.3 1.1 2.3 2.9v.1h-4.2c0 1.6.9 2.5 1.9 2.5.9 0 1.4-.4 1.8-1.2l.4.2c-.5.9-1.1 1.4-2.2 1.4-1.3.1-2.4-1-2.4-2.9zm4.1-.4c-.1-1.2-.6-2.1-1.7-2.1-.9 0-1.7.7-1.9 2.1h3.6zM160.4 33.2h.5v8h-.5v-8zM163 39.9c0-1.1.9-1.9 3.9-2.4v-.3c0-.9-.5-1.3-1.2-1.3-.9 0-1.6.4-2.2.9l-.3-.3c.7-.7 1.4-1.1 2.5-1.1 1.2 0 1.7.7 1.7 1.7v2.7c0 .7 0 1.1.2 1.4h-.6c-.1-.2-.1-.5-.1-.8-.7.6-1.5.9-2.3.9-1 0-1.6-.5-1.6-1.4zm4 0v-2c-2.8.5-3.4 1.2-3.4 2 0 .6.4 1 1.1 1 .8 0 1.6-.4 2.3-1zM172.1 35.6h.6l1.8 5 1.8-5h.6l-2.1 5.7h-.5l-2.2-5.7zM178.7 33.4h.6v.7h-.6v-.7zm0 2.2h.5v5.7h-.5v-5.7zM181.7 33.2h.5v8h-.5v-8zM184.8 33.2h.5v8h-.5v-8zM187.4 38.4c0-2 1.2-3 2.4-3 1.3 0 2.3 1.1 2.3 2.9v.1h-4.2c0 1.6.9 2.5 1.9 2.5.9 0 1.4-.4 1.8-1.2l.4.3c-.5.9-1.1 1.4-2.2 1.4-1.3 0-2.4-1.1-2.4-3zm4.1-.4c-.1-1.2-.6-2.1-1.7-2.1-.9 0-1.7.7-1.9 2.1h3.6z"/></g><g id="XMLID_2_"><path id="XMLID_31_" class="st2" d="M73 54.9l-1.3.8v-2.1l.1-.1 1.2 1.4zm-3.8-3.8c0-.2-.4-.7-.8-.7h-.2c.4.1.7.5.7.8l.3-.1zm5.3 3.5l-1.9-2.1-3 1.7v.4l.6-.3v3.9c0 .2.1.4.2.5l1.6 1 2.2-1.3-.1-.4-1.2.6-1.1-.7c-.1-.1-.1-.2-.1-.4v-1.3l2.8-1.6zm-3.7-3.8c-.3-.4-.9-1.1-2.3-1.1-1.6 0-3 1.3-3.1 2.8 0 1.2.5 2.8.5 4 0 .4-.1.7-.3.9l.2.2 1-.7c.5-.4.8-.8.7-1.6 0-1-.5-2.4-.5-3.5 0-1 .4-1.7 1.2-1.7.6 0 1 .6 1.1.9 0 .2 0 .2-.1.3l-.4.3v.4l2-1.2zm.9 9.1l-1.4-.9c-.2-.1-.4-.3-.4-.7v-3.4l-.1.1h-.1v3.4c0 .3.2.6.4.7l1.4 1 .2-.2zm-6.1-3.4c0-.6-.1-1.3-.2-2s-.2-1.4-.2-2c0-.4.1-.8.2-1.1-.3.4-.4.9-.5 1.4 0 1.2.5 2.8.5 4v.5c.1-.2.2-.5.2-.8zm3.9 2.1l-.2-.3-.4.3c-.3-.4-.9-.9-2.1-.9-1.3 0-2.9 1-3.7 1.9l.1.2c1-.7 2-1 3-1 .7 0 1.4.4 1.6.9l1.7-1.1zm-2 1.3c-.2-.4-.7-.7-1.3-.7H66c.6.1 1.1.4 1.3.8l.2-.1zm5-5.1l-.5-.5v.4l.3.3.2-.2z"/><path id="XMLID_22_" class="st2" d="M86 51.9l-1.1-.7.2-.1 1.1.6-.2.2zm.3 8.1l-.5-.3c-.3-.2-.5-.6-.5-1v-4.8c0-.7.1-1.1.4-1.4-.1.3-.2.7-.2 1.1v4.9c0 .5.2.9.5 1.1l.5.3-.2.1zm2-9c-.6.3-.7.8-.7 1.5V58c0 .3 0 .5.2.6l.2.1.5-.3.2.3-1.8 1.1-.6-.4c-.3-.2-.4-.4-.4-.9v-4.9c0-.9.3-1.4.7-1.7l.2-.2-1.7-1-.8.5v7.1c0 .6-.1.7-.6 1l-1 .5h-.1v-7.9c0-.4 0-.5-.3-.6l-.6-.5-.7.3v4.1c0 .7-.1 1.2-.7 1.6l-1.4.9-.1-.2c.4-.3.5-.8.5-1.4v-4.2c0-.6-.1-.9-.7-.7-.2 0-.6.1-.8.1-.9.1-1.3-.5-.7-1.4 0 0 .2-.2.6-.7l.3.2-.2.3c-.3.4-.1.7.4.5.2-.1.7-.3 1-.4 1.4-.5 1.9.3 1.9.9l1.7-1 1.5 1.1 1.8-1.1 1.4.8c.5.3.7.2 1 0l.3-.1.2.4-.7.2zm-6 8.9s-.1.1 0 0h-.2V52c0-.4 0-.4-.3-.6l-.3-.3.2-.1c.2.1.4.3.4.4.1.1.1.2.1.4v8.1h.1zm-5.8-9.7c-.1.3-.1.6 0 .9.1.2.4.4.6.5-.8 0-1.1-.6-.6-1.4zm2.2 6.9c.1-.2.1-.5.1-.8v-4.1c0-.5 0-.6-.2-.7.2 0 .4 0 .4.4V56c0 .5-.1.8-.3 1.1zm.8 2.6c-.1-.4-.6-.8-1.3-.8-.7 0-1.7.3-2.5.9l-.2-.2c.6-.7 2-1.7 3.5-1.7.8 0 1.3.3 1.7.7l.6-.4.2.4-2 1.1zm-.5.3c-.1-.4-.5-.7-1.1-.8h.3c.7 0 1 .5 1 .6l-.2.2z"/><path id="XMLID_14_" class="st2" d="M92.7 58.6l-1.3-.7c-.2-.1-.2-.2-.2-.5v-3.7h.1l1.1.7c.2.1.3.2.3.5v3.7zm9.2.2l-.1-.3-.5.3-.2-.1c-.2-.1-.2-.3-.2-.6V54c0-.3-.1-.5-.3-.6l-1.1-.8-1.7 1-.9-1-1.8 1.1.2.3.6-.4.4.5v5.7h.1c.7-.3.9-.4.9-.4.3-.1.4-.3.4-.7V54l.6-.3.7.5c.2.2.2.3.2.5v3.9c0 .4.1.7.4.8l.6.4 1.7-1zm-1.9 1.1l-.4-.3c-.4-.2-.6-.6-.6-1.1v-3.9c0-.2 0-.2-.1-.3 0 0-.3-.2-.5-.4l-.2.1.4.3c.2.2.2.2.2.5v3.7c0 .5.2.9.5 1l.5.3.2.1zm-4 0v-5.8l-.2-.2-.2.1.2.2V60l.2-.1c0 .1 0 0 0 0zM94.9 58l-.1-.3-.5.3v-3.9c0-.2-.1-.4-.3-.5l-1.8-1.1-3 1.7v.4l.6-.4V58c0 .3.1.5.3.6l1.8 1.1 3-1.7zm-3.4 1.9l-1.6-1c-.3-.2-.5-.4-.5-.9v-3.2l-.1.1h-.1v3.3c0 .4.2.7.5.8l1.6 1 .2-.1zm.9-1.8v-3.2c0-.2-.1-.2-.2-.3l-.7-.4v.2l.4.2c.3.2.3.2.3.5V58l.2.1z"/><path id="XMLID_3_" class="st2" d="M111.8 54.9l-1.3.8v-2.1l.1-.1 1.2 1.4zm1.6-.3l-1.9-2.1-3 1.7v.4l.6-.3v3.9c0 .2.1.4.2.5l1.6 1 2.2-1.3-.2-.4-1.2.6-1.1-.7c-.1-.1-.2-.2-.2-.4v-1.3l3-1.6zm-8-2.4c0-.4-.2-.9-.6-1.1-.1-.1-.3-.2-.3-.2l-.2.1.1.1c.5.3.8.6.8 1.2l.2-.1zm5.2 7.7l-1.4-.9c-.2-.1-.4-.3-.4-.7v-3.4l-.1.1h-.1v3.3c0 .4.1.6.4.8l1.4.9.2-.1zm-2.8-1.9l-.1-.3-.5.3v-6c0-.9-.4-1.5-1.1-1.9l-.6-.4-2 1.2.4.2.7-.4.4.2c.5.3.8.8.8 1.3v.2l-3.4 2v.4l.6-.3v3.6c0 .3.1.4.3.6l1.7 1.1 2.8-1.8zm-3.3 1.9l-1.5-1c-.4-.2-.4-.4-.4-.9v-3.1l-.1.1h-.1v3c0 .5.2.7.4.9l1.6 1h.1zm1.2-1.3l-1.1-.6c-.2-.1-.3-.2-.3-.5v-3.6l1.3-.8.1.1v5.4zm5.7-3.8l-.5-.6v.4l.3.3.2-.1zm-6 3.3v-4.5l-.2.1V58l.2.1z"/></g></g><g><g id="XMLID_11_"><path class="st0" d="M51.9 21l-5.2-3 5.2-3zM51.9 27l-5.2-3 5.2-3zM51.9 33l-5.2-3 5.2-3zM51.9 38.9L46.7 36l5.2-3zM51.9 44.9l-5.2-3 5.2-3z"/><path class="st0" d="M51.9 45l-5.2 2.9v-6l5.2 3zM46.7 36l5.2 2.9-5.2 3v-6z"/><path class="st0" d="M46.7 35.9V30l5.2 3-5.2 3zM46.7 24l5.2 3-5.2 3v-6zM51.9 21l-5.2 3v-6l5.2 3zM51.9 15l-5.2 3v-6z"/><path class="st0" d="M41.5 15l5.2-3v6zM41.5 21l5.2-3v6zM41.5 27l5.2-3v6zM41.5 33l5.2-3v6zM41.5 38.9l5.2-2.9v5.9zM41.5 44.9l5.2-2.9v5.9z"/><path class="st0" d="M46.7 47.9l-5.2 3v-6zM41.5 38.9l5.2 3v.1l-5.2 2.9zM46.7 36l-5.2 2.9V33zM41.5 27l5.2 3-5.2 3zM46.7 24l-5.2 3v-6zM41.5 15l5.2 3-5.2 3zM41.5 15V9l5.2 3zM41.5 15l-5.2-3 5.2-3zM41.5 21l-5.2-3 5.2-3zM41.5 27l-5.2-3 5.2-3z"/><path class="st3" d="M41.5 33l-5.2-3 5.2-3zM41.5 38.9L36.3 36l5.2-3z"/><path class="st0" d="M41.5 44.9l-5.2-3 5.2-3zM41.5 50.9l-5.2-3 5.2-2.9z"/><path class="st0" d="M36.3 47.9l5.2 3-5.2 3zM36.3 47.9v-6l5.2 3v.1l-5.2 2.9z"/><path class="st3" d="M36.3 36l5.2 2.9-5.2 3v-6z"/><path class="st3" d="M36.3 35.9V30l5.2 3-5.2 3z"/><path class="st4" d="M36.3 24l5.2 3-5.2 3v-6z"/><path class="st0" d="M41.5 21l-5.2 3v-6l5.2 3zM36.3 12l5.2 3-5.2 3v-6zM41.5 9l-5.2 3V6l5.2 3z"/><path class="st0" d="M31.1 9l5.2-3v6zM36.3 18l-5.2-3 5.2-3z"/><path class="st3" d="M31.1 21l5.2-3v6z"/><path class="st4" d="M36.3 30l-5.2-3 5.2-3z"/><path class="st3" d="M31.1 33l5.2-3v6zM36.3 41.9l-5.2-3 5.2-2.9z"/><path class="st0" d="M36.3 42v5.9l-5.2-3zM36.3 53.9l-5.2-3 5.2-3z"/><path class="st5" d="M31.1 9z"/><path class="st0" d="M31.1 50.9l5.2 3-5.2 3zM36.3 47.9l-5.2 3v-6z"/><path class="st3" d="M31.1 38.9l5.2 3v.1l-5.2 2.9zM36.3 36l-5.2 2.9V33z"/><path class="st4" d="M31.1 33v-6l5.2 3-5.2 3z"/><path class="st3" d="M31.1 21l5.2 3-5.2 3z"/><path class="st4" d="M31.1 21v-6l5.2 3-5.2 3z"/><path class="st0" d="M31.1 15V9l5.2 3zM31.1 9V3l5.2 3-5.2 3zM31.1 9l-5.2-3 5.2-3zM26 12l5.1-3v6z"/><path class="st4" d="M31.1 21l-5.2-3 5.2-3z"/><path class="st3" d="M31.1 27L26 24l5.1-3z"/><path class="st4" d="M31.1 33l-5.2-3 5.2-3z"/><path class="st3" d="M31.1 38.9L26 36l5.1-3zM31.1 44.9l-5.2-3 5.2-3z"/><path class="st0" d="M31.1 50.9l-5.1-3 5.1-2.9zM31.1 56.9l-5.2-3 5.2-3zM25.9 59.9v-6l5.2 3-5.1 3z"/><path class="st0" d="M26 47.9l5.1 3-5.2 3v-6zM25.9 42v-.1l5.2 3v.1L26 47.9h-.1z"/><path class="st3" d="M26 36l5.1 2.9-5.2 3v-6z"/><path class="st3" d="M25.9 35.9V30l5.2 3-5.1 3zM25.9 24h.1l5.1 3-5.2 3zM31.1 21L26 24h-.1v-6l5.2 3z"/><path class="st4" d="M31.1 15l-5.2 3v-6h.1z"/><path class="st0" d="M25.9 6l5.2 3-5.1 3h-.1zM31.1 3l-5.2 3V0h.1zM25.9 6l-5.1-3 5.1-3zM25.9 12l-5.1-3 5.1-3z"/><path class="st4" d="M25.9 18l-5.1-3 5.1-3z"/><path class="st3" d="M25.9 24l-5.1-3 5.1-3zM25.9 30l-5.1-3 5.1-3zM25.9 36l-5.1-3 5.1-3v5.9zM25.9 41.9l-5.1-3 5.1-2.9z"/><path class="st0" d="M25.9 47.9l-5.1-3 5.1-2.9zM25.9 53.9l-5.1-3 5.1-3zM25.9 59.9l-5.1-3 5.1-3z"/><path class="st6" d="M20.8 44.9v.1-.1z"/><path class="st0" d="M20.8 50.9l5.1 3-5.1 3zM20.8 45v-.1l5.1 3-5.1 3z"/><path class="st3" d="M20.8 38.9l5.1 3v.1l-5.1 2.9zM25.9 36l-5.1 2.9V33zM20.8 27l5.1 3-5.1 3zM20.8 21l5.1 3-5.1 3v-6zM20.8 15l5.1 3-5.1 3z"/><path class="st0" d="M25.9 12l-5.1 3V9zM20.8 9V3l5.1 3-5.1 3z"/><path class="st0" d="M20.8 9l-5.2-3 5.2-3zM20.8 15l-5.2-3 5.2-3zM20.8 21l-5.2-3 5.2-3z"/><path class="st3" d="M20.8 27l-5.2-3 5.2-3zM20.8 33l-5.2-3 5.2-3zM20.8 38.9L15.6 36l5.2-3zM20.8 44.9l-5.2-3 5.2-3z"/><path class="st0" d="M20.8 50.9l-5.2-3 5.2-2.9zM20.8 56.9l-5.2-3 5.2-3z"/><path class="st0" d="M15.6 47.9l5.2 3-5.2 3zM15.6 42v-.1l5.2 3v.1l-5.2 2.9z"/><path class="st3" d="M15.6 36l5.2 2.9-5.2 3v-6z"/><path class="st3" d="M15.6 30l5.2 3-5.2 3v-6zM15.6 24l5.2 3-5.2 3v-6z"/><path class="st4" d="M15.6 18l5.2 3-5.2 3v-6z"/><path class="st0" d="M15.6 12l5.2 3-5.2 3zM15.6 12V6l5.2 3-5.2 3zM15.6 6v6l-5.2-3zM15.6 18l-5.2-3 5.2-3z"/><path class="st4" d="M15.6 18v6l-5.2-3z"/><path class="st3" d="M15.6 30l-5.2-3 5.2-3zM15.6 36l-5.2-3 5.2-3v5.9zM15.6 41.9l-5.2-3 5.2-2.9z"/><path class="st0" d="M15.6 47.9l-5.2-3 5.2-2.9zM15.6 53.9l-5.2-3 5.2-3z"/><path class="st0" d="M15.6 47.9l-5.2 3v-6zM10.4 38.9l5.2 3v.1l-5.2 2.9z"/><path class="st3" d="M10.4 33l5.2 3-5.2 2.9V33zM15.6 30l-5.2 3v-6l5.2 3zM10.4 21l5.2 3-5.2 3v-6z"/><path class="st0" d="M10.4 21v-6l5.2 3-5.2 3zM10.4 15V9l5.2 3zM10.4 15l-5.2-3 5.2-3zM10.4 21l-5.2-3 5.2-3zM5.2 24l5.2-3v6zM10.4 33l-5.2-3 5.2-3zM5.2 36l5.2-3v5.9zM5.2 41.9l5.2-3v6zM10.4 45v5.9l-5.2-3z"/><path class="st0" d="M5.2 41.9l5.2 3v.1l-5.2 2.9V42zM5.2 36l5.2 2.9-5.2 3v-6z"/><path class="st0" d="M5.2 35.9V30l5.2 3-5.2 3zM10.4 27l-5.2 3v-6zM5.2 24v-6l5.2 3-5.2 3zM10.4 15l-5.2 3v-6zM5.2 18L0 15l5.2-3zM5.2 18v6L0 21zM5.2 30L0 27l5.2-3zM5.2 36L0 33l5.2-3v5.9zM5.2 41.9l-5.2-3L5.2 36zM5.2 47.9l-5.2-3L5.2 42z"/><path class="st0" d="M5.2 42L0 44.9v-6l5.2 3zM0 33l5.2 3L0 38.9V33zM5.2 30L0 33v-6l5.2 3zM5.2 24L0 27v-6zM0 21v-6l5.2 3L0 21z"/></g><path class="st0" d="M20.2 14h1v32.1h-1z"/><defs><path id="SVGID_1_" d="M31.1 21l-5.2-3v12l5.2-3 5.2-3v-6z"/></defs><clipPath id="SVGID_2_"><use xlink:href="#SVGID_1_" overflow="visible"/></clipPath><path class="st7 st0" d="M30.7 19.7h1v7.9h-1z"/><g><defs><path id="SVGID_3_" d="M31.1 33l-5.2-3-5.1 3v11.9l5.1-3 5.2 3 5.2-3V30z"/></defs><clipPath id="SVGID_4_"><use xlink:href="#SVGID_3_" overflow="visible"/></clipPath><g class="st8"><path class="st0" d="M25.5 29.3h1v16.8h-1zM30.7 32h1v13.1h-1z"/></g></g><g><g id="XMLID_1_"><path class="st0" d="M51.9 21l-5.2-3 5.2-3zM51.9 27l-5.2-3 5.2-3zM51.9 33l-5.2-3 5.2-3zM51.9 38.9L46.7 36l5.2-3zM51.9 44.9l-5.2-3 5.2-3z"/><path class="st0" d="M46.7 41.9l5.2 3v.1l-5.2 2.9V42zM46.7 36l5.2 2.9-5.2 3v-6z"/><path class="st0" d="M46.7 30l5.2 3-5.2 3v-6zM46.7 24l5.2 3-5.2 3v-6zM46.7 18l5.2 3-5.2 3v-6zM46.7 12l5.2 3-5.2 3v-6zM46.7 18l-5.2-3 5.2-3zM41.5 21l5.2-3v6zM41.5 27l5.2-3v6zM41.5 33l5.2-3v6zM41.5 38.9l5.2-2.9v5.9zM41.5 44.9l5.2-2.9v5.9z"/><path class="st0" d="M46.7 47.9l-5.2 3v-6zM41.5 38.9l5.2 3v.1l-5.2 2.9zM46.7 36l-5.2 2.9V33zM41.5 27l5.2 3-5.2 3zM41.5 27v-6l5.2 3zM41.5 21v-6l5.2 3-5.2 3zM41.5 15V9l5.2 3zM41.5 15l-5.2-3 5.2-3zM41.5 21l-5.2-3 5.2-3zM41.5 27l-5.2-3 5.2-3z"/><path class="st3" d="M41.5 33l-5.2-3 5.2-3zM41.5 38.9L36.3 36l5.2-3z"/><path class="st0" d="M41.5 44.9l-5.2-3 5.2-3zM41.5 50.9l-5.2-3 5.2-2.9z"/><path class="st0" d="M36.3 47.9l5.2 3-5.2 3zM36.3 42v-.1l5.2 3v.1l-5.2 2.9z"/><path class="st3" d="M36.3 36l5.2 2.9-5.2 3v-6z"/><path class="st3" d="M36.3 30l5.2 3-5.2 3v-6z"/><path class="st4" d="M36.3 24l5.2 3-5.2 3z"/><path class="st0" d="M36.3 18l5.2 3-5.2 3v-6zM36.3 12l5.2 3-5.2 3v-6zM41.5 9l-5.2 3V6l5.2 3z"/><path class="st0" d="M31.1 9l5.2-3v6zM36.3 18l-5.2-3 5.2-3z"/><path class="st3" d="M31.1 21l5.2-3v6z"/><path class="st4" d="M36.3 30l-5.2-3 5.2-3z"/><path class="st3" d="M36.3 36l-5.2-3 5.2-3v5.9zM36.3 41.9l-5.2-3 5.2-2.9z"/><path class="st0" d="M36.3 47.9l-5.2-3 5.2-2.9zM36.3 53.9l-5.2-3 5.2-3z"/><path class="st5" d="M31.1 9z"/><path class="st0" d="M31.1 50.9l5.2 3-5.2 3zM36.3 47.9l-5.2 3v-6z"/><path class="st3" d="M31.1 38.9l5.2 3v.1l-5.2 2.9zM36.3 36l-5.2 2.9V33z"/><path class="st4" d="M31.1 33v-6l5.2 3-5.2 3z"/><path class="st3" d="M31.1 21l5.2 3-5.2 3z"/><path class="st4" d="M31.1 21v-6l5.2 3-5.2 3z"/><path class="st0" d="M36.3 12l-5.2 3V9zM31.1 9V3l5.2 3-5.2 3zM31.1 9l-5.2-3 5.2-3z"/><path class="st0" d="M31.1 15L26 12l5.1-3z"/><path class="st4" d="M31.1 21l-5.2-3 5.2-3z"/><path class="st3" d="M31.1 27L26 24l5.1-3z"/><path class="st4" d="M31.1 33l-5.2-3 5.2-3z"/><path class="st3" d="M31.1 38.9L26 36l5.1-3zM31.1 44.9l-5.2-3 5.2-3z"/><path class="st0" d="M31.1 50.9l-5.1-3 5.1-2.9zM31.1 56.9l-5.2-3 5.2-3zM25.9 59.9v-6l5.2 3-5.1 3z"/><path class="st0" d="M26 47.9l5.1 3-5.2 3v-6zM25.9 42v-.1l5.2 3v.1L26 47.9h-.1z"/><path class="st3" d="M26 36l5.1 2.9-5.2 3v-6z"/><path class="st3" d="M31.1 33L26 36l-.1-.1V30l5.2 3zM25.9 24h.1l5.1 3-5.2 3zM31.1 21L26 24h-.1v-6l5.2 3z"/><path class="st4" d="M25.9 12h.1l5.1 3-5.2 3z"/><path class="st0" d="M25.9 12V6l5.2 3-5.1 3zM25.9 6V0h.1l5.1 3zM25.9 6l-5.1-3 5.1-3zM25.9 12l-5.1-3 5.1-3z"/><path class="st4" d="M25.9 18l-5.1-3 5.1-3z"/><path class="st3" d="M25.9 24l-5.1-3 5.1-3zM25.9 30l-5.1-3 5.1-3zM25.9 36l-5.1-3 5.1-3v5.9zM25.9 41.9l-5.1-3 5.1-2.9z"/><path class="st0" d="M25.9 47.9l-5.1-3 5.1-2.9zM25.9 53.9l-5.1-3 5.1-3zM25.9 59.9l-5.1-3 5.1-3z"/><path class="st6" d="M20.8 44.9v.1-.1z"/><path class="st0" d="M20.8 50.9l5.1 3-5.1 3zM20.8 45v-.1l5.1 3-5.1 3z"/><path class="st3" d="M20.8 38.9l5.1 3v.1l-5.1 2.9zM25.9 36l-5.1 2.9V33zM20.8 27l5.1 3-5.1 3zM20.8 21l5.1 3-5.1 3v-6zM20.8 21v-6l5.1 3-5.1 3z"/><path class="st0" d="M20.8 15V9l5.1 3zM20.8 9V3l5.1 3-5.1 3z"/><path class="st0" d="M20.8 9l-5.2-3 5.2-3zM20.8 15l-5.2-3 5.2-3zM15.6 18l5.2-3v6z"/><path class="st3" d="M20.8 27l-5.2-3 5.2-3zM15.6 30l5.2-3v6zM20.8 38.9L15.6 36l5.2-3zM20.8 44.9l-5.2-3 5.2-3z"/><path class="st0" d="M20.8 50.9l-5.2-3 5.2-2.9zM20.8 56.9l-5.2-3 5.2-3z"/><path class="st0" d="M15.6 47.9l5.2 3-5.2 3zM15.6 42v-.1l5.2 3v.1l-5.2 2.9z"/><path class="st3" d="M15.6 36l5.2 2.9-5.2 3v-6z"/><path class="st3" d="M15.6 30l5.2 3-5.2 3v-6zM15.6 24l5.2 3-5.2 3v-6z"/><path class="st4" d="M15.6 24v-6l5.2 3-5.2 3z"/><path class="st0" d="M15.6 18v-6l5.2 3zM15.6 12V6l5.2 3-5.2 3zM15.6 12l-5.2-3 5.2-3zM15.6 18l-5.2-3 5.2-3z"/><path class="st4" d="M15.6 24l-5.2-3 5.2-3z"/><path class="st3" d="M15.6 30l-5.2-3 5.2-3zM15.6 36l-5.2-3 5.2-3v5.9zM15.6 41.9l-5.2-3 5.2-2.9z"/><path class="st0" d="M15.6 47.9l-5.2-3 5.2-2.9zM15.6 53.9l-5.2-3 5.2-3z"/><path class="st0" d="M15.6 47.9l-5.2 3v-6zM10.4 44.9v-6l5.2 3v.1l-5.2 2.9z"/><path class="st3" d="M10.4 33l5.2 3-5.2 2.9V33zM10.4 27l5.2 3-5.2 3zM10.4 21l5.2 3-5.2 3v-6z"/><path class="st0" d="M15.6 18l-5.2 3v-6l5.2 3zM10.4 15V9l5.2 3zM10.4 15l-5.2-3 5.2-3z"/><path class="st0" d="M10.4 21l-5.2-3 5.2-3zM5.2 24l5.2-3v6zM10.4 33l-5.2-3 5.2-3zM5.2 36l5.2-3v5.9zM10.4 44.9l-5.2-3 5.2-3zM10.4 45v5.9l-5.2-3z"/><path class="st0" d="M5.2 41.9l5.2 3v.1l-5.2 2.9V42zM5.2 36v-.1.1l5.2 2.9-5.2 3z"/><path class="st0" d="M5.2 35.9V30l5.2 3-5.2 3zM10.4 27l-5.2 3v-6zM5.2 24v-6l5.2 3-5.2 3zM10.4 15l-5.2 3v-6zM5.2 18L0 15l5.2-3zM5.2 24L0 21l5.2-3zM5.2 30L0 27l5.2-3zM5.2 36L0 33l5.2-3v5.9zM5.2 41.9l-5.2-3L5.2 36zM5.2 47.9l-5.2-3L5.2 42z"/><path class="st0" d="M0 38.9l5.2 3v.1L0 44.9zM0 33l5.2 3L0 38.9V33zM0 27l5.2 3L0 33zM0 21l5.2 3L0 27v-6zM0 15l5.2 3L0 21z"/></g><path class="st0" d="M20.2 14h1v32.1h-1z"/><defs><path id="SVGID_5_" d="M31.1 21l-5.2-3v12l5.2-3 5.2-3v-6z"/></defs><clipPath id="SVGID_6_"><use xlink:href="#SVGID_5_" overflow="visible"/></clipPath><path class="st9 st0" d="M30.7 19.7h1v7.9h-1z"/><g><defs><path id="SVGID_7_" d="M31.1 33l-5.2-3-5.1 3v11.9l5.1-3 5.2 3 5.2-3V30z"/></defs><clipPath id="SVGID_8_"><use xlink:href="#SVGID_7_" overflow="visible"/></clipPath><g class="st10"><path class="st0" d="M25.5 29.3h1v16.8h-1zM30.7 32h1v13.1h-1z"/></g></g></g></g></svg>