<?xml version="1.0" encoding="utf-8"?>
<!-- Generator: Adobe Illustrator 17.0.0, SVG Export Plug-In . SVG Version: 6.00 Build 0)  -->
<!DOCTYPE svg PUBLIC "-//W3C//DTD SVG 1.1//EN" "http://www.w3.org/Graphics/SVG/1.1/DTD/svg11.dtd">
<svg version="1.1" id="Calque_1" xmlns="http://www.w3.org/2000/svg" xmlns:xlink="http://www.w3.org/1999/xlink" x="0px" y="0px"
	 width="431.667px" height="78px" viewBox="0 0 431.667 78" enable-background="new 0 0 431.667 78" xml:space="preserve">
<path fill="#0574C5" d="M67.426,25.011c-2.252,1.325-3.001,3.114-3.001,5.881v22.072c0,1.387,0.174,2.017,0.923,2.423l0.75,0.405
	l2.073-1.215l0.694,1.387l-7.206,4.324l-2.477-1.674c-1.098-0.749-1.561-1.671-1.561-3.459v-19.71c0-3.687,1.157-5.649,2.77-6.857
	l0.923-0.691l-6.801-3.979l-3.054,1.843v28.704c0,2.42-0.345,2.767-2.481,3.861c0,0-1.669,0.808-3.97,2.018h-0.462V28.529
	c0-1.555-0.176-1.903-1.04-2.594l-2.418-1.959l-2.941,1.669v16.486c0,2.88-0.46,4.955-2.766,6.394l-5.762,3.632l-0.58-0.978
	c1.789-1.386,2.191-3.347,2.191-5.652V28.701c0-2.479-0.342-3.458-2.939-2.996c-0.979,0.17-2.478,0.403-3.4,0.517
	c-3.805,0.52-5.42-2.19-2.826-5.589c0,0,0.636-0.865,2.248-2.942l1.271,0.867l-0.925,1.325c-1.209,1.732-0.23,2.653,1.731,1.959
	c0.921-0.346,2.707-1.035,3.975-1.557c5.473-2.131,7.492,1.385,7.78,3.46l6.803-4.092l5.873,4.494l7.261-4.494l5.592,3.171
	c1.901,1.092,2.824,0.632,4.15-0.061l1.095-0.575l0.863,1.442L67.426,25.011z M31.866,60.343c-0.576-1.616-2.246-3.286-5.245-3.401
	c-2.826-0.058-6.86,1.039-10.2,3.575l-0.636-0.808c2.422-2.653,8.07-6.916,14.005-6.975c3.114,0,5.304,1.039,6.86,2.71l2.595-1.442
	l0.75,1.5L31.866,60.343z"/>
<path fill="#0574C5" d="M81.067,20.504h12.983v4.716h-7.578v11.447h5.193v4.452h-5.193v13.99h7.949v4.61H81.067V20.504z"/>
<path fill="#0574C5" d="M97.285,48.379V20.504h5.352v27.345c0,5.3,0.318,7.685,2.915,7.685s2.967-2.279,2.967-7.578V20.504h5.087
	V48.22c0,7.473-1.696,11.871-8.214,11.871S97.285,55.692,97.285,48.379z"/>
<path fill="#0574C5" d="M117.955,20.504h7.26c5.194,0,8.903,3.18,8.903,11.871c0,5.723-1.484,9.115-4.081,10.493l4.451,16.853
	h-5.299l-3.921-15.263h-2.067V59.72h-5.246V20.504z M125.162,40.271c2.543,0,3.604-1.961,3.604-7.79c0-5.511-1.007-7.26-3.657-7.26
	h-1.908v15.05H125.162z"/>
<path fill="#0574C5" d="M136.77,40.111c0-14.52,3.021-19.979,9.168-19.979c6.042,0,9.115,5.458,9.115,19.979
	c0,14.521-3.073,19.979-9.115,19.979C139.791,60.091,136.77,54.632,136.77,40.111z M149.541,40.111
	c0-10.599-0.636-14.997-3.604-14.997s-3.657,4.398-3.657,14.997c0,10.6,0.689,15.156,3.657,15.156S149.541,50.711,149.541,40.111z"
	/>
<path fill="#0574C5" d="M158.605,20.504h7.207c4.664,0,8.956,2.279,8.956,11.977c0,11.022-4.664,12.507-9.168,12.507h-1.696V59.72
	h-5.299V20.504z M165.707,40.43c2.438,0,3.815-1.537,3.815-7.843c0-5.882-1.325-7.366-3.869-7.366h-1.749V40.43H165.707z"/>
<path fill="#0574C5" d="M177.792,20.504h12.983v4.716h-7.578v11.447h5.193v4.452h-5.193v13.99h7.949v4.61h-13.354V20.504z
	 M184.521,10.011h4.981l-4.027,8.002h-3.709L184.521,10.011z"/>
<path fill="#0574C5" d="M194.115,20.504h12.983v4.716h-7.578v11.447h5.193v4.452h-5.193v13.99h7.949v4.61h-13.354V20.504z"/>
<path fill="#0574C5" d="M210.438,20.504h5.193l4.346,16.799c0.688,2.862,1.483,6.095,2.066,9.434h0.054
	c-0.159-3.286-0.266-7.95-0.266-9.698V20.504h4.664V59.72h-4.452l-4.875-18.019c-0.795-2.703-1.696-5.617-2.226-8.903h-0.106
	c0.212,2.067,0.265,7.95,0.265,9.274V59.72h-4.663V20.504z"/>
<path fill="#0574C5" d="M230.949,20.504h5.193l4.346,16.799c0.689,2.862,1.484,6.095,2.067,9.434h0.053
	c-0.159-3.286-0.266-7.95-0.266-9.698V20.504h4.664V59.72h-4.451l-4.876-18.019c-0.795-2.703-1.696-5.617-2.226-8.903h-0.106
	c0.212,2.067,0.265,7.95,0.265,9.274V59.72h-4.663V20.504z"/>
<path fill="#0574C5" d="M251.459,20.504h12.983v4.716h-7.578v11.447h5.193v4.452h-5.193v13.99h7.949v4.61h-13.354V20.504z"/>
<path fill="#0574C5" d="M266.137,48.538l4.981-0.478c0.583,5.564,1.483,7.473,3.763,7.473c1.961,0,3.073-1.378,3.073-4.293
	c0-3.709-2.49-6.253-5.141-9.433c-2.914-3.498-6.041-6.942-6.041-12.613c0-5.617,2.809-9.062,7.737-9.062
	c5.829,0,7.631,3.921,8.32,10.652l-5.035,0.583c-0.529-5.458-1.431-6.519-3.285-6.519c-1.643,0-2.438,1.431-2.438,3.869
	c0,4.187,2.438,6.677,5.034,9.698c2.968,3.445,6.147,6.677,6.147,12.56c0,5.988-3.18,9.115-8.426,9.115
	C268.257,60.091,266.825,55.48,266.137,48.538z"/>
<path fill="#0574C5" d="M297.823,31.763c0.521-4.64,4.015-7.769,8.551-7.769c5.058,0,8.394,3.285,8.394,8.394
	c0,2.763-0.73,4.953-3.702,9.333l-8.186,12.305h16.111v-4.327h-7.873l3.702-5.527c3.597-5.37,4.588-8.446,4.588-11.888
	c0-7.508-4.797-12.618-13.035-12.618c-7.143,0-12.044,4.64-12.93,11.471L297.823,31.763z"/>
<path fill="#0574C5" d="M326.291,39.897c0-8.916,6.882-15.902,15.433-15.902c8.499,0,15.538,6.987,15.538,15.902
	c0,9.437-6.778,16.059-15.538,16.059C332.913,55.956,326.291,49.334,326.291,39.897z M321.651,39.897
	c0,11.992,8.655,20.439,20.073,20.439c11.366,0,20.178-8.447,20.178-20.439c0-11.471-9.072-20.23-20.178-20.23
	C330.567,19.667,321.651,28.427,321.651,39.897z"/>
<polygon fill="#0574C5" points="371.913,59.554 376.449,59.554 376.449,19.667 362.736,24.985 362.736,29.73 371.913,26.393 "/>
<polygon fill="#0574C5" points="399.077,44.903 409.818,44.903 409.818,40.575 403.457,40.575 403.457,19.198 377.492,50.273 
	393.29,50.273 393.29,59.554 397.826,59.554 397.826,46.102 386.564,46.102 399.077,30.877 "/>
<path fill="#FCAA06" d="M318.992,59.554v-4.328h-18.457l9.698-14.547c2.763-4.119,3.285-5.892,3.285-8.29
	c0-4.328-2.92-7.195-7.143-7.195c-3.754,0-6.778,2.607-7.299,6.726l4.275,0.678c0.156-1.929,1.147-3.18,3.024-3.18
	c1.512,0,2.659,1.251,2.659,2.972c0,1.616-0.678,3.285-2.659,6.205l-13.921,20.96H318.992z"/>
<path fill="#FCAA06" d="M332.027,39.845c0-5.788,4.171-10.428,9.698-10.428c5.475,0,9.75,4.64,9.75,10.428
	c0,6.205-4.275,10.688-9.75,10.688C336.198,50.534,332.027,45.997,332.027,39.845z M327.543,39.897c0,8.707,6.1,14.86,14.182,14.86
	c8.03,0,14.234-6.152,14.234-14.86c0-8.29-6.361-14.703-14.234-14.703C333.799,25.194,327.543,31.607,327.543,39.897z"/>
<polygon fill="#FCAA06" points="366.126,59.554 370.662,59.554 370.662,28.009 366.126,29.678 "/>
<path fill="#FCAA06" d="M397.826,44.903V34.37l-8.603,10.532H397.826z M399.077,59.554h4.38v-9.281h6.361v-4.171h-10.741V59.554z"/>
</svg>
