<?xml version="1.0" encoding="utf-8"?>
<!-- Generator: Adobe Illustrator 17.0.0, SVG Export Plug-In . SVG Version: 6.00 Build 0)  -->
<!DOCTYPE svg PUBLIC "-//W3C//DTD SVG 1.1//EN" "http://www.w3.org/Graphics/SVG/1.1/DTD/svg11.dtd">
<svg version="1.1" xmlns="http://www.w3.org/2000/svg" xmlns:xlink="http://www.w3.org/1999/xlink" x="0px" y="0px" width="160px"
	 height="25px" viewBox="0 -4.5 160 25" enable-background="new 0 -4.5 160 25" xml:space="preserve">
<g id="Calque_1" display="none">
	<path display="inline" fill="#1F0D67" d="M0,0.635h3.117l1.958,13.526h0.026L7.059,0.635h3.092v19.066H7.703V9.343
		c0-1.211,0.026-2.241,0.052-3.169H7.703C7.6,7.36,7.394,8.931,7.24,9.91l-1.546,9.79h-1.52L2.628,9.91
		C2.447,8.828,2.293,7.617,2.19,6.2H2.138c0.026,0.49,0.026,2.009,0.026,3.143v10.357H0L0,0.635L0,0.635z"/>
	<path display="inline" fill="#1F0D67" d="M12.265,14.187V0.635h2.602v13.294c0,2.576,0.155,3.736,1.417,3.736
		c1.263,0,1.442-1.108,1.442-3.684V0.635H20.2V14.11c0,3.633-0.825,5.771-3.993,5.771S12.265,17.742,12.265,14.187z"/>
	<path display="inline" fill="#1F0D67" d="M22.314,0.635h2.525l2.112,8.167c0.335,1.391,0.721,2.963,1.005,4.586h0.026
		c-0.077-1.598-0.129-3.865-0.129-4.715V0.635h2.267v19.066h-2.164l-2.37-8.76C25.2,9.627,24.762,8.21,24.504,6.612h-0.052
		c0.103,1.005,0.129,3.865,0.129,4.509v8.579h-2.267V0.635z"/>
	<path display="inline" fill="#1F0D67" d="M32.414,0.635h2.628v19.066h-2.628V0.635z"/>
	<path display="inline" fill="#1F0D67" d="M36.898,10.168c0-7.214,1.469-9.713,4.354-9.713c2.757,0,3.865,1.855,3.968,6.801
		l-2.473,0.129c-0.077-3.272-0.49-4.509-1.469-4.509c-1.443,0-1.726,2.293-1.726,7.291c0,5.076,0.309,7.368,1.752,7.368
		c1.108,0,1.494-1.107,1.623-4.534l2.447,0.103c-0.155,3.813-0.902,6.776-4.096,6.776C38.314,19.881,36.898,17.381,36.898,10.168z"
		/>
	<path display="inline" fill="#1F0D67" d="M46.947,0.635h2.628v19.066h-2.628V0.635z"/>
	<path display="inline" fill="#1F0D67" d="M51.842,0.635h3.504c2.267,0,4.354,1.108,4.354,5.823c0,5.359-2.267,6.08-4.457,6.08
		h-0.824v7.163h-2.577V0.635z M55.294,10.322c1.185,0,1.855-0.747,1.855-3.813c0-2.86-0.644-3.581-1.881-3.581h-0.849v7.394H55.294z
		"/>
	<path display="inline" fill="#1F0D67" d="M62.534,0.558h2.628l3.195,19.143h-2.654l-0.721-4.998h-2.473l-0.696,4.998h-2.499
		L62.534,0.558z M64.801,12.821c-0.077-0.773-0.669-4.998-0.747-5.617c-0.103-0.773-0.18-1.442-0.257-2.37h-0.051
		c-0.077,0.953-0.155,1.598-0.258,2.37c-0.077,0.618-0.696,4.844-0.773,5.617H64.801z"/>
	<path display="inline" fill="#1F0D67" d="M69.671,0.635H72.3v16.824h3.684V19.7h-6.312L69.671,0.635L69.671,0.635z"/>
	<path display="inline" fill="#1F0D67" d="M77.273,0.635h6.312v2.293H79.9v5.565h2.525v2.164H79.9v6.801h3.865V19.7h-6.492V0.635z"
		/>
	<path display="inline" fill="#1F0D67" d="M84.409,14.264l2.422-0.232c0.283,2.705,0.721,3.633,1.829,3.633
		c0.953,0,1.494-0.67,1.494-2.087c0-1.803-1.211-3.04-2.499-4.586c-1.417-1.701-2.937-3.375-2.937-6.132
		c0-2.731,1.366-4.406,3.761-4.406c2.834,0,3.71,1.906,4.045,5.179l-2.448,0.283c-0.257-2.654-0.696-3.169-1.597-3.169
		c-0.799,0-1.185,0.696-1.185,1.881c0,2.036,1.185,3.246,2.447,4.715c1.443,1.675,2.988,3.246,2.988,6.106
		c0,2.911-1.546,4.431-4.096,4.431C85.439,19.881,84.743,17.639,84.409,14.264z"/>
	<path display="inline" fill="#D50303" d="M100.519,6.109c0.253-2.256,1.952-3.777,4.157-3.777c2.459,0,4.081,1.597,4.081,4.081
		c0,1.343-0.355,2.408-1.8,4.537l-3.98,5.982h7.833v-2.104h-3.828l1.8-2.687c1.749-2.611,2.231-4.106,2.231-5.78
		c0-3.65-2.332-6.134-6.337-6.134c-3.473,0-5.855,2.256-6.287,5.577L100.519,6.109z"/>
	<path display="inline" fill="#D50303" d="M114.359,10.063c0-4.335,3.346-7.731,7.503-7.731c4.132,0,7.554,3.397,7.554,7.731
		c0,4.588-3.295,7.807-7.554,7.807C117.578,17.871,114.359,14.652,114.359,10.063z M112.103,10.063c0,5.83,4.208,9.937,9.759,9.937
		c5.526,0,9.81-4.107,9.81-9.937c0-5.577-4.411-9.835-9.81-9.835C116.437,0.228,112.103,4.487,112.103,10.063z"/>
	<polygon display="inline" fill="#D50303" points="136.538,19.62 138.744,19.62 138.744,0.228 132.077,2.814 132.077,5.12 
		136.538,3.498 	"/>
	<polygon display="inline" fill="#D50303" points="149.745,12.497 154.967,12.497 154.967,10.393 151.875,10.393 151.875,0 
		139.251,15.108 146.931,15.108 146.931,19.62 149.137,19.62 149.137,13.08 143.662,13.08 149.745,5.678 	"/>
	<path display="inline" fill="#1F0D67" d="M110.81,19.62v-2.104h-8.973l4.715-7.072c1.343-2.003,1.597-2.865,1.597-4.03
		c0-2.104-1.42-3.498-3.473-3.498c-1.825,0-3.295,1.267-3.549,3.27l2.078,0.33c0.076-0.938,0.558-1.547,1.47-1.547
		c0.735,0,1.293,0.608,1.293,1.445c0,0.786-0.33,1.597-1.293,3.017l-6.768,10.19H110.81z"/>
	<path display="inline" fill="#1F0D67" d="M117.147,10.038c0-2.813,2.028-5.07,4.715-5.07c2.662,0,4.74,2.256,4.74,5.07
		c0,3.017-2.078,5.196-4.74,5.196C119.175,15.235,117.147,13.029,117.147,10.038z M114.967,10.063c0,4.233,2.966,7.224,6.895,7.224
		c3.904,0,6.92-2.991,6.92-7.224c0-4.03-3.093-7.148-6.92-7.148C118.009,2.915,114.967,6.033,114.967,10.063z"/>
	<polygon display="inline" fill="#1F0D67" points="133.725,19.62 135.93,19.62 135.93,4.284 133.725,5.095 	"/>
	<path display="inline" fill="#1F0D67" d="M149.137,12.497v-5.12l-4.182,5.12H149.137z M149.745,19.62h2.129v-4.512h3.093V13.08
		h-5.222V19.62z"/>
</g>
<g id="Calque_2">
	<g>
		<g>
			<path fill="#0574C5" d="M0,1.262h6.304v2.29H2.624v5.557h2.521v2.161H2.624v6.793h3.859v2.238H0V1.262z"/>
			<path fill="#0574C5" d="M7.87,14.795V1.262h2.599v13.276c0,2.572,0.154,3.73,1.415,3.73c1.26,0,1.44-1.106,1.44-3.678V1.262h2.47
				v13.456c0,3.628-0.823,5.763-3.988,5.763C8.643,20.482,7.87,18.346,7.87,14.795z"/>
			<path fill="#0574C5" d="M17.903,1.262h3.525c2.521,0,4.323,1.543,4.323,5.763c0,2.779-0.721,4.425-1.981,5.094l2.161,8.182
				h-2.572l-1.904-7.41H20.45v7.41h-2.547V1.262z M21.402,10.858c1.235,0,1.75-0.952,1.75-3.782c0-2.675-0.489-3.524-1.775-3.524
				H20.45v7.306H21.402z"/>
			<path fill="#0574C5" d="M27.034,10.782c0-7.05,1.466-9.7,4.451-9.7c2.933,0,4.425,2.65,4.425,9.7c0,7.05-1.492,9.7-4.425,9.7
				C28.501,20.482,27.034,17.831,27.034,10.782z M33.235,10.782c0-5.146-0.309-7.282-1.749-7.282c-1.441,0-1.776,2.136-1.776,7.282
				c0,5.146,0.335,7.358,1.776,7.358C32.926,18.14,33.235,15.928,33.235,10.782z"/>
			<path fill="#0574C5" d="M37.633,1.262h3.499c2.265,0,4.348,1.106,4.348,5.814c0,5.352-2.264,6.072-4.451,6.072h-0.823v7.153
				h-2.573V1.262z M41.08,10.936c1.184,0,1.852-0.747,1.852-3.808c0-2.856-0.643-3.576-1.878-3.576h-0.849v7.384H41.08z"/>
			<path fill="#0574C5" d="M46.944,1.262h6.303v2.29h-3.679v5.557h2.521v2.161h-2.521v6.793h3.859v2.238h-6.484V1.262z
				 M50.212-3.832h2.419l-1.955,3.885h-1.802L50.212-3.832z"/>
			<path fill="#0574C5" d="M54.867,1.262h6.303v2.29h-3.679v5.557h2.521v2.161h-2.521v6.793h3.859v2.238h-6.484V1.262z"/>
			<path fill="#0574C5" d="M62.789,1.262h2.521l2.11,8.156c0.334,1.39,0.72,2.959,1.002,4.58h0.026
				c-0.077-1.595-0.128-3.859-0.128-4.708V1.262h2.264v19.039h-2.161l-2.366-8.748c-0.386-1.312-0.823-2.727-1.081-4.323h-0.051
				c0.103,1.004,0.128,3.86,0.128,4.503v8.568h-2.264V1.262z"/>
			<path fill="#0574C5" d="M72.744,1.262h2.521l2.111,8.156c0.334,1.39,0.72,2.959,1.002,4.58h0.026
				c-0.076-1.595-0.128-3.859-0.128-4.708V1.262h2.264v19.039h-2.162l-2.366-8.748c-0.386-1.312-0.823-2.727-1.081-4.323h-0.051
				c0.102,1.004,0.128,3.86,0.128,4.503v8.568h-2.264V1.262z"/>
			<path fill="#0574C5" d="M82.698,1.262H89v2.29h-3.678v5.557h2.521v2.161h-2.521v6.793h3.859v2.238h-6.483V1.262z"/>
			<path fill="#0574C5" d="M89.82,14.872l2.419-0.232c0.283,2.702,0.72,3.628,1.827,3.628c0.952,0,1.492-0.669,1.492-2.084
				c0-1.801-1.21-3.037-2.496-4.58c-1.416-1.699-2.933-3.371-2.933-6.124c0-2.727,1.363-4.399,3.756-4.399
				c2.83,0,3.704,1.903,4.039,5.171l-2.444,0.284c-0.257-2.65-0.695-3.165-1.595-3.165c-0.797,0-1.184,0.695-1.184,1.877
				c0,2.033,1.184,3.243,2.444,4.709c1.44,1.673,2.985,3.242,2.985,6.098c0,2.907-1.544,4.425-4.091,4.425
				C90.849,20.482,90.154,18.242,89.82,14.872z"/>
		</g>
		<g>
			<path fill="#0574C5" d="M126.506,0.962c-5.407,0-9.642,4.269-9.642,9.718c0,5.69,4.055,9.819,9.642,9.819
				c5.617,0,9.693-4.129,9.693-9.819C136.2,5.231,131.942,0.962,126.506,0.962z M126.506,18.575c-4.398,0-7.59-3.32-7.59-7.894
				c0-4.384,3.334-7.818,7.59-7.818c4.213,0,7.641,3.507,7.641,7.818C134.147,15.255,130.934,18.575,126.506,18.575z"/>
		</g>
		<g>
			<path fill="#0574C5" d="M141.258,20.121h2.001V1.008l-6.455,2.503v2.092l4.454-1.62V20.121z"/>
		</g>
		<g>
			<path fill="#0574C5" d="M151.633,20.121h2.001v-6.329h-5.577l6.385-7.769v6.986h5.013v-1.9h-3.087V0.91L144.08,15.616h7.554
				V20.121z"/>
		</g>
		<g>
			<g>
				<path fill="#FCAA06" d="M102.78,20.121h12.594v-1.9h-9.045l4.811-7.216c1.35-2.011,1.577-2.85,1.577-3.968
					c0-2.029-1.353-3.392-3.367-3.392c-1.788,0-3.156,1.234-3.43,3.081l1.874,0.297c0.114-0.974,0.677-1.529,1.557-1.529
					c0.793,0,1.391,0.663,1.391,1.542c0,0.832-0.354,1.663-1.308,3.068L102.78,20.121z"/>
			</g>
		</g>
		<g>
			<g>
				<g>
					<path fill="#FCAA06" d="M126.506,3.645c-3.803,0-6.783,3.091-6.783,7.036c0,4.121,2.853,7.112,6.783,7.112
						c3.945,0,6.809-2.991,6.809-7.112C133.315,6.735,130.324,3.645,126.506,3.645z M126.506,15.943
						c-2.74,0-4.807-2.273-4.807-5.288c0-2.894,2.111-5.161,4.807-5.161c2.71,0,4.833,2.267,4.833,5.161
						C131.339,13.669,129.261,15.943,126.506,15.943z"/>
				</g>
			</g>
		</g>
		<g>
			<g>
				<path fill="#FCAA06" d="M138.45,20.121h2.001V5.055l-2.001,0.736V20.121z"/>
			</g>
		</g>
		<g>
			<g>
				<g>
					<path fill="#FCAA06" d="M154.442,20.121h1.925v-4.504h3.087v-1.824h-5.013V20.121z M149.771,13.01h3.864V8.279L149.771,13.01z"
						/>
				</g>
			</g>
		</g>
		<g>
			<path fill="#0574C5" d="M107.841,17.438h7.533v-1.9h-3.909l1.901-2.838c1.848-2.759,2.209-4.184,2.209-5.714
				c0-3.716-2.386-6.024-6.226-6.024c-3.287,0-5.696,2.109-6.163,5.382l1.926,0.275c0.297-2.252,1.988-3.757,4.237-3.757
				c2.536,0,4.174,1.639,4.174,4.174c0,1.448-0.441,2.563-1.814,4.586L107.841,17.438z"/>
		</g>
	</g>
</g>
</svg>
