<?xml version="1.0" encoding="utf-8"?>
<!-- Generator: Adobe Illustrator 17.0.2, SVG Export Plug-In . SVG Version: 6.00 Build 0)  -->
<!DOCTYPE svg PUBLIC "-//W3C//DTD SVG 1.1//EN" "http://www.w3.org/Graphics/SVG/1.1/DTD/svg11.dtd">
<svg version="1.1" id="Calque_1" xmlns="http://www.w3.org/2000/svg" xmlns:xlink="http://www.w3.org/1999/xlink" x="0px" y="0px"
	 width="363.25px" height="40px" viewBox="0 0 363.25 40" enable-background="new 0 0 363.25 40" xml:space="preserve">
<g>
	<g>
		<path fill="#2A265D" d="M7.294,2.201L0.066,3.24L0,39.446l21.679-3.116l0.012-6.459L7.24,31.949L7.294,2.201z M28.788,39.634
			l15.807-2.272l0.012-6.459L28.8,33.175L28.788,39.634z M39.339,15.319l-10.846,1.559l-0.011,6.312l10.846-1.559L39.339,15.319z
			 M43.764,0L28.748,2.158l-0.012,6.657l15.016-2.158L43.764,0z M66.859,16.123c-4.3-0.703-6.732-1.381-6.727-4.265
			c0.004-2.158,1.689-3.86,4.748-4.3c3.192-0.459,6.334,1.144,8.057,3.971l5.022-4.926c-2.3-3.529-6.284-6.53-13.021-5.562
			c-7.049,1.013-11.844,5.76-11.857,12.513c-0.014,7.589,6.101,8.369,11.95,9.341c4.294,0.704,6.646,1.54,6.641,4.278
			c-0.005,2.789-2.402,4.506-5.727,4.983c-3.771,0.542-7.045-1.189-8.86-4.891l-5.453,4.35c2.424,4.839,6.853,7.923,13.942,6.904
			c9.137-1.313,13.137-7.076,13.147-12.896C78.736,18.136,72.621,17.012,66.859,16.123z M100.642,38.405l7.182-1.032l0.066-36.207
			l-7.182,1.032L100.642,38.405z M131.073,24.269l-0.087,0.013L117.349,3.259l-0.025,13.711l13.725,20.408l6.65-0.956l0.066-36.207
			l-6.65,0.956L131.073,24.269z M151.35,2.747l-2.74,0.394l-0.012,6.657l3.138-0.451c7.182-1.032,9.922,2.192,9.908,9.92
			c-0.015,8.221-2.728,12.132-9.863,13.158l-3.225,0.464l-0.012,6.459l2.74-0.394c9.881-1.42,17.564-7.22,17.589-20.821
			C168.897,4.921,161.365,1.307,151.35,2.747z M176.761,38.405l7.182-1.032l0.066-36.207l-7.182,1.032L176.761,38.405z
			 M207.284,16.122c-4.3-0.703-6.739-1.38-6.734-4.264c0.004-2.158,1.696-3.861,4.755-4.301c3.192-0.459,6.334,1.144,8.057,3.971
			l5.015-4.925c-2.294-3.53-6.277-6.531-13.021-5.562c-7.049,1.013-11.844,5.76-11.857,12.513c-0.014,7.589,6.101,8.369,11.95,9.341
			c4.3,0.703,6.645,1.54,6.641,4.278c-0.005,2.789-2.402,4.506-5.727,4.983c-3.764,0.541-7.045-1.189-8.853-4.891l-5.459,4.351
			c2.431,4.838,6.853,7.923,13.949,6.903c9.13-1.312,13.13-7.075,13.141-12.895C219.154,18.136,213.04,17.012,207.284,16.122z
			 M240.122,32.075c-4.961,0.713-7.705-3.684-7.691-11.318c0.014-7.487,2.682-12.515,7.649-13.229
			c3.857-0.554,5.448,2.057,6.505,6.058l6.833-3.183c-1.411-6.299-4.993-10.678-13.279-9.487
			c-8.292,1.192-14.907,8.306-14.93,20.879c-0.023,12.771,6.303,17.93,14.861,16.7c8.246-1.185,12.152-6.839,13.761-14.357
			l-6.78-0.684C245.893,28.56,243.979,31.521,240.122,32.075z M280.564,11.628c0.014-8.022-4.814-10.513-12.881-9.354l-5.14,0.739
			l-0.012,6.51l4.828-0.694c4.17-0.599,6.162,0.435,6.156,4.01c-0.007,3.67-2.004,5.278-6.174,5.877l-4.828,0.694l-0.011,6.158
			l4.076-0.586l6.805,12.67l7.621-1.095l-7.288-13.628C278.107,20.838,280.553,17.353,280.564,11.628z M289.295,39.024l15.8-2.271
			l0.012-6.459l-15.8,2.271L289.295,39.024z M300.174,15.697l-10.839,1.558l-0.012,6.312l10.839-1.558L300.174,15.697z M304.37,0.66
			l-15.009,2.157l-0.012,6.657l15.009-2.157L304.37,0.66z M314.778,39.1l7.056-1.014l0.054-29.55l9.795-1.408l0.012-6.657
			l-16.851,2.422L314.778,39.1z M351.13,16.122c-4.3-0.703-6.739-1.38-6.734-4.264c0.004-2.158,1.696-3.861,4.755-4.301
			c3.192-0.459,6.333,1.144,8.057,3.971l5.015-4.925c-2.294-3.53-6.277-6.531-13.02-5.562c-7.049,1.013-11.844,5.76-11.857,12.513
			c-0.014,7.589,6.101,8.369,11.95,9.341c4.3,0.703,6.646,1.54,6.641,4.278c-0.005,2.789-2.402,4.506-5.727,4.983
			c-3.764,0.541-7.045-1.189-8.853-4.891l-5.459,4.351c2.431,4.838,6.853,7.923,13.949,6.903c9.131-1.312,13.13-7.075,13.141-12.895
			C363,18.136,356.885,17.012,351.13,16.122z"/>
	</g>
</g>
</svg>
